<?xml version="1.0" encoding="utf-8"?>
<!-- Generator: Adobe Illustrator 26.5.0, SVG Export Plug-In . SVG Version: 6.00 Build 0)  -->
<svg version="1.1" id="Layer_1" xmlns="http://www.w3.org/2000/svg" xmlns:xlink="http://www.w3.org/1999/xlink" x="0px" y="0px"
	 viewBox="0 0 673 354.5" style="enable-background:new 0 0 673 354.5;" xml:space="preserve">
<g>
	<g>
		<g>
			<path d="M254.9,90.9c-4.5,1-9.2,2.2-12.9,5.1c-10.8,8.5-11.8,26.6,0.7,35.2c0,0,0,0,0,0c0.2-0.1,0.4-0.1,0.6,0.1c0,0,0,0,0,0
				c0.2-0.1,0.5-0.1,0.7,0.1c0.2,0.2,0.2,0.3,0,0.5c0.1,0,0.1,0.1,0.1,0.2c0.3,0.1,0.5,0.3,0.8,0.4c5.9,3.1,12.3,6.2,18.4,9
				c1.9,0.9,3.8,1.8,5.4,3.1c2.5,1.9,4.1,4.8,4.2,7.9c0.1,0,0.1,0,0.2,0.1c0.3,0.3,0.2,0.6-0.2,0.6c0,0.7-0.1,1.4-0.3,2.1
				c-1.2,4.4-4.6,7.2-9,7.8c-5.1,0.7-9.7-0.6-13.9-3.5c-3.7-2.7-5.9-6.9-7.8-10.9c-1.2-2.4-2.6-3.1-4.7-2.8
				c-2.2,0.3-3.1,1.9-3.5,3.8c-0.4,2.3-0.8,4.6-0.9,6.9c-0.2,5.1,2.3,9.1,7,11c5.2,2.1,10.5,3.3,16.1,3.2c5.1,0.1,10-0.9,14.8-2.6
				c4.9-1.7,9-4.6,11.7-9c5.4-8.1,4.1-16,4.1-16.5c-0.2-4.6-2-8.5-5.1-11.9c-3.8-4.3-8.9-6.4-14-8.6c-3.7-1.6-7.5-3.7-11.2-5.5
				c-2.3-1.1-4.6-2.5-6.4-4.3c-1.9-2-2.7-4.4-2.5-6.6c-0.2,0.1-0.5,0.2-0.7,0c-0.3-0.3-0.3-0.8,0.1-1.2c0.2-0.2,0.6-0.3,0.9-0.3
				c0.8-3,3.2-5.6,6.9-6.5c7.4-1.7,14.7,1.5,18.6,8c0.8,1.4,1.5,2.8,2.4,4.1c1.1,1.6,2.7,2.1,4.5,1.7c1.9-0.4,3-1.7,3.3-3.6
				c0.3-1.8,0.6-3.6,0.7-5.5c0.5-5-3.5-9.7-7.6-10.9C269.5,89.7,262.2,89.3,254.9,90.9z M238.5,106.7c-0.5,0.4-0.9,0.1-0.7-0.6
				c0.2-0.7,0.5-0.9,0.8-0.5C239,105.9,238.9,106.4,238.5,106.7z M242.7,120.3c-0.2-0.1-0.3-0.3-0.3-0.6c0-0.5,0.6-0.7,1-0.3
				c0.1,0.1,0.3,0.3,0.3,0.4C243.6,120.1,243,120.4,242.7,120.3z M237.2,157.6c0.2,0,0.4,0.2,0.5,0.5c0.1,0.3,0,0.5-0.2,0.8
				c-0.5,0.4-0.7,0.2-0.7-0.6C236.8,157.7,236.9,157.6,237.2,157.6z M236.6,161c0.1-0.8,0.7-0.8,0.9-0.1c0.2,0.7,0.2,0.8-0.1,1
				C236.9,162.2,236.5,161.7,236.6,161z M237.8,163c-0.6-0.2-0.6-0.7-0.1-1.1l0.4-0.4l0.3,0.5c0.2,0.3,0.3,0.5,0.3,0.6
				C238.7,162.9,238.1,163.2,237.8,163z M238.5,157.7c-0.2,0-0.3-0.1-0.3-0.2c0-0.2,0.3-0.4,0.5-0.2
				C238.9,157.5,238.8,157.7,238.5,157.7z M240.9,153.7c0.3-0.5,0.7-0.5,1,0c0.4,0.4,0.3,0.6-0.3,0.9c-0.4,0.1-0.5,0.1-0.8-0.1
				C240.7,154.1,240.7,154,240.9,153.7z M241.7,162.4c-0.5,0-0.6-0.8-0.2-1.2c0.2-0.2,0.3-0.2,0.5,0.1
				C242.3,161.9,242.1,162.5,241.7,162.4z M242.8,157.8c0,0.1-0.1,0.1-0.1,0.1c0.1,0.3,0.1,0.3-0.3,0.6c-0.2,0.2-0.5,0.3-0.6,0.3
				c-0.2,0-0.5-0.5-0.5-0.8c-0.3-0.3-0.3-0.8,0.2-1.3c0.3-0.3,0.4-0.4,0.8-0.2c0.2,0.1,0.4,0.4,0.4,0.7
				C242.8,157.4,242.8,157.7,242.8,157.8z M247.8,163.9c-0.3,0.2-0.9-0.3-0.9-0.6c0-0.3,0.5-0.5,0.9-0.3
				C248.1,163.1,248.1,163.7,247.8,163.9z M285.7,149.6c0.2,0.5,0.2,0.7-0.2,1c-0.5,0.3-0.9-0.1-0.8-0.7
				C284.7,149.1,285.4,148.9,285.7,149.6z M281.5,156.6c0.1-0.1,0.3-0.1,0.5,0c0.4,0.2,0.3,0.9-0.1,0.9
				C281.4,157.5,281.2,156.9,281.5,156.6z M275.6,161.1c-0.5,0-0.6-0.1-0.5-0.6c0-0.6,0.4-0.8,0.9-0.6c0.2,0.1,0.3,0.4,0.2,0.7
				C276.2,161.1,276.1,161.1,275.6,161.1z M279.8,160.4c0.4,0,0.6,0.7,0.3,0.9c-0.3,0.3-0.7,0.2-0.9-0.2
				C279,160.7,279.3,160.3,279.8,160.4z M277.9,131c0.2,0,0.4,0.2,0.4,0.3c0,0.2-0.2,0.3-0.4,0.3c-0.2,0-0.4-0.2-0.4-0.3
				C277.6,131.1,277.7,131,277.9,131z M276.8,142.7c0.4,0.3,0.3,0.7-0.2,0.9c-0.5,0.2-1-0.2-0.9-0.7
				C275.9,142.5,276.4,142.4,276.8,142.7z M274.7,132.2c0.5-0.3,0.5-0.2,0.8,0.1c0.4,0.4,0.4,0.5-0.1,0.9c-0.3,0.3-0.5,0.3-0.9,0.1
				C274,133,274.1,132.5,274.7,132.2z M270.9,132.4c0.2-0.5,0.7-0.7,1-0.4c0.4,0.4,0.3,0.9-0.3,1.1C271,133.3,270.7,133,270.9,132.4
				z M271.5,134.3c0.2,0.1,0.3,0.3,0.2,0.5c-0.1,0.4-0.7,0.5-1,0.2C270.4,134.6,271.1,134.1,271.5,134.3z M265.6,132.4
				c0.3,0,0.6,0.1,0.7,0.2c0.3,0.4-0.5,0.9-1,0.7c-0.2-0.1-0.3-0.3-0.3-0.5C265.1,132.5,265.2,132.4,265.6,132.4z M251.8,132.6
				c-0.2,0-0.3-0.3-0.3-0.5c0-0.3,0.1-0.4,0.3-0.4c0.2,0,0.4,0.1,0.4,0.3C252.4,132.3,252.1,132.7,251.8,132.6z M258.4,131.1
				c0.3-0.3,0.9-0.2,1,0.1c0.2,0.7-0.2,1.2-0.9,0.9C258.1,132,258,131.4,258.4,131.1z M257.3,132.2c0.5,0.2,0.2,0.8-0.3,0.8
				c-0.3,0-0.5-0.2-0.5-0.4C256.4,132.3,256.9,132,257.3,132.2z M255.5,132.8c0.3,0.5,0.3,0.8-0.1,1c-0.4,0.3-0.7,0-0.6-0.6
				C254.8,132.6,255.2,132.3,255.5,132.8z M253.4,132.1c0.3-0.3,0.8-0.3,1.1,0c0.3,0.4,0.1,0.8-0.4,0.8
				C253.4,133,253,132.5,253.4,132.1z M251.3,129.7c0.3-0.3,0.4-0.3,0.6,0.1c0.2,0.4,0.2,0.7,0,0.8c0.1-0.1,0.2-0.1,0.3-0.1
				c0.4,0,0.4,0,0.4,0.4c-0.1,0.3-0.2,0.4-0.5,0.5c-0.4,0-0.4,0-0.4-0.4c0-0.1,0.1-0.2,0.2-0.3c-0.1,0-0.1,0.1-0.2,0
				C251.1,130.7,250.8,130.1,251.3,129.7z M249.5,132.5c0.1-0.6,0.9-0.7,1.2-0.2c0.3,0.4,0.1,0.8-0.5,0.9
				C249.7,133.3,249.4,133,249.5,132.5z M247.8,113.7c0.3-0.1,0.4-0.1,0.5,0.1c0.2,0.4,0.1,0.7-0.5,0.6
				C247.3,114.4,247.2,114,247.8,113.7z M244.7,98.4c0.2,0,0.3,0.1,0.3,0.2c0,0.1-0.1,0.2-0.3,0.2c-0.2,0-0.3-0.1-0.3-0.2
				C244.4,98.4,244.6,98.4,244.7,98.4z M245.1,131.2c-0.4,0.1-0.9-0.2-1-0.8c-0.1-0.7,0.3-1,0.9-0.5
				C245.5,130.2,245.6,131,245.1,131.2z M245.6,101.6c-0.1,0.2-0.2,0.4-0.4,0.4c-0.4,0-0.3-0.8,0.1-0.8
				C245.6,101.2,245.7,101.3,245.6,101.6z M249.8,94.3c-0.2,0.4-0.8,0.3-1-0.1c-0.1-0.2,0-0.4,0.2-0.6c0.3-0.2,0.4-0.2,0.6,0
				C250,93.9,250,93.9,249.8,94.3z M251.8,96.3c-0.4-0.2-0.1-1.3,0.3-1.5c0.3-0.1,0.4-0.1,0.7,0.3c0.2,0.3,0.3,0.6,0.3,0.7
				C253,96.2,252.1,96.5,251.8,96.3z M254.3,96.2c-0.4-0.3-0.4-0.9,0.1-1.1c0.3-0.1,0.5-0.1,0.7,0.1C255.7,95.7,255,96.6,254.3,96.2
				z M257.4,93.7c-0.3-0.1-0.4-0.2-0.4-0.7c0-0.8,0.5-1,1-0.4C258.3,93.2,258,93.8,257.4,93.7z M266.1,94.6
				c-0.5-0.1-0.6-0.9-0.1-0.9c0.2,0,0.4,0.1,0.5,0.2c0.1,0.1,0.1,0.3,0.1,0.5C266.5,94.6,266.4,94.6,266.1,94.6z M271.3,91.9
				c-0.1-0.3,0.3-0.6,0.7-0.5c0.1,0.1,0.2,0.3,0.2,0.5C272.2,92.4,271.5,92.4,271.3,91.9z M274.1,93.4c-0.1,0-0.2-0.2-0.2-0.4
				c0-0.2,0.1-0.4,0.2-0.4c0.1,0,0.2,0.2,0.2,0.4C274.3,93.3,274.2,93.4,274.1,93.4z M275.1,104.6c-0.5-0.1-0.6-0.2-0.6-0.6
				c0-0.3,0.1-0.6,0.4-0.8c0.4-0.3,0.4-0.3,0.7,0c0.2,0.2,0.3,0.6,0.2,0.9C275.8,104.6,275.7,104.7,275.1,104.6z M279,102.9
				c0.2-0.2,0.4-0.2,0.6,0c0.4,0.3,0.3,0.7-0.1,0.9C278.8,104.2,278.4,103.3,279,102.9z M277.1,102c-0.6,0.4-1,0.1-0.9-0.6
				c0.1-0.7,0.6-0.8,1-0.3C277.6,101.6,277.6,101.7,277.1,102z"/>
		</g>
		<g>
			<path d="M314.6,254.9c6.2-2.6,10.6-7,12.9-13.4c0.6-1.7,0.8-3.6,0.6-5.4c-0.2-2.1-2-3.1-3.8-2.4c0,0.1,0,0.2,0,0.3
				c0,0.6-0.6,0.5-0.7,0c-0.2,0.1-0.3,0.2-0.5,0.3c-0.1,0.1-0.1,0.1-0.2,0.2c0.2,0.3,0,0.5-0.5,0.5c0,0-0.1,0-0.1,0
				c-1,0.9-1.9,1.9-2.9,2.9c-2.5,2.3-5.2,4.1-8.6,4.8c-17.1,3.5-27.5-11.2-28.2-24.6c-0.2-3.5-0.4-6.3,2.9-6.3
				c5,0.1,11.1-0.3,17.1-0.4c-0.3-0.2-0.4-0.7-0.1-0.9c0.4-0.2,0.5-0.2,0.8,0.2c0.2,0.3,0.1,0.5-0.1,0.7c2.4,0,4.7,0,7,0
				c0-0.3,0-0.6,0.2-0.8c0.3-0.6,1-0.5,1.3,0.2c0.1,0.2,0.2,0.5,0.2,0.7c1.7,0.1,3.3,0.2,4.9,0.4c1,0.1,1.9,0.4,2.9,0.5
				c7,0.4,11.4-4.4,10.5-11.3c-0.7-5.1-2.5-9.7-5.4-13.9c-5.7-8.2-16.6-12.9-26-9.9c-1.2,0.4-2.5,0.6-3.8,1c-3.3,1-6.6,2.3-9.5,4.2
				c0,0,0.1,0,0.1,0.1c0.2,0.4,0.1,0.8-0.4,0.8c-0.2,0-0.4-0.2-0.4-0.5c0,0,0,0,0,0c-1,0.7-2,1.4-2.9,2.2c-2.4,2.1-4.5,4.6-6.1,7.4
				c-3.2,5.7-4.8,12.8-5.5,19.3c0.1,0,0.1,0.1,0.2,0.1c0.4,0.3,0.3,0.8-0.1,1.2c-0.1,0.1-0.1,0.1-0.2,0.1c-0.5,6.9,0.1,14.5,2,21.1
				C277.6,253.5,298,261.9,314.6,254.9z M325,234.5c0.2,0.4,0.2,0.6-0.2,1c-0.4,0.5-0.9,0.2-0.8-0.6
				C324.1,234.3,324.7,234,325,234.5z M323.3,237c0.3,0,0.6,0,0.7,0.1c0.5,0.4-0.3,1.2-0.9,0.9C322.6,237.8,322.7,237.1,323.3,237z
				 M305.2,253c0.4,0.2,0.3,0.9-0.2,1c-0.5,0.1-0.8-0.1-0.7-0.5C304.3,253,304.7,252.8,305.2,253z M325.9,201.4
				c0.3,0,0.4,0.1,0.3,0.4c-0.1,0.6-0.8,0.6-0.7,0C325.5,201.5,325.6,201.4,325.9,201.4z M318.7,207.1c0.2,0,0.5,0.1,0.6,0.2
				c0.3,0.3-0.1,0.7-0.5,0.7c-0.3,0-0.5-0.2-0.5-0.5C318.2,207.2,318.3,207.1,318.7,207.1z M316.6,202.1c0.5-0.3,0.9,0,0.9,0.4
				c0,0.1,0.1,0.4,0.2,0.5c0.1,0.1,0.3,0.4,0.2,0.6c0,0.5-0.6,1.1-1,1.1C316,204.6,315.7,202.6,316.6,202.1z M308.4,179.8
				c0.4,0,0.1,0.7-0.4,0.7c-0.2,0-0.4,0-0.4-0.1C307.7,180.1,308.1,179.8,308.4,179.8z M290.1,182.3c0.4,0.3,0.3,1-0.1,1.3
				c-0.5,0.3-1.1-0.2-1-0.8C289.2,182.2,289.7,181.9,290.1,182.3z M284.6,196.5c1.6-3.8,2.9-7.6,6.3-9.9c1.9-1.3,3.1-1.9,7.5-2.3
				c6.8,0.4,14,6.4,15.1,13c0.8,4.7-2.2,8.6-7,8.7c-5.2,0.1-14.8,0.1-20.1,0C281.4,205.9,282.7,201.2,284.6,196.5z M271.7,231.1
				c-0.2-0.2-0.3-0.4-0.1-0.7c0.2-0.4,0.5-0.5,0.8-0.1C272.9,230.9,272.3,231.6,271.7,231.1z M278.8,193.7c0.3-0.3,0.3-0.3,0.5-0.1
				c0.2,0.4,0.2,0.3,0,0.7c-0.2,0.3-0.9,0.3-0.8,0C278.5,194.2,278.6,193.9,278.8,193.7z M276.6,199c-0.3,0-0.3-0.2-0.3-0.6
				c0-0.6,0.4-0.9,0.9-0.6C277.7,198.1,277.3,199.1,276.6,199z M278.1,226.8c-0.5,0-0.6-0.4-0.3-1c0.1-0.3,0.7-0.4,0.9-0.1
				C279.1,226,278.7,226.8,278.1,226.8z M279.6,245.4c-0.1,0.2-0.3,0.2-0.4,0c-0.2-0.3,0.1-1.2,0.5-1.3
				C279.9,244,279.9,245,279.6,245.4z M280.8,220c-0.5,0.1-1-0.1-0.9-0.5c0-0.5,0.3-0.6,0.9-0.4C281.3,219.2,281.4,219.8,280.8,220z
				 M287.4,238.2c-0.4-0.4-0.3-0.7,0.2-1.1c0.5-0.4,0.7-0.4,1,0c0.2,0.3,0.2,0.4,0,0.7C288.1,238.4,287.7,238.6,287.4,238.2z
				 M288.7,252.1c0-0.2,0.1-0.3,0.3-0.3c0.2,0,0.3,0.1,0.2,0.3C289,252.5,288.7,252.5,288.7,252.1z M290,252.7
				c-0.5,0.6-1.1-0.1-0.6-0.7c0.3-0.3,0.3-0.3,0.5,0.1C290.2,252.4,290.2,252.6,290,252.7z"/>
		</g>
		<g>
			<path d="M332.8,227c0.2-0.2,0.5-0.3,0.8-0.1c0.5,0.4,0.1,1.7-0.4,1.8c0.5,2.3,1.1,4.5,1.9,6.6c0.1,0,0.3,0,0.4,0.1
				c0.2,0.1,0.3,0.4,0.3,0.6c0,0.1-0.1,0.2-0.2,0.3c0.2,0.5,0.4,0.9,0.6,1.4c1.5,3.3,3.3,6.5,5.5,9.3c0.1,0,0.3,0.1,0.4,0.4
				c0.7,0.9,1.5,1.7,2.3,2.4c7.9,6.9,17.1,8.7,27.2,6.7c6.5-1.3,11.9-4.7,15.8-10c1.3-1.8,2.1-4,2.9-6.3c-0.4,0.2-0.8,0-0.8-0.4
				c0-0.6,0.5-0.8,0.9-0.4c0.1,0.1,0.1,0.1,0.1,0.2c0.1-0.4,0.2-0.7,0.4-1.1c0.5-1.5-0.3-3.1-1.8-3.6c-1-0.4-2.3,0-3.4,0.3
				c-0.7,0.2-1.2,0.8-1.8,1.3c-1.4,1.2-2.8,2.1-4.3,2.8c0,0.1,0.1,0.2,0,0.4c0,0.1,0,0.1-0.1,0.1c0.1,0.2,0.1,0.3-0.1,0.5
				c-0.3,0.2-0.6,0.1-0.8-0.1c-0.1,0-0.2-0.1-0.3-0.2c0,0,0-0.1-0.1-0.1c-0.4,0.2-0.8,0.3-1.2,0.4c0,0,0,0,0,0
				c-0.2,0.2-0.4,0.3-0.7,0.2c0,0,0,0,0,0c0,0,0,0-0.1,0c-4.2,1.1-8.6,0.6-13-0.9c-0.1,0.1-0.2,0.1-0.3,0.1c-0.3,0-0.5-0.2-0.7-0.4
				c-0.2-0.1-0.3-0.1-0.5-0.2c-1.2-0.4-2.2-1-3.2-1.7c0.1,0,0.2,0.1,0.2,0.2c0.3,0.5,0.3,0.7-0.2,1.2c-0.6,0.7-1.3,0-0.9-1
				c0.2-0.4,0.5-0.6,0.8-0.5c-3.8-2.6-6.5-6.5-8.3-10.7c-2.5-5.7-3.8-11.9-3.3-18.2c0.4-6.2,0.7-9.1,3.5-14.5
				c0.9-1.8,3.3-4.8,5.4-6.6c0,0-0.1,0-0.1-0.1c-0.2-0.6,0.7-1.1,1-0.7c0.2-0.1,0.4-0.3,0.5-0.4c3.3-2,6.5-1.6,9.2,0.2c0,0,0,0,0,0
				c0.4-0.5,0.8-0.6,0.9-0.2c0.1,0.3,0.1,0.6,0,0.9c0.6,0.5,1.2,1,1.8,1.7c5.7,6.2,9.1,17.1,14.2,17.1c7.8,0,6.3-11.7,6.2-16.4
				c-0.2-6.9-4.2-11.2-22.8-13c-5.3-0.5-11.3,1.4-15.8,4c-6,3.4-10.7,8.8-13.9,14.9c-3.9,7.3-4.3,16-4.8,23.7
				C332.1,221.7,332.4,224.4,332.8,227z M380.9,239.3c0.2,0,0.3,0.2,0.3,0.3c0,0.2-0.2,0.3-0.3,0.3c-0.2,0-0.3-0.2-0.3-0.3
				C380.6,239.5,380.8,239.3,380.9,239.3z M376,252.6c0.1,0.3,0.1,0.6,0.2,0.7c0,0.4-0.6,0.6-1.1,0.5c-0.5-0.1-0.5-0.2-0.5-0.8
				C374.5,251.8,375.6,251.4,376,252.6z M369.4,251.9c0.1,0.1,0.2,0.2,0.2,0.3c0,0.3-0.4,0.4-0.5,0.2
				C368.9,252.1,369.2,251.7,369.4,251.9z M352.8,236.4c0.3-0.1,0.4-0.1,0.8,0.4c0.5,0.6,0.5,1.1,0.1,1.4c-0.3,0.3-1,0.2-1.3-0.1
				C352.2,237.7,352.4,236.6,352.8,236.4z M383.2,201.5c0-0.5,0.5-0.8,0.9-0.7c0.2,0.1,0.3,0.3,0.2,0.6
				C384.2,202,383.2,202.1,383.2,201.5z M383.9,188.4c0-0.7,0.3-0.8,0.8-0.5c0.6,0.3,0.3,1-0.3,1.1
				C383.9,188.9,383.9,188.9,383.9,188.4z M383.9,190.4c0.3,0.3,0.2,0.6-0.1,0.9c-0.3,0.2-0.4,0.2-0.7-0.2c-0.2-0.2-0.3-0.5-0.2-0.7
				C383.1,190,383.6,190,383.9,190.4z M379.3,185c0.2,0.2,0,0.7-0.4,0.7c-0.3,0-0.3-0.1-0.3-0.5C378.6,184.8,379,184.7,379.3,185z
				 M378.1,196.3c0.4-0.4,0.7-0.5,1-0.1c0.1,0.2,0.1,0.4,0.1,0.5c0.1,0,0.3,0,0.4,0.1c0.4,0.2,0.4,0.6,0,0.9c-0.4,0.3-0.8,0.1-1-0.4
				c0-0.1,0-0.2,0-0.3c-0.2,0-0.4,0-0.6-0.1C377.7,196.7,377.7,196.7,378.1,196.3z M377.5,200.1c0.2-0.5,0.5-0.6,0.7-0.3
				c0.2,0.2,0.1,0.8-0.2,1C377.5,201.1,377.3,200.7,377.5,200.1z M375.7,188.9c0.3-0.5,1.1-0.6,1.4-0.1c0.4,0.7-0.1,1.6-0.8,1.5
				C375.6,190.3,375.3,189.5,375.7,188.9z M353.7,187.4c0.4,0.1,0.6,0.4,0.4,0.6c-0.3,0.3-0.8,0.1-0.8-0.3
				C353.3,187.4,353.4,187.3,353.7,187.4z M344.5,235.8c-0.5,0.1-0.8-0.2-0.8-0.7c0.1-0.6,0.7-0.7,1.1-0.2
				C345.1,235.3,344.9,235.7,344.5,235.8z M347.4,237.1c0.3,0.5,0,1.2-0.4,1.2c-0.3,0-0.4-0.2-0.4-0.7
				C346.5,237,347.1,236.6,347.4,237.1z M346.5,211.6c-0.1,0.4-1,0.3-1.1-0.1c0-0.3,0.6-0.6,0.9-0.4
				C346.5,211.3,346.6,211.5,346.5,211.6z M346.2,198c0.3,0.3,0.3,0.6,0,0.9c-0.3,0.3-0.8,0.2-1.1-0.2
				C344.6,198.1,345.6,197.4,346.2,198z M345,228.3c-0.4-0.3-0.3-1,0.5-1.2c0.3-0.1,0.5,0,0.7,0.2c0.2,0.2,0.2,0.5,0.2,0.8
				c-0.1,0.4-0.2,0.5-0.7,0.4c-0.2,0-0.3-0.1-0.4-0.1c0.1,0,0.1,0.1,0.2,0.2c0.3,0.5,0.3,0.6-0.2,0.8c-0.6,0.3-1,0-0.9-0.6
				C344.4,228.4,344.7,228.2,345,228.3z M344.3,196.9c0.2,0.2,0.2,0.7,0,1c-0.2,0.3-0.8,0.1-0.8-0.3
				C343.5,197.3,344.1,196.7,344.3,196.9z M342,235.6c0.2-0.1,0.5,0,0.6,0.3c0.3,0.7-0.4,1.2-0.9,0.6c-0.2-0.2-0.2-0.4,0-0.6
				c0,0,0.1-0.1,0.1-0.1c-0.1,0-0.1,0.1-0.2,0c-0.3,0-0.4-0.2-0.4-0.5c0-0.3,0.1-0.4,0.3-0.4c0.2,0,0.4,0.1,0.5,0.2
				C342.1,235.2,342.1,235.4,342,235.6z M341.8,232.2c0.4,0.4-0.1,1-0.6,0.9c-0.3-0.1-0.4-0.2-0.4-0.6
				C340.9,232,341.4,231.8,341.8,232.2z M340.3,236.6c0.5-0.7,1.3-0.5,1.7,0.4c0.2,0.4,0.3,0.7,0.3,0.7c0,0-0.4,0-0.9-0.1
				C340.1,237.6,339.9,237.3,340.3,236.6z M339,232.5c0.1-0.1,0.3-0.1,0.5,0c0.2,0.1,0.3,0.4,0.2,0.6c0,0.4-0.1,0.5-0.4,0.4
				C338.9,233.3,338.7,232.7,339,232.5z M337.1,227.2c0.3-0.7,0.3-0.7,0.8-0.2c0.4,0.5,0.3,1.3-0.2,1.3
				C337,228.3,336.8,227.9,337.1,227.2z M336.2,227.9c0.2,0,0.4,0.2,0.5,0.4c0.2,0.5,0,0.8-0.5,0.7
				C335.6,228.9,335.6,227.9,336.2,227.9z M334.1,224.7c0.3,1-0.2,1.5-1,1.2c-0.5-0.2-0.5-1.1,0.1-1.6
				C333.6,223.9,333.9,224.1,334.1,224.7z"/>
		</g>
		<g>
			<path d="M590.2,254.2c5.2,2.1,10.5,3.3,16.1,3.2c3.9,0,7.6-0.5,11.3-1.5c0-0.5,0.1-1.2,0.5-1.4c0.2-0.2,0.3-0.1,0.5,0.2
				c0.2,0.2,0.2,0.6,0.2,0.9c0.8-0.2,1.5-0.5,2.3-0.7c4.9-1.7,9-4.6,11.7-9c5.4-8.1,4.1-16,4.1-16.5c-0.2-4.6-2-8.5-5.1-11.9
				c-3.8-4.3-8.9-6.4-14-8.6c-0.6-0.2-1.1-0.5-1.7-0.8c-0.1,0.1-0.2,0.1-0.3,0.1c-0.2,0-0.4-0.2-0.4-0.5c-2.9-1.4-5.9-3-8.8-4.4
				c-2.3-1.1-4.6-2.5-6.4-4.3c-4.9-5.1-2.4-13,4.6-14.5c7.4-1.7,14.7,1.5,18.6,8c0.7,1.1,1.3,2.3,2,3.5c0.3-0.1,0.5,0,0.8,0.4
				c0.2,0.4,0.3,0.7,0.2,0.9c1.1,1.1,2.4,1.4,4,1c1.9-0.4,3-1.7,3.3-3.6c0.3-1.8,0.6-3.6,0.7-5.5c0.5-5-3.5-9.7-7.6-10.9
				c-7.3-2.1-14.5-2.5-21.8-0.8c-4.5,1-9.2,2.2-12.9,5.1c-8.3,6.5-10.8,18.8-5.8,28c0.1-0.5,0.4-0.7,0.7-0.6
				c0.4,0.1,0.5,0.2,0.6,0.7c0,0.3,0.1,0.6,0.1,0.7c0,0.2-0.3,0.4-0.6,0.6c1.9,2.9,4.5,5.4,8,7.2c5.9,3.1,12.3,6.2,18.4,9
				c1.9,0.9,3.8,1.8,5.4,3.1c3.2,2.5,5.1,6.5,3.9,10.7c-1.2,4.4-4.6,7.2-9,7.8c-5.1,0.7-9.7-0.6-13.9-3.5c-3.7-2.7-5.9-6.9-7.8-10.9
				c-1.2-2.4-2.6-3.1-4.7-2.8c-2.2,0.3-3.1,1.9-3.5,3.8c-0.4,2.3-0.8,4.6-0.9,6.9C582.9,248.3,585.4,252.3,590.2,254.2z
				 M632.6,186.8c0.4,0.2,0.3,1.3-0.1,1.2c-0.2,0-0.4-0.2-0.4-0.5C631.9,186.9,632.2,186.7,632.6,186.8z M631.8,194.9
				c-0.4,0.4-0.7,0.4-1,0c-0.5-0.6,0.6-1.7,1.1-1.1C632.3,194.1,632.2,194.5,631.8,194.9z M630.8,186.6c0.2-0.2,0.4-0.1,0.7,0.2
				c0.3,0.4,0.3,0.5,0.1,0.7c-0.2,0.2-0.4,0.2-0.7,0C630.4,187.2,630.4,186.9,630.8,186.6z M622.2,184.4c0.4-0.3,1.1-0.2,1.3,0.3
				c0.5,0.8,0.1,1.9-0.8,1.8C622,186.4,621.6,184.9,622.2,184.4z M620.1,185.8c0.2-0.3,0.7-0.5,0.9-0.4c0.3,0.2,0.1,1-0.2,1.1
				C620.4,186.7,619.9,186.1,620.1,185.8z M616.9,180.8c0.3-1,1.1-1.2,1.4-0.3c0.2,0.6,0.2,0.8-0.2,1.2
				C617.4,182.3,616.6,181.7,616.9,180.8z M600.5,184.9c0.2-0.6,0.4-0.8,0.7-0.7c0.3,0.2,0.2,1.2-0.2,1.3
				C600.5,185.7,600.3,185.5,600.5,184.9z M591.5,205.6c-0.2,0-0.4-0.2-0.4-0.3c0-0.2,0.2-0.3,0.4-0.3c0.2,0,0.4,0.2,0.4,0.3
				C591.9,205.5,591.7,205.6,591.5,205.6z M594.4,186.5c-0.4,0.4-0.8,0.3-1-0.2c-0.2-0.5-0.2-1.1,0.2-1.4c0.3-0.3,0.4-0.2,0.8,0.3
				C594.8,185.8,594.9,186.2,594.4,186.5z M605,214c-0.2,0-0.3-0.2-0.3-0.4c0-0.4,0.3-0.6,0.5-0.4C605.4,213.5,605.2,214,605,214z
				 M622.3,231.1c-0.3,0-0.3-0.1-0.3-0.5c0-0.5,0.4-0.6,0.7-0.3C622.9,230.6,622.7,231.1,622.3,231.1z M627,244.5
				c0.2,0.3,0.1,0.5-0.3,0.5c-0.1,0-0.3-0.2-0.2-0.4C626.5,244.2,626.7,244.2,627,244.5z M615.5,251.1c0.3,0,0.3,0.1,0.2,0.5
				c-0.1,0.7-0.7,0.7-0.6,0C615.2,251.3,615.3,251.1,615.5,251.1z M602.9,254.5c0.2,0,0.3,0.2,0.3,0.4c0,0.5-0.5,0.4-0.5-0.1
				C602.7,254.6,602.8,254.4,602.9,254.5z M601.1,254c0.1,0,0.2,0.1,0.2,0.3c0,0.2-0.1,0.2-0.2,0.2c-0.1-0.1-0.2-0.2-0.2-0.3
				C600.9,254.1,601,254,601.1,254z"/>
		</g>
		<g>
			<path d="M475.9,74.5c1.6,2.5,2.3,5.1,2.3,8c0,4.3,0.3,8.6,0.3,12.8c0,7.8-0.2,13.5-0.3,21.3c0,0.7,0,1.5,0,2.3
				c0.1,0,0.2,0.1,0.3,0.2c0.1,0.3-0.1,0.6-0.3,0.8c0,10.3-0.1,20.8,0,31.2c0,2.9-0.3,5.6-2.1,8c-1.4,2-1.2,4.2,0.3,6.2
				c1.2,1.6,3.1,2,5,2c4.2,0.1,8.4,0,12.5-0.2c4.7-0.2,7-4.2,4.7-8.4c-3-5.5-2.3-11.2-1.3-16.9c0.5-2.7,3.3-3.4,5.4-1.6
				c0.6,0.5,1,1.1,1.4,1.7c4.7,5.8,10.2,12,14.5,18.1c5.7,8,13.6,8.4,22,7.4c2-0.2,3.3-1.7,3.8-3.6c0.6-1.8-0.2-3.3-1.6-4.5
				c-2.1-1.9-4.2-3.8-6-6c-6.8-8.4-14-17.4-20.8-25.8c-2.2-2.7-3.4-3.3-5.3-6.5c-0.3-0.5,12.2-10.6,15.4-14.3
				c3.4-2.1,6.7-4.4,10.1-6.5c1.6-1,4.9-2.8,5.2-6.6c-0.3-1.9-2.9-1.3-5-1.7c-2.5,0.2-5,0.1-6.7,0c-4.6-0.3-8.4,1.4-9.3,4.7
				c-0.7,2.7-1.1,5.2-1.5,8.1c-5.5,4.7-12.1,10.4-15.1,12.8c0.2,0,0.3,0.1,0.5,0.2c0.5,0.5,0.3,1.3-0.3,1.4c-0.6,0-0.9-0.4-0.8-1
				c0,0,0-0.1,0-0.1c0,0,0,0-0.1,0c-0.1,0.1-0.3,0.1-0.4,0.2c0,0.2-0.2,0.4-0.5,0.5c-0.1,0-0.3,0-0.4,0c-2.9,1.8-5.3,4.3-5.9,1
				c-0.1-0.6,0.2-6.3,0.2-6.9c0-6.1,0-10,0-16.2c0-0.1,0-0.2,0-0.4c-0.1-0.1-0.1-0.3-0.1-0.5c0-0.2,0.1-0.3,0.1-0.5
				c0.1-1.6,0.2-3.2,0.2-4.9c0.1-3.7,0-7.3,0.3-11c0.3-3.8,0.4-7.6-0.7-11.3c-1.1-3.6-4.2-6.1-7.7-5.3c-3.9,0.8-7.8,2.2-11.6,3.5
				c-1.7,0.6-2.6,2-2.5,3.7C474.7,71.6,475.1,73.3,475.9,74.5z M532.4,167.5c-0.3,0.1-0.5-0.5-0.2-0.8c0.1-0.1,0.3-0.1,0.4,0
				C532.8,166.9,532.7,167.4,532.4,167.5z M535.2,156.5c-0.6,0-0.6,0-0.6-0.6c0.1-0.9,0.4-1,0.9-0.3
				C536,156.2,535.9,156.5,535.2,156.5z M533.8,153c0-0.1,0.1-0.2,0.1-0.3c0-0.1,0-0.2,0-0.3c0.1-0.7,0.3-0.9,0.8-0.7
				c0.1,0.1,0.2,0.1,0.3,0.2c0.2-0.2,0.4-0.3,0.6-0.2c0.2,0.2,0.2,0.8,0,0.9c-0.2,0.1-0.4,0-0.6-0.1c-0.1,0.1-0.1,0.2-0.2,0.2
				c0,0,0.1,0.1,0.1,0.1c0.6,0.6,0.5,1.1-0.1,1.3C534,154.5,533.6,154,533.8,153z M533,165.7c0.3-0.6,0.7-0.7,0.8-0.3
				c0.2,0.5-0.4,1.4-0.8,1.4C532.8,166.8,532.7,166.2,533,165.7z M531.7,153.1c0.1-0.4,0.7-0.5,0.9-0.2c0.2,0.3,0,1-0.3,1.1
				C531.9,154.1,531.5,153.6,531.7,153.1z M525,162.3C525,162.3,525,162.3,525,162.3c0-0.4,0.3-0.6,0.7-0.5c0.3,0.1,0.3,0.8,0,1
				c-0.2,0.1-0.4,0-0.5-0.1c0,0.2-0.2,0.3-0.3,0.3C524.6,162.9,524.7,162.4,525,162.3z M521.9,161.2c0.1,0.1,0.3,0.3,0.3,0.4
				c0,0.3-0.6,0.6-0.9,0.5c-0.2-0.1-0.3-0.3-0.3-0.6C521,161,521.5,160.8,521.9,161.2z M521.2,137.6c0.4,0.2,0.3,0.6-0.2,0.8
				c-0.3,0.1-0.4,0.1-0.5-0.1C520.5,137.9,520.9,137.4,521.2,137.6z M532.7,93c0.5,0.5,0.4,1.2-0.1,1.5c-0.7,0.4-1.2,0-1-0.9
				C531.7,92.7,532.2,92.5,532.7,93z M523.5,97.6c0.3-0.3,0.3-0.3,0.6,0.1c0.5,0.7,0,1.7-0.7,1.3C523.1,98.8,523.1,98.1,523.5,97.6z
				 M515.7,112.2c0.2,0.1,0.3,0.3,0.2,0.6c-0.1,0.6-0.6,0.6-0.7,0.1C515.1,112.3,515.4,112,515.7,112.2z M513.1,111.2
				c0.3-0.2,0.4-0.2,0.8,0c0.5,0.3,0.5,0.9-0.1,1.2C513.1,112.9,512.4,111.7,513.1,111.2z M512.8,151.5c0.2-0.2,0.8-0.2,0.9,0
				c0.2,0.2,0.1,0.6-0.3,0.7C513.1,152.3,512.5,151.8,512.8,151.5z M510.5,127.7c0.3-0.2,0.4-0.2,0.6,0.2c0.4,0.6,0.2,1-0.4,0.9
				C510.1,128.7,510,128,510.5,127.7z M507.8,118.9c0.4-0.5,0.6-0.5,0.8-0.1c0.2,0.5,0.2,0.7-0.2,1.1
				C507.9,120.4,507.3,119.6,507.8,118.9z M506.8,123.1c0.2,0.2,0,0.7-0.4,0.9c-0.5,0.3-1-0.4-0.7-0.8
				C506.1,122.9,506.6,122.9,506.8,123.1z M504.9,121.1c0.2-0.2,0.4-0.2,0.6,0c0.1,0.1,0.3,0.3,0.3,0.4c0,0.3-0.6,0.6-0.9,0.4
				C504.5,121.8,504.5,121.3,504.9,121.1z M502.3,119.5c0.3-0.5,0.7-0.5,1,0.1c0.3,0.5,0,0.9-0.7,0.9
				C502.1,120.5,502,120.1,502.3,119.5z M502.5,123.9c0.4-0.2,0.5-0.1,0.7,0.2c0.3,0.5,0.3,0.5-0.1,1c-0.2,0.3-0.4,0.3-0.6,0.1
				C502,124.8,502,124.2,502.5,123.9z M482.8,161.6c-0.3,0.2-0.4-0.1-0.3-0.4c0.1-0.2,0.2-0.2,0.3-0.2
				C483.1,161.2,483.1,161.5,482.8,161.6z M483.4,137.2c0-0.4,0.5-0.6,0.9-0.4c0.3,0.2,0.3,0.6-0.1,0.9
				C483.8,137.9,483.3,137.7,483.4,137.2z M484.8,134.5c0.3,0.2,0.1,0.8-0.3,1c-0.4,0.2-0.8-0.2-0.6-0.7
				C484.1,134.5,484.6,134.3,484.8,134.5z M484.8,130.1c0.2-0.3,0.8-0.3,0.9,0c0,0.1,0.1,0.3,0.1,0.3c0.1,0.2-0.3,0.6-0.6,0.6
				C484.8,130.9,484.6,130.5,484.8,130.1z M485.5,137.9c-0.4,0.6-0.4,0.6-0.8,0.4c-0.5-0.3-0.2-1.8,0.4-1.8c0.1,0,0.3,0.2,0.4,0.3
				C485.9,137.3,485.9,137.3,485.5,137.9z M486.4,119.8c-0.1,0.1-0.1,0.2-0.2,0.2c-0.2,0-0.2-0.3,0.1-0.4
				C486.4,119.6,486.4,119.7,486.4,119.8z M485.8,119.1c-0.1-0.1-0.2-0.4-0.2-0.8c0.1-0.8,0.4-1,0.7-0.5c0.1,0.2,0.2,0.5,0.2,0.6
				C486.6,118.7,486,119.2,485.8,119.1z M485.7,116.4c0.1-0.5,0.5-1,0.7-0.8c0.1,0.1,0.1,0.4,0.1,0.7c-0.1,0.4-0.2,0.6-0.5,0.6
				C485.7,116.9,485.6,116.7,485.7,116.4z M490.3,160.7c-0.4,0.1-0.9-0.5-0.7-0.8c0.2-0.4,0.7-0.5,0.9-0.2
				C490.7,160.1,490.6,160.6,490.3,160.7z M490.8,146.7c-0.1,0-0.3-0.2-0.4-0.3c-0.1-0.4,0.4-0.7,0.7-0.4
				C491.3,146.3,491.1,146.8,490.8,146.7z M491.2,132.5c-0.3,0.1-0.4,0.1-0.6-0.2c-0.3-0.3-0.2-0.4,0.1-0.9c0.3-0.5,0.7-0.7,1-0.4
				C491.8,131.3,491.5,132.3,491.2,132.5z M491.1,129.6c-0.4,0-0.8-0.6-0.8-1.2c0.1-0.9,0.9-1.2,1.5-0.6
				C492.2,128.3,491.7,129.6,491.1,129.6z M491.2,119.9c-0.4-0.4-0.4-1.1-0.1-1.6c0.3-0.4,0.5-0.4,0.9,0.1
				C492.8,119.3,492,120.7,491.2,119.9z M493.3,151c-0.4,0.1-0.8-0.3-0.8-0.9c0-0.5,0.4-0.7,0.9-0.5
				C493.8,149.8,493.7,150.9,493.3,151z M495.3,151.6c-0.4,0-0.4-0.6-0.1-0.9c0.3-0.2,0.3-0.2,0.6,0c0.2,0.1,0.3,0.3,0.3,0.4
				C496,151.2,495.6,151.6,495.3,151.6z M495.5,109c-0.5,0-0.8-0.5-0.7-1.1c0.1-0.4,0.2-0.5,0.6-0.5c0.4,0,0.6,0.1,0.7,0.4
				C496.3,108.3,496,108.9,495.5,109z M495.5,72.9c0.1-0.1,0.3-0.1,0.5,0c0.4,0.2,0.2,0.8-0.2,0.8c0,0,0,0,0,0
				c-0.1,0.3-0.2,0.3-0.6,0.3c-0.5,0-0.6-0.1-0.6-0.5C494.5,72.9,494.9,72.7,495.5,72.9z M494.5,131c0.3,0.7,0.2,1.1-0.3,1.3
				c-1,0.4-1.5-1-0.7-1.8C493.8,130.2,494.3,130.4,494.5,131z M493.2,125.6c0.2-0.3,0.6-0.4,0.7,0c0.2,0.5,0.1,0.9-0.2,1.1
				C493.1,127.1,492.8,126.4,493.2,125.6z M493.1,148.6c0.3-0.3,0.4-0.3,0.8,0c0.6,0.3,0.5,0.7-0.2,0.7
				C493,149.3,492.7,149,493.1,148.6z M492.2,115.5c-0.3,0.1-0.4,0.1-0.7-0.3c-0.2-0.3-0.3-0.7-0.3-0.9c0.1-0.8,0.9-1.1,1.3-0.5
				C492.9,114.1,492.6,115.2,492.2,115.5z M492.3,94.6c0.2,0.5,0.2,0.6-0.2,0.8c-0.5,0.2-1.1,0-1.2-0.4
				C490.7,94.2,492,93.9,492.3,94.6z M489.5,79.1c0.3-0.3,1-0.3,1.2-0.1c0.2,0.2,0.1,0.8-0.2,1C489.9,80.5,489,79.7,489.5,79.1z
				 M489.8,147c0.3,0.3,0.2,0.9-0.3,1.2c-0.3,0.1-0.4,0.1-0.6-0.1C488.3,147.4,489.2,146.5,489.8,147z M488.3,120.8
				c-0.4,0-0.4-0.1-0.4-0.6c0-0.7,0.4-0.9,1-0.5C489.6,120.1,489.2,120.8,488.3,120.8z M488.7,70.5c0.3,0.2,0.2,0.6-0.2,0.7
				c-0.3,0.1-0.8-0.2-0.8-0.5C487.8,70.4,488.5,70.3,488.7,70.5z M488.2,86.6c0.3,0.4,0.2,0.9-0.2,1.1c-0.5,0.2-0.9,0-1-0.5
				C486.7,86.5,487.7,86.1,488.2,86.6z M487.1,100.4c0.2,0.2,0.1,0.6-0.2,0.6c-0.2,0-0.3-0.2-0.3-0.4
				C486.6,100.3,486.9,100.1,487.1,100.4z M485.6,110.6c0.4-0.4,0.9-0.4,1.2-0.1c0.4,0.4,0.2,1.5-0.3,1.7c-0.3,0.1-0.5,0.1-0.7-0.2
				C485.3,111.5,485.2,111,485.6,110.6z M484.9,126.4c-0.5,0.2-1.1-0.2-0.8-0.8c0.2-0.4,0.9-0.5,1.1-0.2
				C485.5,125.7,485.3,126.2,484.9,126.4z M484.3,120c-0.1-0.4,0.4-0.9,0.7-0.7c0.3,0.2,0.1,0.9-0.3,1
				C484.5,120.3,484.3,120.2,484.3,120z M485.1,112c0.3,0.2,0.1,0.7-0.3,0.9c-0.4,0.2-0.9-0.2-0.8-0.6
				C484.2,112,484.9,111.8,485.1,112z M482.7,99.5c0.5-0.4,0.8-0.4,1.2,0c0.4,0.5,0.3,1-0.3,1.2c-0.6,0.2-0.9,0.1-1.2-0.5
				C482.3,99.9,482.4,99.7,482.7,99.5z M482.1,160.4c0.1-0.1,0.3-0.1,0.4,0c0.3,0.2,0.1,1-0.2,0.9
				C481.9,161.2,481.8,160.6,482.1,160.4z M482.5,163c0.3,0.2,0.3,0.6-0.1,0.9c0,0-0.1,0-0.1,0c0.1,0.1,0.2,0.2,0.2,0.3
				c0,0.3-0.6,0.4-0.8,0.1c-0.2-0.2-0.1-0.4,0.1-0.5c-0.1-0.1-0.2-0.2-0.2-0.4C481.7,163.1,482.1,162.8,482.5,163z M480,71.8
				c0.2-0.4,0.8-0.3,1.1,0.1c0.4,0.7-0.1,1.5-0.7,1.2C480,73,479.8,72.2,480,71.8z M479.9,74.5c0.4,0.3,0.1,1.1-0.3,1.1
				c-0.2,0-0.4-0.2-0.4-0.3C479.1,74.9,479.7,74.3,479.9,74.5z M476.6,74.2c0.2-0.4,0.4-0.5,0.8-0.4c0.3,0,0.6,0.1,0.6,0.3
				c0.2,0.7-1,1.4-1.4,0.9C476.4,74.8,476.4,74.6,476.6,74.2z"/>
		</g>
		<g>
			<path d="M386,100.5c-0.3,0.8-0.5,1.7-0.5,2.6c-0.1,3.6-1.3,9.7,1.6,12.4c0,0,0-0.1,0-0.1c0-0.3,0.5-0.4,0.9-0.2
				c0.3,0.1,0.3,0.2,0,0.4c-0.2,0.1-0.4,0.2-0.6,0.1c0.9,0.7,2.1,1.1,3.7,1.1c5,0,7.5-7,12.6-13.6c1-1.3,2.2-2.4,3.6-3.3
				c0,0,0-0.1,0-0.1c0-0.4,0.8-1.6,1-1.6c0.1,0,0.3,0.4,0.5,0.9c2-1,4.2-1.5,6.1-1.3c2.7,0.3,5.6,2.6,5.8,5.3
				c0.2,2.4-0.2,9.5-1,11.7c-2,5.5-5.2,7.6-11.5,10.6c-2.3,1.1-4.9,2.2-7.4,2.8c-12.5,3.1-19.7,12-19.7,24.3
				c0,7.3,3.7,12.8,10.2,15.8c1,0.4,1.9,0.8,2.9,1.2c0.1-0.4,0.6-0.9,0.9-0.8c0.2,0,0.4,0.2,0.5,0.4c0.2,0.5,0.2,0.5-0.2,0.8
				c0,0,0,0,0,0c7.3,2.2,14.5,1.1,21.4-3c0.1-0.1,0.2-0.1,0.3-0.2c0-0.2,0.1-0.3,0.2-0.2c0,0,0,0,0.1,0c2.5-1.3,4.8-1.3,7.3,0.3
				c0.7,0.5,1.4,1,2.1,1.5c6.3,4.1,15,3.1,19.8-2.3c3.3-3.8,2.5-6.8-2.3-8.2c-1.9-0.5-3.1-1.1-3.9-1.8c0,0-0.1,0.1-0.1,0.1
				c-0.5,0.3-0.9,0-0.8-0.7c0-0.3,0.1-0.5,0.2-0.6c-0.4-0.9-0.5-2-0.5-3.6c-0.1-6.7,0.1-14.2-0.1-21c-0.1-2.1-0.1-4.4-0.2-6.6
				c-0.2-1.8-0.3-5.2-0.5-8.3c-0.2,0.1-0.3,0.2-0.5,0.1c-0.3-0.2-0.1-1,0.2-1c0.1,0,0.1,0,0.2,0c-0.1-1.8-0.2-3.4-0.4-4.3
				c-0.4-2-0.9-4-1.6-5.9c-0.2,0-0.4,0-0.6-0.1c-0.4-0.1-0.5-0.3-0.4-0.7c0.1-0.3,0.2-0.5,0.5-0.5c-1.1-2.5-2.5-4.7-4.6-6.5
				c-2.4-2.1-5.7-3.7-8.8-4.6c-2.9-0.9-5.1-1.3-8.1-1.5c-3-0.2-3.8-0.3-6.7-0.1c-6.5,0.3-7.8,1-13.9,3.4
				C390,94.7,387.5,96.8,386,100.5z M390.8,106.3c-0.2,0-0.3-0.2-0.3-0.4c0-0.3,0.1-0.4,0.4-0.4s0.4,0.1,0.3,0.4
				C391.1,106.1,390.9,106.3,390.8,106.3z M381.7,156.4c-0.2,0-0.3-0.2-0.3-0.4c0-0.2,0.2-0.4,0.3-0.4c0.2,0,0.3,0.2,0.3,0.4
				C382,156.3,381.9,156.4,381.7,156.4z M386.1,158.7c-0.1,0.7-0.8,0.8-1.1,0.2c-0.4-0.9,0.4-1.7,1-1
				C386.1,158.1,386.1,158.4,386.1,158.7z M389.1,142.7c-0.5,0-0.7-0.5-0.4-0.8c0.2-0.1,0.4-0.2,0.5-0.1
				C389.5,142,389.4,142.7,389.1,142.7z M390.9,142.1c0.5-0.6,0.7-0.6,1.1-0.2c0.5,0.6,0.1,1.6-0.7,1.5
				C390.6,143.3,390.4,142.6,390.9,142.1z M391.2,156.1c-0.3-0.3-0.3-0.8,0.1-1.2c0.3-0.4,0.6-0.4,0.8,0
				C392.7,155.5,391.8,156.7,391.2,156.1z M445.5,159.2c0.3,0,0.7,0.1,0.8,0.2c0.4,0.4,0.2,1-0.5,1.2c-0.4,0.1-0.6,0.1-0.8-0.2
				C444.7,159.8,444.9,159.2,445.5,159.2z M441.9,159.6l0.4-0.4l0.4,0.6c0.5,0.7,0.5,1.1,0.1,1.5c-0.4,0.4-0.8,0.3-1.1-0.2
				C441.3,160.5,441.4,160.1,441.9,159.6z M432.5,165.2c-0.6,0.3-0.8,0.2-0.8-0.5c0,0,0,0,0,0c-0.8,0.4-1.3-0.9-0.7-1.8
				c0.4-0.5,0.8-0.5,1-0.1c0.1,0.2,0.1,0.5,0.1,0.9c0.2,0,0.4,0.1,0.6,0.4C433.1,164.8,433.1,164.9,432.5,165.2z M433.3,149.6
				c-0.5,0.2-0.8,0-0.8-0.5s0.7-0.9,1-0.5C433.7,148.9,433.7,149.5,433.3,149.6z M434,143.8c-0.7-0.1-0.7-0.8,0-0.9
				c0.2,0,0.5,0.1,0.6,0.2C434.8,143.5,434.5,143.9,434,143.8z M434.8,145.6c0.3,0.1,0.3,0.8,0,1c-0.3,0.2-0.9-0.2-0.9-0.6
				C433.9,145.6,434.3,145.4,434.8,145.6z M433.7,144.6c0.2,0,0.2,0.1,0.2,0.2c0,0.2-0.2,0.3-0.3,0.3
				C433.3,145.1,433.4,144.7,433.7,144.6z M433.5,147.4c0,0.5-0.6,0.8-0.8,0.4c-0.3-0.5-0.1-0.9,0.4-0.9
				C433.5,146.9,433.6,147,433.5,147.4z M434.2,148.5c-0.5,0-0.6-0.1-0.5-0.6c0-0.5,0.1-0.6,0.7-0.6c0.6,0,0.6,0,0.5,0.6
				C434.8,148.5,434.7,148.6,434.2,148.5z M435.8,162.2c-0.4,0-0.5-0.1-0.5-0.6c0-0.2,0-0.3,0.1-0.4c-0.5,0.1-0.6-0.2-0.7-0.9
				c-0.1-0.6,0-0.6,0.4-0.7c0.4-0.1,0.6,0,0.9,0.3c0.4,0.4,0.3,0.9-0.1,1.1c0.1,0,0.2,0.1,0.3,0.2
				C436.6,161.6,436.3,162.2,435.8,162.2z M437.3,146.8c-0.5,0.1-0.9-0.3-0.6-0.8c0.2-0.3,0.2-0.3,0.6,0
				C437.7,146.4,437.7,146.6,437.3,146.8z M436.8,119c-0.4,0-0.6-0.5-0.4-0.9c0.2-0.4,0.6-0.4,1-0.1
				C438.1,118.5,437.8,119,436.8,119z M436,114.7c0.1-0.3,0.8-0.5,1-0.3c0.3,0.2,0.1,0.7-0.3,0.8C436.1,115.2,435.8,115,436,114.7z
				 M434.9,107.4c0.2-0.2,0.5-0.2,0.6-0.2c0.2,0.1,0.3,0.3,0.3,0.5c0,0.5-0.6,0.6-0.9,0.2C434.6,107.8,434.6,107.7,434.9,107.4z
				 M434.3,121.9c0-0.7,0.6-1,1-0.6c0.2,0.2,0.2,0.5,0.2,0.8c-0.1,0.4-0.2,0.5-0.7,0.4C434.4,122.5,434.3,122.4,434.3,121.9z
				 M433.9,105.5c0.3,0,0.4,0.1,0.3,0.5c0,0.6-0.4,0.8-0.7,0.4C433.2,106,433.4,105.5,433.9,105.5z M433.2,102.7
				c0.2,0.2,0.4,0.4,0.4,0.6c0,0.4-0.5,0.7-1,0.6c-0.3-0.1-0.4-0.2-0.4-0.7C432.1,102.4,432.5,102.2,433.2,102.7z M432.4,113.5
				c0.2,0,0.3,0.2,0.2,0.3c-0.1,0.5-0.6,0.5-0.5,0C432.1,113.7,432.2,113.5,432.4,113.5z M431.3,143c0.1,0,0.4,0.2,0.5,0.3
				c0.4,0.4,0.3,0.7-0.1,1.1c-0.4,0.4-1.3,0.2-1.4-0.2C430.4,143.7,431,143,431.3,143z M431.3,145.5c0.3,0.3,0.3,0.4-0.1,0.7
				c-0.4,0.3-0.9,0.1-0.8-0.3S431.1,145.2,431.3,145.5z M430.1,145.9c0,0.2-0.1,0.3-0.2,0.3c-0.1,0-0.2-0.1-0.2-0.3
				c0-0.2,0.1-0.3,0.2-0.3C430,145.6,430.1,145.8,430.1,145.9z M429.4,96.5c0.4,0.2,0.5,0.4,0.4,0.9c0,0.6-0.5,1.2-0.9,1.2
				c-0.4,0-0.8-0.8-0.7-1.4C428.3,96.4,428.7,96.2,429.4,96.5z M427.8,124.2c0.2-0.1,0.4-0.1,0.5,0c0.1,0.1,0.2,0.2,0.2,0.3
				c0,0.2-0.5,0.3-0.8,0.1C427.6,124.4,427.6,124.3,427.8,124.2z M427.2,144.3c0.2,0.2,0.2,0.4,0,0.6c-0.1,0.1-0.2,0-0.3-0.2
				C426.8,144.3,426.9,144.1,427.2,144.3z M425.1,160c-0.8,0.4-1.2-0.6-0.7-1.4c0.2-0.2,0.3-0.2,0.7,0.2
				C425.6,159.3,425.6,159.7,425.1,160z M425.3,120.4c0.1,0.1,0.1,0.3,0,0.6c-0.1,0.6-1.1,0.7-1.2,0.1
				C423.9,120.4,424.8,119.9,425.3,120.4z M423.8,112.7c0.3,0.2,0.1,0.9-0.3,0.8c-0.2,0-0.4-0.2-0.4-0.4
				C423.2,112.7,423.5,112.5,423.8,112.7z M415.3,122.3c0.6,0.6-0.3,1.5-1,1c-0.2-0.1-0.4-0.4-0.3-0.6
				C414,122.1,414.9,121.8,415.3,122.3z M396.9,149c-0.3,0.2-0.5,0-0.3-0.2c0.1-0.1,0.2-0.1,0.3-0.1
				C397.1,148.8,397.1,148.9,396.9,149z M400.4,170.3c-0.3,0.1-0.6-0.2-0.4-0.5c0.1-0.2,0.7,0,0.7,0.2
				C400.7,170.1,400.5,170.2,400.4,170.3z M405,170.2c-0.7,0-0.8-0.4-0.2-0.7c0.3-0.1,0.5-0.1,0.7,0.1
				C405.8,169.9,405.6,170.2,405,170.2z M414,163.8c-0.4,0.3-0.7,0-0.6-0.4c0-0.4,0.5-0.8,0.8-0.6C414.5,163,414.4,163.6,414,163.8z
				 M416.3,161.6c-0.5-0.2-0.6-0.9-0.1-1.3c0.2-0.1,0.3-0.1,0.5,0c0,0,0,0,0,0c0-0.1,0-0.3,0-0.5c0.1-0.1,0.1,0,0.1,0.2
				c0,0.2,0,0.3-0.1,0.3c0.1,0,0.1,0.1,0.2,0.2C417.6,161.1,417.2,161.9,416.3,161.6z M422,103.6c-0.3,0.1-0.7-0.1-0.6-0.3
				c0.1-0.1,0.3-0.1,0.5-0.1C422.4,103.2,422.4,103.5,422,103.6z M421.7,95.8c0.2,0,0.2,0.1-0.1,0.6c-0.3,0.5-0.8,0.4-0.7-0.1
				C420.9,96,421.3,95.8,421.7,95.8z M421,147.9c0.8,4.6-1.7,9-5.7,11.2c-6.7,3.7-15.3-2.2-16-8.5c-0.1-1-0.2-2-0.2-2.5
				c0.1-6.7,2.9-12.2,8.6-15.1c1.1-0.6,2.2-1.1,3.3-1.6c4.3-1.8,8.5,0.5,9.3,5.1c0.4,2.4,0.3,5.6,0.4,8.1
				C420.8,145.7,420.9,146.8,421,147.9z M418.4,94.5c0.4,0.3,0,1.2-0.4,1.2c-0.2,0-0.3-0.2-0.2-0.6
				C417.8,94.6,418.1,94.3,418.4,94.5z M405.8,95.6c0.2-0.6,0.5-0.6,0.9-0.1c0.4,0.4,0.3,0.8-0.2,1.1
				C406,96.8,405.5,96.2,405.8,95.6z M405.1,95.7c0.3,0.2,0.4,0.4,0,0.7c-0.3,0.2-1.1,0.2-1.2,0C403.6,95.9,404.5,95.4,405.1,95.7z
				 M402.1,92.4c0.5,0.2,0.2,0.8-0.4,0.8c-0.4,0-0.5-0.1-0.5-0.4C401.2,92.4,401.7,92.2,402.1,92.4z M395.2,102.7
				c0.1-0.1,0.4-0.2,0.6-0.1c0.4,0.2,0.4,0.6,0,0.8c-0.2,0.2-0.3,0.1-0.6-0.1C395,103,395,102.9,395.2,102.7z"/>
		</g>
		<g>
			<path d="M348.6,106.3c0.3,12.3-0.8,27.5,0.8,39.7c0,0.4-0.1,0.7-0.1,1.1c0.1,3.4-0.2,6.8,0.2,10.2c0.9,7.3,8.2,14.2,16.8,13.6
				c4.3,0.1,8.4-1.1,11.9-3.9c1.2-1,2.2-2.3,2.8-3.8c1.2-3-0.3-4.8-3.4-4.7c-0.5,0-1,0.1-1.5,0.2c-4.7,0.5-7.6-1.6-8.4-6.2
				c-0.4-2-0.7-4.1-0.7-6.2c-0.1-12.5,0-28,0-40.5c0-2.8-0.6-6.2,2.5-7.5c2.6-3.5,2.6-6,0-9.3c-1.7-2.2-2.7-4.6-2.6-7.5
				c0.1-2.5-0.1-5.1-3.1-6c-3-1-4.3,2.8-6,4.6c-3,3.2-6.6,6.6-10,9.3c-3.7,3-4.2,5-1.4,9C350.2,100.1,348.5,103.3,348.6,106.3z
				 M376,162.6c0.3,0,0.4,0.1,0.4,0.5c0,0.5-0.6,0.8-0.8,0.4C375.4,163.1,375.6,162.7,376,162.6z M367.6,168.7
				c-0.1,0-0.2-0.2-0.2-0.3c-0.1-0.5,0.2-1.2,0.3-1.1C367.9,167.5,367.8,168.8,367.6,168.7z M371.9,159.5c0.3-0.4,1-0.4,1.3,0
				c0.3,0.4,0.2,0.7-0.3,1C372.1,160.9,371.4,160.2,371.9,159.5z M369.4,162.9c0.4-0.4,0.8-0.3,1.1,0.4c0.3,0.6,0.3,0.9,0,1.4
				c-0.3,0.4-1,0.4-1.3,0C368.8,164.2,368.9,163.3,369.4,162.9z M366,155.6c0.4-0.3,0.8-0.2,1.1,0.2c0,0,0.1,0,0.1-0.1
				c0,0-0.1,0-0.1-0.1c-0.2-0.2-0.2-0.4-0.1-0.6c0.1-0.3,0.7-0.4,0.9-0.1c0.2,0.2,0.1,0.4-0.1,0.7c0.1,0.1,0.1,0.1,0.2,0.3
				c0.6,0.8-0.2,2.5-0.8,1.8c-0.1-0.1-0.2-0.3-0.2-0.6c0,0-0.1,0.1-0.1,0.1c-0.5,0.3-0.5,0.3-0.8-0.2
				C365.6,156.6,365.6,155.9,366,155.6z M361.4,77.9c0.4-0.2,0.5-0.2,0.8,0c0.3,0.3,0.3,0.8,0,1.1c-0.3,0.3-0.6,0.2-1-0.1
				C360.8,78.4,360.9,78.2,361.4,77.9z M360.3,166.7c0.3,0.2,0.1,1.1-0.2,1.2c-0.1,0-0.3-0.1-0.4-0.3
				C359.5,167.1,359.9,166.5,360.3,166.7z M357.5,138.8c-0.2-0.1-0.3-0.2-0.3-0.3c0-0.4,0.9-1.2,1.1-1c0.2,0.2,0.1,0.7-0.1,1.1
				c-0.1,0.2-0.4,0.3-0.6,0.3c0.4,0.3,0.4,0.6,0.1,0.8c-0.3,0.2-0.8,0.1-0.9-0.3C356.7,139,357.1,138.7,357.5,138.8z M357.7,139.8
				c0.3,0.2,0.3,1,0,1.1c-0.3,0.1-0.9-0.3-0.9-0.6C356.8,140,357.3,139.7,357.7,139.8z M357.6,146.5c0.4,0.4,0.3,0.8-0.2,1.1
				c-0.5,0.3-0.9,0.1-1-0.5C356.2,146.3,357,145.9,357.6,146.5z M355.5,118c0.1,0,0.1,0.1,0.1,0.1c0.3,0,0.5,0.1,0.6,0.5
				c0.1,0.2,0.1,0.5,0,0.6c-0.3,0.6-1.4,0.2-1.3-0.4c-0.1-0.1-0.2-0.2-0.2-0.4C354.6,118,355,117.8,355.5,118z M355.8,138.4
				c0.5,0.3,0.4,0.9-0.2,1c-0.6,0.1-1.2-0.3-1.2-0.7C354.4,138.4,355.3,138.2,355.8,138.4z M353,139.8c-0.4,0.5-0.9,0.2-0.9-0.5
				c0-0.6,0.5-0.9,0.9-0.5C353.3,139,353.3,139.4,353,139.8z M353.3,89.8c0.4,0.4,0.1,1-0.5,1c-0.4,0-0.5-0.1-0.6-0.4
				C352.1,89.7,352.9,89.3,353.3,89.8z M351.5,138c0.3-0.1,0.4-0.1,0.6,0.2c0.2,0.3,0.2,0.5,0,0.7c-0.3,0.5-0.5,0.5-0.9,0.2
				C350.9,138.7,351,138.3,351.5,138z M349,97.6c0.3-0.3,0.3-0.3,0.6,0.1c0.3,0.5,0.3,1.3-0.1,1.6c-0.3,0.2-0.4,0.2-0.6-0.2
				C348.5,98.6,348.6,98,349,97.6z"/>
		</g>
		<g>
			<path d="M393.5,229.7c2.2,9.6,7.4,17.2,15.5,22.6c5.8,3.9,12.4,5.5,19.4,5c0.9,0,1.7,0,2.6,0c13-0.3,22.3-6.1,28.5-16.4
				c0,0,0,0,0-0.1c0-0.2,0.1-0.3,0.2-0.3c0.8-1.3,1.5-2.7,2.2-4.2c4-8.8,4.8-19,3-28.5c-0.1,0.3-0.5,0.5-0.9,0.4
				c-0.4-0.1-0.5-0.2-0.7-0.6c-0.2,0.1-0.4,0.1-0.6,0.1c-0.3-0.1-0.4-0.2-0.4-0.7c0-1.3,1.2-2,1.4-0.8c0,0,0,0,0,0.1
				c0.1,0,0.1,0,0.2,0c0.3,0.1,0.6,0.3,0.8,0.5c-0.4-1.8-0.8-3.5-1.4-5.2c-0.5-1.4-1-2.8-1.5-4.1c-0.2,0.1-0.4,0-0.6-0.1
				c-0.3-0.2-0.3-0.3-0.1-0.6c0.1-0.1,0.2-0.2,0.3-0.2c-4.8-10.8-13.4-17.9-26.2-19.7c-7-0.9-14.2-0.8-20.8,1.9
				c-6.6,2.7-11.5,6.8-15.1,12c0,0,0,0,0,0c0,0.2-0.1,0.4-0.3,0.4c-3.1,4.6-5.1,10-6.2,16C391.5,214.3,392,222.8,393.5,229.7z
				 M412.5,240.3c-0.1-0.1-0.1-0.2,0-0.4c0.1-0.2,0.1-0.1,0.1,0.1C412.6,240.3,412.5,240.4,412.5,240.3z M453.6,243.2
				c0.2,0.6,0.2,0.6-0.2,0.9c-0.5,0.4-0.8,0.4-1-0.2c-0.1-0.3-0.1-0.6,0.1-0.8C452.8,242.6,453.5,242.6,453.6,243.2z M452.4,205.9
				c0.3-0.5,0.7-0.6,0.9-0.2c0.2,0.8-0.1,1.6-0.6,1.6C452.2,207.3,452.1,206.5,452.4,205.9z M452.7,235.6c0.4,0.5,0.4,0.8,0,1.1
				c-0.4,0.3-0.9,0.2-1.1-0.3C451.3,235.4,452.1,234.8,452.7,235.6z M449.4,229.4c0.2-0.7,0.7-0.8,1.1-0.2c0.4,0.5,0.4,1.1,0,1.3
				C449.9,230.9,449.2,230.2,449.4,229.4z M448.9,199.6c0.3,0.3,0.2,1.3-0.1,1.4c-0.4,0.1-1-0.5-1-1
				C447.8,199.6,448.6,199.3,448.9,199.6z M448.3,244.8c0.1,0,0.3,0.2,0.3,0.4c0,0.4-0.5,0.6-0.7,0.3
				C447.7,245.2,447.9,244.8,448.3,244.8z M445.9,245.1c-0.4,0.1-0.6-0.1-0.6-0.4c0-0.3,0.4-0.5,0.7-0.4
				C446.3,244.5,446.3,245,445.9,245.1z M443.8,189.8l0.4-0.5l0.3,0.5c0.2,0.3,0.3,0.7,0.2,1c-0.1,0.4-0.2,0.5-0.7,0.4
				c-0.5,0-0.6-0.1-0.6-0.5C443.4,190.4,443.5,190,443.8,189.8z M435,184.1c0.6,0.3,0.1,1-0.6,1c-0.2,0-0.3-0.2-0.3-0.5
				C434.2,184.1,434.6,183.8,435,184.1z M418.1,189c5.3-6.4,14.8-6.9,20.6-1c2.4,2.4,4,5.3,4.9,8.6c1.8,6.3,2.7,13.5,2.6,20.1
				c0,5.8-0.5,12.2-1.8,17.9c0.2-0.1,0.4,0,0.6,0.1c0.4,0.3,0.3,0.7-0.1,0.9c-0.2,0.1-0.5,0-0.7-0.1c0,0.1,0,0.1,0,0.2
				c-0.9,3.7-2.7,6.8-5,9.8c-5,6.5-15.4,5.1-19.6,0.9c-2.9-2.9-5-6.2-5.8-10.2c-1-4.9-1.8-10.7-2.2-15.7c-0.6-7.3,0.3-15.3,2.1-22.4
				C414.5,194.9,415.8,191.7,418.1,189z M411.2,182.2c0.1-0.3,0.5-0.4,0.7-0.2c0.2,0.2,0.1,0.4-0.2,0.6
				C411.4,182.9,411,182.6,411.2,182.2z M408.9,233.7c-0.5,0.1-0.9-0.4-0.8-0.9c0-0.6,0.5-0.7,1-0.2
				C409.5,233,409.4,233.7,408.9,233.7z M408.1,226.6c0.3-0.3,0.3-0.3,0.8,0.1c0.5,0.6,0.5,1.4,0.1,1.8c-0.7,0.6-1.2,0.1-1.2-0.9
				C407.8,227.2,408,226.8,408.1,226.6z M407.3,245.9c0.1,0,0.3,0.1,0.4,0.3c0.2,0.2,0,1-0.3,1.4c-0.3,0.3-0.9,0.2-0.9-0.1
				C406.5,247,407.1,245.9,407.3,245.9z M406,190.4c0.2,0.3,0,0.6-0.3,0.6c-0.2,0-0.4-0.1-0.4-0.3
				C405.3,190.5,405.8,190.2,406,190.4z M404.3,201.6c0.3-0.1,0.5-0.1,0.9,0.2c0.5,0.4,0.5,0.7-0.3,1c-0.5,0.2-0.5,0.2-0.8-0.1
				C403.8,202.1,403.8,201.8,404.3,201.6z M402.2,196.2c0.1,0,0.2,0.1,0.2,0.2c0,0.1-0.1,0.2-0.2,0.2c-0.1,0-0.2-0.1-0.2-0.2
				C402,196.3,402.1,196.2,402.2,196.2z M399.7,221.8c0.1-0.3,0.9-0.3,1.2,0.1c0.1,0.1,0.2,0.3,0.2,0.4c0,0.3-0.4,0.6-0.8,0.6
				C399.9,222.9,399.5,222.2,399.7,221.8z M399,235.4c0.1-0.1,0.3-0.2,0.4-0.1c0.2,0.2,0.2,0.6-0.1,0.7
				C398.9,236.2,398.7,235.7,399,235.4z M398.4,239.3c0.1-0.1,0.1-0.1,0.2-0.2c0.4-0.4,0.8-0.4,0.9,0c0.2,0.6-0.1,1-0.6,0.9
				c-0.1,0.1-0.2,0.2-0.4,0.2C398.1,240.1,398.1,239.5,398.4,239.3z"/>
		</g>
		<g>
			<path d="M188.8,184.3c2.1,2.3,2.5,5.2,2.5,8.2c0,1.9,0,3.8,0.1,5.7c0.1,13.4,0.3,25,0.4,37.9c0.2-0.3,0.3-0.3,0.6,0
				c0.4,0.3,0.2,0.9-0.2,1.2c-0.1,0.1-0.2,0.1-0.3,0.1c0,1.2,0,2.5,0,3.8c0,1.3-0.2,2.5-0.2,3.8c-0.1,1.9-0.1,3.8-0.2,5.7
				c-0.4,7.2,1,14.5-2.8,21.5c-2,3.7,0.4,7.9,5.1,7.8c6.5,0,12.9,0.2,19.4-0.1c5.2-0.2,7.6-4.3,5-8.7c-1.8-3.2-2.6-6.6-2.6-10.1
				c0-1.6,0-3.1,0-4.7c-0.1,0.1-0.1,0.1-0.3,0.1c-0.2,0-0.3-0.3-0.4-0.5c0-0.5,0.2-0.5,0.5-0.2c0.1,0.1,0.1,0.1,0.1,0.2
				c0-3.5,0-7,0-10.4h-0.1c0-2.5,0.1-9.3,0-11.8c-0.2-3.3,0.6-3.4,2.3-3.8c2-0.4,5.9,0.1,5.9,0.2c0.6,0.3,1.8,4.6,2.1,5.8
				c1.3,6.6,5.5,19.7,8.6,24.6c14.8,21.8,24.5,22.3,43.6,25.3c4.4-0.1,5.7-3.1,3.4-6.9c-3.3-1.1-10.1-4.6-15.8-10.6
				c-3.9-4.5-7.8-9.3-10.9-15.7c-0.1,0-0.2-0.1-0.3-0.3c-0.1-0.2-0.1-0.3,0-0.4c-2.8-5.9-5.2-13-6.6-22.2c-0.5-3-0.4-4.5,1.4-5.3
				c4.6-1.9,7.6-5.3,9.4-6.8c6.3-5.3,8.9-15.1,5.7-23.9c0,0,0,0,0,0c-0.3-0.2-0.4-0.4-0.3-0.8c-2.2-5.4-6.6-10.4-13.8-13.5
				c-0.9-0.4-1.7-0.7-2.6-1c0.1,0.2-0.1,0.4-0.3,0.4c-0.1,0-0.2-0.1-0.1-0.3c0-0.1,0.1-0.2,0.1-0.2c-0.9-0.3-1.7-0.6-2.6-0.8
				c-0.1,0.4-0.4,0.7-0.8,0.7c-0.5,0-0.9-0.7-0.8-1.1c-6-1.6-12.1-2-19.2-2c-1.6,0.2-20.3-0.2-28.2,0c-1.2,0-2.5,0.3-3.7,0.6
				c-0.1,0-0.2,0.1-0.3,0.1c0,0,0,0,0,0c0.4,0.4,0.2,0.7-0.2,0.8c0,0,0,0,0.1,0.1c0.3,0.5,0.3,0.6-0.1,0.9c-0.2,0.2-0.4,0.2-0.8,0
				c-0.6-0.3-0.5-0.8,0.1-1c0,0-0.1-0.1-0.1-0.2C187.7,178,186.8,182.1,188.8,184.3z M269.6,277.1c0.2,0.2,0.1,0.3-0.1,0.6
				c-0.4,0.3-0.5,0.2-0.5-0.3C268.9,276.9,269.3,276.8,269.6,277.1z M265.5,276.6c0.2-0.5,1.1-0.3,1.2,0.3c0,0.3-0.1,0.5-0.4,0.5
				C265.7,277.5,265.3,277,265.5,276.6z M261.4,271.7c-0.3,0.1-0.6-0.3-0.6-0.8c0-0.4,0.6-0.6,0.8-0.3
				C261.8,271,261.7,271.6,261.4,271.7z M264.7,269.9c-0.2,0-0.4-0.2-0.4-0.4c0-0.4,0.3-0.6,0.6-0.4
				C265.3,269.3,265.1,269.9,264.7,269.9z M264.7,268.3c0.1,0.1,0.2,0.2,0.1,0.3c0,0.2-0.6,0.4-0.7,0.2
				C264,268.6,264.5,268.1,264.7,268.3z M260.8,268.3c0.2-0.2,0.8-0.2,0.9,0c0.2,0.2,0.1,0.6-0.2,0.7
				C261.2,269.1,260.6,268.6,260.8,268.3z M259.1,276.6c0.4,0.5,0.4,0.9-0.1,1.4c-0.5,0.4-0.7,0.4-1,0c-0.4-0.4-0.3-1,0.1-1.4
				C258.5,276.1,258.7,276.2,259.1,276.6z M257.8,270.9c0.4,0.2,0.3,0.8-0.1,1c-0.4,0.1-0.8-0.3-0.8-0.6
				C256.9,270.9,257.4,270.7,257.8,270.9z M261.3,204.1c0.4-0.2,0.6-0.1,0.8,0.2c0.3,0.5-0.1,0.9-0.7,0.8
				C260.7,204.9,260.7,204.3,261.3,204.1z M260.3,209.9c0.3,0.1,0.5,0.3,0.4,0.5c-0.1,0.4-0.8,0.5-1.1,0.1
				C259.3,210,259.7,209.7,260.3,209.9z M253.9,191.2c0,0,0.1,0,0.1,0.1c0-0.1,0.2-0.2,0.4-0.1c0.4,0,0.5,0.1,0.4,0.4
				c0,0.2-0.3,0.3-0.5,0.3c-0.1,0-0.2-0.1-0.3-0.2c-0.1,0.1-0.1,0.2-0.2,0.2c-0.2,0-0.3-0.2-0.3-0.3
				C253.6,191.3,253.7,191.2,253.9,191.2z M251.9,197.7c-0.2-0.1-0.3-0.3-0.3-0.7c0.1-0.7,0.5-0.9,1-0.5c0.1,0.1,0.3,0.4,0.2,0.6
				C252.8,197.5,252.3,197.9,251.9,197.7z M251.5,191c0.3-0.4,0.6-0.4,0.9-0.1c0.2,0.2,0.2,0.4,0.1,0.7c-0.3,0.4-0.7,0.4-1,0
				C251.4,191.4,251.4,191.2,251.5,191z M250.8,204c0.3-0.4,0.9-0.4,1.1,0c0.1,0.2,0.2,0.4,0.2,0.5c0,0.2-0.6,0.7-0.8,0.7
				c-0.2,0-0.7-0.6-0.7-0.7C250.6,204.4,250.7,204.2,250.8,204z M248.2,179.3c0.2-0.2,0.4-0.2,0.6,0c0.6,0.5,0,1.5-0.6,1.1
				C247.8,180.1,247.8,179.6,248.2,179.3z M248.8,182.2c0.2,0.2,0.1,0.3-0.1,0.6c-0.3,0.3-0.9,0.2-1-0.1
				C247.6,182.2,248.5,181.8,248.8,182.2z M246.3,246.9c-0.4,0-0.5-0.1-0.4-0.5c0-0.5,0.3-0.7,0.7-0.6c0.2,0.1,0.3,0.3,0.2,0.6
				C246.8,246.8,246.7,246.9,246.3,246.9z M248.9,267.8c-0.4,0.8-1.4,0.4-1.3-0.5c0.1-0.8,1-1.1,1.3-0.4
				C249.2,267.4,249.2,267.3,248.9,267.8z M250.4,251.7l0.4-0.7l0.4,0.7c0.2,0.4,0.4,0.8,0.4,1c0,0.8-1.5,0.9-1.5,0.2
				C250,252.5,250.1,252.1,250.4,251.7z M248.2,248.7c0.2,0,0.2,0.1,0.2,0.2c-0.1,0.1-0.2,0.2-0.3,0.2c-0.1,0-0.2-0.1-0.2-0.2
				C247.9,248.8,248,248.7,248.2,248.7z M248.1,250.4c0.1,0,0.1,0,0.2,0c-0.4-0.2-0.5-0.9-0.2-1.2c0.3-0.3,0.5-0.3,1,0.1
				c0.2,0.2,0.3,0.4,0.3,0.5c0,0.3-0.7,0.7-1,0.6c0,0,0,0,0,0c0.1,0,0.3,0.1,0.3,0.2c0.2,0.4-0.4,0.9-0.8,0.6
				c-0.2-0.1-0.3-0.3-0.3-0.5C247.7,250.5,247.9,250.4,248.1,250.4z M247.3,254.8c0.1-0.9,0.2-0.9,0.7-1c0.7,0,0.7,0.5-0.2,1.3
				l-0.6,0.6L247.3,254.8z M246.3,190.3c0.3-0.2,0.4-0.1,0.7,0.3c0.4,0.6,0.1,1-0.6,0.9c-0.4-0.1-0.5-0.2-0.5-0.5
				C245.9,190.7,246.1,190.4,246.3,190.3z M244.8,250.1c-0.4,0.1-1-0.4-0.8-0.8c0.1-0.3,0.7-0.5,1-0.4
				C245.5,249.2,245.3,250,244.8,250.1z M243.7,231.9c0.3-0.4,1.1-0.4,1.3,0c0.2,0.4,0,0.8-0.4,1
				C243.9,233.2,243.3,232.5,243.7,231.9z M243.6,266.1c0.2-0.5,0.9-0.3,1.1,0.3c0.3,0.6,0.3,0.7,0.1,1.1c-0.1,0.2-0.3,0.3-0.5,0.3
				C243.9,267.7,243.4,266.5,243.6,266.1z M227.9,228.7c-0.3,0.3-0.9,0.1-0.9-0.3c0-0.4,0.6-0.5,0.9-0.2
				C228.2,228.5,228.2,228.5,227.9,228.7z M234.3,243.1c0.3-0.4,0.9-0.5,1-0.1c0.2,0.5,0,1.4-0.3,1.6
				C234.4,245.2,233.8,244,234.3,243.1z M234.4,228.5c0.1-0.6,0.7-0.9,1-0.5c0.2,0.4,0.2,0.3,0,0.6c-0.1,0.2-0.4,0.3-0.6,0.3
				C234.4,228.9,234.3,228.9,234.4,228.5z M234.9,250c-0.2,0-0.4-0.2-0.4-0.5c0-0.3,0.1-0.4,0.3-0.4c0.2,0,0.4,0.1,0.4,0.3
				C235.4,249.8,235.3,250,234.9,250z M235.3,255.9c-0.5,0.1-0.8-0.1-0.8-0.6c0-0.5,0.6-0.8,1-0.5
				C235.8,255,235.6,255.8,235.3,255.9z M237,230.4c-0.2,0-0.3-0.2-0.2-0.6c0.1-0.7,0.3-1,0.5-0.6
				C237.5,229.6,237.3,230.4,237,230.4z M241.1,229.2c0.7,0.7,0.3,1.8-0.6,1.8c-0.7-0.1-0.8-1.1-0.2-1.7
				C240.7,228.8,240.7,228.8,241.1,229.2z M240.3,202.4c0.3,0.2,0.1,0.9-0.3,1c-0.2,0-0.3-0.1-0.3-0.4
				C239.7,202.4,240,202.1,240.3,202.4z M239.8,248.5c0.2-0.2,0.3-0.1,0.5,0.2c0.3,0.4,0.2,0.7-0.3,0.7
				C239.6,249.3,239.5,248.7,239.8,248.5z M230.1,177c0.2-0.4,0.8-0.5,0.9-0.1c0.2,0.4,0,0.8-0.4,0.8
				C230.2,177.8,229.9,177.5,230.1,177z M220.7,180.4c0.2-0.4,0.7-0.5,1-0.2c0.4,0.4,0.2,1-0.3,1.1
				C220.9,181.3,220.5,180.8,220.7,180.4z M220.3,182.5c0,0.5-1.2,0.7-1.5,0.2c-0.5-0.6,0.8-1.1,1.3-0.5
				C220.2,182.3,220.3,182.5,220.3,182.5z M218.7,178.7c0.5-0.4,0.7-0.4,0.9,0.3c0.1,0.2,0.1,0.4,0.1,0.5c0.1,0.2-0.7,0.5-1,0.4
				C218.3,179.6,218.2,179.1,218.7,178.7z M215.3,201.3L215.3,201.3c0.1-4.4,0.1-6.6,0-11c0-2.4,1-3.6,2.7-5.3
				c1.9-1.9,3.9-2.5,6.5-1.9c4.7,1.1,8.8,2.5,11.7,6.4c3.2,4.3,3.4,7.2,3.3,12.3c-0.1,2.7-0.8,5.5-1.4,8.2c-1.1,5.2-3.5,8.3-8,10.5
				c-1.2,0.6-3.7,0.8-5,1.3c-5,1.8-9.3-1-9.7-6.4c-0.3-3.1-0.1-6.3-0.1-9.5C215.3,204.3,215.3,202.8,215.3,201.3z M192.6,265.2
				c-0.2,0-0.3-0.2-0.3-0.4c0-0.2,0.2-0.3,0.4-0.3c0.2,0,0.3,0.1,0.3,0.4C192.9,265.1,192.8,265.2,192.6,265.2z M196.1,275.6
				c-0.6-0.2-0.7-0.6-0.4-1.2c0.3-0.5,0.9-0.6,1.3,0C197.4,275.2,196.9,275.9,196.1,275.6z M196.1,236.2c-0.8-0.1-1-0.4-0.5-0.8
				c0.4-0.3,0.6-0.3,0.9,0C197.1,236,196.9,236.3,196.1,236.2z M205,227.5c0.4-0.4,0.4-0.4,0.8,0c0.7,0.7,0,2-0.8,1.5
				C204.5,228.6,204.5,228,205,227.5z M212.7,199.1c-0.3,0-0.5-0.2-0.5-0.5c0-0.5,0.5-0.7,0.9-0.4
				C213.4,198.7,213.2,199.1,212.7,199.1z M213.4,230.3c-0.3-0.2-0.5-0.8-0.2-1.1c0.3-0.3,0.6-0.3,1.1,0.1c0.2,0.2,0.4,0.4,0.3,0.5
				C214.5,230.1,213.7,230.4,213.4,230.3z M214.9,227.7c0,0.2-0.2,0.3-0.4,0.3c-0.5,0-0.4-0.5,0.1-0.5
				C214.8,227.5,214.9,227.6,214.9,227.7z M214.3,226.3c-0.4,0.3-0.9,0-0.8-0.5c0-0.5,0.5-0.9,0.9-0.7
				C214.7,225.3,214.7,226,214.3,226.3z M214.3,189.5c0,0.3-0.1,0.4-0.5,0.3c-0.3-0.1-0.5-0.2-0.5-0.4c0-0.2,0.2-0.3,0.5-0.3
				C214.2,189.1,214.3,189.2,214.3,189.5z M212.4,186.9c0.4-0.3,0.5-0.3,0.9,0.1c0.2,0.2,0.3,0.6,0.3,1.1c0,0.6-0.1,0.8-0.5,0.9
				c-0.4,0.1-0.5,0.1-0.7-0.1C211.9,188.6,212,187.3,212.4,186.9z M212,246c0.4,0.4,0.2,1.3-0.3,1.7c-0.4,0.3-0.5,0.3-0.9-0.1
				c-0.3-0.3-0.3-0.4,0-1.1C211.1,245.5,211.4,245.4,212,246z M209.8,205.9c0.4-0.3,0.7-0.1,0.8,0.5c0.2,0.6-0.3,1-0.8,0.7
				C209.4,206.8,209.4,206.2,209.8,205.9z M208.7,266c-0.5,0.3-0.9-0.1-0.9-0.8c0-0.7,0.7-0.8,1-0.3
				C209.1,265.4,209.1,265.7,208.7,266z M208.2,227.1c0.1,0.1,0.3,0.5,0.2,0.7c0,0.4-0.1,0.4-0.5,0.4c-0.6-0.1-0.8-0.8-0.3-1.1
				C207.8,226.9,207.9,226.9,208.2,227.1z M206.6,199.5c0.2-0.4,0.5-0.5,0.8-0.1c0.3,0.3,0.2,0.5-0.2,0.7
				C206.7,200.3,206.4,200,206.6,199.5z M205.5,253.2c-0.2-0.6,0.5-1,0.9-0.5c0.1,0.1,0.1,0.3,0.1,0.5
				C206.4,253.5,205.6,253.6,205.5,253.2z M206.2,239.6c-0.3,0.3-0.9,0.2-1-0.1c-0.2-0.3,0.7-1,1-0.8
				C206.5,238.9,206.5,239.3,206.2,239.6z M205,192.4c0.4-0.3,0.6-0.3,0.9,0.1c0.4,0.5,0.2,1.5-0.4,1.5
				C204.6,194,204.3,193,205,192.4z M204.5,247c0,0.1-0.1,0.2-0.3,0.1c-0.2,0-0.3-0.1-0.3-0.3c0-0.2,0.1-0.2,0.3-0.1
				C204.4,246.8,204.5,246.9,204.5,247z M204.1,223.5c0.4,0.2,0.2,0.8-0.3,0.8c-0.3,0-0.4-0.1-0.4-0.3
				C203.4,223.5,203.7,223.3,204.1,223.5z M202.1,264.3c0.3-0.3,1.2-0.3,1.5,0.1c0.3,0.3,0.3,0.5-0.1,0.8
				C202.7,265.8,201.4,265,202.1,264.3z M199.8,187.5c0.3,0.3,0.3,0.7-0.1,0.9c-0.4,0.3-0.8-0.1-0.8-0.7
				C198.9,187.4,199.4,187.2,199.8,187.5z M198.4,266.4c-0.6,0.5-1.4-0.6-0.9-1.1c0.4-0.3,0.6-0.3,0.9,0.1
				C198.8,265.7,198.8,266.1,198.4,266.4z M197.4,192.7c0.2-0.1,0.4-0.1,0.6,0.1c0.4,0.4,0.2,0.7-0.4,0.6
				C197,193.3,196.8,192.9,197.4,192.7z M196.5,200.2c0.2-0.3,0.8-0.4,0.9,0c0.3,0.9-0.3,1.5-0.8,0.9
				C196.3,200.8,196.3,200.7,196.5,200.2z M196,178c0.3,0.2,0.3,0.6-0.1,0.9c-0.4,0.3-0.9,0-0.8-0.4C195.2,178,195.6,177.8,196,178z
				 M195.1,238.8c0.3-0.3,0.8-0.3,1-0.1c0.2,0.3,0,0.9-0.4,0.9C195.1,239.7,194.7,239.1,195.1,238.8z M194.2,256.4
				c0.1,0.1,0.2,0.2,0.2,0.3c0.3-0.3,0.6-0.3,1,0c0.5,0.5,0.4,1.2-0.1,1.4c-0.8,0.3-1.3-0.2-1.1-0.9c0,0,0,0.1-0.1,0.1
				c-0.5,0.5-0.8,0.3-0.8-0.4C193.4,256.3,193.8,256,194.2,256.4z M192.2,210c0.3-0.3,0.4-0.2,0.7,0.2c0.4,0.6,0.4,0.6,0,1.1
				c-0.4,0.4-0.8,0.2-1-0.5C191.9,210.4,192,210.2,192.2,210z M191.9,212.7c0.4-0.4,0.4-0.4,0.7,0c0.3,0.5,0,1.1-0.5,1
				C191.5,213.6,191.5,213.2,191.9,212.7z"/>
		</g>
		<g>
			<path d="M532,178.1c-1.2,0.5-2.4,1.2-3.6,1.8c0,0.1-0.1,0.2-0.1,0.2c0,0,0,0,0,0c-5.1,3.1-9.3,7.7-12.4,12.8
				c-7.7,12.8-8.8,28.4-4.8,42.6c1.9,6.6,5.5,12.3,11.2,16.5c9.1,6.6,18.8,6.9,28.9,2.5c0.9-0.4,1.8-0.9,2.6-1.3
				c-0.1,0-0.2,0-0.3-0.1c-0.3-0.1-0.4-0.3-0.3-0.7c0.1-0.7,0.6-1,1-0.6c0.4,0.3,0.3,0.9,0,1.2c1.5-0.7,3-1.2,4.9-0.6
				c-0.2-0.4-0.1-0.5,0.2-0.8c0.5-0.5,1-0.4,1.3,0.1c0.3,0.6,0.3,0.9-0.1,1.3c0.1,0,0.2,0.1,0.2,0.1c4.2,1.7,8.4,1.7,12.7,1.4
				c5.2-0.3,7.4-4.3,4.7-8.7c-1.6-2.6-2.3-4.4-2.2-7.4c0-3.6,0-43.3,0-44.6c-0.1-7,0-13.4,0-20.1c0,0,0,0,0,0
				c-0.5,0.4-0.8,0.1-0.8-0.7c0-0.6,0.4-0.9,0.8-0.8c0-1.7,0-3.5,0-5.3c0-3.4,0-6.9-0.2-10.3c-0.3-3.6-3.9-7-7.3-6.4
				c-4.2,0.7-8.4,1.7-12.4,3.2c0.1,0.1,0.1,0.1,0.2,0.2c0.2,0.2,0.3,0.5,0.3,0.7c0,0.4-0.8,1-1.2,1c-0.4,0-0.7-0.4-0.8-1.1
				c0,0,0-0.1,0-0.1c-3,1.7-3.2,4.8-0.4,7.7c2.5,2.6,3.5,4.8,3.4,8.3c0,0.9-0.1,0.2,0,1.1c0.1,2.5-0.2,4.9-2.1,6.2
				c-2,1.3-5.1-0.2-7.6-0.4C542.6,176.3,537.2,175.9,532,178.1z M518.6,210.3c0.1-0.4,0.7-0.5,0.9-0.2c0.2,0.3,0,1-0.3,1.1
				C518.8,211.4,518.4,210.8,518.6,210.3z M519.8,243.6c-0.4,0.3-0.8-0.1-0.8-0.7c0-0.6,0.5-0.9,0.9-0.6c0.2,0.1,0.3,0.4,0.2,0.7
				C520.1,243.2,520,243.5,519.8,243.6z M522.3,200.3c-0.5,0.3-0.9,0-0.8-0.6c0-0.4,0.1-0.6,0.4-0.5c0.2,0,0.4,0.1,0.6,0.3
				C522.7,199.7,522.7,200,522.3,200.3z M522.7,212.4c0.2-0.4,0.8-0.5,1-0.2c0.3,0.3,0,1-0.3,1.1
				C522.8,213.4,522.4,212.9,522.7,212.4z M524.2,236.3c0.4,0.4,0.3,0.8-0.1,1c-0.5,0.3-0.9-0.1-0.9-0.8
				C523.3,235.9,523.8,235.8,524.2,236.3z M523,215.7c0.2-0.2,0.3-0.2,0.5,0.1c0.3,0.5,0.2,1-0.3,0.9
				C522.8,216.7,522.7,216.1,523,215.7z M524.3,250.3c-0.4,0.3-0.4,0.3-0.9,0c-0.5-0.3-0.4-1.3,0.2-1.4c0.3-0.1,0.5,0,0.7,0.3
				C524.7,249.8,524.7,249.9,524.3,250.3z M524.4,200.5c-0.1,0.1-0.1,0.1-0.2,0.2c0,0,0.1,0.1,0.1,0.1c0,0.1,0,0.3-0.1,0.4
				c-0.2,0.2-0.6-0.1-0.5-0.4c0,0,0,0,0,0c-0.2-0.1-0.3-0.2-0.3-0.4c0-0.2,0-0.6,0.1-0.7c0.2-0.3,0.7-0.2,1,0.1
				C524.6,200,524.6,200,524.4,200.5z M576.2,245.3c0.4,0.8,0.3,1.1-0.4,1.1c-0.5,0-0.6-0.1-0.5-0.8
				C575.4,244.6,575.8,244.5,576.2,245.3z M575.4,194.8c0.2,0.1,0.4,0.4,0.5,0.7c0.2,0.7-0.2,1.1-0.9,1c-0.5-0.1-0.6-0.2-0.6-0.7
				C574.4,195,574.9,194.5,575.4,194.8z M563.1,251.7c0-0.2,0.4-0.4,0.6-0.2c0.1,0.1,0.1,0.2,0.1,0.3
				C563.6,252,563.1,252,563.1,251.7z M564.1,253.7c-0.6,0-0.9-0.6-0.5-1.2c0.3-0.5,0.9-0.4,1.2,0.1
				C565.2,253.3,564.8,253.8,564.1,253.7z M566.2,219.4c-0.2-0.5,0.1-0.9,0.5-0.7c0.2,0.1,0.3,0.3,0.2,0.6
				C566.8,219.8,566.4,219.9,566.2,219.4z M572.3,220.4c-0.4,0.2-0.8-0.1-0.6-0.6c0.1-0.3,0.7-0.4,0.9-0.1
				C572.9,219.9,572.7,220.2,572.3,220.4z M572.8,213.9c-0.4,0.1-0.8-0.3-0.8-0.7c0-0.4,0.5-0.8,0.9-0.6
				C573.3,212.7,573.2,213.8,572.8,213.9z M572,193.6c-0.1-0.2,0.2-0.4,0.5-0.3c0.1,0.1,0.2,0.2,0.2,0.3
				C572.7,193.9,572.1,193.8,572,193.6z M572.1,181.6c0.1,0,0.1,0.1,0.2,0.2c0,0,0.1,0,0.1,0c0.3,0.1,0.4,0.5,0.1,1
				c-0.2,0.4-0.5,0.3-0.7,0c-0.3,0-0.6-0.3-0.6-0.6C571.2,181.7,571.7,181.4,572.1,181.6z M571.2,164.9c0,0.2-0.2,0.4-0.4,0.3
				c-0.2,0-0.4-0.2-0.4-0.4c0-0.2,0.2-0.4,0.4-0.3C571.1,164.5,571.2,164.7,571.2,164.9z M571,154.8c0.1,0.1,0.1,0.2,0.1,0.3
				c-0.1,0.1-0.2,0.1-0.3,0.1c-0.1-0.1-0.1-0.2-0.1-0.3C570.8,154.7,570.9,154.7,571,154.8z M570.7,152.2c0.3,0.3,0.2,1.2-0.2,1.5
				c-0.5,0.3-0.9,0-0.8-0.7C569.7,152.2,570.3,151.8,570.7,152.2z M569.8,176.9c0.2,0,0.3,0.1,0.3,0.3c-0.1,0.4-0.7,0.4-0.6,0
				C569.5,177.1,569.6,176.9,569.8,176.9z M569.9,203.6c0.4,0,0.4,0.2,0.2,0.9c-0.1,0.2-0.3,0.4-0.4,0.4
				C569.2,204.8,569.5,203.6,569.9,203.6z M569.8,214.5c0.1,0.4-0.3,0.9-0.6,0.8c-0.2,0-0.3-0.3-0.3-0.6c0-0.4,0.1-0.5,0.4-0.5
				C569.5,214.2,569.7,214.3,569.8,214.5z M568.9,205.5c-0.4,0.3-0.9-0.1-0.9-0.7c0-0.6,0.6-0.9,1-0.5c0.2,0.1,0.3,0.4,0.3,0.6
				C569.3,205.1,569.1,205.3,568.9,205.5z M568.9,176.9c0.3,0.3,0.3,0.9-0.1,1c-0.3,0.1-0.8-0.3-0.8-0.6c0-0.1,0.2-0.3,0.3-0.4
				C568.6,176.8,568.7,176.8,568.9,176.9z M568,155.6c0.2,0.4,0,0.8-0.4,0.9c-0.3,0-0.4-0.1-0.4-0.5
				C567.2,155.5,567.8,155.2,568,155.6z M567.1,250.1c-0.1,0.3-0.2,0.6-0.3,0.6c-0.3,0.1-0.3-0.4,0.1-0.8
				C567.2,249.5,567.2,249.5,567.1,250.1z M566.2,210.1c0.3-0.3,0.3-0.3,0.6,0c0.3,0.5,0.3,0.6,0,1c-0.3,0.4-0.9,0.2-0.9-0.3
				C565.9,210.6,566,210.3,566.2,210.1z M565.6,174.2c0.3,0.3,0.3,0.4,0,0.8c-0.4,0.5-1,0.2-1-0.4
				C564.7,174,565.2,173.8,565.6,174.2z M564.8,251.5c0.1,0.3-0.7,0.9-0.9,0.7c-0.3-0.3,0.1-1,0.5-0.9
				C564.6,251.2,564.7,251.3,564.8,251.5z M564,180.7c0.4,0.4,0.2,1.1-0.3,1c-0.4-0.1-0.8-0.7-0.7-0.9
				C563.1,180.5,563.7,180.5,564,180.7z M561.8,194.6c0.5-0.4,0.9-0.4,1.1,0c0.5,1.1-0.3,2.3-1,1.5
				C561.3,195.6,561.3,195,561.8,194.6z M538.2,182.7c0.1,0,0.2,0.1,0.2,0.2c0,0.1-0.1,0.2-0.2,0.2c-0.1,0-0.2-0.1-0.2-0.2
				C538,182.8,538,182.7,538.2,182.7z M531.5,178.9c0.2-0.4,0.4-0.4,0.8,0c0.4,0.4,0.3,0.7-0.1,0.8
				C531.8,179.8,531.3,179.3,531.5,178.9z M531.1,250c-0.4,0-0.4-0.3-0.2-0.8c0.2-0.4,0.5-0.3,0.6,0.2
				C531.7,249.8,531.5,250,531.1,250z M536.7,251.5c-0.4,0.1-0.6,0.1-0.8-0.1c-0.6-0.6,0.2-1.6,0.9-1.1
				C537.4,250.7,537.3,251.3,536.7,251.5z M541.2,250.2c-0.2,0-0.3-0.2-0.3-0.4c0-0.4,0.6-0.6,0.7-0.3
				C541.8,249.9,541.5,250.3,541.2,250.2z M543.4,251.5c-0.4,0-0.5-0.3-0.2-0.9c0.2-0.4,0.3-0.4,0.4-0.2
				C543.8,250.9,543.7,251.6,543.4,251.5z M546.8,250.3c-0.2-0.1-0.3-0.3-0.2-0.5c0-0.5,0.5-0.6,0.9-0.3c0.1,0.1,0.3,0.3,0.3,0.4
				C547.6,250.1,547.1,250.4,546.8,250.3z M548.3,254.2c-0.2,0-0.3-0.2-0.3-0.3c0-0.2,0.2-0.3,0.3-0.3c0.2,0,0.3,0.2,0.3,0.3
				C548.6,254.1,548.4,254.2,548.3,254.2z M559.4,186.6c0-0.4,0.6-0.7,0.9-0.5c0.1,0.1,0.2,0.3,0.1,0.5
				C560.3,187.3,559.4,187.2,559.4,186.6z M559.9,154.9c0-0.4,0.3-0.6,0.6-0.4c0.2,0.2,0.2,0.2,0,0.6
				C560.3,155.5,559.9,155.4,559.9,154.9z M560.7,202c-0.2,0.4-0.9,0.3-0.8-0.1c0-0.4,0.3-0.6,0.7-0.5
				C560.9,201.5,560.9,201.6,560.7,202z M560.1,152.2c0.1,0,0.3,0.1,0.4,0.3c0.2,0.2,0.3,0.4,0.3,0.6c0,0.4-0.6,1-1,0.9
				c-0.2,0-0.6-0.8-0.5-1.2C559.3,152.7,559.9,152.2,560.1,152.2z M557.8,202.3c0.2-0.4,0.9-0.6,1.2-0.4c0.2,0.2,0.2,0.8-0.1,1.2
				C558.5,203.9,557.5,203.1,557.8,202.3z M557.6,194.2c0.1,4,0.1,9.9,0.1,13.9c0,2.1,0,4.2,0,6.3c0.1-0.1,0.3-0.1,0.4,0
				c0.2,0.1,0.3,0.3,0.2,0.6c0,0.4-0.1,0.5-0.5,0.4c-0.1,0-0.2,0-0.2,0c0,5.6,0.1,11.8,0,17.3c0,1.9-0.4,3.9-0.9,5.8
				c-1.2,4.3-6.2,7.8-12,6.5c-5.7-1.2-9.6-4.4-11.9-9.4c-1.6-3.7-3-8.3-3.6-12.3c-1.5-10.3-0.7-21.6,3.8-31.2
				c1.3-2.7,3.4-5.5,5.8-7.2C548.1,178.5,557.4,185.8,557.6,194.2z"/>
		</g>
		<g>
			<path d="M450.7,75.1c2,2.2,2.6,5,2.7,7.9c0,0.5,0,1.1,0,1.6c0.1,0.2,0.1,0.3,0,0.4c0.1,5.4,0.1,10.9,0.1,16.3
				c-0.1,10.6-0.4,17.3-0.5,28c-0.1,7.2-0.1,14.5-0.1,21.7c0,2.9-0.6,5.5-2.5,7.9c-2.5,3.3-1.3,8.1,2.6,9c5.5,0,9.6,0,14.9,0
				c3.6-1.1,4.7-5.7,2.4-8.7c-2.2-2.8-2.9-5.8-2.8-9.3c0-0.7,0-1.4,0-2.1c-0.5,0.3-0.7,0.2-0.7-0.5c0-0.3-0.1-0.7-0.2-0.9
				c-0.1-0.2,0-0.5,0.2-0.7c0.2-0.3,0.3-0.3,0.7,0.2c0-11.3,0-20.2,0-32.2c0-9.2,0-18.4,0-27.6c-0.1-0.1-0.2-0.3-0.3-0.4
				c0-0.2,0.1-0.4,0.3-0.6c0-4.5,0-8.9,0-13.4c0-0.6-0.1-1.2-0.1-1.8c0,0.3-0.2,0.5-0.4,0.6c-0.6,0.2-0.8-0.1-0.6-0.7
				c0.2-0.5,0.7-0.6,1-0.3c0,0,0,0.1,0.1,0.2c-0.8-4.4-4.2-6.9-9-6.4c-1.9,0.2-3.8,0.9-5.6,1.7c-4.1,1.9-5,4.5-3.1,8.6
				C449.9,74.1,450.3,74.7,450.7,75.1z M452.2,161.3c-0.1,0.7-0.5,0.9-0.9,0.4c-0.4-0.4,0-0.9,0.6-1
				C452.2,160.7,452.3,160.8,452.2,161.3z M455.6,98.7c0.1,0,0.2,0,0.1,0.2c-0.1,0.1-0.1,0.2-0.2,0.2
				C455.3,99.1,455.4,98.8,455.6,98.7z M455.7,147.7c-0.3-0.3,0-0.7,0.4-0.5c0.2,0.1,0.3,0.2,0.3,0.3
				C456.4,147.9,456,148,455.7,147.7z M456.2,117.9c-0.6,0-0.9-1.4-0.4-1.9c0.3-0.3,0.9-0.2,1.1,0.2
				C457.3,116.8,456.8,117.9,456.2,117.9z M456.7,85.1c-0.1,0-0.2-0.1-0.3-0.2c-0.2-0.3,0.1-0.8,0.3-0.6
				C457,84.4,456.9,85.1,456.7,85.1z M457,85.2c0.2,0,0.3,0.1,0.3,0.2c0,0.1-0.1,0.2-0.3,0.2c-0.2,0-0.3-0.1-0.3-0.2
				S456.9,85.2,457,85.2z M456.9,87.9c0.4,0.4,0.3,0.6-0.2,0.5c-0.5,0-0.8-0.6-0.3-0.7C456.5,87.7,456.7,87.7,456.9,87.9z
				 M458,107.6c-0.4,0.3-0.9,0.2-0.9-0.2c0-0.4,0.5-0.6,0.9-0.4C458.3,107.1,458.3,107.3,458,107.6z M459.3,120.7
				c-0.1,0-0.2-0.1-0.2-0.3c0-0.2,0.1-0.2,0.2-0.2c0.1,0.1,0.2,0.2,0.2,0.3C459.5,120.6,459.5,120.7,459.3,120.7z M458.5,115.8
				c-0.2-0.3-0.3-0.5-0.1-0.9c0.3-0.8,0.8-0.7,1.1,0.1C459.8,116,459.1,116.6,458.5,115.8z M458.9,86.5c-0.3-0.2-0.4-0.7,0-1
				c0.4-0.3,0.5-0.2,0.7,0.2C459.8,86.3,459.4,86.7,458.9,86.5z M465.1,148.1c0.2,0.3-0.1,0.7-0.5,0.7c-0.3,0-0.4-0.1-0.4-0.3
				C464.2,148.3,464.9,147.9,465.1,148.1z M462.4,69.8c0.2-0.3,0.8-0.4,1-0.2c0.1,0.2,0.1,0.2,0,0.5c-0.1,0.3-0.9,0.4-1.1,0.1
				C462.2,70.2,462.3,70,462.4,69.8z M459.7,72.7c0.2,0,0.6,0.2,0.7,0.4c0.4,0.4,0.3,0.7-0.4,1c-0.5,0.2-0.5,0.2-0.8-0.1
				C458.8,73.5,459.1,72.7,459.7,72.7z M458.9,72.7c0.1,0.1,0.2,0.2,0.2,0.3c0,0.3-0.4,0.4-0.6,0.2c0,0,0,0,0,0c0,0-0.1,0.1-0.1,0
				c-0.2,0-0.3-0.2-0.3-0.4c0-0.2,0.1-0.3,0.4-0.3c0.2,0,0.2,0.1,0.3,0.1C458.7,72.7,458.8,72.7,458.9,72.7z M457.4,64.8
				c0.4-0.5,0.6-0.5,0.9,0.1c0.3,0.6,0.3,0.8-0.2,1.1c-0.3,0.1-0.4,0.1-0.7-0.3C457.2,65.2,457.2,65.1,457.4,64.8z M457.2,70.6
				c0.4-0.4,0.4-0.4,0.8,0c0.5,0.5,0.4,1.3-0.2,1.4c-0.5,0-1-0.3-0.9-0.7C456.8,71.2,456.9,70.9,457.2,70.6z M456.5,72
				c0.4,0,0.5,0.1,0.5,0.4c0,0.3-0.1,0.4-0.4,0.3C455.9,72.6,455.8,71.9,456.5,72z M456.4,77.1c0.1,0.2,0.3,0.5,0.3,0.6
				c0,0.2-0.6,0.7-0.8,0.7c-0.2,0-0.9-0.8-0.9-1C455,76.5,456,76.4,456.4,77.1z M454.8,114.3c0.3,0,0.4,0.1,0.4,0.4
				c0,0.3-0.1,0.4-0.5,0.3c-0.2,0-0.4-0.2-0.4-0.4C454.3,114.5,454.5,114.3,454.8,114.3z M453,73.8c0.3-0.2,0.4-0.2,0.8,0
				c0.3,0.2,0.4,0.4,0.4,0.6c-0.1,0.4-1,0.5-1.3,0.1C452.7,74.2,452.7,74.1,453,73.8z M449.2,70.6c-0.2-0.3,0.1-0.7,0.5-0.5
				c0.1,0.1,0.2,0.2,0.2,0.3C449.8,70.7,449.4,70.8,449.2,70.6z"/>
		</g>
		<g>
			<path d="M146,92.7c-2.7,1.4-5.7,2.7-8.1,1c-1-0.7-1.9-1.1-2.9-1.4c0,0.3-0.1,0.7-0.4,0.7c-0.2,0-0.4-0.1-0.4-0.3
				c-0.1-0.2,0-0.4,0.2-0.6c-2.2-0.5-4.3-0.2-6.5,0.3c0,0,0,0,0,0c-0.6,0.1-1.1,0.3-1.7,0.4c-5.3,1.5-6.7,5.9-3.1,10.1
				c2,2.4,2.8,5,2.8,8.1c-0.1,6.4,0,13,0,19.3c0,6-0.5,12.1-0.4,18.1c0,0.5,0,0.9,0,1.4c0.2,0,0.4,0.1,0.6,0.3
				c0.3,0.3,0.3,0.5-0.1,0.8c-0.2,0.2-0.4,0.2-0.5,0.2c-0.2,3-1,5.8-2.9,8.4c-2.5,3.4-1.1,6.8,3,7.5c5.7,1,12,1,17.7-0.4
				c2.4-0.6,3.3-2.6,2.4-4.8c-0.4-1-1.1-2-1.9-2.7c-2.6-2.5-3.6-5.5-3.5-9c0.2-9.7,0-22.4,0-30c0.1-3.1-0.1-6.3,1-9.3
				c1.3-3.8,6.1-5.9,9.9-6.9c1.2-0.3,2.4-0.5,3.6-0.7c2.5-0.4,4.2-1.9,5.7-3.7c1.4-1.7,1.5-3.6,0.7-5.5c-1.5-3.4-5.3-5.2-8.9-4.1
				C149.9,90.6,147.9,91.7,146,92.7z M135.8,135.7c0.2,0,0.5,0.1,0.6,0.2c0.3,0.4-0.2,1-0.8,0.9c-0.2,0-0.3-0.2-0.3-0.6
				C135.3,135.7,135.4,135.7,135.8,135.7z M135.4,122.4c0.1,0.3-0.2,0.8-0.5,1c-0.3,0.2-0.6-0.3-0.4-0.8
				C134.6,122.1,135.3,121.9,135.4,122.4z M133.9,103.2c0.2,0,0.4,0.1,0.5,0.2c0.1,0.2,0.1,0.2,0,0.5c-0.2,0.5-0.9,0.3-0.8-0.2
				C133.5,103.3,133.6,103.2,133.9,103.2z M126.7,148.5c-0.1,0-0.2-0.1-0.2-0.2c0-0.1,0.1-0.2,0.2-0.2s0.2,0.1,0.2,0.2
				C126.9,148.4,126.8,148.5,126.7,148.5z M127,123.7c0-0.3,0.7-0.2,0.8,0.1c0,0.1,0,0.3-0.1,0.3C127.4,124.1,127,123.9,127,123.7z
				 M128.3,145.2c-0.8,0.8-1.5-0.2-0.8-1.2c0.4-0.6,0.5-0.6,0.9-0.2C128.8,144.2,128.8,144.8,128.3,145.2z M128.5,120.3
				c-0.9,0.5-1.7-0.5-0.9-1.1c0.4-0.3,1.1-0.2,1.3,0.2C129.1,119.9,129.1,120,128.5,120.3z M128.1,103.4c0-0.5,0.7-0.9,1.1-0.5
				c0.2,0.1,0.2,0.4,0.2,0.6C129.2,104.1,128.1,104,128.1,103.4z M132.2,153.5c0.4-0.4,0.6-0.3,0.7,0.4c0.2,1,0.1,1.7-0.2,1.8
				c-0.2,0.1-0.4,0-0.5-0.1C131.9,155.2,131.9,153.8,132.2,153.5z M133.2,161.9c-0.6,0.5-1,0.3-1.2-0.4c-0.2-1,0.9-1.6,1.4-0.7
				C133.8,161.4,133.7,161.4,133.2,161.9z M134.7,151c0,0.1-0.2,0.2-0.4,0.3c-0.6,0.3-1.1-0.1-1.1-0.9c0-0.5,0.1-0.7,0.6-0.8
				c0.4-0.2,0.5-0.1,0.8,0.3c0.2,0.3,0.3,0.6,0.2,0.7C134.7,150.7,134.7,150.9,134.7,151z M134.3,125.7c0-0.1,0.2-0.2,0.3-0.4
				c0.2-0.2,0.4-0.2,0.6,0.1c0.3,0.2,0.2,0.3-0.1,0.5C134.8,126.1,134.3,126,134.3,125.7z M135.6,150.5c-0.3,0-0.4,0-0.3-0.2
				c0.1-0.1,0.3-0.3,0.5-0.3c0.3,0,0.4,0,0.3,0.2C136,150.3,135.8,150.4,135.6,150.5z M136.3,147.1c-0.4,0.1-0.9-0.1-0.8-0.5
				c0-0.2,0.3-0.3,0.6-0.3C136.6,146.4,136.8,147,136.3,147.1z M137,124c-0.5,0.3-0.8-0.1-0.4-0.6c0.3-0.4,0.5-0.5,0.7-0.1
				C137.3,123.7,137.3,123.8,137,124z M139.1,102.3c-0.2,0-0.4-0.2-0.4-0.4c0-0.2,0.2-0.3,0.5-0.3c0.3,0,0.4,0.1,0.4,0.4
				C139.6,102.3,139.5,102.4,139.1,102.3z M155.5,94.5c0.1-0.1,0.3-0.1,0.4,0c0.3,0.2,0.1,1.1-0.3,1.1
				C155.3,95.5,155.2,94.7,155.5,94.5z M146.4,94.3c-0.4,0-0.6-0.5-0.3-0.8c0.1-0.1,0.4-0.1,0.5-0.1C147,93.7,146.9,94.3,146.4,94.3
				z M146.9,92.5c-0.2-0.1-0.1-0.1,0.1-0.1c0.2,0,0.3,0.1,0.2,0.1C147.2,92.6,147,92.6,146.9,92.5z M148.2,95.3
				c0.3-0.1,0.4-0.1,0.6,0.2c0.3,0.5,0.3,1.1-0.1,1.2C147.9,96.9,147.5,95.7,148.2,95.3z M149,101.3c-0.1,0.2-0.2,0.2-0.3,0
				c0,0,0-0.1,0-0.1c-0.3,0.1-0.6-0.2-0.6-0.6c0-0.4,0.3-0.6,0.7-0.4c0.1,0,0.1,0.1,0.1,0.1c0,0,0.1-0.1,0.1-0.1
				C149.3,100.2,149.3,101,149,101.3z M149.4,93.5c-0.3,0-0.4-0.1-0.4-0.3c0-0.5,0.3-0.6,0.7-0.5C150.1,92.9,149.9,93.5,149.4,93.5z
				 M152.4,91.7c0.1-0.5,0.8-0.6,1.1-0.2c0.3,0.5,0.2,0.8-0.3,0.9C152.6,92.5,152.3,92.3,152.4,91.7z M152.1,93.9
				c-0.1,0.8-0.1,0.9-0.6,0.8c-0.7,0-0.8-0.4-0.5-1.1c0.2-0.4,0.4-0.5,0.7-0.5C152.1,93,152.2,93,152.1,93.9z"/>
		</g>
		<g>
			<path d="M35.5,116.7c0.2,0.1,0.3,0.3,0.2,0.6c-0.1,0.4-0.7,0.6-1,0.4c0,1.5,0.2,3,0.2,4.4c0.1,1.6,0,3.3,0.3,4.8
				c0.2,1.7,0.7,3.3,1.1,5c0.7,3.4,1.7,6.7,3.1,9.9c0.2,0.5,0.6,1,1.1,1.7c0,0.1-0.1,0.6,0,0.9c1.2,2.1,2.3,4.2,3.7,6.2
				c1.4,2,2.9,4,4.6,5.7c2.2,2.2,4.6,4.4,7.1,6.3c2.3,1.7,4.7,3.1,7.3,4.3c2.5,1.2,5.1,2.2,7.7,2.9c0.1,0,0.1,0,0.2,0
				c0.1-0.2,0.4-0.3,0.7-0.1c0.1,0.1,0.2,0.2,0.2,0.3c2.3,0.5,4.7,0.8,7.1,0.9c2.8,0.2,5.5,0.1,8.3,0c0.7,0,2.3-0.1,3-0.3
				c1.1-0.2,2.3-0.2,3.4-0.5c2.4-0.6,4.9-1.1,7.2-2c2.2-0.9,4.3-2,6.3-3.3c2-1.3,4-2.8,5.5-4.7c0.9-1.2,2.6-1.7,2.9-3.4
				c0.1-0.4,0.4-0.8,0.6-1.1c0.8-1.4,1.7-2.7,2.4-4.2c0.6-1.2,1.4-2.2,2-3.4c0.6-1.2,0.9-2.5,1.3-3.8c0.2-0.6,0.4-1.3,0.5-1.9
				c0.2-0.8,0.5-1.6,0.2-2.4c-0.4-1-0.7-1.9-1.7-2.3c-2.2-0.9-3.6,1.9-4.4,3.2c-1.1,1.9-2.4,3.6-4,5c-1.1,0.9-2.4,1.5-3.8,2
				c-1,0.4-1.9,0.8-2.9,1.2c-2,0.8-4.6,1.6-6.7,1.9c-2,0.3-3.6,0.5-5.7,0.4c-3.3-0.1-6.5-0.7-9.5-1.8c-3.9-1.4-8.9-3.5-11.9-6.4
				c-2.9-2.7-6.7-8-8.6-11.5c-0.9-1.7-2.5-3.6-3.2-5.4c-0.4-1-0.7-2.1-1-3.1c-0.1,0.1-0.2,0.2-0.4,0.2c-0.1,0-0.3-0.2-0.2-0.3
				c0-0.3,0.4-0.3,0.6-0.2c-0.2-0.5-0.3-1.1-0.5-1.6c-0.9-2.3-0.4-4.8-0.9-7.2c-0.3-1.5-0.5-2.9-0.6-4.4c-0.2-1.9-0.1-3.9-0.3-5.8
				c-0.2-2.3,0.3-4.5,0.4-6.8c0.1-2.4,2.6-7.1,3.7-9.3c0.4-0.8,0.1-1.9,1.2-2.4c0.4-0.2,0.3-1.2,0.6-1.8c0.7-1.3,1.9-2.9,3-3.7
				c0.9-0.7,0.9-2.3,2.4-2.3c1.4-2,2.8-3.1,4.9-3.9c2.8-1.1,5.8-1.4,8.8-0.9c0.3,0.1,0.7,0.3,1,0.2c2.1-0.1,3.9,1,5.6,1.8
				c4,1.9,7,7.2,9.8,10.5c1.3,1.6,2.5,3.3,3.8,4.9c0.9,1.1,3.3,1.5,4.2,0.7c1.2-1.1,2.4-2.3,3.6-3.5c0.6-0.7,1.2-1.3,1.8-2
				c0,0,0,0-0.1-0.1c-0.3-0.6,0.4-1.2,1-0.9c0.3-0.3,0.6-0.7,0.9-1c1.7-1.8,3.4-3.6,5.1-5.4c1.4-1.5,1.1-4.2-0.6-5.2
				c-3.2-1.8-6.4-3.7-9.7-5c-4.5-1.9-9.3-3.2-14.2-3.5c-2.4-0.1-4.7-0.3-7.1-0.4c-3.7-0.1-7.4,0.1-11,1c-3.2,0.8-6.4,1.8-9.5,2.7
				c-0.7,0.2-1.3,0.4-1.9,0.7c0,0.1,0,0.1,0,0.2c-0.1,0.3-0.2,0.4-0.7,0.4c-0.2,0-0.3,0-0.4-0.1c-1.3,0.6-2.6,1.3-3.8,2.1
				c-1.4,1-2.9,1.8-4.2,3c-0.3,0.3-0.6,0.6-1,0.9c0.3,0.2,0.3,0.4-0.1,0.8c-0.2,0.3-0.4,0.3-0.6,0.1c0,0-0.1-0.1-0.1-0.1
				c-1.5,1.4-3.2,3-5.1,4.8c-2.4,2.2-4,5-5.7,7.6c-0.9,1.3-1.6,2.8-2.3,4.3c-1,2.1-1.8,4.3-2.6,6.5c-0.2,0.6-0.3,1.2-0.4,1.8
				c0.1,0.6,0.1,0.8-0.2,1c0,0,0,0,0,0c-0.3,1.2-0.8,2.4-1,3.6c-0.4,2.4-0.6,4.9-0.9,7.3c-0.2,1.5-0.4,3-0.4,4.5c0,0.1,0,0.1,0,0.2
				C34.9,116.7,35.3,116.6,35.5,116.7z M116.9,149.2c0.4,0.4,0.2,0.7-0.4,0.6c-0.3,0-0.5-0.2-0.5-0.4
				C116,149.1,116.5,148.9,116.9,149.2z M116.7,153.1c-0.2,0.3-0.3,0.3-0.5,0.1c-0.3-0.3-0.3-0.8,0.1-1.2c0.3-0.3,0.3-0.3,0.5,0
				C117,152.3,117,152.7,116.7,153.1z M115.6,153.6c0.2-0.3,0.7-0.3,1.1,0c0.3,0.3,0.2,0.5-0.3,0.8
				C115.9,154.6,115.3,154,115.6,153.6z M112.5,151.9c-0.4,0.3-0.9,0.2-1.1-0.3c-0.2-0.6,0-1.1,0.6-1.1
				C112.6,150.3,113,151.4,112.5,151.9z M111.5,148c0.4-0.3,0.4-0.3,0.7,0.2c0.3,0.6,0.3,1.1-0.1,1.3
				C111.1,149.8,110.7,148.6,111.5,148z M100.7,155c0.5-0.5,1.1-0.3,1.4,0.4c0.3,0.7,0.3,0.9-0.4,1.4c-0.7,0.5-0.9,0.5-1.2,0
				C100.2,156.2,100.2,155.4,100.7,155z M76.8,157.9c0.4,0.4,0.4,0.6-0.1,1c-0.5,0.5-1,0.4-1.2-0.2C75.2,157.7,76,157.1,76.8,157.9z
				 M67.9,145.3c0.3,0,0.3,0,0.1,0.4c-0.3,0.6-0.7,0.7-0.6,0.1C67.5,145.6,67.7,145.3,67.9,145.3z M67,165.6c0.2-0.5,0.6-0.5,0.8,0
				c0.2,0.4-0.1,1-0.4,1C67.1,166.5,66.8,165.9,67,165.6z M66.3,165.4c0.4,0.2,0.4,1.4,0,1.6c-0.4,0.2-1.1-0.2-1.3-0.6
				C64.7,165.6,65.5,164.9,66.3,165.4z M63.4,164.1c0.3-0.4,0.3-0.5,0.2-0.9c-0.2-0.5,0-1.2,0.3-1.1c0.1,0.1,0.2,0.4,0.2,0.9
				c0,0.5,0.1,0.9,0.3,1.1c0.6,0.7-0.1,1.9-0.9,1.4C63,165.3,63,164.7,63.4,164.1z M115.7,73.9c0.3,0.1,0.4,0.5,0.1,1
				c-0.2,0.4-0.6,0.4-0.8-0.1C114.8,74.3,115.3,73.7,115.7,73.9z M107.9,69.4c0.3-0.2,0.4-0.2,0.6,0.1c0.3,0.5,0.2,1-0.4,0.9
				C107.5,70.4,107.4,69.7,107.9,69.4z M106.6,79.7c0.3,0.3,0.3,0.7-0.1,1c-0.4,0.3-0.6,0.3-0.9,0C105.1,80.1,106.1,79.2,106.6,79.7
				z M96.6,78.8c0.2-0.2,0.6,0,0.6,0.3c0,0.1-0.1,0.2-0.2,0.3C96.6,79.5,96.3,79,96.6,78.8z M79.7,70c0.4,0.4,0.4,0.5,0,0.9
				c-0.6,0.6-1.4,0.2-1.3-0.6C78.4,69.6,79.2,69.5,79.7,70z M74.2,66c0.2,0,0.3,0.2,0.3,0.3c0,0.2-0.2,0.3-0.3,0.3
				c-0.2,0-0.3-0.2-0.3-0.3C73.9,66.1,74,66,74.2,66z M63.6,70.9c0.3-0.3,0.4-0.3,0.6,0.1c0.3,0.5,0.2,1.2-0.2,1.2
				C63.2,72.1,63,71.4,63.6,70.9z M58,157.3c-0.3,0-0.5-0.1-0.4-0.4c0-0.4,0.3-0.6,0.7-0.5c0.1,0.1,0.3,0.3,0.2,0.5
				C58.5,157.2,58.4,157.3,58,157.3z M58.5,132.4c0.4,0.2,0.3,1.1-0.1,1.4c-0.3,0.2-1.2-0.1-1.2-0.5
				C57.2,132.8,58.1,132.2,58.5,132.4z M57.2,118c0.3,0.5,0.3,0.9-0.1,1.3c-0.4,0.4-0.9,0.2-1-0.5c-0.1-0.4,0-0.6,0.4-0.9
				C56.9,117.6,56.9,117.6,57.2,118z M58.8,86.1c0.3-0.3,0.7-0.3,1,0.1c0.2,0.2,0.3,0.4,0.3,0.5c0,0.3-0.8,0.7-1.1,0.5
				C58.6,87,58.5,86.3,58.8,86.1z M57.5,93.8c0.1,0.1,0.2,0.2,0.2,0.3c0,0.3-0.4,0.4-0.6,0.2C56.8,94,57.2,93.6,57.5,93.8z M56,95.9
				c0.6-0.6,1-0.4,1.2,0.6c0.2,0.8-0.1,1.2-0.7,1.2c-0.4,0-1-0.7-1-1.1C55.5,96.5,55.8,96.2,56,95.9z M55.2,136.8
				c0.1-0.6,0.6-0.8,1.1-0.4c0.3,0.3,0.3,0.7,0.1,1c0.2,0.2,0.1,0.3,0,0.7c-0.2,0.4-0.9,1.3-1.1,1.2c-0.2,0-0.7-1.4-0.6-1.9
				C54.7,137.1,54.9,136.9,55.2,136.8z M47.7,144.6c-0.2-0.2-0.2-0.4,0-0.7c0.3-0.5,0.5-0.5,0.8,0c0.1,0.2,0.2,0.4,0.2,0.6
				C48.6,144.8,48,144.9,47.7,144.6z M53.6,155.8c0,0.4-0.2,0.5-0.5,0.1c-0.3-0.4-0.2-0.5,0.2-0.5C53.5,155.4,53.6,155.5,53.6,155.8
				z M52.8,84.8c0.4,0.4,0.2,0.7-0.5,0.6c-0.4,0-0.5-0.1-0.5-0.4C51.8,84.6,52.4,84.4,52.8,84.8z M51,123.3c0.4-0.3,0.6-0.3,1.1,0.1
				c0.5,0.4,0,1.1-0.7,1c-0.2,0-0.5-0.2-0.6-0.4C50.6,123.7,50.6,123.6,51,123.3z M49.6,144.4c0.4,0.2,0.3,1-0.1,1.3
				c-0.3,0.2-0.4,0.2-0.6-0.2c-0.3-0.5-0.3-0.5,0.1-0.9C49.2,144.3,49.4,144.3,49.6,144.4z M48.1,127.5c0.3-0.3,0.4-0.2,0.7,0.1
				c0.5,0.5,0.4,1.1-0.3,1.2c-0.4,0-0.5-0.1-0.6-0.5C47.8,127.9,47.9,127.7,48.1,127.5z M47.5,140.3c-0.3,0.2-0.3,0.2-0.5,0
				c-0.2-0.4-0.2-0.4,0.1-0.8c0.2-0.2,0.4-0.3,0.5-0.2C48,139.4,47.9,140,47.5,140.3z M47.3,135.2c0.5,1-0.1,1.5-1.8,1.5l-1.2,0
				l0.1-0.5c0.1-0.3,0.3-0.6,0.5-0.7c0.2-0.1,0.6-0.3,0.9-0.5C46.5,134.8,47.1,134.8,47.3,135.2z M45.3,111.5
				c0.6,0.9,0.1,1.7-0.7,1.2c-0.5-0.3-0.4-0.8,0.1-1.2C45,111.1,45,111.1,45.3,111.5z M44.5,94.2c0.4,0.4,0.3,0.8-0.3,1
				c-0.5,0.2-1-0.1-1-0.6C43.2,94.2,44.1,93.9,44.5,94.2z M38.6,115.2c0.3-0.2,0.8,0,0.8,0.3c0,0.1-0.2,0.2-0.3,0.3
				C38.7,115.9,38.3,115.5,38.6,115.2z M40,119.2c-0.3,0.2-0.9,0-0.9-0.2c0-0.3,0.6-0.6,0.9-0.4C40.4,118.7,40.3,119,40,119.2z
				 M39.2,95.2c0.3-0.3,0.3-0.3,0.8,0.4c0.5,0.7,0.5,1-0.3,1.3C38.9,97.2,38.5,95.9,39.2,95.2z M39,103.8c0.2,0.6,0.2,0.6-0.1,1
				c-0.4,0.4-1.2,0.3-1.2-0.3C37.6,103.5,38.6,103,39,103.8z"/>
		</g>
		<g>
			<path d="M295.7,127c1.2,1.3,2.6,2.4,4,3.4c0.1,0,0.2,0.1,0.3,0.2c0,0,0,0,0,0c3,2,6.4,3.3,9.8,4.7c4.9,1.9,9.7,3.9,14.3,6.4
				c5.6,3,7.3,11.2,4.6,16.6c0.2,0,0.4,0.1,0.5,0.3c0.3,0.3,0.3,0.5-0.1,0.8c-0.4,0.3-0.6,0.3-0.9-0.2c-0.7,1.1-1.6,2-2.7,2.7
				c-2.1,1.2-4.6,2.2-6.9,2.4c-7.9,0.6-14.7-0.4-18.3-11.6c-1.1-1.8-1.9-3.8-3-5.6c-0.9-1.5-2.1-3-4.2-2.5c-2,0.4-3,1.9-3.2,3.7
				c-0.4,2.7-0.6,5.5-0.6,8.2c0,2,0.4,3.7,1,5.2c0.3-0.2,0.9-0.1,0.9,0.2c0.1,0.5-0.1,0.8-0.4,1c1.6,2.9,4.4,4.9,8.2,6.1
				c8.9,2,19.2,3.4,28.6-0.2c3.9-1.5,7.5-2.9,10.1-6.5c3.3-4.6,4.6-10.4,4.4-15.9c-0.1-2.1-0.4-4.2-0.9-6.3c-0.5,0-0.9-0.6-0.6-1.2
				c0-0.1,0.1-0.1,0.2-0.1c-1-2.8-2.5-5.4-4.9-7.4c-4.1-3.5-8.8-5.7-13.6-7.6c-4-1.6-8.1-3.2-12.1-4.9c-3.2-1.4-5.6-3.7-6.9-7
				c-0.5-1.3-0.8-2.9-0.8-4.6c-0.3,0.4-1.1,0.4-1.3-0.1c-0.2-0.4,0.1-1.1,0.5-1.2c0.1-0.1,0.4,0.1,0.6,0.4c0.1,0.1,0.1,0.2,0.2,0.2
				c0.1-3.4,1.3-6.9,4.4-8.5c4.9-2.8,13.6-2.5,19.3,2.3c2.9,2.2,2.8,4.1,4.7,9.4c1.1,2.5,2.8,3.4,5,2.9c2-0.4,3.6-2.6,3.6-5.1
				c0-1.6-0.1-4.3-0.1-5.9c-0.1-6.1-2.3-8.8-7.1-10.1c-0.9-0.2-2-0.3-3.1-0.5c-0.1,0.5-0.8,1-1.2,0.8c-0.3-0.1-0.4-0.6-0.4-1
				c-2.4-0.3-4.9-0.6-6.6-0.8c-6.8,0.2-13.4,1.1-19.7,4.2C288.6,100.2,286.8,117.6,295.7,127z M296.8,97.9c-0.1-0.7,0.6-1.1,1-0.6
				c0.1,0.1,0.2,0.3,0.2,0.4C298,98.4,297,98.5,296.8,97.9z M294.7,157.7c-0.3,0.3-0.4,0.3-0.5,0c-0.2-0.4,0.1-0.6,0.5-0.5
				C295.1,157.4,295.1,157.4,294.7,157.7z M296.5,151.3c-0.4,0-0.6-0.2-0.6-0.4c-0.1-0.4,0.3-1.3,0.6-1.3c0.2,0,0.6,0.7,0.7,1
				C297.3,151.1,297,151.3,296.5,151.3z M298.8,152.9c-0.1,0.4-0.9,0.4-0.8,0c0-0.2,0.2-0.3,0.5-0.3
				C298.8,152.5,298.9,152.6,298.8,152.9z M300.4,163.3c-0.4,0-0.5-0.1-0.5-0.5c0-0.6,0.5-1,0.9-0.7c0.2,0.1,0.2,0.5,0.2,0.8
				C300.9,163.2,300.8,163.3,300.4,163.3z M338.4,138.5c0.1-0.6,0.7-0.7,1.1-0.2c0.3,0.5,0.3,0.6-0.2,0.9
				C338.6,139.5,338.2,139.1,338.4,138.5z M330.1,160.9c-0.5,0-0.7-0.5-0.4-0.8c0.1-0.1,0.4-0.1,0.5-0.1
				C330.7,160.3,330.6,161,330.1,160.9z M335.4,157.2c0.3,0.4,0.2,0.9-0.3,1c-0.6,0.1-1.3-0.2-1.2-0.5
				C333.9,156.9,334.9,156.6,335.4,157.2z M332.9,135.2c0.4-0.4,0.5-0.4,0.7,0c0.3,0.4,0.2,0.7-0.2,0.9c-0.2,0.1-0.4,0.1-0.6-0.2
				C332.5,135.6,332.5,135.6,332.9,135.2z M332.2,157.9c0,0-0.1,0.2-0.3,0.3c-0.4,0.4-0.9,0.1-0.8-0.4c0-0.5,0.5-0.7,0.9-0.3
				C332.1,157.7,332.2,157.8,332.2,157.9z M330.9,132.8c0.2-0.2,0.4-0.2,0.6-0.1c0.5,0.2,0.2,1-0.3,1
				C330.6,133.7,330.4,133.1,330.9,132.8z M330.9,155.3c0.3,0.4,0.2,0.9-0.2,1.1c-0.3,0.1-0.4,0.1-0.7-0.3
				C329.6,155.3,330.3,154.6,330.9,155.3z M329.3,129.7c0.4-0.3,0.8-0.2,1,0.5c0.2,0.7,0.2,0.9-0.1,1.1c-0.3,0.3-0.6,0.2-1-0.1
				C328.9,130.7,328.9,130,329.3,129.7z M328.7,139.5c0.3,0.3,0.2,1-0.2,1.3c-0.6,0.5-1.2,0.1-1.2-0.7
				C327.4,139.3,328.2,138.9,328.7,139.5z M325.5,135.5c0.3,0.1,0.3,0.2,0.1,0.5c-0.3,0.4-1.1,0.4-1-0.1
				C324.6,135.5,325.1,135.3,325.5,135.5z M320,133.2c0.6-0.3,0.7-0.3,1.1,0.2c0.8,0.9-0.2,1.9-1.1,1.2
				C319.4,134.2,319.4,133.6,320,133.2z M311.1,134.6c0.2,0.1,0.3,0.2,0.3,0.3c0,0.3-0.6,0.4-0.8,0.1
				C310.3,134.8,310.7,134.4,311.1,134.6z M304.9,131.9c0.1-0.4,0.4-0.5,0.9-0.2c0.2,0.1,0.3,0.3,0.2,0.6c-0.1,0.4-0.2,0.5-0.6,0.5
				C304.9,132.9,304.7,132.6,304.9,131.9z M337.5,105.9c0.1,0,0.2,0.1,0.2,0.2c0,0.1-0.1,0.2-0.2,0.2c-0.1,0-0.2-0.1-0.2-0.2
				C337.3,106,337.4,105.9,337.5,105.9z M334.8,107.4c0,0.3-0.1,0.4-0.6,0.3c-0.6-0.1-0.8-0.3-0.5-0.7c0.1-0.2,0.4-0.2,0.7-0.1
				C334.7,107,334.9,107.2,334.8,107.4z M334.3,105.7c0.2,0.1,0.3,0.2,0.3,0.3c0,0.3-0.6,0.4-0.8,0.1
				C333.5,105.9,333.9,105.6,334.3,105.7z M332.9,98c0.3-0.3,0.5-0.3,0.8,0.1c0.3,0.4,0.3,0.8-0.2,1.1
				C332.8,99.6,332.3,98.6,332.9,98z M317.9,95.3c0-0.4,0.1-0.5,0.5-0.4c0.4,0,0.5,0.1,0.4,0.5c-0.1,0.3-0.3,0.4-0.5,0.4
				C317.9,95.8,317.8,95.7,317.9,95.3z M301.6,102.2c0.2-0.2,0.3-0.2,0.8,0.1c0.6,0.4,0.6,0.9,0.1,1.3c-0.3,0.2-0.5,0.3-0.7,0.1
				C301.4,103.4,301.3,102.5,301.6,102.2z"/>
		</g>
		<g>
			<path d="M481.7,254.2c0,0,5.4,0.2,8.1-0.1c4.3-0.5,5.9-3.7,3.8-7.1c-0.1,0-0.3-0.2-0.3-0.5c-1.1-1.6-1.7-3.2-2.1-5
				c-0.3,0.3-0.5,0.3-0.9-0.1c-0.2-0.2-0.2-0.4-0.1-0.7c0.2-0.3,0.5-0.4,0.8-0.3c-0.1-0.7-0.1-1.5-0.1-2.3c0.1-4.8,0-9.6,0.2-14.3
				c0.2-5.4,0.2-12.2,0.8-17.5c0.9-7.6,4.9-12.9,13-13.3c2.5-0.1,4.7-1,6.5-2.7c0,0,0-0.1,0-0.1c0.1-0.3,0.3-0.4,0.6-0.5
				c0.2-0.2,0.4-0.4,0.5-0.6c0.5-0.6,0.9-1.5,0.9-2.3c0-1.7-0.1-3.5-0.5-5.1c-1.6-5.7-6.8-6.6-10.4-4.5c-1.7,1-3.5,1.6-5.1,2.6
				c-3.8,2.4-7.3,3.4-10.2-0.9c-2-1.5-4.2-1.9-6.6-1.2c-2.3,0.7-4.8,1.2-7.1,1.9c-5.3,1.6-6.7,5.3-3.5,9.8c1.5,2.2,2.5,4.5,2.5,7.2
				c0,13.9,0.1,29.1,0,43c0,2.1-0.9,4.3-2,6.1c-2.5,4.2-1.1,7.9,3.8,8.4C476.8,254.4,479.3,254.2,481.7,254.2z M492.8,246.9
				c0.5,0,0.5,0.1,0.5,0.6c-0.1,1.1-1.2,1.5-1.4,0.5C491.7,247.3,492.1,246.9,492.8,246.9z M496.4,193.5c0.4,0.3,0.3,0.7-0.1,0.9
				c-0.5,0.3-1,0.1-0.9-0.4C495.5,193.4,496.1,193.1,496.4,193.5z M487.6,179.3c0.3,0.3,0.3,0.7-0.1,0.9c-0.4,0.3-0.9,0.1-0.8-0.4
				C486.7,179.3,487.3,179,487.6,179.3z M486.5,200.4c0.2-0.2,0.5-0.2,0.6-0.1c0.2,0.1,0.3,0.3,0.2,0.5c-0.1,0.5-0.4,0.5-0.8,0.2
				C486.2,200.7,486.2,200.6,486.5,200.4z M485.4,246.9c0.4-0.5,0.6-0.6,0.9-0.1c0.2,0.5,0.2,0.9-0.2,1.2c-0.4,0.4-0.7,0.3-0.9-0.2
				C485.1,247.5,485.1,247.3,485.4,246.9z M484.5,222.7c0.2,0.1,0.3,0.3,0.2,0.6c-0.1,0.3-0.2,0.4-0.6,0.4c-0.3,0-0.5-0.2-0.5-0.5
				C483.6,222.7,484,222.5,484.5,222.7z M483.6,226.4c0.2-0.5,0.7-0.7,1-0.4c0.1,0.1,0.2,0.5,0.1,0.8c-0.1,0.5-0.2,0.6-0.6,0.6
				C483.6,227.4,483.4,227.1,483.6,226.4z M482.8,236.4c0.2-0.7,0.5-0.9,0.8-0.4c0.3,0.5,0.2,1.4-0.2,1.5
				C482.9,237.6,482.6,237,482.8,236.4z M482.4,241.2c0.2-0.6,0.8-0.7,1.1-0.2c0.3,0.5,0.3,1,0,1.3
				C482.9,242.8,482.1,242.1,482.4,241.2z M482.2,246.8c0.2-0.2,0.4-0.2,0.5-0.1c0.3,0.2,0.2,0.6-0.1,0.7c-0.2,0-0.4,0-0.5-0.1
				C481.9,247.1,481.9,247.1,482.2,246.8z M478.4,220.1c-0.5-0.1-0.9-1-0.7-1.4c0.2-0.4,1.1-0.5,1.4-0.1
				C479.8,219.3,479.3,220.3,478.4,220.1z M481,196.8c0.2,0.1,0.2,0.5,0,0.9c-0.1,0.2-0.2,0.2-0.4,0.1
				C480.2,197.3,480.5,196.4,481,196.8z M479.4,196.6c0.3,0,0.6,0,0.8,0.1c0.4,0.2,0.2,0.9-0.3,1.1c-0.4,0.2-1-0.1-1-0.7
				C478.9,196.8,479,196.7,479.4,196.6z M478.8,208c0.3,0.3,0.3,0.6,0,0.9c-0.3,0.3-0.8,0.2-1.1-0.2
				C477.3,208.1,478.3,207.5,478.8,208z M477.5,244.6c0.4,0.4,0.3,0.9-0.2,1.1c-0.5,0.2-0.8,0-0.7-0.5
				C476.6,244.6,477.1,244.2,477.5,244.6z M476,249.7c0.1-0.2,0.2-0.2,0.3-0.2c0.2,0.2,0.2,0.4-0.1,0.6
				C476,250.2,475.8,250,476,249.7z"/>
		</g>
		<g>
			<path d="M172.3,96c0.4,0.5,0.3,1.3-0.2,1.5c-0.4,0.2-0.9-0.1-1.2-0.5c-1.8,1.4-3.3,2.9-4.8,4.5c0.1,0.3,0,0.7-0.2,0.9
				c-0.2,0.2-0.4,0.2-0.6,0.1c-4,5-6.5,11.2-7.8,18.2c-1.3,7-0.9,15.5,0.7,22.4c2.2,9.6,7.4,17.2,15.5,22.6c5.8,3.9,12.4,5.5,19.4,5
				c0.2,0,0.5,0,0.7,0c0.1-0.5,0.3-0.8,0.3-0.8c0.1,0,0.1,0.2,0,0.4c0,0.1,0,0.3,0,0.4c0.5,0,1,0,1.5,0c14.8-0.4,24.9-7.8,30.9-21
				c0,0,0,0,0-0.1c-0.1,0-0.3,0-0.4-0.1c-0.2-0.2-0.2-0.3,0-0.5c0.2-0.2,0.3-0.2,0.5,0c0.1,0.1,0.1,0.1,0.2,0.2
				c4.7-10.7,4.7-23.4,1.2-34.3c-1.3-4-3-7.7-5.1-10.8c-0.2-0.1-0.5-0.3-0.4-0.4c0-0.1,0-0.1,0.1-0.1c-5.1-7.2-12.5-11.9-22.6-13.2
				c-7-0.9-14.2-0.8-20.8,1.9C176.6,93.4,174.4,94.6,172.3,96z M158.2,125.4c-0.2,0-0.3-0.2-0.3-0.4c0-0.2,0.2-0.4,0.3-0.4
				c0.2,0,0.3,0.2,0.3,0.4C158.5,125.2,158.3,125.4,158.2,125.4z M160.6,129c-0.4,0-0.6-0.5-0.3-0.8c0.1-0.1,0.4-0.1,0.5-0.1
				C161.2,128.4,161.1,129,160.6,129z M166.3,106.2c-0.3,0-0.3-0.7,0-0.9c0.1-0.1,0.3,0,0.4,0.1
				C166.9,105.8,166.7,106.2,166.3,106.2z M167.6,105.1c-0.4,0.1-0.9-0.3-0.8-0.7c0-0.5,0.5-0.6,0.9-0.3
				C167.9,104.4,167.9,105,167.6,105.1z M229.5,123.7c0.4,0.4,0.2,1.3-0.3,1.6c-0.3,0.1-0.4,0.1-0.8-0.4c-0.2-0.3-0.4-0.7-0.4-0.9
				C228.2,123.6,229.1,123.4,229.5,123.7z M222.5,153.3c-0.6,0.4-1.3-0.5-0.7-1.1c0.3-0.3,0.9-0.3,1,0
				C222.9,152.7,222.8,153.1,222.5,153.3z M224.4,130.9c-0.6-0.2-0.4-1.1,0.3-1.2c0.2,0,0.5,0.1,0.6,0.2
				C225.6,130.6,225.1,131.2,224.4,130.9z M224.7,127.5c0.1-0.3,0.7-0.3,1,0c0.3,0.4,0.2,0.7-0.3,0.7
				C224.9,128.2,224.6,127.9,224.7,127.5z M223.9,126.6c0.2-0.1,0.4-0.2,0.5-0.1c0.4,0.3,0.1,1.2-0.4,1.2
				C223.6,127.6,223.5,126.9,223.9,126.6z M223,145.8c0.4,0.6,0.3,1.1-0.2,1.4c-0.4,0.2-0.5,0.2-0.7-0.1c-0.4-0.6-0.1-1.8,0.4-1.7
				C222.6,145.4,222.8,145.6,223,145.8z M222.1,129.9c0.2,0.4,0.2,0.5-0.1,0.7c-0.3,0.2-0.5,0.1-0.5-0.4
				C221.5,129.8,221.9,129.6,222.1,129.9z M220.5,105.2c0.1,0,0.3,0.1,0.4,0.3c0.2,0.2,0.3,0.4,0.3,0.5c0,0.3-0.6,0.7-1,0.7
				c-0.3,0-0.5-0.4-0.5-0.8C219.7,105.7,220.3,105.2,220.5,105.2z M177.5,112.2c0.2,0.6,0.2,0.7-0.3,1c-0.6,0.3-1,0-1-0.8
				C176.3,111.4,177.1,111.3,177.5,112.2z M170.7,103c0.2,0.1,0.4,0.3,0.4,0.5c0,0.4-0.6,0.6-1,0.4C169.4,103.4,170,102.6,170.7,103
				z M170.8,128.2c-0.5,0.2-0.5,0.2-0.6-0.6c-0.1-0.8,0.1-1,0.7-0.7C171.4,127.2,171.3,128,170.8,128.2z M171,155.1
				c-0.4,0.1-1.2-0.2-1.3-0.5c-0.1-0.4,0.1-1,0.6-1.6l0.4-0.4l0.3,0.5C171.5,153.6,171.4,155,171,155.1z M172.2,104.3
				c-0.4,0.3-0.9,0-0.8-0.6c0.1-0.5,0.7-0.8,0.9-0.4C172.6,103.7,172.5,104,172.2,104.3z M172.5,106.1c0.1-0.7,0.6-1.1,1-0.7
				c0.6,0.5,0,1.6-0.7,1.4C172.5,106.6,172.4,106.5,172.5,106.1z M173.6,133.6c-0.4,0.5-1,0.1-1-0.7c0-0.5,0.1-0.6,0.5-0.7
				c0.3,0,0.6,0,0.7,0.1C174.1,132.5,174,133.2,173.6,133.6z M183,159.8c-0.2,0-0.4-0.2-0.4-0.4c0-0.2,0.2-0.4,0.4-0.3
				c0.2,0,0.4,0.2,0.4,0.4C183.4,159.7,183.2,159.8,183,159.8z M190.5,164.9c-0.2,0.4-1.2,0.3-1.3-0.1c-0.2-0.6,0.8-1.1,1.3-0.5
				C190.6,164.6,190.6,164.6,190.5,164.9z M210.1,156.6c-0.1,0-0.2-0.1-0.2-0.2c0-0.1,0.1-0.2,0.2-0.2c0.1,0,0.2,0.1,0.2,0.2
				C210.3,156.6,210.2,156.7,210.1,156.6z M217.1,156.5c-0.1,0.5-0.2,0.6-0.6,0.6c-0.4,0-0.5-0.1-0.5-0.4c0-0.5,0.4-0.9,0.9-0.8
				C217.1,155.9,217.2,156,217.1,156.5z M217.9,129.7C217.9,129.7,218,129.8,217.9,129.7c0.2,0.1,0.3,0.2,0.4,0.3
				c0.1,0.2,0.1,0.4,0,0.6c-0.1,0.2-0.3,0.3-0.5,0.3c-0.4,0.1-0.7-0.3-0.6-0.9C217.2,129.4,217.6,129.3,217.9,129.7z M215.5,151.5
				c0.2-0.1,0.4-0.1,0.6,0.1c0,0,0,0,0,0c0.1-0.4,0.5-0.7,0.9-0.5c0.4,0.2,0.2,1.4-0.2,1.7c-0.3,0.2-0.6,0-0.7-0.4c0,0,0,0,0,0
				c-0.2,0.3-0.4,0.3-0.6,0.1C215.1,152.3,215.1,151.7,215.5,151.5z M212.4,97.2c0.4-0.4,0.8-0.4,1,0.1c0.4,0.8-0.1,1.5-0.9,1.1
				C211.9,98.1,211.9,97.6,212.4,97.2z M210,108.3c0.4,0.3,0.4,0.9,0,1c-0.6,0.2-0.8,0.1-0.8-0.5C209.2,108.2,209.5,108,210,108.3z
				 M207.8,96.4c0.1-0.7,0.3-1,0.7-0.8c0.5,0.2,0.2,1.5-0.4,1.4C207.8,97,207.8,96.9,207.8,96.4z M204.1,97.3c0.2,0,0.5,0.1,0.6,0.3
				c0,0,0,0,0,0.1c0.1-0.2,0.3-0.3,0.5-0.2c0.1,0.1,0.2,0.3,0.2,0.4c0.1,0,0.2,0,0.3,0.1c0.3,0.3,0.1,0.6-0.4,0.7
				c-0.3,0-0.4-0.1-0.4-0.3c-0.1,0-0.1,0-0.2-0.1c-0.1,0.3-0.2,0.5-0.5,0.7c-0.7,0.4-0.9,0.3-1.1-0.2
				C203.1,98.1,203.6,97.3,204.1,97.3z M201.7,94.1c0.5,0.5,0.4,0.7,0,1.1c-0.6,0.5-1.1,0.2-1-0.5C200.7,93.9,201.2,93.6,201.7,94.1
				z M195.6,96.2c0.4-0.4,0.8-0.3,1.1,0.1c0.3,0.4,0.3,0.6-0.1,0.9c-0.4,0.4-0.8,0.2-1.1-0.3C195.3,96.5,195.3,96.4,195.6,96.2z
				 M187.6,97.3c0.3-0.3,0.4-0.2,0.7,0.1c0.4,0.4,0.2,0.9-0.4,0.8C187.3,98.2,187.2,97.7,187.6,97.3z M191.1,97.6
				c0-0.3,0-0.6,0.3-0.9c0.3-0.3,0.5-0.3,0.7-0.1c0.1,0.1,0.1,0.5,0.1,0.8c0.1,0,0.2,0,0.2,0c-0.1-0.1-0.1-0.3-0.1-0.5
				c0.1-0.6,0.7-0.7,1.1-0.2c0.2,0.3,0.2,0.5,0.2,0.7c3.6,0,7.1,1.3,9.9,4.1c2.4,2.4,4,5.3,4.9,8.6c1.8,6.3,2.7,13.5,2.6,20.1
				c0,6.2-0.6,13.1-2.1,19.1c-0.9,3.7-2.7,6.8-5,9.8c-5,6.5-15.4,5.1-19.6,0.9c-2.9-2.9-5-6.2-5.8-10.2c-1-4.9-1.8-10.7-2.2-15.7
				c-0.2-1.9-0.2-3.9-0.2-5.9c-0.1-0.3-0.1-0.7,0-1c0.2-5.2,1-10.6,2.2-15.5c0.9-3.4,2.2-6.5,4.5-9.3
				C185,99.8,187.9,98.2,191.1,97.6z"/>
		</g>
	</g>
	<g>
		<g>
			<path d="M301.2,268.5c1,0,1.5,0.1,1.5,0.6c0,0.7-0.7,0.7-1.5,1.1c-0.4,0.2-0.6,0.7-0.6,1.4c0,1.2,0.9,6.8,4.2,15.8
				c3.7-8.5,4.9-14.2,4.9-16.1c0-0.5-0.1-0.8-0.4-1c-0.5-0.4-1.3-0.4-1.3-1.1c0-0.6,0.4-0.8,1.3-0.8h3.2c1,0,1.5,0.2,1.5,0.8
				c0,0.5-0.3,0.6-0.8,0.9c-0.7,0.4-0.9,0.7-0.9,1.6c0,1.8,1.2,7.5,5.1,15.7c3.3-8.6,4.2-14.3,4.2-15.8c0-0.6-0.1-0.9-0.5-1.1
				c-0.8-0.5-1.6-0.5-1.6-1.3c0-0.5,0.4-0.7,1.2-0.7h3c1,0,1.4,0.1,1.4,0.7c0,0.7-0.8,0.8-1.3,1.7c-0.3,0.5-0.4,1.8-0.8,3.8
				c-0.8,4.3-2,8.7-3.5,12.9c-1,2.8-1.5,4.2-2.4,4.2c-1,0-1.5-1.3-2.6-4c-1.8-4.4-3.1-8.1-3.8-10.9c-2.9,9.9-5,14.9-6.3,14.9
				c-1.2,0-2.4-3.5-4.3-10.5c-1.3-4.7-1.8-8-2.3-10c-0.1-0.5-0.3-0.9-0.5-1.1c-0.3-0.2-0.8-0.3-0.8-1c0-0.5,0.4-0.7,1.2-0.7H301.2z"
				/>
		</g>
		<g>
			<path d="M332.3,289.5c1.3,0,2.3-0.3,3.4-0.9c1-0.7,1.6-1.2,2-1.2c0.3,0,0.6,0.3,0.6,0.7c0,0.5-0.8,1.5-2.3,2.4
				c-1.2,0.7-2.5,1-3.9,1c-4.3,0-7.1-2.8-7.1-7c0-4.7,3.4-8.3,7.9-8.3c3.4,0,5.3,1.5,5.3,4c0,3.1-3.4,4.8-10.4,5.4
				C328.2,288.1,330,289.5,332.3,289.5z M335.5,280c0-1.5-1.1-2.4-2.9-2.4c-2.9,0-5.1,2.5-5.1,6.3c0,0.1,0,0.2,0,0.2
				C332.9,283.6,335.5,282.3,335.5,280z"/>
		</g>
		<g>
			<path d="M349.1,280c0-3.5,1-6.3,3.1-8.6c2.2-2.4,5-3.5,8.5-3.5c3.6,0,6.4,1.3,7.1,2.1c0.3,0.4,0.5,1.8,0.5,4
				c0,0.6-0.1,0.8-0.6,0.8c-0.9,0-0.7-0.8-1.4-1.9c-1.4-2.2-3.5-3.3-6-3.3c-4.6,0-8,4-8,10.2c0,6.1,3.2,9.9,8.2,9.9
				c2.1,0,3.8-0.6,5.4-1.9c1.2-0.9,1.8-2.2,2.4-2.2c0.4,0,0.8,0.4,0.8,0.8c0,0.6-0.6,1.8-1.9,2.8c-2.1,1.7-4.5,2.5-7.3,2.5
				C353.4,291.7,349.1,287.2,349.1,280z"/>
		</g>
		<g>
			<path d="M375.9,291.5c-3.1,0-4.9-1.8-4.9-4.5c0-3.7,3.3-5.8,9.6-5.8c0.2,0,0.5,0,0.7,0c-0.2-2.2-1.9-3.4-4.5-3.4
				c-2,0-3,1.5-4,1.5c-0.6,0-1-0.3-1-0.8c0-1.2,1.8-2.2,5.1-2.2c5.2,0,7.1,2.3,7.1,7.5v4.7c0,0.6,0.2,0.8,0.6,1.1
				c0.4,0.3,1.1,0.3,1.1,1c0,0.8-0.9,0.8-3,0.8c-0.8,0-1-0.3-1-1v-1.5C380.4,290.5,378.4,291.5,375.9,291.5z M381.2,282.6
				c-4.9,0-7.5,1.6-7.5,4.3c0,1.6,1.2,2.8,3.1,2.8c1,0,2.1-0.3,2.8-0.8c1.6-1,2-1.9,2-3.7v-2.6C381.4,282.6,381.3,282.6,381.2,282.6
				z"/>
		</g>
		<g>
			<path d="M388.9,281.2c0-0.9,0-1.6-0.6-2c-0.7-0.5-1.4-0.5-1.4-1.2c0-0.2,0.2-0.6,0.8-1c0.7-0.6,1.3-0.8,1.5-0.8
				c0.8,0,1.7,1.4,1.8,4.1c1.1-2.8,2.6-4.2,4.1-4.2c1.1,0,1.7,0.8,1.7,2.3c0,0.5-0.3,0.8-0.8,0.8c-0.7,0-1.3-0.6-1.9-0.6
				c-1.1,0-2.7,2.1-2.7,5.9v3.3c0,0.9,0,1.4,0.5,1.7c0.8,0.3,1.7,0.2,1.7,1c0,0.5-0.4,0.6-1.1,0.6h-3.9c-0.7,0-1.1-0.1-1.1-0.5
				c0-0.6,0.6-0.6,1.2-1c0.3-0.2,0.3-0.6,0.3-1.2c0-0.1,0-0.2,0-0.4V281.2z"/>
		</g>
		<g>
			<path d="M404.7,289.5c1.3,0,2.3-0.3,3.4-0.9c1-0.7,1.6-1.2,2-1.2c0.3,0,0.6,0.3,0.6,0.7c0,0.5-0.8,1.5-2.3,2.4
				c-1.2,0.7-2.5,1-3.9,1c-4.3,0-7.1-2.8-7.1-7c0-4.7,3.4-8.3,7.9-8.3c3.4,0,5.3,1.5,5.3,4c0,3.1-3.4,4.8-10.4,5.4
				C400.6,288.1,402.4,289.5,404.7,289.5z M407.8,280c0-1.5-1.1-2.4-2.9-2.4c-2.9,0-5.1,2.5-5.1,6.3c0,0.1,0,0.2,0,0.2
				C405.2,283.6,407.8,282.3,407.8,280z"/>
		</g>
		<g>
			<path d="M421.4,290.3c0-0.6,0.6-0.7,1.3-1.1c0.4-0.3,0.5-0.8,0.5-1.8V272c0-0.7,0-1.2-0.3-1.5c-0.4-0.5-1.5-0.6-1.5-1.3
				c0-0.6,0.4-0.7,1.3-0.7h9c4.7,0,7,1.7,7,5.1c0,2.1-1.7,4.1-5,5.3c4,0.5,6.5,2.9,6.5,6.1c0,2-1,3.8-2.6,4.9
				c-1.8,1.2-3.8,1.2-6.4,1.2h-8.6C421.8,291,421.4,290.9,421.4,290.3z M435.7,273.5c0-2.4-1.9-3.4-5.9-3.4c-3.8,0-3.9,0.2-3.9,2.7
				v6.5C432.5,278.2,435.7,276.4,435.7,273.5z M426,286.7c0,2.6,0.7,2.6,3.8,2.6c4.9,0,7.4-1.5,7.4-4.5c0-2.5-2-4.4-5.6-5
				c-2.8,0.7-4.7,1.1-5.7,1.2V286.7z"/>
		</g>
		<g>
			<path d="M449.5,289.5c1.3,0,2.3-0.3,3.4-0.9c1-0.7,1.6-1.2,2-1.2c0.3,0,0.6,0.3,0.6,0.7c0,0.5-0.8,1.5-2.3,2.4
				c-1.2,0.7-2.5,1-3.9,1c-4.3,0-7.1-2.8-7.1-7c0-4.7,3.4-8.3,7.9-8.3c3.4,0,5.3,1.5,5.3,4c0,3.1-3.4,4.8-10.4,5.4
				C445.4,288.1,447.2,289.5,449.5,289.5z M452.6,280c0-1.5-1.1-2.4-2.9-2.4c-2.9,0-5.1,2.5-5.1,6.3c0,0.1,0,0.2,0,0.2
				C450,283.6,452.6,282.3,452.6,280z"/>
		</g>
		<g>
			<path d="M469.8,287.7c0,0.5-0.5,1.5-1.7,2.3c-1.2,0.9-2.6,1.4-4.3,1.4c-3.8,0-6.6-2.9-6.6-7.2c0-4.7,3.1-8.1,7.2-8.1
				c3,0,4.9,1.5,4.9,2.9c0,0.7-0.6,1.3-1.3,1.3c-0.7,0-1-0.5-1.5-1.1c-0.6-0.8-1.1-1.4-2.4-1.4c-2.3,0-4.2,2.3-4.2,6.2
				c0,3.5,1.9,5.6,4.5,5.6c0.8,0,1.6-0.2,2.4-0.7c1.3-0.7,1.8-1.7,2.2-1.7C469.5,287.2,469.8,287.5,469.8,287.7z"/>
		</g>
		<g>
			<path d="M476.3,291.5c-3.1,0-4.9-1.8-4.9-4.5c0-3.7,3.3-5.8,9.6-5.8c0.2,0,0.5,0,0.7,0c-0.2-2.2-1.9-3.4-4.5-3.4
				c-2,0-3,1.5-4,1.5c-0.6,0-1-0.3-1-0.8c0-1.2,1.8-2.2,5.1-2.2c5.2,0,7.1,2.3,7.1,7.5v4.7c0,0.6,0.2,0.8,0.6,1.1
				c0.4,0.3,1.1,0.3,1.1,1c0,0.8-0.9,0.8-3,0.8c-0.8,0-1-0.3-1-1v-1.5C480.8,290.5,478.8,291.5,476.3,291.5z M481.5,282.6
				c-4.9,0-7.5,1.6-7.5,4.3c0,1.6,1.2,2.8,3.1,2.8c1,0,2.1-0.3,2.8-0.8c1.6-1,2-1.9,2-3.7v-2.6C481.8,282.6,481.6,282.6,481.5,282.6
				z"/>
		</g>
		<g>
			<path d="M500.4,286.2c0,1.6,0.1,2.4,0.2,2.6c0.3,0.6,0.7,0.8,1.2,1c0.4,0.2,0.8,0.2,0.8,0.7c0,0.7-0.8,0.8-2.7,0.8
				c-1.2,0-1.5-0.5-1.5-1.8c0-0.2,0-0.3,0-0.5c-1.3,1.7-2.9,2.5-5,2.5c-3.7,0-5.1-2.2-5.1-6.8v-4.8c0-0.8,0-1.1-0.9-1.6
				c-0.4-0.2-0.7-0.4-0.7-0.8c0-0.6,1.4-1.3,3-1.3c0.7,0,0.9,0.5,0.9,1.7v6.8c0,3.3,1.1,4.9,3.6,4.9c2.3,0,3.9-1.3,3.9-3.8v-6.3
				c0-0.5-0.1-0.9-0.5-1.1c-0.6-0.3-0.9-0.5-0.9-0.9c0-0.7,1.5-1.4,2.9-1.4c0.7,0,0.9,0.5,0.9,1.5V286.2z"/>
		</g>
		<g>
			<path d="M504.7,287.2c0.6,0,0.9,0.5,1.4,1.2c0.8,0.9,1.8,1.4,3.2,1.4c1.8,0,3.1-1.1,3.1-2.6c0-1.7-1.5-1.9-3.9-2.5
				c-2.8-0.7-4.2-1.8-4.2-4c0-2.7,1.9-4.5,5.1-4.5c2.9,0,4.6,0.9,4.6,2.4c0,1-0.1,1.4-0.6,1.4c-0.6,0-0.8-0.6-1.3-1.1
				c-0.8-0.8-1.9-1.3-3.1-1.3c-1.5,0-2.6,1-2.6,2.2c0,1.2,0.8,1.7,2.3,2.1c1.6,0.4,3,0.6,3.9,1.2c1.3,0.8,1.9,1.9,1.9,3.3
				c0,2.9-2.2,4.9-5.4,4.9c-3.1,0-5.4-2.1-5.4-3.3C503.7,287.6,504.1,287.2,504.7,287.2z"/>
		</g>
		<g>
			<path d="M523.6,289.5c1.3,0,2.3-0.3,3.4-0.9c1-0.7,1.6-1.2,2-1.2c0.3,0,0.6,0.3,0.6,0.7c0,0.5-0.8,1.5-2.3,2.4
				c-1.2,0.7-2.5,1-3.9,1c-4.3,0-7.1-2.8-7.1-7c0-4.7,3.4-8.3,7.9-8.3c3.4,0,5.3,1.5,5.3,4c0,3.1-3.4,4.8-10.4,5.4
				C519.5,288.1,521.3,289.5,523.6,289.5z M526.8,280c0-1.5-1.1-2.4-2.9-2.4c-2.9,0-5.1,2.5-5.1,6.3c0,0.1,0,0.2,0,0.2
				C524.2,283.6,526.8,282.3,526.8,280z"/>
		</g>
		<g>
			<path d="M551.3,289c0.4,0.5,1.5,0.6,1.5,1.3c0,0.6-0.4,0.7-1.3,0.7h-3.8c-0.9,0-1.3-0.1-1.3-0.7c0-0.6,0.6-0.7,1.3-1.1
				c0.4-0.3,0.6-0.8,0.6-1.8v-4.8c0-1.4-2-3.2-4.7-7.3c-1.6-2.5-2.5-4.2-3-4.8c-0.5-0.6-1.7-0.6-1.7-1.5c0-0.4,0.4-0.6,1.2-0.6h3.9
				c1,0,1.4,0.1,1.4,0.6c0,0.7-0.4,0.7-1,1.1c-0.3,0.1-0.4,0.4-0.4,0.7c0,0.5,1.9,3.8,6.2,9.3c3.7-4.8,5.7-7.8,5.7-9.3
				c0-0.5-0.4-0.6-0.9-0.9c-0.4-0.2-0.7-0.4-0.7-0.8c0-0.4,0.3-0.6,1-0.6h3.1c1.1,0,1.7,0,1.7,0.6c0,0.6-0.8,0.6-1.5,1.8
				c-2,3.2-4.4,6.8-7.4,10.9v5.7C551,288.1,551,288.7,551.3,289z"/>
		</g>
		<g>
			<path d="M565.4,276.2c4.6,0,7.7,3.2,7.7,7.7c0,4.5-3.1,7.6-7.7,7.6c-4.6,0-7.7-3.2-7.7-7.6C557.7,279.4,560.8,276.2,565.4,276.2z
				 M565.4,289.9c2.9,0,5-2.3,5-6c0-3.7-2-6-5-6c-2.9,0-5,2.4-5,6C560.4,287.5,562.5,289.9,565.4,289.9z"/>
		</g>
		<g>
			<path d="M588.1,286.2c0,1.6,0.1,2.4,0.2,2.6c0.3,0.6,0.7,0.8,1.2,1c0.4,0.2,0.8,0.2,0.8,0.7c0,0.7-0.8,0.8-2.7,0.8
				c-1.2,0-1.5-0.5-1.5-1.8c0-0.2,0-0.3,0-0.5c-1.3,1.7-2.9,2.5-5,2.5c-3.7,0-5.1-2.2-5.1-6.8v-4.8c0-0.8,0-1.1-0.9-1.6
				c-0.4-0.2-0.7-0.4-0.7-0.8c0-0.6,1.4-1.3,3-1.3c0.7,0,0.9,0.5,0.9,1.7v6.8c0,3.3,1.1,4.9,3.6,4.9c2.3,0,3.9-1.3,3.9-3.8v-6.3
				c0-0.5-0.1-0.9-0.5-1.1c-0.6-0.3-0.9-0.5-0.9-0.9c0-0.7,1.5-1.4,2.9-1.4c0.7,0,0.9,0.5,0.9,1.5V286.2z"/>
		</g>
		<g>
			<path d="M602.3,272c0-0.7,0-1.2-0.3-1.5c-0.4-0.5-1.5-0.6-1.5-1.3c0-0.5,0.4-0.7,1.1-0.7c0.2,0,0.9,0,2.1,0
				c1.8,0,3.5-0.1,5.1-0.1c7.6,0,12.3,4.5,12.3,11.3c0,7.1-4.5,11.4-12.7,11.4h-6.6c-0.9,0-1.3-0.1-1.3-0.7c0-0.6,0.6-0.7,1.3-1.1
				c0.4-0.3,0.5-0.8,0.5-1.8V272z M608,289.5c6.3,0,9.8-3.4,9.8-9.8c0-6.3-3.4-9.7-9.6-9.7c-1.3,0-2.2,0-2.7,0.6
				c-0.4,0.5-0.5,1.2-0.5,2.3c0,0.3,0,0.7,0,1.1v11.3C605.1,288.6,605.1,289.5,608,289.5z"/>
		</g>
		<g>
			<path d="M630.7,276.2c4.6,0,7.7,3.2,7.7,7.7c0,4.5-3.1,7.6-7.7,7.6c-4.6,0-7.7-3.2-7.7-7.6C623,279.4,626.1,276.2,630.7,276.2z
				 M630.7,289.9c2.9,0,5-2.3,5-6c0-3.7-2-6-5-6c-2.9,0-5,2.4-5,6C625.7,287.5,627.7,289.9,630.7,289.9z"/>
		</g>
	</g>
</g>
</svg>
