<?xml version="1.0" encoding="utf-8"?>
<!-- Generator: Adobe Illustrator 24.3.0, SVG Export Plug-In . SVG Version: 6.00 Build 0)  -->
<svg version="1.1" id="Layer_1" xmlns="http://www.w3.org/2000/svg" xmlns:xlink="http://www.w3.org/1999/xlink" x="0px" y="0px"
	 viewBox="0 0 800 335.18" style="enable-background:new 0 0 800 335.18;" xml:space="preserve">
<style type="text/css">
	.st0{clip-path:url(#SVGID_2_);}
	.st1{clip-path:url(#SVGID_4_);}
	.st2{clip-path:url(#SVGID_6_);}
	.st3{clip-path:url(#SVGID_8_);}
	.st4{clip-path:url(#SVGID_10_);}
</style>
<g>
	<defs>
		<rect id="SVGID_1_" x="14.44" y="15.08" width="766.04" height="314.88"/>
	</defs>
	<clipPath id="SVGID_2_">
		<use xlink:href="#SVGID_1_"  style="overflow:visible;"/>
	</clipPath>
	<path class="st0" d="M510.62,307.9c-0.91-0.48-1.72-1.11-2.43-1.91c-0.71-0.8-1.28-1.71-1.72-2.74v-6.31
		c0.32-0.64,0.71-1.21,1.19-1.7c0.47-0.49,1-0.92,1.57-1.28c0.57-0.36,1.18-0.63,1.84-0.82c0.65-0.19,1.29-0.28,1.93-0.28
		c1.07,0,2.05,0.19,2.96,0.58c0.91,0.38,1.7,0.93,2.37,1.64c0.67,0.71,1.19,1.52,1.57,2.45c0.38,0.92,0.56,1.94,0.56,3.05
		c0,1.07-0.17,2.1-0.5,3.08c-0.34,0.98-0.82,1.83-1.45,2.56c-0.63,0.73-1.37,1.31-2.22,1.75c-0.85,0.44-1.79,0.66-2.81,0.66
		C512.48,308.61,511.53,308.38,510.62,307.9 M523.63,314.51c2.03-1.4,3.62-3.31,4.77-5.72c1.15-2.41,1.72-5.14,1.72-8.17
		c0-2.22-0.36-4.28-1.07-6.19c-0.71-1.91-1.72-3.58-3.02-5.02c-1.3-1.44-2.84-2.57-4.59-3.39c-1.76-0.82-3.68-1.23-5.78-1.23
		c-2.33,0-4.37,0.49-6.1,1.46c-1.74,0.97-3.18,2.34-4.33,4.09v-5.07h-8.24v43.38h9.48v-17.58c0.99,1.71,2.35,3.07,4.09,4.06
		c1.74,0.99,3.77,1.49,6.1,1.49C519.27,316.61,521.59,315.91,523.63,314.51 M472.49,296.59c0.61-1.19,1.43-2.11,2.46-2.76
		c1.03-0.65,2.21-0.98,3.56-0.98c1.3,0,2.48,0.33,3.53,0.98c1.05,0.65,1.87,1.57,2.46,2.76c0.59,1.19,0.89,2.57,0.89,4.14
		c0,1.53-0.3,2.9-0.89,4.08c-0.59,1.19-1.41,2.12-2.46,2.79c-1.05,0.67-2.22,1.01-3.53,1.01c-1.34,0-2.53-0.33-3.56-0.98
		c-1.03-0.65-1.85-1.57-2.46-2.76c-0.61-1.19-0.92-2.57-0.92-4.14C471.57,299.16,471.88,297.78,472.49,296.59 M485.56,315.33
		c2.05-0.86,3.79-2.02,5.21-3.5c1.42-1.48,2.51-3.17,3.26-5.08c0.75-1.91,1.13-3.91,1.13-6.01c0-2.14-0.38-4.17-1.13-6.07
		c-0.75-1.91-1.84-3.6-3.26-5.08c-1.42-1.48-3.16-2.65-5.21-3.5c-2.05-0.86-4.41-1.29-7.05-1.29c-2.65,0-5.01,0.43-7.08,1.29
		s-3.82,2.02-5.24,3.5c-1.42,1.48-2.5,3.17-3.23,5.08c-0.73,1.91-1.1,3.93-1.1,6.07c0,2.1,0.36,4.11,1.1,6.01
		c0.73,1.91,1.81,3.6,3.23,5.08c1.42,1.48,3.17,2.65,5.24,3.5c2.07,0.86,4.43,1.28,7.08,1.28
		C481.15,316.61,483.5,316.19,485.56,315.33 M459.78,296.41c0-1.32-0.12-2.67-0.36-4.03c-0.24-1.36-0.69-2.62-1.36-3.76
		c-0.67-1.15-1.65-2.07-2.93-2.77c-1.28-0.7-2.99-1.05-5.13-1.05c-2.25,0-4.32,0.5-6.19,1.49c-1.88,0.99-3.39,2.4-4.53,4.23v-17.75
		h-9.48v43.26h9.48v-17.57c0.39-1.06,0.97-2,1.72-2.79c0.75-0.8,1.57-1.42,2.46-1.85c0.89-0.44,1.69-0.66,2.4-0.66
		c1.34,0,2.42,0.46,3.23,1.39c0.81,0.93,1.21,2.38,1.21,4.35v17.13h9.48V296.41z M423.19,313.97c2.27-1.76,3.41-4.2,3.41-7.3
		c0-1.82-0.43-3.28-1.27-4.39c-0.85-1.11-2.12-2.04-3.82-2.79c-1.7-0.76-3.83-1.5-6.4-2.24c-1.11-0.35-2.02-0.65-2.76-0.9
		c-0.73-0.25-1.26-0.55-1.6-0.9c-0.34-0.35-0.5-0.81-0.5-1.4s0.17-1.06,0.5-1.42c0.33-0.37,0.78-0.63,1.33-0.79
		c0.55-0.15,1.16-0.23,1.84-0.23c1.3,0,2.65,0.28,4.03,0.83c1.38,0.55,2.96,1.44,4.74,2.67l3.67-5.93
		c-1.78-1.58-3.68-2.71-5.72-3.38c-2.04-0.67-4.12-1.01-6.25-1.01c-2.69,0-5,0.43-6.93,1.29c-1.94,0.86-3.43,2.05-4.47,3.59
		c-1.05,1.54-1.57,3.34-1.57,5.4c0,1.71,0.39,3.1,1.19,4.17c0.79,1.07,1.97,1.98,3.56,2.71c1.58,0.74,3.56,1.5,5.93,2.28
		c1.19,0.31,2.18,0.6,2.99,0.88c0.81,0.27,1.41,0.57,1.81,0.9c0.39,0.33,0.59,0.79,0.59,1.37c0,0.78-0.34,1.36-1.01,1.73
		c-0.67,0.37-1.62,0.56-2.84,0.56c-1.58,0-3.27-0.36-5.07-1.07c-1.8-0.71-3.64-1.76-5.54-3.14l-3.26,5.98
		c1.74,1.7,3.87,2.98,6.4,3.85c2.53,0.87,5.12,1.3,7.76,1.3C417.83,316.61,420.92,315.73,423.19,313.97 M400.17,316.02l-12.15-17.51
		l11.2-13.24h-10.01l-10.55,12.71v-25.21h-9.48v43.26h9.48v-8.96l3.32-3.34l8.12,12.3H400.17z M365.56,284.5
		c-0.16-0.04-0.35-0.06-0.56-0.06h-0.98c-1.86,0.04-3.63,0.65-5.33,1.84c-1.7,1.19-3.08,2.82-4.15,4.92v-5.93h-8.71v30.75h9.48
		v-18.67c0.83-1.42,2.17-2.5,4.03-3.23c1.86-0.73,3.93-1.1,6.22-1.1V284.5z M321.09,296.59c0.61-1.19,1.43-2.11,2.46-2.76
		c1.03-0.65,2.21-0.98,3.56-0.98c1.3,0,2.48,0.33,3.53,0.98c1.05,0.65,1.87,1.57,2.46,2.76c0.59,1.19,0.89,2.57,0.89,4.14
		c0,1.53-0.3,2.9-0.89,4.08c-0.59,1.19-1.41,2.12-2.46,2.79c-1.05,0.67-2.22,1.01-3.53,1.01c-1.34,0-2.53-0.33-3.56-0.98
		c-1.03-0.65-1.85-1.57-2.46-2.76c-0.61-1.19-0.92-2.57-0.92-4.14C320.17,299.16,320.48,297.78,321.09,296.59 M334.16,315.33
		c2.05-0.86,3.79-2.02,5.21-3.5c1.42-1.48,2.51-3.17,3.26-5.08c0.75-1.91,1.13-3.91,1.13-6.01c0-2.14-0.38-4.17-1.13-6.07
		c-0.75-1.91-1.84-3.6-3.26-5.08c-1.42-1.48-3.16-2.65-5.21-3.5c-2.05-0.86-4.41-1.29-7.05-1.29c-2.65,0-5.01,0.43-7.08,1.29
		c-2.07,0.86-3.82,2.02-5.24,3.5c-1.42,1.48-2.5,3.17-3.23,5.08c-0.73,1.91-1.1,3.93-1.1,6.07c0,2.1,0.36,4.11,1.1,6.01
		c0.73,1.91,1.81,3.6,3.23,5.08c1.42,1.48,3.17,2.65,5.24,3.5c2.07,0.86,4.43,1.28,7.08,1.28
		C329.75,316.61,332.1,316.19,334.16,315.33 M295.35,307.18l-2.96-8.55l5.51-13.36h-7.7l-2.96,9.26l-2.96-9.26h-7.76l5.57,13.36
		l-2.96,8.55l-8.36-21.91h-8.95l12.86,30.75h7.82l4.74-12.54l4.74,12.54h7.82l12.86-30.75h-9.01L295.35,307.18z M225.25,294.52
		c0.59-0.92,1.37-1.64,2.34-2.15c0.97-0.51,2.06-0.76,3.29-0.76c1.19,0,2.27,0.25,3.26,0.76c0.99,0.51,1.78,1.23,2.37,2.15
		c0.59,0.92,0.97,2.01,1.13,3.25h-13.51C224.28,296.53,224.66,295.44,225.25,294.52 M237.48,315.55c1.96-0.71,3.65-1.69,5.1-2.93
		c1.44-1.24,2.56-2.68,3.35-4.3l-8.06-2.25c-0.47,1.15-1.33,2.05-2.58,2.73c-1.24,0.67-2.58,1.01-4,1.01
		c-1.15,0-2.23-0.24-3.26-0.72c-1.03-0.48-1.87-1.18-2.52-2.1c-0.65-0.92-1.04-2.05-1.16-3.4h22.99c0.04-0.39,0.09-0.85,0.15-1.37
		c0.06-0.52,0.09-1.06,0.09-1.6c0-2.8-0.65-5.4-1.96-7.79c-1.3-2.39-3.19-4.33-5.66-5.8c-2.47-1.48-5.46-2.22-8.98-2.22
		c-3.52,0-6.52,0.75-9.01,2.24c-2.49,1.49-4.4,3.45-5.72,5.88c-1.32,2.42-1.99,5.11-1.99,8.06c0,2.07,0.38,4.05,1.13,5.95
		c0.75,1.89,1.85,3.56,3.29,5.01c1.44,1.45,3.19,2.59,5.24,3.43c2.05,0.84,4.4,1.26,7.05,1.26
		C233.37,316.61,235.53,316.26,237.48,315.55 M197.93,308.31c0,2.65,0.74,4.7,2.22,6.14c1.48,1.44,3.56,2.17,6.25,2.17
		c1.34,0,2.79-0.16,4.33-0.47c1.54-0.32,2.9-0.75,4.09-1.3l-1.24-7.11c-0.47,0.24-1.02,0.44-1.63,0.62
		c-0.61,0.18-1.21,0.27-1.81,0.27c-0.87,0-1.54-0.28-2.01-0.83c-0.47-0.55-0.71-1.48-0.71-2.79v-32.23h-9.48V308.31z M186.91,315.55
		c1.9-0.71,3.55-1.69,4.95-2.93c1.4-1.24,2.48-2.66,3.23-4.24l-9.24-2.84c-0.32,0.59-0.76,1.13-1.33,1.6
		c-0.57,0.47-1.21,0.84-1.9,1.1c-0.69,0.26-1.43,0.38-2.22,0.38c-1.3,0-2.47-0.33-3.5-1.01c-1.03-0.67-1.86-1.6-2.49-2.79
		c-0.63-1.19-0.95-2.57-0.95-4.14c0-1.61,0.31-2.99,0.92-4.14c0.61-1.15,1.44-2.05,2.49-2.7c1.05-0.65,2.22-0.98,3.53-0.98
		c1.15,0,2.18,0.26,3.11,0.77c0.93,0.51,1.69,1.24,2.28,2.19l9.24-2.79c-1.22-2.45-3.07-4.43-5.54-5.96
		c-2.47-1.52-5.48-2.28-9.04-2.28c-3.52,0-6.52,0.74-9.01,2.22c-2.49,1.48-4.4,3.43-5.72,5.84c-1.32,2.41-1.99,5.02-1.99,7.82
		c0,2.14,0.37,4.17,1.13,6.07c0.75,1.91,1.85,3.6,3.29,5.08c1.44,1.48,3.19,2.65,5.24,3.5c2.05,0.86,4.4,1.28,7.05,1.28
		C182.86,316.61,185.01,316.26,186.91,315.55 M136.31,328.82c0.83,0.32,1.64,0.54,2.43,0.68c0.79,0.14,1.6,0.21,2.43,0.21
		c1.94,0,3.71-0.36,5.33-1.09c1.62-0.73,3-1.74,4.15-3.03c1.15-1.29,1.99-2.78,2.55-4.47l11.85-35.85h-8.95l-6.16,21.22l-7.23-21.22
		h-9.78l11.85,30.86c-0.32,1.31-0.67,2.37-1.07,3.16c-0.4,0.79-0.86,1.35-1.39,1.69c-0.53,0.33-1.18,0.5-1.93,0.5
		c-0.55,0-1.18-0.07-1.87-0.21c-0.69-0.14-1.43-0.33-2.22-0.56V328.82z M126.23,315.55c1.9-0.71,3.55-1.69,4.95-2.93
		c1.4-1.24,2.48-2.66,3.23-4.24l-9.24-2.84c-0.32,0.59-0.76,1.13-1.33,1.6c-0.57,0.47-1.21,0.84-1.9,1.1
		c-0.69,0.26-1.43,0.38-2.22,0.38c-1.3,0-2.47-0.33-3.5-1.01c-1.03-0.67-1.86-1.6-2.49-2.79c-0.63-1.19-0.95-2.57-0.95-4.14
		c0-1.61,0.31-2.99,0.92-4.14c0.61-1.15,1.44-2.05,2.49-2.7c1.05-0.65,2.22-0.98,3.53-0.98c1.15,0,2.18,0.26,3.11,0.77
		c0.93,0.51,1.69,1.24,2.28,2.19l9.24-2.79c-1.22-2.45-3.07-4.43-5.54-5.96c-2.47-1.52-5.48-2.28-9.04-2.28
		c-3.52,0-6.52,0.74-9.01,2.22c-2.49,1.48-4.4,3.43-5.72,5.84c-1.32,2.41-1.99,5.02-1.99,7.82c0,2.14,0.37,4.17,1.13,6.07
		c0.75,1.91,1.85,3.6,3.29,5.08c1.44,1.48,3.19,2.65,5.24,3.5c2.05,0.86,4.4,1.28,7.05,1.28
		C122.18,316.61,124.34,316.26,126.23,315.55"/>
</g>
<rect x="299.25" y="93.18" transform="matrix(0.7429 -0.6694 0.6694 0.7429 11.8058 227.9126)" width="6.72" height="10.81"/>
<rect x="278.63" y="156.24" transform="matrix(0.8386 -0.5447 0.5447 0.8386 -42.5429 179.6859)" width="6.72" height="10.81"/>
<rect x="264.18" y="134" transform="matrix(0.8389 -0.5442 0.5442 0.8389 -32.7763 168.0555)" width="6.72" height="10.81"/>
<g>
	<defs>
		<rect id="SVGID_3_" x="14.44" y="15.08" width="766.04" height="314.88"/>
	</defs>
	<clipPath id="SVGID_4_">
		<use xlink:href="#SVGID_3_"  style="overflow:visible;"/>
	</clipPath>
	<path class="st1" d="M319.2,105.56c4.74,5.24,10.38,9.43,16.91,12.57c6.54,3.14,13.74,4.71,21.63,4.71
		c6.08,0,12.22-0.97,18.41-2.92c6.19-1.94,11.72-4.76,16.62-8.46c4.89-3.69,8.38-8.13,10.48-13.32l-23.8-14.22
		c-1.2,3.19-2.94,5.74-5.24,7.64c-2.3,1.89-4.84,3.27-7.63,4.11c-2.79,0.85-5.54,1.27-8.23,1.27c-3.79,0-7.21-0.75-10.25-2.25
		c-3.05-1.5-5.62-3.57-7.71-6.21c-2.09-2.64-3.69-5.66-4.79-9.05c-1.1-3.39-1.65-6.94-1.65-10.63c0-3.29,0.47-6.58,1.42-9.88
		c0.95-3.29,2.4-6.29,4.34-8.98c1.95-2.69,4.44-4.87,7.48-6.51c3.04-1.65,6.66-2.47,10.85-2.47c2.69,0,5.46,0.37,8.31,1.12
		c2.85,0.75,5.49,2.07,7.93,3.97c2.45,1.9,4.31,4.59,5.61,8.08l22.3-15.87c-3.69-6.98-9.33-12.6-16.91-16.84
		c-7.59-4.24-16.46-6.36-26.64-6.36c-8.48,0-16.09,1.52-22.82,4.56c-6.74,3.05-12.45,7.11-17.14,12.2
		c-4.69,5.09-8.26,10.76-10.7,16.99c-2.45,6.24-3.67,12.6-3.67,19.09c0,6.78,1.3,13.45,3.89,19.98
		C310.79,94.43,314.46,100.32,319.2,105.56"/>
</g>
<rect x="317" y="112.89" transform="matrix(0.7432 -0.6691 0.6691 0.7432 3.1193 244.7131)" width="6.72" height="10.81"/>
<g>
	<defs>
		<rect id="SVGID_5_" x="14.44" y="15.08" width="766.04" height="314.88"/>
	</defs>
	<clipPath id="SVGID_6_">
		<use xlink:href="#SVGID_5_"  style="overflow:visible;"/>
	</clipPath>
	<path class="st2" d="M227.54,66.47l0.09-0.72c0-0.02,0-0.04,0.01-0.06c0.09-0.71,0.2-1.41,0.35-2.11c0-0.01,0.01-0.03,0.01-0.04
		c0.61-2.83,1.7-5.53,3.22-7.98c0.01-0.02,0.02-0.03,0.02-0.04c0.37-0.6,0.78-1.19,1.2-1.76c0.02-0.02,0.03-0.04,0.04-0.05
		c0.43-0.57,0.89-1.13,1.37-1.66l0.47-0.53c0.56-0.55,1.46-1.39,2-1.87l0.52-0.41c0.06-0.05,0.13-0.1,0.19-0.15
		c0.5-0.39,1.02-0.76,1.55-1.11c0.09-0.06,0.18-0.12,0.28-0.18c0.54-0.35,1.09-0.68,1.66-0.99c0.08-0.04,0.16-0.08,0.24-0.13
		c0.6-0.31,1.22-0.61,1.86-0.88c0.64-0.27,1.28-0.51,1.93-0.72c0.08-0.02,0.17-0.06,0.25-0.08c0.62-0.2,1.25-0.37,1.88-0.52
		c0.1-0.02,0.2-0.04,0.3-0.07c0.63-0.14,1.26-0.26,1.9-0.35c0.07-0.01,0.14-0.02,0.21-0.02l0.67-0.09c0.73-0.05,1.32-0.1,1.32-0.1
		s0.32-0.01,0.71-0.02c0.39-0.01,1.42,0,1.42,0s0.65,0.04,1.46,0.09l0.72,0.09h0.02c4.33,0.54,8.47,2.21,11.96,4.83
		c0.01,0,0.01,0.01,0.02,0.01l0.58,0.44c0.61,0.52,1.1,0.95,1.1,0.95s0.24,0.22,0.52,0.48c0.29,0.27,1.01,1.01,1.01,1.01
		s0.4,0.45,0.89,1l0.42,0.53c0.04,0.05,0.09,0.1,0.13,0.16c0.39,0.51,0.77,1.04,1.13,1.58c0.05,0.09,0.11,0.17,0.16,0.25
		c0.35,0.55,0.68,1.11,0.99,1.69c0.04,0.07,0.07,0.14,0.11,0.22c0.32,0.61,0.62,1.23,0.9,1.87c0.27,0.64,0.51,1.29,0.72,1.94
		c0.02,0.08,0.06,0.15,0.08,0.23c0.2,0.63,0.37,1.26,0.52,1.89c0.02,0.1,0.05,0.2,0.07,0.29c0.14,0.64,0.26,1.27,0.35,1.91
		c0.01,0.07,0.02,0.14,0.02,0.2l0.09,0.67c0.06,0.73,0.1,1.33,0.1,1.33c0,0,0.04,1.03,0.03,1.42c0,0.39-0.01,0.71-0.01,0.71
		s-0.04,0.65-0.08,1.46l-0.09,0.72c0,0.01,0,0.02,0,0.02c-0.09,0.72-0.21,1.43-0.36,2.14v0.01c-0.61,2.84-1.71,5.55-3.24,8.02
		c0,0-0.01,0.01-0.01,0.02c-0.38,0.61-0.79,1.2-1.22,1.78c-0.01,0.01-0.02,0.02-0.02,0.03l-0.43,0.58c-0.52,0.6-1.16,1.33-1.43,1.62
		c-0.27,0.29-1,1.01-1.01,1.01c0,0-0.44,0.4-0.99,0.88l-0.52,0.41c-0.06,0.05-0.12,0.1-0.18,0.15c-0.5,0.39-1.02,0.76-1.55,1.11
		c-0.09,0.06-0.19,0.12-0.28,0.18c-0.54,0.34-1.08,0.68-1.66,0.98c-0.08,0.04-0.17,0.09-0.26,0.13c-0.6,0.31-1.21,0.61-1.84,0.88
		c-0.63,0.27-1.27,0.5-1.91,0.72c-0.09,0.03-0.19,0.06-0.29,0.09c-0.61,0.2-1.22,0.36-1.84,0.51c-0.11,0.03-0.23,0.05-0.35,0.08
		c-0.62,0.14-1.24,0.25-1.86,0.34c-0.09,0.01-0.18,0.02-0.27,0.03c-0.65,0.09-1.3,0.15-1.95,0.18c-0.72,0.04-1.43,0.04-2.14,0.01
		c-0.72-0.02-1.43-0.08-2.13-0.17c-0.03,0-0.06-0.01-0.09-0.01c-0.7-0.09-1.4-0.2-2.09-0.35c-0.02-0.01-0.04-0.01-0.06-0.02
		c-2.82-0.61-5.52-1.7-7.97-3.22c-0.02-0.01-0.03-0.02-0.05-0.03c-0.6-0.37-1.19-0.78-1.75-1.21c-0.02-0.01-0.04-0.02-0.05-0.04
		l-0.57-0.43c-0.6-0.52-1.33-1.16-1.61-1.42c-0.29-0.27-1.4-1.45-1.88-1.99l-0.41-0.52c-0.05-0.07-0.11-0.13-0.16-0.2
		c-0.39-0.49-0.76-1.01-1.11-1.54c-0.06-0.1-0.12-0.19-0.19-0.29c-0.34-0.54-0.67-1.08-0.97-1.65c-0.05-0.09-0.09-0.18-0.13-0.26
		c-0.32-0.6-0.61-1.21-0.88-1.85c-0.27-0.63-0.5-1.27-0.72-1.91c-0.03-0.09-0.06-0.19-0.09-0.28c-0.2-0.61-0.36-1.23-0.51-1.85
		c-0.02-0.11-0.05-0.23-0.08-0.34c-0.14-0.62-0.25-1.24-0.34-1.87c-0.01-0.09-0.02-0.17-0.03-0.25l-0.08-0.65
		c-0.06-0.72-0.11-1.63-0.12-2.02C227.44,68.94,227.5,67.26,227.54,66.47 M208.47,60.23l2.74,1.11c1.6,0.65,2.8,2.58,2.66,4.3
		l0.07,6.89c0.15,1.72-1.01,3.68-2.6,4.35l-2.71,1.15c-1.59,0.67-2.34,2.53-1.66,4.11l4.23,9.97c0.68,1.59,2.52,2.33,4.11,1.66
		l2.71-1.15c1.59-0.68,3.81-0.16,4.94,1.15l4.91,4.84c1.33,1.1,1.89,3.3,1.24,4.9l-1.1,2.74c-0.65,1.6,0.14,3.43,1.73,4.08
		l10.04,4.06c1.6,0.65,3.44-0.13,4.08-1.73l1.1-2.73c0.65-1.6,2.58-2.8,4.3-2.66l6.9-0.07c1.72-0.16,3.68,1.01,4.35,2.6l1.15,2.71
		c0.67,1.59,2.53,2.33,4.11,1.66l9.97-4.23c1.59-0.67,2.33-2.52,1.66-4.11l-1.15-2.71c-0.68-1.59-0.16-3.81,1.15-4.93l4.85-4.91
		c1.1-1.33,3.3-1.89,4.9-1.25l2.74,1.1c1.6,0.65,3.43-0.14,4.08-1.73l4.06-10.04c0.65-1.6-0.13-3.44-1.73-4.08l-2.74-1.11
		c-1.6-0.64-2.8-2.58-2.66-4.3l-0.07-6.9c-0.16-1.72,1.01-3.68,2.6-4.35l2.71-1.15c1.59-0.67,2.34-2.53,1.66-4.11l-4.23-9.97
		c-0.67-1.59-2.53-2.34-4.11-1.66l-2.71,1.15c-1.59,0.67-3.81,0.16-4.94-1.15l-4.91-4.84c-1.33-1.1-1.89-3.3-1.24-4.9l1.1-2.74
		c0.65-1.6-0.14-3.44-1.73-4.08l-10.05-4.06c-1.59-0.65-3.43,0.14-4.08,1.73l-1.1,2.74c-0.65,1.59-2.58,2.79-4.3,2.66l-6.9,0.07
		c-1.72,0.16-3.67-1.01-4.35-2.6l-1.15-2.71c-0.67-1.59-2.52-2.34-4.11-1.66l-9.97,4.23c-1.59,0.68-2.34,2.52-1.66,4.11l1.15,2.71
		c0.67,1.59,0.16,3.81-1.15,4.93l-4.84,4.91c-1.1,1.33-3.3,1.89-4.9,1.25l-2.74-1.1c-1.6-0.65-3.44,0.13-4.08,1.73l-4.06,10.04
		C206.09,57.75,206.87,59.59,208.47,60.23"/>
</g>
<rect x="249.74" y="111.76" transform="matrix(0.8385 -0.5449 0.5449 0.8385 -22.9687 156.8309)" width="6.72" height="10.81"/>
<rect x="334.74" y="132.6" transform="matrix(0.7433 -0.669 0.669 0.7433 -5.5184 261.6201)" width="6.72" height="10.81"/>
<polygon points="601.89,140.55 568.96,140.55 536.63,180.97 536.63,140.55 507.44,140.55 507.44,246.82 536.63,246.82 
	536.63,216.14 544.71,207.76 571.05,246.82 604.58,246.82 563.27,188.15 "/>
<polygon points="635.35,204.61 673.97,204.61 673.97,180.97 635.35,180.97 635.35,166 680.55,166 680.55,140.55 606.17,140.55 
	606.17,246.82 681.9,246.82 681.9,221.38 635.35,221.38 "/>
<g>
	<defs>
		<rect id="SVGID_7_" x="14.44" y="15.08" width="766.04" height="314.88"/>
	</defs>
	<clipPath id="SVGID_8_">
		<use xlink:href="#SVGID_7_"  style="overflow:visible;"/>
	</clipPath>
	<path class="st3" d="M136.72,41.27h11.68c4.99,0,9.28,1.15,12.87,3.44c3.59,2.29,6.34,5.51,8.24,9.66
		c1.89,4.14,2.84,8.96,2.84,14.44c0,5.29-0.95,10.06-2.85,14.3c-1.89,4.24-4.61,7.56-8.15,9.95c-3.55,2.39-7.86,3.59-12.95,3.59
		h-11.68V41.27z M176.6,115.51c8.03-4.39,14.27-10.58,18.71-18.56c4.44-7.98,6.66-17.36,6.66-28.14c0-9.78-2.02-18.68-6.06-26.72
		c-4.04-8.03-10.03-14.42-17.96-19.16c-7.93-4.74-17.78-7.11-29.56-7.11h-40.86v106.27h40.86
		C159.17,122.09,168.57,119.9,176.6,115.51"/>
	<path class="st3" d="M472.36,216.29c-2.29,1.89-4.84,3.27-7.63,4.11c-2.8,0.85-5.54,1.27-8.23,1.27c-3.8,0-7.21-0.75-10.25-2.25
		c-3.05-1.5-5.61-3.57-7.71-6.21c-2.1-2.64-3.69-5.66-4.79-9.05c-1.1-3.39-1.65-6.94-1.65-10.63c0-3.29,0.47-6.58,1.42-9.88
		c0.94-3.29,2.39-6.29,4.34-8.98c1.95-2.69,4.44-4.87,7.48-6.51c3.04-1.65,6.66-2.47,10.85-2.47c2.69,0,5.46,0.37,8.31,1.12
		c2.84,0.75,5.49,2.07,7.93,3.97c2.44,1.9,4.31,4.59,5.61,8.08l22.3-15.87c-3.69-6.98-9.33-12.6-16.91-16.84
		c-7.59-4.24-16.46-6.36-26.64-6.36c-8.48,0-16.09,1.52-22.83,4.56c-6.73,3.05-12.45,7.11-17.13,12.2
		c-4.69,5.09-8.26,10.76-10.7,16.99c-2.45,6.24-3.67,12.6-3.67,19.09c0,6.78,1.3,13.45,3.89,19.98c2.59,6.54,6.26,12.42,11,17.66
		c4.74,5.24,10.38,9.43,16.91,12.57c6.53,3.14,13.74,4.71,21.62,4.71c6.09,0,12.22-0.97,18.41-2.92c6.19-1.95,11.73-4.76,16.62-8.46
		c4.89-3.69,8.38-8.13,10.48-13.32l-23.8-14.22C476.4,211.85,474.65,214.39,472.36,216.29"/>
</g>
<polygon points="690.07,140.55 690.07,166 720.76,166 720.76,246.82 749.94,246.82 749.94,166 780.47,166 780.47,140.55 "/>
<g>
	<defs>
		<rect id="SVGID_9_" x="14.44" y="15.08" width="766.04" height="314.88"/>
	</defs>
	<clipPath id="SVGID_10_">
		<use xlink:href="#SVGID_9_"  style="overflow:visible;"/>
	</clipPath>
	<path class="st4" d="M372.24,195.85c0,0-0.05,0.82-0.1,1.82l-0.11,0.9c0,0.01,0,0.02,0,0.03c-0.11,0.9-0.27,1.79-0.45,2.67
		c0,0,0,0,0,0.01c-0.76,3.55-2.13,6.94-4.04,10.01c0,0.01-0.01,0.01-0.01,0.02c-0.47,0.76-0.98,1.5-1.52,2.22
		c-0.01,0.02-0.02,0.02-0.03,0.04l-0.54,0.72c-0.65,0.76-1.45,1.66-1.78,2.02c-0.34,0.36-1.26,1.26-1.26,1.26s-0.56,0.49-1.23,1.1
		l-0.65,0.52c-0.08,0.06-0.15,0.13-0.23,0.19c-0.62,0.49-1.27,0.95-1.94,1.39c-0.11,0.07-0.23,0.15-0.35,0.23
		c-0.67,0.43-1.36,0.84-2.07,1.22c-0.1,0.06-0.21,0.11-0.32,0.17c-0.75,0.39-1.51,0.76-2.31,1.1v0c-0.79,0.34-1.59,0.63-2.39,0.9
		c-0.11,0.04-0.24,0.08-0.35,0.12c-0.76,0.25-1.53,0.45-2.3,0.63c-0.14,0.03-0.29,0.07-0.43,0.1c-0.77,0.17-1.55,0.31-2.32,0.43
		c-0.11,0.01-0.22,0.03-0.34,0.04c-0.81,0.11-1.62,0.19-2.43,0.23c-0.9,0.04-1.79,0.05-2.67,0.02c-0.9-0.03-1.78-0.11-2.67-0.21
		c-0.04,0-0.07-0.01-0.1-0.01c-0.88-0.11-1.75-0.25-2.61-0.44c-0.02-0.01-0.05-0.01-0.07-0.02c-3.52-0.76-6.89-2.12-9.95-4.02
		c-0.02-0.01-0.04-0.02-0.05-0.03c-0.75-0.47-1.48-0.97-2.2-1.51c-0.02-0.01-0.04-0.03-0.07-0.04l-0.72-0.54
		c-0.75-0.65-1.66-1.45-2.01-1.78c-0.36-0.33-1.75-1.81-2.35-2.48l-0.51-0.65c-0.06-0.08-0.14-0.16-0.2-0.25
		c-0.48-0.62-0.94-1.26-1.38-1.93c-0.08-0.12-0.15-0.24-0.23-0.36c-0.43-0.67-0.84-1.35-1.22-2.06c-0.06-0.11-0.11-0.22-0.17-0.33
		c-0.39-0.74-0.76-1.51-1.1-2.3c-0.33-0.79-0.63-1.59-0.9-2.39c-0.04-0.12-0.08-0.23-0.12-0.35c-0.24-0.76-0.45-1.53-0.63-2.31
		c-0.03-0.14-0.07-0.28-0.1-0.42c-0.17-0.78-0.31-1.56-0.43-2.34c-0.02-0.11-0.03-0.21-0.04-0.32l-0.11-0.82
		c-0.07-0.9-0.13-2.04-0.15-2.52c-0.01-0.49,0.05-2.58,0.11-3.57l0.11-0.89c0-0.02,0-0.05,0.01-0.07c0.11-0.89,0.26-1.76,0.44-2.63
		c0-0.02,0.01-0.04,0.01-0.06c0.76-3.53,2.12-6.9,4.02-9.97c0.01-0.02,0.02-0.03,0.03-0.05c0.47-0.75,0.97-1.48,1.51-2.2
		c0.02-0.02,0.03-0.05,0.05-0.07c0.54-0.72,1.11-1.41,1.71-2.08l0.59-0.65c0.69-0.69,1.82-1.74,2.5-2.34l0.65-0.51
		c0.08-0.07,0.16-0.13,0.24-0.19c0.62-0.49,1.27-0.95,1.94-1.39c0.11-0.07,0.23-0.15,0.34-0.22c0.68-0.43,1.37-0.84,2.08-1.23
		c0.1-0.05,0.2-0.1,0.3-0.16c0.75-0.39,1.52-0.76,2.32-1.1c0.8-0.34,1.6-0.63,2.41-0.9c0.1-0.04,0.21-0.07,0.31-0.11
		c0.78-0.25,1.56-0.46,2.34-0.65c0.13-0.03,0.25-0.06,0.38-0.09c0.79-0.18,1.58-0.32,2.37-0.43c0.09-0.01,0.18-0.02,0.27-0.03
		l0.83-0.11c0.91-0.07,1.66-0.13,1.66-0.13s0.4-0.01,0.89-0.02c0.49-0.01,1.77,0.01,1.77,0.01s0.82,0.05,1.82,0.11l0.9,0.11
		c0.01,0,0.02,0,0.03,0c5.41,0.67,10.58,2.76,14.94,6.04c0.01,0.01,0.02,0.01,0.02,0.02l0.72,0.54c0.76,0.65,1.38,1.19,1.38,1.19
		s0.29,0.27,0.65,0.61c0.35,0.33,1.26,1.25,1.25,1.26c0,0,0.5,0.56,1.11,1.24l0.52,0.66c0.05,0.07,0.11,0.13,0.16,0.2
		c0.49,0.63,0.96,1.29,1.41,1.97c0.07,0.11,0.14,0.21,0.2,0.31c0.44,0.68,0.85,1.38,1.24,2.11c0.05,0.09,0.09,0.18,0.14,0.27
		c0.4,0.76,0.78,1.54,1.12,2.34c0.34,0.8,0.64,1.61,0.9,2.43c0.03,0.1,0.07,0.19,0.1,0.29c0.25,0.79,0.47,1.57,0.65,2.36
		c0.03,0.12,0.06,0.25,0.08,0.36c0.18,0.79,0.33,1.59,0.44,2.38c0.01,0.09,0.02,0.17,0.03,0.25l0.11,0.83
		c0.07,0.92,0.13,1.66,0.13,1.66c0-0.01,0.04,1.28,0.04,1.77C372.25,195.46,372.24,195.86,372.24,195.85 M395.96,205.44l-3.42-1.38
		c-2-0.81-3.49-3.22-3.32-5.37l-0.09-8.62c-0.2-2.14,1.26-4.59,3.25-5.43l3.38-1.44c1.98-0.84,2.92-3.15,2.08-5.14l-5.29-12.46
		c-0.84-1.98-3.15-2.92-5.14-2.07l-3.38,1.44c-1.98,0.84-4.76,0.2-6.16-1.44l-6.13-6.04c-1.66-1.37-2.36-4.12-1.55-6.12l1.38-3.41
		c0.81-2-0.17-4.29-2.16-5.1l-12.55-5.07c-2-0.81-4.29,0.17-5.09,2.16l-1.38,3.41c-0.81,2-3.22,3.49-5.37,3.32l-8.62,0.09
		c-2.14,0.2-4.59-1.26-5.43-3.25l-1.44-3.39c-0.84-1.98-3.15-2.92-5.14-2.07l-12.46,5.28c-1.98,0.85-2.92,3.16-2.07,5.14l1.44,3.39
		c0.84,1.98,0.2,4.76-1.44,6.16l-6.04,6.13c-1.37,1.66-4.13,2.36-6.12,1.56l-3.42-1.38c-2-0.81-4.29,0.17-5.09,2.17l-5.07,12.54
		c-0.81,2,0.17,4.29,2.17,5.1l3.41,1.38c2,0.81,3.49,3.22,3.32,5.37l0.09,8.61c0.2,2.14-1.26,4.59-3.25,5.43l-3.39,1.44
		c-1.98,0.84-2.92,3.15-2.07,5.14l5.28,12.45c0.84,1.98,3.16,2.92,5.14,2.07l3.39-1.44c1.98-0.84,4.76-0.2,6.16,1.44l6.13,6.05
		c1.66,1.37,2.36,4.13,1.55,6.12l-1.38,3.41c-0.81,2,0.17,4.29,2.16,5.1l12.55,5.07c2,0.81,4.29-0.16,5.1-2.16l1.38-3.41
		c0.81-2,3.23-3.5,5.37-3.32l8.61-0.09c2.15-0.2,4.59,1.26,5.43,3.25l1.44,3.39c0.84,1.98,3.15,2.92,5.14,2.07l12.46-5.29
		c1.98-0.84,2.92-3.15,2.07-5.14l-1.44-3.39c-0.84-1.98-0.2-4.76,1.44-6.16l6.04-6.13c1.37-1.66,4.13-2.36,6.12-1.55l3.41,1.38
		c2,0.81,4.29-0.17,5.1-2.16l5.07-12.55C398.93,208.54,397.95,206.25,395.96,205.44"/>
	<path class="st4" d="M86.13,188.24c-4.79-2.57-10.48-4.85-17.06-6.83c-4.09-1.28-7.61-2.37-10.56-3.26
		c-2.94-0.89-5.21-1.88-6.81-2.97c-1.6-1.09-2.4-2.52-2.4-4.3c0-1.88,0.8-3.21,2.4-4c1.59-0.79,3.64-1.19,6.14-1.19
		c3.19,0,6.43,0.5,9.73,1.5c3.29,1,6.33,2.12,9.13,3.37c2.79,1.25,5.89,2.87,9.28,4.87l12.58-24.1c-3.19-1.59-6.91-3.29-11.15-5.09
		c-4.24-1.8-8.78-3.32-13.62-4.56c-4.84-1.25-9.85-1.87-15.04-1.87c-6.99,0-13.5,1.36-19.53,4.09c-6.04,2.72-10.9,6.71-14.6,11.97
		c-3.69,5.25-5.54,11.79-5.54,19.62c0,5.16,0.95,9.54,2.85,13.16c1.89,3.62,4.84,6.74,8.83,9.36c3.99,2.63,9.08,4.98,15.27,7.06
		c4.29,1.39,8.21,2.61,11.75,3.64c3.54,1.04,6.41,2.13,8.61,3.27c2.19,1.14,3.29,2.75,3.29,4.83c0,1.33-0.63,2.4-1.87,3.21
		c-1.25,0.81-3.47,1.21-6.66,1.21c-4.09,0-8.16-0.6-12.2-1.8c-4.04-1.2-7.71-2.54-11-4.04c-3.29-1.5-6.94-3.44-10.93-5.84
		l-12.57,25.6c4.29,2.49,9.03,4.67,14.22,6.51c5.19,1.85,10.55,3.29,16.09,4.34c5.54,1.05,10.85,1.57,15.94,1.57
		c4.99,0,9.88-0.57,14.67-1.71c4.79-1.14,9.13-2.99,13.02-5.57c3.89-2.57,6.98-6,9.28-10.31c2.29-4.3,3.44-9.61,3.44-15.94
		c0-6.62-1.3-11.94-3.89-15.94C94.61,194.1,90.92,190.82,86.13,188.24"/>
	<path class="st4" d="M248.24,183.51c-0.75,1.7-1.67,2.99-2.77,3.89c-1.1,0.9-2.25,1.35-3.44,1.35h-18.41V166h17.66
		c1.19,0,2.42,0.45,3.66,1.35c1.25,0.9,2.29,2.17,3.14,3.82c0.85,1.64,1.27,3.72,1.27,6.21
		C249.36,179.77,248.98,181.82,248.24,183.51 M271.96,199.6c2.29-3.14,4.04-6.61,5.24-10.4c1.19-3.79,1.8-7.73,1.8-11.82
		c0-4.49-0.88-8.93-2.62-13.32c-1.75-4.39-4.22-8.35-7.41-11.9c-3.2-3.54-6.99-6.36-11.38-8.46c-4.39-2.1-9.18-3.14-14.37-3.14
		h-48.79v106.27h29.19v-32.63h11.82l18.71,32.63h32.03l-22.45-39.07C266.92,205.46,269.66,202.74,271.96,199.6"/>
	<path class="st4" d="M158.05,184.11c-0.75,1.7-1.67,2.9-2.77,3.59c-1.1,0.7-2.25,1.05-3.44,1.05h-15.42V166h14.67
		c1.2,0,2.42,0.32,3.67,0.97c1.24,0.65,2.29,1.8,3.14,3.44c0.85,1.64,1.27,3.97,1.27,6.96C159.17,180.17,158.8,182.41,158.05,184.11
		 M178.78,152.16c-3.19-3.54-6.98-6.36-11.38-8.46c-4.39-2.1-9.18-3.14-14.37-3.14h-45.8v106.27h29.19v-32.63h17.36
		c6.98,0,13.09-1.77,18.33-5.31c5.24-3.54,9.33-8.11,12.27-13.7c2.94-5.59,4.42-11.52,4.42-17.81c0-4.49-0.87-8.93-2.62-13.32
		C184.44,159.66,181.97,155.7,178.78,152.16"/>
</g>
</svg>
