<svg xmlns="http://www.w3.org/2000/svg" height="800" width="1200" viewBox="-9.92187 -9.73785 85.98954 58.4271"><g transform="translate(-21.3917 -7.8996) scale(.1539)" stroke-width="1.7192"><path d="M268.621 184.133c0-4.646-2.971-6.905-9.082-6.905h-3.738v24.628h3.188v-10.592h.291l7.296 10.592h3.911l-7.714-10.865c3.567-.488 5.848-3.138 5.848-6.858zm-9.632-3.909h.55c3.106 0 5.894.313 5.894 4.103 0 3.586-2.963 4.069-5.862 4.069h-.582zm-70.16-2.996h3.188v24.628h-3.188zm37.487-.416c-7.072 0-12.826 5.754-12.826 12.826 0 6.966 5.753 12.634 12.826 12.634 2.583 0 5.192-.857 7.347-2.416l.104-.074v-4.059l-.427.427c-1.987 1.986-4.582 3.126-7.119 3.126-5.172 0-9.542-4.458-9.542-9.734s4.34-9.733 9.478-9.733c2.642 0 5.259 1.139 7.18 3.124l.43.444v-4.071l-.101-.075c-2.181-1.628-4.584-2.419-7.35-2.419zm-72.587 18.917l-8.54-19.727-.475.052-4.953 25.801h3.262l3.013-15.841 7.692 17.195 7.724-17.197 3.013 15.843h3.263l-4.954-25.801-.475-.052zm148.495-18.917c-7.072 0-12.826 5.725-12.826 12.762 0 7.002 5.754 12.698 12.826 12.698 7.072 0 12.826-5.696 12.826-12.698 0-7.038-5.754-12.762-12.826-12.762zm0 22.463c-5.314 0-9.638-4.367-9.638-9.734s4.324-9.733 9.638-9.733 9.638 4.366 9.638 9.733c0 5.367-4.324 9.734-9.638 9.734zm213.625 2.58v-2.996h-9.825v-8.971h9.537v-2.996h-9.537v-6.668h9.825v-2.996h-13.012v24.627zm29.783-14.302l-1.613-.71c-1.609-.726-3.613-1.63-3.613-3.542 0-1.959 1.647-3.493 3.75-3.493 1.777 0 2.92.724 3.943 2.499l.131.227 2.561-1.643-.11-.204c-1.331-2.463-3.686-3.875-6.46-3.875-3.992 0-7.002 2.749-7.002 6.394 0 3.647 2.665 5.163 5.398 6.405l1.578.688c2.155.984 4.191 1.914 4.191 4.522 0 2.456-2.113 4.454-4.71 4.454-2.341 0-4.227-1.754-4.585-4.266l-.04-.282-3.123.876.047.228c.803 3.912 3.85 6.44 7.765 6.44 4.393 0 7.834-3.385 7.834-7.706-.001-4.066-2.936-5.694-5.942-7.012zm-87.745-11.723v26.025h3.187v-18.218l18.817 19.679v-26.088h-3.189v18.314zm-110.876 2.722c-1.769-1.223-3.907-1.324-6.125-1.324h-4.218v24.628h3.188v-10.561h1.702c1.804 0 4.104-.188 5.887-1.657 1.5-1.244 2.395-3.254 2.395-5.376 0-2.342-1.057-4.476-2.829-5.71zm-7.156 1.672h.742c3.19 0 6.054.304 6.054 3.974 0 2.798-1.669 4.102-5.254 4.102h-1.542zm83.51-3.412c-7.072 0-12.825 5.725-12.825 12.762 0 7.002 5.753 12.698 12.825 12.698 7.072 0 12.826-5.696 12.826-12.698 0-7.038-5.753-12.762-12.826-12.762zm0 22.463c-5.314 0-9.638-4.367-9.638-9.734s4.323-9.733 9.638-9.733c5.315 0 9.639 4.366 9.639 9.733 0 5.367-4.324 9.734-9.639 9.734zm-49.528-12.255v-9.792h-3.189v24.627h3.189v-11.839h11.851v11.839h3.189v-24.627h-3.189v9.792zM232.608 87.425c0-20.454-20.234-33.115-38.982-33.115H139v108.601h32.66v-52.459l25.182 51.616.41.843h37.083l-25.896-45.69c14.936-4.312 24.169-15.653 24.169-29.796zM171.66 70.021h9.582c10.438 0 17.729 7.358 17.729 17.893 0 15.238-8.711 18.219-23.759 18.219h-3.552zm340.477 45.793h35.526v-17.34h-35.526V71.651h37.481v-17.34h-70.14v108.601h72.096V145.57h-39.437zm-99.765-61.503h-48.108v108.601h52.997c32.49 0 53.484-20.547 53.484-52.345 0-32.597-24.55-56.256-58.373-56.256zm24.607 52.019c0 20.168-8.048 41.719-30.637 41.719h-10.919V69.173h9.777c21.952 0 31.779 18.662 31.779 37.157zm-84.156-44.68l-9.098-9.098-11.167 11.167c-9.835-7.749-22.366-12.342-36.185-12.342-32.368 0-57.723 25.14-57.723 57.233 0 13.881 4.75 26.456 12.753 36.264l-10.988 10.988 9.098 9.098 11.117-11.117c9.768 7.541 22.13 12.001 35.744 12.001 32.368 0 57.723-25.14 57.723-57.234 0-13.678-4.617-26.083-12.408-35.827zm-56.448 3.938c10.109 0 16.001 6.579 19.411 14.905L273.4 122.878c-.786-5.424-.982-10.554-.982-14.268 0-12.935 2.335-43.022 23.957-43.022zm23.07 29.44c.706 5.169.885 10.025.885 13.582 0 12.936-2.334 43.023-23.956 43.023-9.886 0-15.732-6.295-19.174-14.36zm243.222-31.386c3.384 0 6.138-2.772 6.138-6.156s-2.754-6.156-6.138-6.156c-3.402 0-6.175 2.772-6.175 6.156s2.773 6.156 6.175 6.156zm5.291-6.156c0 3.024-2.285 5.4-5.291 5.4-3.042 0-5.328-2.376-5.328-5.4 0-3.006 2.286-5.4 5.328-5.4 3.006 0 5.291 2.394 5.291 5.4zm-6.768.414h1.584l2.052 3.24h1.063l-2.178-3.24c.989-.162 1.836-.756 1.836-2.052 0-1.314-.738-2.016-2.376-2.016h-2.826v7.308h.846V57.9zm0-.756v-2.556h1.764c.883 0 1.746.216 1.746 1.242 0 1.278-1.098 1.314-2.195 1.314z"/><circle cx="344.333" cy="265.795" r="38.635" fill="#b4975a"/></g></svg>