<svg width="450" height="295" viewBox="0 0 450 295" fill="none" xmlns="http://www.w3.org/2000/svg">
<path d="M428.138 292.479H426.933V293.861H428.138V292.479Z" fill="black"/>
<path d="M434.214 292.246L430.74 285.905H429.535V293.861H430.535V287.505L434.009 293.861H435.214V285.905H434.214V292.246Z" fill="black"/>
<path d="M437.674 290.224H441.148V289.264H437.674V286.865H441.417V285.905H437.674H437.148H436.636V293.861H437.148H437.674H441.507V292.901H437.674V290.224Z" fill="black"/>
<path d="M442.288 286.865H444.647V293.861H445.672V286.865H448.056V285.905H442.288V286.865Z" fill="black"/>
<path d="M173.135 157.9C173.135 156.635 172.468 155.98 171.135 155.98H150.883C147.986 155.98 145.871 157.566 144.538 160.751L104.059 256.409C103.7 257.165 103.302 257.514 102.79 257.442C102.302 257.398 102.059 256.918 102.059 256.031L101.034 161.682C101.034 157.9 99.4057 155.98 96.1755 155.98H76.1024C74.1028 155.98 73.103 156.693 73.103 158.075C73.103 159.34 73.9874 160.169 75.7691 160.547L78.6148 161.1C81.063 161.609 82.5756 162.307 83.1268 163.194C83.6779 164.081 83.6779 165.841 83.1268 168.503L78.0764 190.101C78.038 189.898 77.9867 189.752 77.961 189.621C77.8457 189.01 77.8329 188.938 77.8329 188.938C77.8329 188.938 77.7944 188.632 76.9612 184.313C76.1793 180.153 73.667 178.509 71.0137 176.793L70.3215 176.386C67.6553 174.612 67.0657 171.208 67.0657 171.165L65.4378 162.496L2.84737 177.651L4.48804 186.363C4.48804 186.363 5.2187 189.752 3.39854 192.603L2.91145 193.316C1.12974 196.123 -0.587871 198.741 0.194029 202.944C0.591388 205.096 0.822122 206.245 0.924667 206.856C1.04003 207.482 1.05282 207.569 1.05282 207.569C1.05282 207.569 1.09126 207.802 1.92443 212.165C2.73197 216.354 5.21869 217.954 7.87202 219.67L8.56417 220.121C11.256 221.866 11.82 225.269 11.82 225.328L13.4478 234.011L71.0521 220.048L57.8495 276.364C57.0676 279.927 55.9397 282.603 54.4912 284.45C53.0428 286.268 50.8124 287.461 47.813 287.956L45.4801 288.334C43.6728 288.581 42.7883 289.424 42.7883 290.806C42.7883 292.072 43.6344 292.697 45.3007 292.697H68.8987C71.0137 292.697 72.0775 291.941 72.0775 290.428C72.0775 289.134 71.411 288.465 70.0779 288.334L68.0527 287.956C65.3866 287.446 63.6945 286.268 62.9511 284.45C62.2333 282.603 62.2589 279.927 63.0408 276.364L87.6387 171.761C87.8566 171.005 88.2155 170.626 88.7282 170.626C89.241 170.626 89.4588 171.077 89.4588 171.964L91.1508 287.781C91.1508 289.046 91.3687 289.846 91.8173 290.224C92.266 290.603 92.753 290.806 93.3042 290.806C93.8554 290.806 94.3937 290.603 94.9065 290.224C95.3935 289.846 95.8807 289.032 96.3293 287.781L145.179 171.761C145.512 171.005 145.961 170.728 146.512 170.932C147.063 171.106 147.243 171.659 146.999 172.517L128.105 280.174C127.657 282.821 126.964 284.596 126.016 285.483C125.08 286.37 123.363 287.068 120.914 287.577L116.889 288.334C115.108 288.712 114.223 289.541 114.223 290.806C114.223 292.072 115.005 292.697 116.556 292.697H146.358C148.358 292.697 149.358 291.941 149.358 290.428C149.358 289.919 149.178 289.439 148.845 288.988C148.512 288.552 147.794 288.275 146.666 288.13L143.833 287.577C141.59 287.068 140.231 286.37 139.718 285.483C139.231 284.596 139.206 282.836 139.654 280.174L159.061 168.532C159.612 165.885 160.33 164.111 161.214 163.223C162.124 162.336 163.791 161.638 166.239 161.129L170.251 160.373C172.148 159.995 173.096 159.18 173.096 157.929L173.135 157.9ZM75.846 202.115C75.7179 202.319 75.5769 202.522 75.4487 202.726L75.0001 203.438C75.0001 203.438 74.936 203.569 74.9103 203.613C73.6926 205.606 73.5516 207.7 73.6414 209.023C73.667 209.78 73.7695 210.26 73.7695 210.318L73.8337 210.652L75.2565 218.274L71.8725 219.103H71.8468L71.2187 219.248L13.9734 233.109L12.4609 225.153C12.4353 225.008 11.8328 221.386 8.89745 219.452L8.2053 219.015C5.55197 217.328 3.28316 215.83 2.57817 211.99C1.75781 207.642 1.70655 207.394 1.70655 207.365C1.70655 207.365 1.64245 207.089 0.8221 202.769C0.10429 198.901 1.6681 196.501 3.47544 193.752L3.92404 193.025C5.94929 189.898 5.16742 186.305 5.1546 186.174L3.61642 178.219L64.938 163.34L66.4248 171.295C66.4504 171.441 67.0529 175.062 70.0138 176.997L70.6804 177.448C73.3337 179.135 75.6025 180.575 76.3331 184.444C77.1535 188.763 77.2047 189.069 77.2047 189.069C77.2047 189.069 77.2432 189.272 77.7175 191.614C77.7816 192.021 77.8713 192.501 77.961 193.025C77.9867 193.228 78.0252 193.461 78.0764 193.679C78.7686 197.272 77.4739 199.57 75.846 202.086V202.115Z" fill="black"/>
<path d="M258.298 161.114L262.31 160.358C264.092 159.98 264.989 159.165 264.989 157.886C264.989 156.606 264.258 155.98 262.81 155.98H238.725C237.943 155.98 237.212 156.184 236.546 156.562C235.879 156.94 235.546 157.507 235.546 158.264C235.546 159.529 236.328 160.3 237.892 160.547L241.57 161.129C245.249 161.638 246.377 165.434 244.929 172.517L227.868 256.423C225.958 266.037 222.792 273.513 218.331 278.836C213.871 284.159 208.013 286.807 200.771 286.807C194.08 286.807 189.132 284.159 185.966 278.836C182.787 273.513 182.197 266.052 184.21 256.423L202.116 168.721C202.68 166.06 203.437 164.227 204.372 163.209C205.321 162.205 206.974 161.493 209.307 161.114L213.999 160.358C215.563 160.111 216.332 159.296 216.332 157.886C216.332 156.635 215.55 155.98 213.999 155.98H183.876C181.864 155.98 180.864 156.737 180.864 158.264C180.864 159.282 181.595 159.98 183.043 160.358L186.402 161.114C188.632 161.623 190.029 162.322 190.58 163.209C191.131 164.096 191.144 165.856 190.58 168.517L172.673 256.234C171.11 263.71 171.199 270.313 172.917 276.073C174.647 281.832 177.621 286.327 181.864 289.555C186.107 292.784 191.234 294.399 197.258 294.399C206.641 294.399 214.383 290.923 220.51 283.956C226.65 277.004 230.893 267.768 233.226 256.234L250.287 172.328C251.735 165.623 254.414 161.885 258.324 161.129L258.298 161.114Z" fill="black"/>
<path d="M293.266 216.165C289.471 210.842 286.485 206.318 284.319 202.595C282.152 198.872 280.614 195.323 279.73 191.963C278.833 188.618 278.384 185.098 278.384 181.433C278.384 178.146 278.999 174.815 280.23 171.455C281.46 168.11 283.409 165.289 286.088 163.005C288.767 160.722 292.33 159.587 296.803 159.587C302.93 159.587 307.032 162.278 309.096 167.659C311.16 173.041 312.403 180.851 312.864 191.105L313.031 195.105C313.249 197.257 313.967 198.333 315.21 198.333C316.454 198.333 317.223 197.388 317.543 195.483L322.234 167.761C322.683 164.983 322.119 162.889 320.555 161.493C315.428 156.562 308.006 154.09 298.303 154.09C291.279 154.09 285.498 155.704 280.986 158.933C276.461 162.162 273.09 166.22 270.86 171.092C268.629 175.964 267.514 180.997 267.514 186.189C267.514 192.763 268.873 199.032 271.616 204.98C274.346 210.929 278.563 217.517 284.242 224.731C289.036 230.796 292.779 236.876 295.445 242.955C298.124 249.02 299.457 254.853 299.457 260.423C299.457 269.033 297.393 275.884 293.266 281.018C289.138 286.138 283.947 288.712 277.705 288.712C270.898 288.712 265.989 286.37 262.977 281.672C259.964 277.004 258.349 269.339 258.119 258.707L257.952 251.304C257.952 248.773 257.285 247.493 255.939 247.493C254.491 247.493 253.607 248.628 253.261 250.911L248.582 280.727C248.351 281.978 248.338 282.938 248.505 283.563C248.672 284.203 249.031 284.829 249.595 285.468C251.376 287.243 253.812 288.785 256.875 290.123C259.939 291.446 263.233 292.493 266.745 293.25C270.257 294.006 273.577 294.384 276.705 294.384C283.178 294.384 288.92 292.741 293.932 289.454C298.957 286.167 302.93 281.643 305.891 275.884C308.84 270.124 310.326 263.521 310.326 256.045C310.326 249.849 308.827 243.45 305.815 236.861C302.802 230.287 298.611 223.379 293.266 216.165Z" fill="black"/>
<path d="M373.737 157.886C373.737 156.635 372.955 155.98 371.391 155.98H341.615C339.602 155.98 338.603 156.737 338.603 158.264C338.603 159.282 339.333 159.98 340.782 160.358L344.127 161.114C346.358 161.623 347.755 162.322 348.306 163.209C348.87 164.096 348.87 165.856 348.306 168.518L325.554 280.145C325.105 282.792 324.4 284.61 323.465 285.556C322.516 286.501 320.811 287.17 318.363 287.548L315.005 288.116C312.774 288.494 311.659 289.381 311.659 290.763C311.659 292.028 312.441 292.668 313.992 292.668H343.781C345.794 292.668 346.793 291.912 346.793 290.384C346.793 289.381 346.063 288.683 344.614 288.29L341.256 287.534C339.026 287.025 337.667 286.327 337.154 285.439C336.654 284.552 336.629 282.778 337.077 280.116L359.842 168.488C360.406 165.841 361.124 164.038 362.021 163.092C362.906 162.147 364.585 161.478 367.046 161.1L370.391 160.518C372.622 160.14 373.75 159.267 373.75 157.871L373.737 157.886Z" fill="black"/>
<path d="M438.315 198.886C439.661 198.886 440.494 197.882 440.827 195.846L445.852 167.179C446.185 165.405 445.788 164.023 444.673 163.005C438.315 157.057 431.239 154.075 423.42 154.075C416.832 154.075 410.73 155.966 405.103 159.776C399.476 163.572 394.426 168.634 389.965 174.961C385.504 181.287 381.685 188.4 378.506 196.326C375.327 204.224 372.892 212.369 371.225 220.717C369.546 229.066 368.713 237.109 368.713 244.832C368.713 260.903 371.366 273.178 376.66 281.658C381.954 290.152 390.516 294.37 402.335 294.37C405.347 294.37 408.641 294.035 412.204 293.337C415.781 292.639 418.511 291.897 420.395 291.155C421.741 290.763 422.626 289.628 423.074 287.737L429.765 258.125C430.329 255.711 429.701 254.518 427.919 254.518C426.804 254.518 425.958 255.274 425.407 256.802L421.728 265.717C418.267 274.211 414.883 280.189 411.602 283.665C408.308 287.156 404.539 288.886 400.309 288.886C393.17 288.886 388.068 285.279 384.992 278.065C381.928 270.851 380.403 261.558 380.403 250.169C380.403 243.203 381.134 235.683 382.582 227.582C384.03 219.481 386.068 211.409 388.683 203.38C391.298 195.352 394.349 187.992 397.797 181.36C401.258 174.713 404.988 169.39 409 165.42C413.012 161.42 417.191 159.427 421.549 159.427C425.907 159.427 429.637 161.653 432.085 166.074C434.534 170.51 435.879 177.971 436.097 188.487L436.264 195.89C436.264 197.926 436.93 198.93 438.276 198.93L438.315 198.886Z" fill="black"/>
<path d="M40.738 118.994C40.738 119.489 40.6995 119.998 40.8149 120.478C41.0712 121.568 41.4173 122.63 41.6865 123.721C41.7762 124.07 41.7762 124.39 41.8275 124.739C41.8659 124.972 41.9557 125.19 41.9941 125.423C42.071 125.844 42.3017 126.281 42.4427 126.673C42.8016 127.779 43.34 128.71 43.904 129.684C44.2757 130.324 44.6218 130.979 44.9551 131.648C45.1986 132.113 45.4165 132.608 45.7626 132.986C45.9934 133.233 46.2497 133.466 46.4804 133.727C47.3777 134.731 48.3775 135.589 49.3645 136.476C50.2361 137.247 51.1205 137.8 52.146 138.236C52.6843 138.469 53.1715 138.847 53.7098 139.065C54.7225 139.487 55.6582 139.967 56.5939 140.592C57.6065 141.261 58.5935 141.989 59.6318 142.6C59.9522 142.789 60.3495 143.079 60.7084 143.167C60.9648 143.225 61.234 143.138 61.4904 143.196C61.9518 143.312 62.4389 143.632 62.8747 143.865C63.7591 144.316 64.682 144.621 65.6178 144.897C66.5407 145.159 67.4892 145.159 68.4377 145.174C69.0402 145.174 69.6811 145.203 70.2835 145.174C70.5527 145.159 70.8219 145.087 71.1039 145.043C72.1294 144.898 73.1676 144.723 74.1802 144.505C75.4492 144.243 76.731 144.054 78 143.85C78.5256 143.763 79.051 143.487 79.5253 143.254C79.9739 143.036 80.4867 143.007 80.9737 142.876C81.3967 142.759 81.8198 142.658 82.23 142.498C82.7555 142.294 83.2939 142.192 83.8194 142.003C84.4347 141.785 84.973 141.712 85.6011 141.683C86.0754 141.654 86.4086 141.392 86.7675 141.058C87.2802 140.578 87.7417 140.069 88.2031 139.531C88.6774 138.978 89.2029 138.513 89.7028 138.003C90.113 137.582 90.5616 137.204 90.9975 136.825C91.1769 136.665 91.382 136.535 91.5486 136.375C91.7281 136.2 91.8563 135.996 92.0229 135.822C92.6382 135.167 93.0612 134.397 93.5996 133.669C93.8944 133.277 94.1123 132.884 94.343 132.448C94.5353 132.084 94.7916 131.779 94.9967 131.429C95.535 130.513 95.8812 129.422 96.3426 128.448C96.5734 127.953 96.74 127.502 96.8553 126.964C96.9322 126.586 96.945 126.237 97.022 125.859C97.1501 125.132 97.3681 124.463 97.3809 123.692C97.3809 123.154 97.3809 122.616 97.3809 122.063C97.3809 121.554 97.3424 121.016 97.3809 120.507C97.4065 120.23 97.4706 119.969 97.4706 119.692C97.4834 118.994 97.4706 118.281 97.4706 117.583C97.4706 116.958 97.5475 116.362 97.5731 115.736C97.5988 115.096 97.5219 114.878 97.2143 114.384C96.7784 113.685 96.3683 112.973 95.9196 112.289C95.5351 111.707 95.0352 111.242 94.6635 110.631C94.2661 109.977 93.92 109.409 93.4201 108.828C93.2022 108.566 92.9971 108.304 92.7792 108.057C91.7409 106.82 90.4463 105.933 89.2414 104.901C88.844 104.552 88.4852 104.144 88.075 103.824C87.7802 103.577 87.4597 103.373 87.152 103.112C86.5624 102.603 86.0369 102.006 85.4216 101.541C84.8705 101.119 84.3065 100.61 83.6656 100.377C82.9093 100.101 82.1402 99.6792 81.3455 99.5774C81.1789 99.5628 80.8584 99.6065 80.679 99.5483C80.5123 99.4901 80.4098 99.3447 80.2559 99.2429C79.7048 98.8938 79.128 98.6029 78.5896 98.2393C77.9872 97.8466 77.2822 97.5994 76.6541 97.2357C75.744 96.6976 74.8595 95.8977 73.8469 95.6504C73.1291 95.4759 72.3985 95.2141 71.7192 94.9377C71.168 94.705 70.6553 94.3851 70.1169 94.1378C69.3991 93.8033 68.7069 93.4251 67.9891 93.1052C67.5148 92.9015 67.0918 92.6252 66.5919 92.567C66.3612 92.5379 66.1946 92.4216 65.9767 92.3343C65.7332 92.247 65.5024 92.2616 65.2589 92.2034C64.7462 92.0871 64.195 91.8689 63.7079 91.6216C62.9644 91.2435 62.4261 90.5744 61.6826 90.1963C61.1314 89.92 60.6956 89.4545 60.1701 89.1346C59.683 88.8291 59.1446 88.5964 58.6447 88.3346C58.273 88.131 57.9141 87.9128 57.5424 87.7238C57.2476 87.5638 56.9271 87.462 56.6451 87.2874C55.6966 86.7202 55.4402 85.5857 55.2608 84.4658C55.1839 83.9568 55.1454 83.5204 55.1326 83.0259C55.1326 82.7787 55.03 82.6769 54.9531 82.4587C54.825 82.0806 54.8378 81.7315 54.8378 81.3388V78.1827C54.8378 77.8336 54.7993 77.4409 54.8634 77.1064C54.889 76.99 54.9532 76.7719 55.0045 76.641C55.0557 76.5101 55.0942 76.3501 55.1454 76.2337C55.4659 75.5211 55.9017 75.0411 56.3888 74.503C56.6708 74.183 56.9143 73.8485 57.1322 73.4703C57.3758 73.0631 57.6322 72.7286 57.9654 72.4231C58.1833 72.2195 58.2859 71.9141 58.5038 71.725C58.6576 71.5941 58.8242 71.4777 58.9909 71.3468C59.1319 71.2305 59.2728 71.085 59.4266 70.9978C59.5676 70.9251 59.7215 70.8814 59.8625 70.7942C60.4649 70.4451 61.0802 70.2269 61.6954 69.9215C61.9262 69.8051 62.1441 69.6597 62.3492 69.4997C62.4774 69.4124 62.6055 69.3252 62.7209 69.2088C62.8362 69.0925 62.926 68.9179 63.0542 68.8161C63.208 68.6998 63.4259 68.598 63.5925 68.4962C63.7463 68.4089 63.8617 68.3943 64.0283 68.3943C64.4513 68.3943 64.8615 68.3943 65.2845 68.3943C65.9126 68.3943 66.515 68.5689 67.1303 68.758C67.502 68.8598 67.8866 68.8598 68.2839 68.8452C68.5275 68.8452 68.7582 68.7289 69.0017 68.7289C69.758 68.7289 70.5399 68.7289 71.2833 68.947C71.6679 69.0634 72.0524 69.1943 72.4498 69.3106C72.7062 69.3834 72.9497 69.3834 73.1933 69.4706C73.6675 69.6306 74.1033 69.8197 74.5007 70.1542C74.757 70.3724 74.9749 70.6487 75.2441 70.8669C75.4877 71.056 75.8209 71.3759 76.1029 71.4632C76.6669 71.6232 77.2693 71.405 77.859 71.6086C78.4871 71.8268 79.0126 72.3359 79.5895 72.6849C80.2944 73.1067 80.7431 73.8194 81.2686 74.4739C81.4609 74.7211 81.7301 74.9684 81.8198 75.2738C81.8839 75.492 81.9351 75.7101 82.012 75.9429C82.2043 76.5101 82.3837 77.0919 82.5888 77.6445C82.8067 78.2263 82.7939 78.8517 82.9734 79.448C83.0887 79.8116 83.1272 80.2189 83.2554 80.5825C83.3836 80.9316 83.6143 81.2515 83.7809 81.5715C84.1398 82.2405 84.4475 82.8369 84.7167 83.5495C84.8192 83.8259 84.7936 83.855 85.0499 83.8695C85.396 83.8695 85.7293 83.8695 86.0754 83.8695C86.7676 83.8695 87.4597 83.8404 88.1519 83.8695C88.6133 83.8841 89.0363 84.0731 89.4849 84.1749C89.8695 84.2622 90.3181 84.204 90.7027 84.204H95.8299C95.7273 83.5059 95.7273 83.2586 95.7273 82.9968C95.7273 82.895 95.7401 82.7641 95.7273 82.6623C95.7273 82.5605 95.6632 82.5023 95.6504 82.4151C95.612 82.2115 95.6505 81.9933 95.612 81.7751C95.5607 81.557 95.5095 81.3388 95.4582 81.1206C95.3556 80.6843 95.4325 80.1025 95.4325 79.6517C95.4325 79.288 95.4325 78.939 95.4325 78.5754C95.4325 78.0809 95.3428 77.6445 95.2146 77.1791C95.0608 76.5828 94.7788 75.9574 94.484 75.4483C94.1892 74.9102 93.7534 74.4593 93.497 73.8921C93.1894 73.194 92.7536 72.5831 92.3947 71.8995C92.2152 71.5505 92.3434 71.7977 92.2152 71.6668C91.8435 71.2741 91.5743 70.8378 91.241 70.3869C90.9975 70.0669 90.7155 69.8051 90.472 69.4997C90.1771 69.1216 89.9848 68.6707 89.7157 68.2634C89.4721 67.8707 89.1901 67.5071 88.9338 67.129C88.639 66.6927 88.3442 66.2709 88.075 65.82C87.511 64.8892 86.6137 64.2783 85.7678 63.7111C85.1909 63.3184 84.5757 63.0857 83.9091 62.9548C83.7425 62.9257 83.6271 62.8966 83.4733 62.8239C82.3837 62.3584 81.3711 61.704 80.2559 61.3113C79.5509 61.064 78.8844 60.8895 78.2051 60.5259C77.5898 60.1913 76.9617 59.7841 76.2952 59.5514C74.6417 58.9842 72.9625 59.435 71.2961 59.1005C70.8219 59.0133 70.3605 59.0133 69.8862 58.9114C69.4376 58.8096 68.9633 58.6787 68.5018 58.6642C67.7327 58.6351 66.9509 58.6496 66.1946 58.7515C65.8229 58.7951 65.5665 58.8824 65.2204 59.0133C64.8487 59.1442 64.4513 59.1442 64.0796 59.2314C63.5412 59.3478 62.99 59.4641 62.4773 59.6677C61.9261 59.8859 61.3494 59.8859 60.7726 59.9732C59.901 60.1041 58.9139 60.1186 58.1064 60.5695C57.7475 60.7586 57.4014 61.0931 57.081 61.3549C56.7093 61.6312 56.3888 61.893 56.0042 62.1257C55.2736 62.5621 54.5943 63.0857 53.8636 63.5365C53.0176 64.0601 52.2101 64.6128 51.3898 65.1655C50.6976 65.6309 49.9285 65.8491 49.326 66.4599C49.0056 66.7799 48.6595 67.0708 48.3647 67.4053C47.8007 68.0307 47.2623 68.6707 46.6342 69.2234C46.1472 69.6452 45.596 70.0669 45.0705 70.416C44.891 70.5324 44.7243 70.576 44.5961 70.7214C44.4423 70.8814 44.2116 71.4632 44.1347 71.6523C43.9424 72.1031 43.8143 72.5104 43.763 73.0049C43.6733 74.0375 43.8399 75.0702 43.8528 76.1028C43.8656 77.1937 43.9168 78.3427 43.8271 79.4335C43.7117 80.757 43.763 82.0806 43.7502 83.4041C43.7502 84.0586 43.7502 84.7131 43.7758 85.3821C43.8143 86.1966 43.7758 87.0547 43.8399 87.8692C43.8912 88.5673 44.5705 89.1782 44.9166 89.6872C45.596 90.6908 46.1472 91.7962 46.8265 92.8143C47.0957 93.207 47.3648 93.5997 47.6468 93.9778C47.7878 94.2251 47.9417 94.4723 48.0955 94.705C48.3903 95.0105 48.839 95.2286 49.1594 95.505C50.4925 96.6249 51.8127 97.7593 53.1842 98.8065C53.8892 99.3447 54.6584 99.7955 55.389 100.29C56.658 101.163 58.1448 101.643 59.5035 102.268C60.67 102.806 61.8621 103.432 63.0926 103.766C64.5795 104.173 66.0407 104.566 67.4507 105.25C68.0404 105.541 68.6172 105.89 69.2196 106.137C69.5401 106.282 69.8734 106.384 70.2066 106.53C71.8858 107.242 73.5008 108.144 75.2056 108.828C76.4618 109.337 77.6154 110.238 78.6793 111.155C79.6022 111.955 80.5892 112.769 81.3327 113.787C81.5762 114.122 81.8711 114.442 82.1659 114.733C82.7812 115.343 83.3708 115.969 83.9091 116.667C84.2039 117.06 84.9217 117.932 85.1012 118.47C85.3832 119.285 85.537 120.129 85.7164 120.972C85.9215 121.917 85.9087 122.848 85.9087 123.823C85.9087 124.492 85.9087 125.161 85.9087 125.83C85.9087 126.179 85.96 126.601 85.9216 126.95C85.8703 127.473 85.3832 127.881 85.0627 128.215C84.6653 128.622 84.2552 129.073 83.9347 129.553C83.7809 129.786 83.6528 130.033 83.4989 130.266C83.2682 130.586 82.9862 130.804 82.7298 131.08C82.2684 131.56 81.7429 131.997 81.243 132.433C80.7815 132.855 80.2944 133.262 79.833 133.669C79.6279 133.844 79.3844 134.091 79.1152 134.149C78.6922 134.237 78.1666 134.149 77.7308 134.149C77.0899 134.149 76.449 134.164 75.8081 134.149C74.6417 134.12 73.488 133.931 72.3216 133.917C69.9118 133.887 67.4636 134.091 65.0794 133.698C64.3103 133.567 63.5156 133.102 62.7849 132.826C61.4262 132.302 60.0419 131.866 58.6704 131.4C58.414 131.269 58.1449 131.197 57.8757 131.168H57.7988C57.6962 131.124 57.3886 130.6 57.427 130.644C56.8117 129.728 56.0427 129.015 55.3121 128.244C54.7481 127.648 53.979 127.023 53.7739 126.135C53.5816 125.277 53.1586 124.492 52.7356 123.765C52.428 123.226 52.0307 122.776 51.7743 122.208C51.6077 121.845 51.4794 121.438 51.3384 121.045C51.0564 120.201 50.8514 119.329 50.6206 118.47C50.4027 118.47 50.2617 118.5 50.0695 118.587C49.7747 118.718 49.4927 118.703 49.185 118.703C48.4288 118.703 47.7238 118.66 46.9804 118.587C46.0959 118.5 45.1987 118.296 44.3398 118.049C44.0322 117.961 43.7886 117.947 43.481 117.947C43.1221 117.947 42.776 117.845 42.4043 117.831C42.007 117.831 41.6865 117.831 41.302 117.729C41.1097 117.671 40.9046 117.554 40.6995 117.627C40.6482 117.845 40.7764 118.034 40.8021 118.238C40.8277 118.514 40.8021 118.82 40.8021 119.081L40.738 118.994Z" fill="black"/>
<path d="M99.3674 62.5184C99.6494 63.2893 99.6493 64.0456 100.124 64.7292C100.675 65.5145 101.559 65.8636 102.175 66.5617C103.226 67.7253 103.841 69.2524 104.712 70.5178C104.918 70.8087 105.02 71.1723 105.187 71.4923C105.315 71.725 105.43 71.8268 105.546 72.1031C105.751 72.5976 105.981 73.0049 106.225 73.4848C106.456 73.9212 106.661 74.343 106.84 74.8084C107.033 75.3174 107.25 75.6665 107.507 76.1319C108.891 78.6481 109.955 81.5279 111.839 83.6804C112.275 84.1749 112.775 84.5967 113.044 85.2512C113.095 85.3821 113.121 85.5566 113.185 85.7021C113.377 86.1239 113.8 86.502 114.031 86.9093C114.275 87.3456 114.505 87.7819 114.736 88.2328C115.236 89.2509 115.877 90.1526 116.403 91.1562C116.864 92.0434 117.172 92.9888 117.543 93.9196C117.928 94.8941 118.569 95.7086 119.222 96.4649C119.71 97.0321 120.043 97.7593 120.44 98.4138C120.786 98.9956 121.107 99.5919 121.44 100.174C121.773 100.77 122.004 101.395 122.44 101.89C123.183 102.733 123.747 103.752 124.465 104.624C124.939 105.206 125.388 105.831 125.875 106.399C126.272 106.879 126.721 107.199 127.093 107.649C127.606 108.26 127.798 109.642 127.875 110.471C127.964 111.504 128.054 112.493 128.054 113.554C128.054 114.907 127.862 116.216 127.862 117.583C127.862 121.248 127.324 124.943 126.939 128.579C126.708 130.804 126.695 132.971 126.695 135.226C126.695 138.105 126.503 141.087 126.721 143.967C127.849 143.865 128.99 143.908 130.118 143.908C131.054 143.908 131.989 143.908 132.912 143.908C133.681 143.908 134.386 143.778 135.155 143.705C135.758 143.647 136.424 143.821 137.014 143.647C137.142 142.905 137.027 142.018 137.027 141.261V137.8C137.027 136.767 137.027 135.735 137.027 134.702C137.027 134.004 137.155 133.538 137.232 132.884C137.283 132.389 137.232 131.822 137.232 131.328C137.232 130.091 137.232 128.855 137.232 127.619C137.232 126.935 137.399 126.339 137.437 125.67C137.501 124.637 137.565 123.677 137.821 122.674C138.424 120.318 137.655 117.729 137.616 115.358C137.591 113.962 137.616 112.551 137.616 111.155C137.616 110.471 137.488 109.671 137.821 109.089C138.039 108.726 138.296 108.682 138.552 108.449C138.783 108.217 138.898 107.926 139.026 107.62C139.283 107.039 139.513 106.486 139.757 105.948C140.052 105.264 139.847 104.624 140.001 103.912C140.218 102.85 140.68 101.599 141.026 100.537C141.513 99.0392 142.18 97.7011 142.885 96.334C143.564 95.0104 144.205 93.6433 144.935 92.3634C145.41 91.5343 145.858 90.6181 146.397 89.8472C147.204 88.6691 148.037 87.5492 148.845 86.3711C149.255 85.7603 149.729 85.2076 150.152 84.6112C150.434 84.204 150.793 83.8986 151.075 83.4913C151.319 83.1568 151.447 82.7787 151.665 82.4296C152.024 81.8478 152.472 81.3242 152.87 80.7715C153.408 80.0007 153.818 79.128 154.408 78.3863C154.805 77.9063 155.139 77.3827 155.536 76.9028C155.959 76.3792 156.177 75.6956 156.549 75.1283C157.395 73.8484 158.138 72.5249 158.92 71.1868C160.266 68.8452 161.676 66.5763 162.906 64.1619C163.317 63.3765 163.65 62.6348 163.932 61.7912C164.047 61.4276 164.291 60.9622 164.188 60.5695C164.086 60.1477 163.957 60.2495 163.586 60.2495C163.265 60.2495 162.932 60.2495 162.612 60.2495C162.291 60.2495 161.971 60.2495 161.65 60.2495C161.189 60.2495 160.894 60.4531 160.458 60.5986C159.407 60.9476 158.074 60.7004 156.984 60.7004H153.921C153.447 60.7004 152.614 60.5404 152.165 60.7004C151.691 60.8604 151.473 61.5294 151.255 62.0385C150.768 63.1584 150.178 64.191 149.499 65.1218C149.242 65.4855 149.063 65.7182 148.755 66.0091C148.46 66.2999 148.332 66.6926 148.101 67.0272C147.64 67.6671 147.127 68.278 146.615 68.9034C146.051 69.587 145.551 70.2851 145.051 71.0123C144.436 71.8995 143.628 72.3504 142.897 73.1212C142.526 73.4994 142.154 73.8484 141.782 74.2121C141.308 74.6775 140.975 75.3901 140.654 75.9865C140.077 77.0482 139.475 78.1827 138.757 79.1426C137.232 81.2224 135.963 83.5931 135.001 86.0511C134.399 87.5928 134.04 89.2509 133.438 90.8071C133.117 91.6362 132.771 92.4361 132.412 93.2506C132.053 94.0505 131.694 94.9523 131.784 95.8686C131.015 94.9668 130.874 93.396 130.413 92.2907C129.861 90.9817 129.503 89.6 128.951 88.291C128.426 87.0692 127.516 85.7312 126.708 84.7421C125.747 83.5786 125.042 81.9933 124.222 80.6552C123.914 80.1461 123.722 79.5644 123.414 79.0553C122.94 78.2699 122.094 77.5136 121.491 76.83C120.709 75.9283 119.71 75.2011 118.876 74.3575C118.594 74.0666 118.582 74.0521 118.518 73.6739C118.377 72.9176 118.364 72.1758 118.146 71.405C117.62 69.587 116.287 67.8271 115.21 66.3872C114.031 64.8164 112.762 63.2165 111.942 61.3694C111.737 60.9185 111.634 60.3804 111.198 60.264C111.032 60.2204 110.788 60.264 110.609 60.264C110.109 60.264 109.878 60.3804 109.442 60.4968C108.93 60.6422 108.161 60.4968 107.635 60.4968H98.0215C98.9957 61.064 99.2263 62.0966 99.4058 62.5911L99.3674 62.5184Z" fill="black"/>
<path d="M174.02 142.992H175.084C175.532 142.992 175.866 142.847 176.289 142.76C177.109 142.658 178.006 142.789 178.827 142.789H182.877C183.992 142.789 185.12 142.789 186.235 143.036C187.838 143.385 189.491 143.85 191.106 144.068C192.196 144.214 193.247 144.214 194.336 144.214C194.913 144.214 195.541 144.243 196.118 144.214C196.72 144.185 197.272 143.981 197.849 143.865C198.823 143.632 199.758 143.429 200.72 143.138C201.502 142.861 202.322 142.803 203.13 142.614C204.527 142.28 205.962 142.309 207.359 141.887C208.052 141.683 208.718 141.814 209.346 141.48C210.256 141.043 211.218 140.927 212.128 140.549C212.948 140.2 213.82 140.025 214.666 139.822C216.358 139.414 218.204 139.312 219.716 138.309C220.113 138.033 220.383 137.727 220.716 137.393C221.164 136.942 221.447 136.462 221.857 135.982C222.677 135.051 223.549 134.135 224.395 133.233C226.394 131.109 228.445 129.088 230.265 126.717C231.022 125.757 231.868 124.899 232.649 123.91C233.111 123.299 233.675 122.805 234.252 122.339C234.521 122.136 235.072 121.859 235.277 121.554C235.61 121.001 235.79 120.07 236.033 119.43C236.213 118.907 236.52 118.441 236.636 117.889C236.726 117.511 236.751 117.161 236.854 116.783C237.097 115.954 237.302 115.14 237.456 114.282C237.7 113.016 237.52 111.751 237.815 110.515C238.033 109.526 238.418 108.653 238.571 107.635C238.687 106.719 238.815 105.817 238.994 104.959C239.123 104.232 239.417 103.577 239.571 102.894C239.725 102.312 239.507 101.628 239.392 101.046C239.097 99.6792 238.61 98.3702 238.251 97.003C237.892 95.6941 237.7 94.356 237.405 93.0324C237.277 92.4798 237.072 91.9416 236.956 91.3889C236.892 91.0544 236.931 90.6617 236.867 90.3563C236.738 89.8472 236.418 89.3673 236.226 88.9164C235.264 86.7929 234.265 84.7422 233.508 82.5314C233.085 81.2952 232.816 80.1607 232.265 78.9972C231.329 76.9755 230.022 75.332 228.907 73.4412C228.637 73.0049 228.458 72.4377 228.125 72.0304C227.574 71.3759 226.522 70.896 225.83 70.4451C224.446 69.5288 223.203 68.3944 221.805 67.5217C221.113 67.0854 220.357 66.3291 219.562 66.0818C219.357 66.0382 219.178 66.0527 218.985 65.9509C218.691 65.8055 218.409 65.4709 218.139 65.2964C217.255 64.6419 216.409 63.9583 215.473 63.3475C214.448 62.693 213.422 62.0821 212.423 61.3985C211.551 60.8168 210.615 61.1513 209.667 61.0204C208.27 60.8458 206.86 60.7731 205.488 60.584C204.578 60.4822 203.642 60.2495 202.732 60.2059C201.912 60.1768 201.04 60.235 200.22 60.235C198.835 60.235 197.477 60.1041 196.105 60.0314C193.695 59.9296 191.324 59.595 188.914 59.595C187.094 59.595 185.261 59.5223 183.441 59.6241C181.877 59.6968 180.352 59.7987 178.788 59.7987H174.02C174.02 61.384 174.045 62.5766 174.02 63.7693C174.02 64.5837 174.379 65.2091 174.379 66.0382C174.404 66.7508 174.597 67.3762 174.712 68.0598C174.75 68.4089 174.712 68.7434 174.738 69.0925C174.776 69.6015 174.943 70.096 174.981 70.576C175.468 74.3866 174.943 78.2263 174.763 82.0224C174.558 86.313 174.071 90.589 174.033 94.8796C173.994 96.7267 174.033 98.5884 174.033 100.436C174.033 102.704 174.122 104.959 174.186 107.228C174.276 109.962 174.545 112.711 174.584 115.431C174.648 119.125 173.827 122.703 173.853 126.412V133.989C173.827 135.56 173.917 137.116 173.981 138.658C174.045 139.996 173.776 141.683 174.045 142.978L174.02 142.992ZM184.62 126.775C184.71 126.194 184.889 125.67 185.005 125.103C185.338 123.532 185.184 121.801 185.184 120.158V113.031C185.184 111.518 185.159 110.006 185.184 108.479C185.21 107.49 185.389 106.559 185.389 105.599C185.364 104.115 185.415 102.617 185.389 101.148C185.364 99.781 185.12 98.4138 185.056 97.0321C184.941 95.2141 185.018 93.3961 185.018 91.578V71.216C188.004 70.5905 190.824 70.6342 193.631 70.6051C194.631 70.576 195.682 70.3724 196.682 70.1688C197.9 69.9361 199.015 69.7615 200.271 69.7324C201.784 69.7324 203.36 70.5905 204.783 71.0996C206.052 71.5505 207.295 71.7541 208.564 72.0886C209.257 72.2922 209.744 72.5977 210.346 73.0194C211.064 73.5285 211.654 74.183 212.397 74.6339C212.91 74.9684 213.422 75.2884 213.961 75.5502C214.025 75.5502 214.768 75.7538 214.845 75.8265C215.025 76.001 215.063 76.2337 215.294 76.4083C215.499 76.5828 215.781 76.7428 215.986 76.8882C216.524 77.2664 217.127 77.4991 217.678 77.8482C218.703 78.5317 219.729 79.1572 220.754 79.8407C221.293 80.1898 222.049 80.8007 222.69 81.077C222.78 81.077 223.356 81.2224 223.356 81.2224C223.51 81.3679 223.6 81.8479 223.69 82.0515C223.818 82.3569 223.933 82.6623 224.074 82.9823C224.369 83.7968 224.856 84.4658 225.125 85.2803C225.638 86.7638 226.099 88.3055 226.612 89.8327C226.856 90.5163 226.945 91.1708 227.035 91.898C227.215 93.2361 227.42 94.5305 227.497 95.8686C227.561 96.6249 227.586 97.4103 227.715 98.1666C227.843 98.9811 228.099 99.7519 228.202 100.566C228.407 101.948 228.24 103.199 227.907 104.537C227.086 107.824 226.689 111.387 225.42 114.456C224.843 115.838 224.266 117.205 223.728 118.601C223.241 119.91 222.498 121.132 221.857 122.339C221.075 123.808 220.139 125.364 218.87 126.353C218.383 126.732 218.05 127.284 217.563 127.692C217.101 128.041 216.588 128.302 216.089 128.608C215.371 129.044 214.845 129.131 214.063 129.335C213.615 129.466 213.217 129.684 212.769 129.786C212.282 129.917 211.705 129.931 211.192 129.99C210.346 130.12 209.526 130.397 208.654 130.44C208.077 130.484 207.808 130.513 207.27 130.746C205.603 131.459 203.796 131.299 202.04 131.299H198.989C198.361 131.299 197.566 131.124 196.99 131.4C195.785 132.011 194.362 132.317 193.067 132.637C191.824 132.986 190.529 133.088 189.26 133.16C188.286 133.204 187.351 133.364 186.364 133.364C185.825 133.364 185.159 133.64 184.889 133.058C184.774 132.782 184.851 132.535 184.8 132.229C184.761 131.982 184.62 131.851 184.646 131.502V128.899C184.646 128.215 184.518 127.386 184.62 126.732V126.775Z" fill="black"/>
<path d="M250.582 132.113C250.582 134.047 250.621 135.982 250.813 137.902C250.992 139.749 251.056 141.494 251.056 143.356C251.39 143.094 252.172 142.919 252.723 143.079C252.928 143.138 252.979 143.327 253.171 143.37C253.492 143.458 253.812 143.472 254.133 143.559C255.184 143.865 256.197 143.894 257.35 143.894C258.171 143.894 258.991 143.894 259.824 143.894C260.35 143.894 261.58 144.127 261.926 143.574C262.144 143.239 261.952 142.192 261.952 141.741V139.72C261.952 138.12 261.862 136.491 261.952 134.891C261.99 134.077 262.311 133.306 262.17 132.506C261.977 131.459 261.785 130.455 261.619 129.379C261.362 128.201 261.17 126.993 261.042 125.786C260.99 124.215 260.978 122.645 261.003 121.088C261.003 119.343 261.003 117.583 261.003 115.838V95.9122C261.003 93.7015 260.952 91.4616 261.003 89.2509C261.055 86.4729 261.349 83.6513 261.657 80.8588C262.49 82.0515 263.413 83.8404 264.054 84.8003C264.439 85.3821 264.785 85.9784 265.144 86.5747C265.861 89.3818 266.092 88.8873 267.797 91.7525C268.592 93.0906 270.425 96.8867 271.168 98.0939C272.091 99.5919 272.27 100.828 273.142 102.472C274.206 104.479 275.039 104.668 276.436 106.224C277.859 107.795 277.551 110.427 279.628 111.329C279.41 114.311 282.012 116.536 283.255 118.645C283.781 119.532 285.486 121.772 286.024 122.601C286.87 123.896 287.69 125.277 288.575 126.601C288.767 126.877 288.934 127.153 289.113 127.43C289.229 127.735 289.357 128.026 289.434 128.332C289.934 130.12 291.767 133.902 292.677 135.473C293.6 137.058 294.01 137.553 295.074 139.036C295.856 140.127 296.817 141.683 298.112 141.727C298.688 141.741 299.214 141.698 299.765 141.858C300.278 142.003 300.79 141.872 301.303 141.974C301.598 142.032 301.829 142.221 302.136 142.265C302.406 142.294 302.7 142.265 302.97 142.265C303.623 142.265 304.238 142.25 304.892 142.396C305.943 142.643 307.033 142.556 308.097 142.759C309.007 142.949 310.109 143.283 311.019 143.021C311.212 141.8 311.032 140.331 311.032 139.08C311.032 138.28 311.006 137.465 311.032 136.665C311.045 135.72 311.276 134.876 311.276 133.917C311.276 132.317 311.276 130.731 311.276 129.131V125.801C311.276 124.361 311.417 122.034 311.532 120.608C311.609 119.576 311.596 118.485 311.699 117.452C311.916 115.329 311.75 113.133 311.75 111.009C311.75 109.366 311.686 107.722 311.852 106.079C311.968 104.988 312.186 103.912 312.224 102.806C312.288 101.163 312.032 99.5628 311.75 97.963C311.365 95.7668 310.942 93.4688 310.827 91.2289C310.737 89.3963 310.789 87.5638 310.789 85.7312C310.789 83.5641 310.673 81.3242 310.853 79.1717C310.942 78.1099 311.045 77.0337 311.032 75.9719C311.032 73.8485 311.032 71.725 311.032 69.6161C311.032 67.5362 311.071 65.4855 311.211 63.4202C311.263 62.5766 311.788 60.5404 311.481 59.6968C310.814 59.595 310.058 59.6968 309.379 59.6968C308.699 59.6968 307.904 59.5805 307.251 59.755C306.828 59.8714 306.469 60.1477 306.072 60.3368C305.61 60.5549 304.969 60.7149 304.456 60.7731C303.29 60.9331 302.124 60.4968 300.957 60.4968C300.56 60.4968 300.047 60.3222 299.88 60.744C299.791 60.9767 299.893 61.573 299.893 61.8348C299.893 62.533 299.688 63.0566 299.65 63.7111C299.611 64.4528 299.765 65.2673 299.637 65.9945C299.573 66.329 299.432 66.5763 299.419 66.9399C299.406 67.289 299.419 67.6671 299.419 68.0162V73.8194C299.419 74.4157 299.432 75.012 299.419 75.5938C299.406 76.321 299.201 76.9755 299.163 77.7027C299.06 79.4626 299.291 81.1933 298.996 82.9241C298.752 84.3204 298.945 85.9493 298.945 87.3892C298.945 89.12 298.958 90.7781 298.765 92.4797C298.637 93.556 298.663 94.6323 298.535 95.7086C298.406 96.7849 298.304 97.8902 298.24 98.9665C298.176 100.13 297.983 101.308 297.868 102.486C297.253 105.933 297.791 110.384 297.791 113.831C297.791 115.809 297.714 117.787 297.637 119.707C296.637 118.572 295.727 117.336 294.804 116.143C294.804 116.1 294.779 116.056 294.766 116.012C294.446 114.878 293.228 113.947 292.574 113.016C291.382 111.315 290.651 109.904 289.587 108.1C288.844 106.85 287.626 105.293 286.844 104.086C286.524 103.592 286.165 103.126 285.806 102.675C283.537 98.0502 282.358 93.1779 279.589 88.6546C278.679 87.1711 277.167 84.1168 275.475 80.5825C275.501 79.928 275.436 79.3026 275.116 78.7499C274.936 78.4445 274.616 78.1827 274.219 77.95C271.142 71.4341 267.797 64.1329 266.336 61.5294C266.336 61.5294 266.336 60.8313 264.81 60.4677C264.81 60.395 264.836 60.3222 264.81 60.2495C264.349 60.1186 263.81 60.1332 263.272 60.1622V60.2641C262.349 60.2204 261.17 60.2641 259.632 60.4531C259.157 60.5113 258.683 60.395 258.222 60.4531C257.478 60.5549 256.85 60.744 256.081 60.7295C255.197 60.7295 254.312 60.7295 253.428 60.7295C252.774 60.7295 251.979 60.584 251.338 60.7731C251.133 62.1548 251.326 63.7692 251.326 65.1655V73.3685C251.326 75.9865 251.095 78.5463 251.095 81.1643C251.095 89.3236 251.21 97.4975 251.095 105.657C251.095 106.66 250.851 107.62 250.839 108.624C250.826 109.657 250.839 110.689 250.839 111.722C250.839 112.391 250.89 113.075 250.839 113.729C250.8 114.369 250.595 114.951 250.582 115.605C250.518 117.656 250.582 119.736 250.582 121.801V132.069V132.113Z" fill="black"/>
<path d="M326.439 93.6433C326.503 94.4287 326.708 95.1123 326.708 95.8977C326.67 97.1049 326.413 98.2684 326.439 99.4901C326.464 102.981 326.4 106.457 326.747 109.947C326.926 111.867 326.9 113.758 326.9 115.707V123.532C326.9 124.695 326.926 125.859 326.9 127.023C326.9 127.939 327.105 128.71 327.169 129.597C327.195 130.048 327.169 130.557 327.105 130.979C326.99 131.531 326.977 131.982 326.926 132.549C326.862 133.408 326.682 134.135 326.682 135.022C326.682 135.836 326.721 136.665 326.682 137.451C326.644 138.105 326.439 138.658 326.439 139.342C326.439 140.476 326.746 142.396 326.195 143.312C327.4 143.894 328.669 143.923 329.951 143.923H335.476C336.834 143.923 338.372 144.156 339.706 143.792C340.667 143.516 341.705 143.647 342.705 143.647C344.371 143.647 346.089 143.792 347.755 143.618C349.178 143.487 350.498 143.036 351.921 143.094C354.254 143.196 356.548 143.399 358.881 143.399H362.201C363.445 143.37 364.624 143.676 365.867 143.647C366.931 143.647 367.892 143.952 368.943 143.923C369.572 143.894 370.033 144.17 370.661 144.199H372.199C372.802 144.17 373.173 144.068 373.737 143.952C374.25 143.821 374.878 143.923 375.404 143.923C376.16 143.923 377.634 144.228 377.89 143.269C378.096 142.512 377.865 141.218 377.865 140.418C377.865 139.618 377.89 138.803 377.89 137.989C377.89 137.174 377.673 136.52 377.621 135.764C377.583 134.949 377.403 134.222 377.403 133.422C377.403 132.666 377.16 132.055 377.185 131.328C376.045 130.993 374.583 131.284 373.404 131.284C372.071 131.284 370.738 131.313 369.392 131.284C368.661 131.284 367.7 131.415 366.969 131.619C366.546 131.749 366.188 131.997 365.816 132.128C365.124 132.331 364.175 132.099 363.432 132.099C362.496 132.099 361.522 132.142 360.586 132.128C358.958 132.055 357.382 131.851 355.754 131.851H350.652C349.896 131.851 349.011 131.706 348.242 131.851C347.435 132.026 346.82 132.099 345.974 132.099C345.461 132.099 345.063 132.128 344.576 132.244C344.115 132.346 343.615 132.288 343.154 132.389C342.615 132.52 342.308 132.637 341.731 132.637C341.269 132.608 340.795 132.637 340.308 132.637C339.334 132.637 338.347 132.593 337.398 132.68C337.193 130.426 337.219 127.91 337.36 125.641C337.424 124.637 337.873 123.517 338.09 122.616C338.398 121.35 337.873 119.838 337.821 118.572C337.783 117.467 337.578 116.522 337.398 115.445C337.36 115.169 337.424 114.863 337.36 114.616C337.334 114.384 337.206 114.165 337.18 114.005C337.065 113.525 336.911 112.944 336.886 112.464C336.821 111.373 336.886 110.267 336.886 109.162V107.344C336.886 107.199 336.796 106.937 336.86 106.791C337.103 106.21 339.065 106.486 339.513 106.544C340.718 106.646 341.872 106.879 343.102 106.85C344.333 106.806 345.525 106.326 346.73 106.064C347.371 105.933 348.114 105.991 348.781 105.991C351.293 106.021 353.767 106.85 356.305 106.82C357.664 106.82 358.997 106.85 360.355 106.82C361.56 106.791 362.778 106.471 364.008 106.297C364.816 106.166 365.547 106.021 366.341 106.021C367.187 106.021 367.918 106.064 368.7 105.817C369.187 105.671 369.7 105.41 370.123 105.264C370.571 105.133 371.058 105.221 371.507 105.221H372.686C372.904 105.221 373.173 105.264 373.404 105.221C373.891 105.148 373.801 105.25 373.891 104.697C374.045 103.315 373.866 101.788 373.866 100.377C373.866 99.112 374.083 97.5994 373.891 96.334C373.827 95.9849 373.737 95.4032 373.43 95.2432C373.122 95.0977 372.494 95.2868 372.122 95.2141C368.559 94.3996 364.778 94.7341 361.15 94.7341H352.498C350.203 94.705 347.986 95.2577 345.692 95.2577H341.667C340.974 95.2577 340.193 95.3595 339.513 95.2577C338.962 95.185 338.513 95.025 337.911 95.0105C337.732 93.4979 337.706 91.9562 337.603 90.4145C337.475 88.6982 337.052 86.9529 336.796 85.2367C336.668 84.1749 336.463 83.0696 336.437 82.0078C336.411 81.1497 336.527 80.2625 336.463 79.4044C336.424 78.6772 336.219 78.0372 336.219 77.31V75.6229C336.219 74.5321 336.04 73.2522 336.219 72.1904C337.039 71.8414 338.449 72.1468 339.27 72.1468C341.09 72.1468 342.897 72.1759 344.717 71.9723C347.627 71.6232 350.524 71.0123 353.446 70.6051C354.408 70.4742 355.356 70.4015 356.318 70.1978C359.83 75.2738 364.329 79.4189 369.584 82.3133C374.878 85.2367 380.582 86.7057 386.299 86.7057C389.927 86.7057 393.554 86.1239 397.092 84.9313V85.004C397.156 85.5857 397.425 85.993 397.669 86.4875C398.874 88.9164 400.027 91.258 401.117 93.7306C402.052 95.7959 403.206 97.4394 404.449 99.2429C404.565 99.3883 404.514 99.6501 404.655 99.8537C404.783 100.028 405.039 100.159 405.206 100.334C405.603 100.843 405.847 101.497 406.167 102.079C406.616 102.835 406.769 103.795 407.282 104.522C408.09 105.657 408.641 106.966 409.525 108.057C410.012 108.639 410.641 109.046 411.166 109.569C412.307 110.704 411.974 112.304 411.974 113.918C411.974 115.969 412.127 118.063 411.756 120.056C411.628 120.681 411.756 121.292 411.692 121.903C411.628 122.717 411.384 123.386 411.384 124.201C411.384 124.826 411.23 125.132 411.115 125.714C411.025 126.194 411.089 126.746 411.089 127.255C411.064 128.492 410.794 129.684 410.794 130.964C410.769 132.128 410.487 133.16 410.487 134.353V140.621C410.487 141.611 410.307 142.847 410.512 143.778C411.23 144.01 412.179 143.952 412.897 144.083C413.563 144.214 414.204 144.156 414.883 144.156C415.857 144.156 416.947 144.01 417.883 144.228C418.216 144.301 418.395 144.505 418.844 144.505C419.241 144.476 419.652 144.505 420.049 144.505C420.831 144.505 421.613 144.534 422.382 144.534C422.895 141.901 422.138 138.934 422.113 136.302C422.087 133.757 422.138 131.197 422.138 128.652C422.138 125.844 421.831 123.168 421.831 120.361C421.831 116.58 421.408 112.304 422.19 108.639C422.318 108.115 422.369 107.824 422.407 107.3C422.472 106.588 422.766 106.21 423.125 105.628C424.215 103.955 425.727 102.704 426.804 101.003C427.919 99.1847 428.855 97.2649 430.034 95.4904C430.585 94.705 431.175 94.0215 431.79 93.2942C432.726 92.1889 433.393 90.7926 434.239 89.5854C435.29 88.0437 436.174 86.3566 437.046 84.684C437.507 83.8259 437.828 82.9387 438.225 82.0515C438.622 81.2224 439.225 80.568 439.737 79.7826C440.519 78.619 441.301 77.2809 441.942 76.0156C442.455 75.0266 443.096 74.023 443.544 73.034C444.057 71.8704 444.301 70.5905 444.698 69.3979C445.057 68.3362 445.634 67.449 446.147 66.5181C446.57 65.7327 446.839 64.831 447.236 64.0747C447.441 63.6965 447.685 63.362 447.864 62.9693C448.069 62.4893 448.672 61.7621 449.261 60.2641H440.314C439.43 60.2641 438.251 60.0314 437.405 60.3077C437.43 60.9331 436.918 61.1222 436.597 61.5149C436.354 61.8203 436.084 62.3003 435.866 62.6784C435.136 63.9438 434.239 65.0492 433.534 66.3727C432.803 67.7544 431.893 69.0198 431.149 70.416C429.483 73.6012 427.83 76.8301 426.099 79.9571C425.381 81.2224 425.163 82.8078 424.766 84.2768C424.522 85.1058 424.164 85.8475 423.856 86.6475C423.587 87.3311 423.459 88.1165 423.138 88.7419C422.42 90.109 421.177 91.0835 420.357 92.3779C419.729 93.3815 418.959 94.2687 418.306 95.2868C417.575 93.0906 415.832 91.2144 414.742 89.2218C414.294 88.4073 413.935 87.5347 413.499 86.7202C413.102 85.9348 412.525 85.2512 412.192 84.4222C411.743 83.3605 411.23 82.4296 410.525 81.5715C409.795 80.6552 409.128 79.8262 408.462 78.8663C408.436 78.8226 408.397 78.7935 408.372 78.7354C413.576 74.5902 417.806 68.9907 420.677 62.3148C425.125 51.9156 425.779 40.1638 422.459 29.2265C415.601 6.65367 393.836 -5.41812 373.942 2.3631C354.049 10.1443 343.423 34.8406 350.268 57.4134C350.511 58.2279 350.78 58.9987 351.075 59.7841C350.806 59.8277 350.537 59.8859 350.268 59.9877C349.332 60.2932 348.486 60.235 347.46 60.235C346.038 60.235 344.628 60.2641 343.205 60.235C342.32 60.235 341.513 60.4822 340.628 60.5113C339.808 60.5404 338.988 60.5113 338.155 60.5113H328.067C327.221 60.5113 326.311 60.6859 325.824 60.235C325.824 68.6125 325.618 77.0337 325.824 85.4112C325.862 88.1601 326.336 90.8944 326.541 93.6433H326.439ZM350.806 57.1807C347.537 46.4179 348.153 34.8842 352.562 24.6596C356.946 14.464 364.585 6.78457 374.058 3.09031C378.083 1.51953 382.184 0.763222 386.235 0.763222C401.796 0.763222 416.37 11.846 421.715 29.4737C427.278 47.785 421.138 67.5071 407.833 78.139C405.026 80.3643 401.886 82.2115 398.489 83.5495C398.002 83.7532 397.515 83.9277 397.015 84.0731C382.082 89.1491 366.341 83.1132 357.023 69.9506C354.869 66.8963 353.036 63.4638 351.678 59.6968C351.344 58.8678 351.075 58.0242 350.806 57.1661V57.1807Z" fill="black"/>
<path d="M22.4592 182.204C22.3951 182.16 22.331 182.131 22.2797 182.102H22.2413V181.956C22.2413 181.956 22.1772 181.84 22.1131 181.753C22.0233 181.724 21.9337 181.68 21.8311 181.68C21.7286 181.651 21.5748 181.651 21.3568 181.68C21.1389 181.709 20.9466 181.709 20.7672 181.709C20.7031 181.811 20.5108 181.884 20.2032 181.956C20.1135 182 20.0109 182.058 19.8827 182.073C19.7546 182.116 19.6263 182.175 19.4469 182.247C19.229 182.247 18.9726 182.276 18.6394 182.364C18.3958 182.407 18.1011 182.509 17.755 182.64C17.3833 182.756 17.1525 182.858 16.9987 182.916C16.1527 183.382 15.5246 183.673 15.1529 183.774C14.9093 183.818 14.7427 183.804 14.6274 183.702C14.4736 183.527 14.2812 183.484 14.0249 183.556C13.8967 183.6 13.807 183.658 13.7173 183.731C13.6275 183.833 13.6147 183.934 13.6275 184.022C13.6532 184.124 13.5635 184.313 13.3456 184.56C13.243 184.531 13.0379 184.604 12.7559 184.764C12.4996 184.909 12.2817 185.011 12.1278 185.113L11.1152 185.68C10.8332 185.753 10.6409 185.956 10.5128 186.189C10.3846 186.465 10.3333 186.756 10.3589 187.105C10.423 187.396 10.6153 187.498 10.9614 187.425L11.1537 187.381C11.2178 187.338 11.2818 187.309 11.3972 187.265C11.4998 187.236 11.6792 187.163 11.8715 187.062C12.3201 186.916 12.6021 186.814 12.7431 186.742C12.7815 186.712 12.8072 186.771 12.8328 186.843C12.8585 186.945 12.8585 187.091 12.8328 187.309C12.8328 187.527 12.8072 187.672 12.8072 187.774L12.7047 188.909L12.3329 192.588C12.1791 193.403 12.0125 193.97 11.7946 194.29C11.7305 194.406 11.692 194.508 11.6664 194.61C11.6408 194.712 11.6408 194.785 11.6664 194.886L11.7561 195.177C11.7561 195.25 11.7305 195.468 11.7177 195.89C11.7177 195.963 11.7176 196.166 11.692 196.457C11.6664 196.733 11.6279 197.024 11.5382 197.315C11.3587 198.101 11.2305 199.235 11.128 200.733C10.9998 202.231 10.9485 203.38 10.9485 204.18C10.9101 204.573 10.9101 204.864 10.9485 205.009C10.9742 205.126 11.0127 205.227 11.1024 205.3C11.1921 205.373 11.2946 205.446 11.4485 205.547C11.5766 205.649 11.7048 205.722 11.8586 205.751C12.0125 205.78 12.1406 205.78 12.2432 205.751C12.3713 205.707 12.4355 205.649 12.4226 205.606C12.4483 205.562 12.4611 205.431 12.4611 205.286C12.4868 205.14 12.4867 205.009 12.4867 204.922C12.4611 204.427 12.4867 203.991 12.5252 203.569C12.4611 203.206 12.5508 201.969 12.8072 199.89C13.0635 197.795 13.2815 196.399 13.4737 195.643C13.4481 195.497 13.4481 195.366 13.4994 195.25C13.5378 195.134 13.5891 195.046 13.6275 195.003C13.7813 195.032 14.2556 194.901 15.0631 194.712C16.6013 194.319 17.7677 193.97 18.5753 193.679C19.4213 193.359 20.0109 193.083 20.3058 192.923C20.6262 192.777 20.8056 192.603 20.8441 192.428C20.8697 192.327 20.8697 192.225 20.8441 192.137C20.8056 191.963 20.7159 191.774 20.5877 191.541C20.4595 191.338 20.3314 191.192 20.2032 191.148C20.075 191.119 19.6008 191.323 18.7932 191.716C17.2294 192.283 15.9989 192.705 15.0503 192.937C14.3838 193.112 13.9223 193.185 13.6916 193.156C13.7301 193.039 13.8198 192.327 13.9992 191.018C14.0377 190.741 14.1018 190.159 14.2428 189.301C14.3453 188.414 14.4351 187.876 14.5248 187.658C14.5633 187.149 14.653 186.698 14.7812 186.349C14.8837 185.985 14.9991 185.782 15.0888 185.753C15.1785 185.723 15.3323 185.636 15.6143 185.462C15.8707 185.316 16.1783 185.185 16.4988 185.069C17.7934 184.531 18.8316 184.138 19.6007 183.934C20.1262 183.818 20.7287 183.687 21.4593 183.615C21.8439 183.542 22.1516 183.469 22.3951 183.396C22.6386 183.324 22.7796 183.251 22.8309 183.193C22.8693 183.12 22.9206 183.018 22.895 182.902C22.9334 182.553 22.7924 182.335 22.4848 182.233L22.4592 182.204Z" fill="black"/>
<path d="M24.9075 202.464C24.9331 202.362 24.9459 202.319 24.9716 202.319C24.9972 202.319 25.0869 202.348 25.2151 202.391C25.2408 202.537 25.2792 202.537 25.3049 202.362C25.3305 202.217 25.3305 202.028 25.3305 201.809C25.3305 201.082 25.3562 200.442 25.3562 199.919C25.3562 199.395 25.3305 199.061 25.292 198.886C25.3305 198.639 25.4203 197.955 25.51 196.821L25.5997 195.89C25.5741 195.759 25.6382 195.715 25.8433 195.744C26.0227 195.774 26.138 195.817 26.2021 195.977C26.3559 196.108 26.5097 196.152 26.6636 196.152C26.843 196.152 26.9969 196.123 27.202 196.079C27.2661 196.05 27.3814 196.006 27.5096 195.977C27.7147 195.904 27.9325 195.948 28.1761 196.079C28.4196 196.21 28.8427 196.486 29.4451 196.908C30.3168 197.693 31.1115 198.319 31.8293 198.726C32.5471 199.177 33.2521 199.439 33.9186 199.511C34.3672 199.715 34.6492 199.817 34.7646 199.788C34.803 199.759 34.8799 199.715 34.9184 199.584C34.944 199.482 34.9825 199.351 35.0338 199.177C35.4311 198.653 35.5721 198.217 35.4311 197.868C35.367 197.49 35.1876 197.315 34.944 197.359C34.88 197.388 34.7389 197.461 34.5851 197.563C34.4056 197.635 34.2775 197.664 34.2006 197.635C33.9827 197.592 33.47 197.359 32.7137 196.908C31.9575 196.457 31.2396 195.977 30.5987 195.497C29.9578 194.988 29.5989 194.668 29.5476 194.406L29.663 193.956C30.7269 192.865 31.6241 191.701 32.3548 190.494C33.0854 189.301 33.6238 188.094 33.957 186.902C34.2518 186.145 34.4057 185.563 34.4185 185.156C34.4185 184.749 34.3544 184.153 34.2006 183.338C33.9955 182.611 33.7135 181.942 33.3546 181.389C33.047 180.866 32.6624 180.458 32.2907 180.255C32.1625 180.124 31.7395 179.978 31.0601 179.804C30.3936 179.6 29.8168 179.557 29.3426 179.6C29.2272 179.629 29.099 179.629 28.9452 179.6C28.7914 179.557 28.676 179.498 28.5863 179.426C28.4965 179.324 28.2915 179.28 28.0095 179.295C27.7147 179.338 27.2532 179.397 26.5611 179.528C26.4457 179.528 26.2918 179.528 26.1124 179.571C25.9329 179.615 25.7535 179.717 25.5997 179.848C25.4459 179.978 25.2151 180.197 24.9075 180.473C24.5486 180.982 24.3563 181.331 24.2666 181.564C24.1512 181.796 24.1384 182 24.1769 182.218C24.2409 182.524 24.4461 182.873 24.7537 183.207C24.7921 183.236 24.8819 183.251 25.0229 183.338C25.1767 183.382 25.2408 183.469 25.2664 183.571C25.2664 183.6 25.2664 183.644 25.2279 183.716C25.2023 183.818 25.1638 183.891 25.1382 183.949C25.1382 184.051 25.0998 184.298 25.0229 184.662C24.9844 184.996 24.8947 185.287 24.7537 185.578C24.3051 189.898 24.1128 192.239 24.1769 192.603C24.2153 192.676 24.2666 192.807 24.3051 193.01C24.3307 193.141 24.3307 193.243 24.2794 193.286C24.2538 193.417 24.2153 193.534 24.1256 193.636C24.0359 193.766 24.0102 193.839 24.0102 193.868C23.9846 193.97 23.9718 194.174 23.9718 194.523C23.9462 194.872 23.9718 195.177 23.9975 195.526C23.7539 197.519 23.6641 199.308 23.6898 200.908C23.7154 201.315 23.8051 201.62 23.8692 201.795C23.9333 201.969 24.0872 202.129 24.2923 202.246C24.4076 202.319 24.5102 202.42 24.6255 202.522C24.7537 202.595 24.8434 202.653 24.8947 202.624C24.8947 202.624 24.9203 202.58 24.8947 202.493L24.9075 202.464ZM26.4585 187.338C26.638 185.723 26.7277 184.807 26.7277 184.764C26.7918 184.691 26.8559 184.516 26.9328 184.211C26.9584 183.905 26.9712 183.629 26.9584 183.324C27.0866 182.742 27.2019 182.364 27.2532 182.262C27.3173 182.131 27.4327 182.029 27.6377 181.927C27.7916 181.884 28.0608 181.855 28.394 181.826C28.817 181.796 29.1246 181.753 29.3297 181.695L29.9963 181.796C30.0604 181.796 30.2654 181.826 30.5987 181.869C30.9576 181.913 31.1755 182 31.3165 182.073C31.7395 182.146 32.0087 182.276 32.201 182.407C32.4061 182.538 32.5343 182.756 32.5599 183.018C32.5984 183.193 32.5983 183.498 32.5855 183.905C32.547 184.036 32.5214 184.211 32.5471 184.385C32.5727 184.56 32.5727 184.764 32.6111 184.894C32.6752 184.967 32.7265 185.069 32.7393 185.171C32.7649 185.243 32.7393 185.374 32.6752 185.549C32.6111 185.694 32.5599 185.825 32.5471 185.956C32.5086 186 32.4189 186.232 32.3035 186.611C32.1882 186.945 32.0856 187.192 31.9959 187.323C31.778 188.051 31.3037 188.967 30.6115 190.072C29.9194 191.178 29.2144 192.094 28.4709 192.923L27.6891 193.446L27.2276 193.243C27.1122 193.214 27.0096 193.199 26.8943 193.199C26.7661 193.17 26.6764 193.17 26.6251 193.156C26.5995 193.301 26.497 193.33 26.2919 193.228C26.0868 193.126 25.9842 193.054 25.9586 193.025C25.9329 192.85 26.1124 190.959 26.4969 187.338H26.4585Z" fill="black"/>
<path d="M37.0722 194.712C37.3157 195.323 37.5464 195.817 37.8028 196.166C38.0592 196.53 38.3925 196.85 38.8027 197.155L39.4307 197.446C39.9563 197.722 40.4049 197.941 40.7894 198.042C41.174 198.159 41.597 198.188 41.9815 198.115C43.0198 197.824 44.058 197.403 45.1219 196.864C46.1858 196.297 47.0959 195.657 47.8906 194.872C48.5187 194.203 48.9929 193.548 49.3262 192.879C49.6467 192.21 49.7749 191.672 49.698 191.279C49.6723 191.207 49.6339 191.105 49.5954 190.988C49.5313 190.843 49.2749 190.988 48.775 191.381C48.3008 191.803 47.9291 192.196 47.6727 192.559C47.4804 192.996 47.3523 193.199 47.2882 193.228C47.2882 193.228 47.2796 193.219 47.2625 193.199V193.126C47.1984 193.156 47.1344 193.17 47.0446 193.228C46.9806 193.257 46.8908 193.33 46.8011 193.432C46.6729 193.577 46.3012 193.854 45.6731 194.246C45.045 194.639 44.2888 195.061 43.3787 195.497C43.0583 195.744 42.7122 195.934 42.3404 196.006C42.0841 196.079 41.8405 196.123 41.6482 196.152C41.4559 196.195 41.3021 196.195 41.174 196.224C40.5459 196.181 40.0716 196.05 39.764 195.861C39.4564 195.657 39.1743 195.323 38.918 194.828C38.8282 194.683 38.7385 194.465 38.7001 194.159C38.5719 193.592 38.5206 192.879 38.5206 192.021C38.5206 191.163 38.5591 190.421 38.7001 189.781C38.8026 189.17 38.9821 188.865 39.1743 188.952C39.2384 189.301 39.546 189.418 40.11 189.272C40.7766 189.098 41.6739 188.661 42.7762 187.949L43.5966 187.454C44.5451 186.858 45.3527 186.378 46.0192 185.956C46.6858 185.52 47.1215 185.2 47.3651 184.967C47.583 184.72 47.6727 184.531 47.6471 184.327C47.6214 184.225 47.5573 184.109 47.4932 184.007C47.1215 183.571 46.7754 183.396 46.455 183.498C46.3012 183.527 46.173 183.615 46.0192 183.789C45.6475 183.964 44.0965 184.851 41.3406 186.436C41.2124 186.509 41.0202 186.611 40.7382 186.727C40.4562 186.843 40.2383 186.974 40.0845 187.12H39.3282C39.2641 187.047 39.2897 186.8 39.4179 186.378C39.5461 185.956 39.8025 185.273 40.1742 184.342C40.2639 184.167 40.328 183.993 40.3664 183.847C40.4049 183.702 40.4562 183.6 40.4946 183.498C40.5972 182.989 40.7125 182.495 40.8151 182C40.9433 181.535 41.0586 181.215 41.1611 181.084C41.4175 180.269 41.6867 179.688 41.9687 179.368C42.225 179.018 42.6993 178.684 43.4043 178.335C44.4682 177.768 45.4808 177.302 46.4806 176.91C46.6088 176.866 46.9805 176.706 47.583 176.473C48.1726 176.226 48.5572 176.008 48.8007 175.804C49.0186 175.601 49.1084 175.382 49.0571 175.164C49.0314 175.048 48.9673 174.917 48.8776 174.772C48.6853 174.481 48.493 174.306 48.288 174.233C48.0829 174.161 47.9163 174.19 47.7881 174.277C47.6984 174.321 47.5061 174.379 47.1985 174.495C46.878 174.597 46.5703 174.67 46.2883 174.713C45.75 174.932 45.3399 175.135 45.0579 175.281C44.7502 175.426 44.6092 175.571 44.5323 175.702C44.4041 175.746 44.1606 175.877 43.8401 176.051C43.1736 176.444 42.8018 176.561 42.7762 176.444C42.7378 176.342 42.6737 176.299 42.5327 176.27C42.4301 176.241 42.2891 176.241 42.1481 176.27C41.6739 176.386 41.2381 176.735 40.8279 177.302C40.2896 177.869 39.8537 178.408 39.5333 178.931C39.1872 179.44 39.0846 179.746 39.1615 179.818C39.2256 179.891 39.2897 179.993 39.3153 180.138C39.3794 180.415 39.2769 180.778 39.0334 181.244C38.7257 182.524 38.5976 183.236 38.6488 183.382C38.6745 183.411 38.6745 183.425 38.6488 183.455C38.6232 183.498 38.5847 183.571 38.5206 183.673C37.6362 186.451 37.085 188.458 36.9184 189.665C36.8158 190.261 36.739 190.974 36.7261 191.832C36.7005 192.719 36.7518 193.461 36.8799 194.043C36.9184 194.246 36.9696 194.465 37.0722 194.712Z" fill="black"/>
<path d="M51.6969 193.548C51.9404 193.868 52.2609 194.145 52.671 194.334C53.1709 194.61 53.6836 194.726 54.2476 194.697C54.8116 194.668 55.5294 194.552 56.3882 194.334C56.9522 194.188 57.388 194.014 57.6829 193.839C57.9649 193.636 58.4648 193.272 59.157 192.69C60.1568 191.948 60.7848 191.439 61.0668 191.163C61.3488 190.916 61.477 190.669 61.4385 190.479C61.4385 190.378 61.2847 190.203 60.9643 189.941C60.6438 189.665 60.4387 189.549 60.4003 189.549C60.1567 189.621 60.0157 189.767 59.9004 190.043C59.7978 190.072 59.6568 190.145 59.5158 190.218C59.3877 190.29 59.2338 190.363 59.1313 190.421C59.0288 190.523 58.8493 190.698 58.5673 190.93C58.3109 191.178 58.0418 191.425 57.7854 191.687C56.9651 192.152 56.1575 192.501 55.3756 192.69C54.9398 192.807 54.5681 192.865 54.2476 192.894C53.8375 192.792 53.517 192.676 53.3119 192.501C53.1197 192.297 52.9914 192.079 52.9273 191.788C52.9017 191.643 52.8889 191.294 52.9018 190.785C52.8377 189.752 52.8377 188.894 52.9018 188.181C52.9402 187.44 53.0299 186.654 53.2094 185.767C53.2991 185.2 53.3632 184.691 53.4273 184.24C53.4657 183.804 53.4914 183.571 53.517 183.527C53.5426 183.484 53.6067 183.556 53.6965 183.702C53.8246 183.702 54.3887 183.455 55.3885 182.96C56.3883 182.451 57.3112 181.927 58.2084 181.389C59.1185 180.851 59.6184 180.458 59.7465 180.24C59.8747 180.138 59.9388 180.022 59.926 179.877C59.9004 179.775 59.8235 179.673 59.7081 179.6C59.58 179.557 59.4261 179.498 59.2082 179.528C58.9518 179.426 58.7084 179.426 58.452 179.484C58.2982 179.528 58.1443 179.6 57.9777 179.731C57.5931 179.833 57.0035 180.022 56.196 180.327C55.3885 180.647 54.7219 180.924 54.1836 181.157C54.0554 181.157 53.9913 181.055 53.94 180.88C53.9016 180.677 53.9656 180.371 54.1322 179.92C54.3117 179.411 54.4399 179.033 54.504 178.786C54.5681 178.568 54.5937 178.349 54.5424 178.146C54.5424 178 54.7219 177.317 55.068 176.11C55.4141 174.888 55.632 174.263 55.7217 174.248C55.7602 174.248 55.9011 174.204 56.0678 174.132C56.2472 174.059 56.4395 173.957 56.6574 173.812C56.7856 173.783 57.0292 173.695 57.3752 173.535C58.2853 173.099 59.08 172.794 59.785 172.619C60.5926 172.401 61.195 172.226 61.6052 172.11C62.0154 171.994 62.2077 171.863 62.1948 171.761C62.1692 171.688 62.1307 171.557 62.0154 171.368C61.9128 171.15 61.7974 171.005 61.6693 170.903C61.5795 170.874 61.4513 170.859 61.2591 170.801C61.0796 170.757 60.8746 170.699 60.6567 170.699C60.4131 170.67 60.1824 170.699 59.8748 170.772C59.2851 170.888 58.8109 170.99 58.4904 171.063C58.0161 171.179 57.5803 171.31 57.2086 171.455C56.8241 171.601 56.5805 171.732 56.4908 171.848C56.0165 171.994 55.5423 172.241 55.0423 172.532C54.5424 172.852 54.1323 173.128 53.8503 173.419C53.5426 173.695 53.4401 173.884 53.5042 173.986C53.3504 174.277 53.2479 174.728 53.1581 175.266C53.1581 176.051 52.812 177.768 52.0942 180.429C52.0686 180.706 52.0301 180.938 51.9404 181.171C51.8379 181.389 51.7866 181.535 51.7866 181.607C51.8122 181.753 51.7481 182.146 51.5686 182.742C51.543 182.945 51.5302 183.135 51.543 183.28C51.543 183.425 51.5686 183.527 51.5686 183.571C51.5302 184.08 51.4661 184.4 51.3892 184.487C51.3508 184.589 51.2995 184.705 51.2995 184.807C51.2739 184.924 51.261 185.098 51.261 185.345C51.2354 185.563 51.2354 185.738 51.2354 185.883L51.2738 187.091C51.1841 187.12 51.1201 187.338 51.0816 187.76C51.0432 188.181 51.0175 188.676 51.0431 189.229C51.0047 190.479 51.0688 191.468 51.2226 192.196C51.3251 192.763 51.5046 193.199 51.7225 193.548H51.6969Z" fill="black"/>
<path d="M43.3138 215.874C43.3138 215.874 43.2113 215.83 43.1728 215.816C43.0318 215.757 42.9037 215.728 42.7627 215.757C42.7498 215.757 42.7371 215.787 42.7242 215.787C42.5192 215.83 42.3525 215.932 42.25 216.121C42.2243 216.179 42.2115 216.252 42.1859 216.31C42.1346 216.47 42.109 216.645 42.1474 216.819C42.1474 216.834 42.1731 216.848 42.1731 216.863C42.2115 217.11 42.3012 217.299 42.4679 217.416C42.673 217.546 42.8653 217.561 43.0704 217.517C43.2754 217.474 43.4292 217.343 43.5574 217.139C43.6855 216.936 43.7369 216.703 43.6728 216.456C43.6343 216.179 43.5189 216.005 43.3138 215.874Z" fill="black"/>
<path d="M65.4766 211.452C62.4772 210.347 59.2726 209.983 56.1322 209.678C55.6195 209.634 55.1068 209.576 54.5941 209.576C54.6325 208.645 54.5684 207.685 54.3761 206.653C54.2223 205.736 53.9532 204.98 53.6199 204.355C53.2866 203.744 52.8892 203.293 52.4662 203.017C52.3381 202.944 52.1971 202.871 52.0689 202.842C53.5558 202.129 55.0939 201.635 56.7218 201.228C57.0807 201.184 56.927 200.573 56.5937 200.646C53.5045 201.373 50.5564 202.638 47.9415 204.631C47.7364 204.776 47.5442 204.936 47.3134 205.14C47.1083 204.864 46.8648 204.617 46.5956 204.427C46.1726 204.151 45.6855 204.049 45.1984 204.18C44.737 204.311 44.3524 204.587 44.0448 205.009C43.75 205.46 43.5321 205.998 43.4167 206.624C43.2885 207.234 43.2885 207.86 43.4167 208.485C43.0578 208.82 42.7245 209.169 42.3656 209.445C41.212 209.489 40.0071 209.576 38.8535 209.62C38.8278 209.518 38.8151 209.474 38.7382 209.474C38.6997 209.445 38.6228 209.474 38.5587 209.518L38.4305 209.649C38.0331 209.678 37.6229 209.692 37.2256 209.692L38.1613 206.362C38.187 206.129 38.1613 206.056 37.9562 206.085L37.6614 206.158C37.5332 206.202 37.4564 206.26 37.4564 206.391L36.636 209.722C36.2386 209.722 35.79 209.751 35.3926 209.751C34.6107 209.78 33.8288 209.794 33.0725 209.794L32.688 208.049C32.6624 207.947 32.6495 207.874 32.5983 207.816C32.5598 207.787 32.5086 207.744 32.4445 207.714C32.2394 207.613 31.983 207.569 31.7138 207.569C31.419 207.569 31.1114 207.569 30.8422 207.642H30.8165L30.5218 206.129C30.4961 206.027 30.4577 205.998 30.3679 205.998L30.2526 206.042C30.1629 206.042 30.1373 206.115 30.1629 206.187L30.4577 207.729C29.7911 207.976 29.3041 208.383 28.9708 208.965C28.8555 209.169 28.7657 209.373 28.7016 209.576C27.4967 209.445 26.279 209.227 25.0998 208.791C24.7665 208.689 24.6126 209.3 24.9715 209.402C26.1508 209.809 27.3813 210.056 28.5991 210.216C28.5734 210.449 28.599 210.725 28.6631 211.001C28.7785 211.612 29.0605 212.136 29.4835 212.616C29.9321 213.067 30.5474 213.532 31.3934 213.925C31.4831 213.969 31.5729 213.998 31.6626 214.07L32.6239 219.277C32.5342 219.379 32.4445 219.423 32.3547 219.524C31.6241 219.524 30.9575 218.841 30.4192 217.561L30.1501 216.95C30.1116 216.746 30.0219 216.674 29.9065 216.703C29.7783 216.732 29.727 216.877 29.7783 217.081L30.3295 219.684C30.3552 219.815 30.3679 219.888 30.4449 219.932C30.4833 219.961 30.5346 220.004 30.6243 220.033C30.7525 220.077 30.9319 220.106 31.137 220.135H31.7779C29.7911 222.157 27.7916 224.208 25.7663 226.215C25.4971 226.462 25.8945 226.898 26.1508 226.651C28.394 224.455 30.5602 222.201 32.7393 219.961H32.7649L33.0725 221.502C33.0725 221.575 33.1367 221.633 33.2008 221.604L33.3289 221.575C33.3289 221.575 33.4186 221.502 33.393 221.401L33.0982 219.815C33.7263 219.539 34.1878 219.088 34.4954 218.448C34.5595 218.303 34.6108 218.143 34.6492 217.997V217.968C35.6106 216.979 36.5591 216.005 37.5204 215.016H37.546L38.5971 214.783C38.7253 214.739 38.815 214.812 38.8407 214.928L39.238 217.096C39.2765 217.299 39.2765 217.474 39.2124 217.576C39.174 217.619 39.0586 217.721 38.8535 217.823L38.2254 218.07C38.11 218.099 38.0716 218.201 38.0973 218.317C38.1229 218.448 38.187 218.463 38.3408 218.448L41.1864 217.735C41.3146 217.706 41.3658 217.605 41.3402 217.503C41.3402 217.401 41.2761 217.357 41.1351 217.357L40.7762 217.386C40.5583 217.386 40.4173 217.357 40.3276 217.285C40.2635 217.241 40.1994 217.081 40.1481 216.848L39.7251 214.696C39.7251 214.55 39.7636 214.448 39.9046 214.39L40.5326 214.245C40.6608 214.216 40.7121 214.143 40.6865 213.998L40.5711 213.489C40.5455 213.343 40.507 213.285 40.366 213.314L39.7251 213.489C39.5969 213.518 39.52 213.459 39.4816 213.285L39.4431 213.052C39.7123 212.805 39.9815 212.529 40.2507 212.238C41.0069 211.481 41.7888 210.754 42.5707 209.983C43.0194 209.983 43.4551 209.954 43.8781 209.94C43.9038 210.042 43.9423 210.143 44.0064 210.245C44.3396 210.725 44.6985 211.103 45.1215 211.336C45.5445 211.569 45.9932 211.641 46.429 211.511C46.8776 211.409 47.2108 211.176 47.48 210.856C47.5185 210.783 47.5698 210.754 47.6082 210.783C47.6467 210.783 47.6723 210.827 47.6723 210.929C47.7364 212.267 47.5826 213.372 47.2237 214.259C46.8904 215.118 46.3777 215.801 45.6855 216.325C45.5702 216.397 45.5573 216.499 45.5573 216.601C45.5829 216.63 45.5958 216.703 45.6727 216.732C45.7111 216.761 45.8008 216.761 45.8906 216.703C46.5827 216.296 47.1596 215.699 47.6466 214.812C48.1081 213.983 48.4542 212.965 48.5824 211.801C48.6721 211.176 48.7106 210.536 48.6721 209.882C49.454 209.882 50.2359 209.882 51.005 209.925C51.428 210.129 51.851 210.202 52.2996 210.071C52.3893 210.042 52.4534 210.027 52.5431 209.998C52.8764 209.998 53.2097 210.027 53.543 210.071C53.543 211.132 53.3891 212.034 53.12 212.82C52.7611 213.678 52.2484 214.361 51.5562 214.87C51.4408 214.943 51.428 215.045 51.428 215.147C51.4536 215.219 51.4921 215.277 51.5434 215.292C51.5818 215.321 51.6715 215.321 51.7613 215.263C52.4534 214.856 53.0302 214.23 53.4917 213.401C53.9787 212.543 54.2992 211.54 54.4658 210.347C54.4915 210.274 54.4915 210.216 54.4915 210.114C54.671 210.114 54.8248 210.114 54.9786 210.143C58.4523 210.391 61.9901 210.754 65.3099 211.961C65.6176 212.063 65.7713 211.481 65.4253 211.351L65.4766 211.452ZM31.7779 208.776C31.9958 209.023 32.2009 209.387 32.4188 209.809C32.0214 209.809 31.6113 209.809 31.214 209.78L30.9191 208.209C31.2267 208.238 31.5216 208.442 31.7651 208.762L31.7779 208.776ZM29.4451 209.692C29.4707 209.416 29.5091 209.169 29.6245 208.965C29.8296 208.587 30.1373 208.383 30.5602 208.282L30.8679 209.765C30.3808 209.765 29.9322 209.736 29.4451 209.692ZM30.0475 211.481C29.7783 211.176 29.5861 210.769 29.5092 210.347V210.318C29.9962 210.347 30.4705 210.362 30.9576 210.362L31.3805 212.529C30.7781 212.15 30.3167 211.816 30.0475 211.467V211.481ZM32.9444 218.986L32.0728 214.361C32.6111 214.739 33.0341 215.118 33.3417 215.554C33.6366 215.99 33.8288 216.47 33.9186 217.023C33.9827 217.357 34.0083 217.634 33.9826 217.91C33.6237 218.288 33.2905 218.623 32.9316 219.001L32.9444 218.986ZM34.8286 217.037C34.8286 216.79 34.803 216.557 34.7645 216.281C34.6107 215.597 34.3159 214.943 33.8801 214.419C33.4186 213.896 32.7649 213.358 31.8933 212.849C31.8548 212.82 31.8035 212.82 31.7779 212.776L31.3293 210.376C31.7523 210.405 32.2394 210.405 32.688 210.405L32.8418 210.711C32.9059 210.856 32.97 210.914 33.0597 210.885C33.1879 210.856 33.2392 210.754 33.2136 210.551L33.1751 210.405C33.5596 210.376 33.9826 210.376 34.3543 210.376C35.0721 210.376 35.7516 210.347 36.495 210.332L35.3798 214.885C35.3542 214.958 35.3413 215.059 35.3157 215.132V215.307C35.3541 215.51 35.4695 215.583 35.6746 215.539L36.495 215.336C35.9182 215.917 35.3541 216.499 34.8286 217.052V217.037ZM37.764 214.041L36.0977 214.448C35.9695 214.478 35.8925 214.405 35.9438 214.245L37.0333 210.332C37.341 210.332 37.6614 210.332 37.9947 210.303V210.332L38.533 213.285C38.2639 213.532 38.0204 213.809 37.7768 214.041H37.764ZM40.6609 211.161C40.2122 211.598 39.7764 212.049 39.3534 212.456L38.956 210.289C39.8661 210.245 40.8018 210.187 41.7375 210.143C41.3786 210.478 41.0197 210.827 40.6736 211.176L40.6609 211.161ZM45.2497 204.66C45.7368 204.529 46.1598 204.704 46.4931 205.169C46.5828 205.3 46.6469 205.446 46.7366 205.606C45.9163 206.231 45.1087 206.915 44.3268 207.627C44.0833 205.838 44.3909 204.878 45.2368 204.675L45.2497 204.66ZM47.3903 210.027C47.2365 210.681 46.9289 211.06 46.4162 211.191C45.8137 211.321 45.3266 210.943 44.9292 209.998C45.7496 209.969 46.5956 209.954 47.4159 209.954C47.3903 209.983 47.3903 209.998 47.3903 210.027ZM45.6983 209.358C45.3907 209.358 45.0574 209.387 44.7242 209.402C44.6088 209.067 44.5447 208.718 44.4806 208.34C45.2882 207.584 46.1213 206.856 46.9673 206.173C47.0827 206.551 47.1852 206.958 47.2749 207.438C47.4288 208.165 47.48 208.805 47.48 209.329C46.9032 209.329 46.3008 209.329 45.6983 209.358ZM48.6721 209.358C48.6465 208.922 48.6081 208.5 48.5183 208.064C48.3389 207.147 48.0697 206.42 47.762 205.766C47.7236 205.722 47.6723 205.664 47.6466 205.591C47.6851 205.547 47.762 205.518 47.8004 205.46C48.3773 205.009 48.9541 204.602 49.5566 204.195C49.4284 204.5 49.3386 204.82 49.2617 205.184C49.1335 205.809 49.1464 206.478 49.2617 207.133C49.3899 207.787 49.595 208.398 49.9283 208.878C50.0436 209.053 50.1718 209.227 50.3128 209.387C49.7745 209.358 49.249 209.343 48.6721 209.358ZM53.2609 208.587C53.1712 209.023 52.9918 209.314 52.7739 209.474C52.3124 209.431 51.8125 209.431 51.2998 209.431C50.9025 208.994 50.5435 208.122 50.3 206.827C50.0308 205.315 50.0821 204.253 50.4795 203.7C50.7743 203.526 51.0563 203.351 51.3639 203.191H51.4024C51.7869 203.191 52.0689 203.395 52.3637 203.802C52.6714 204.253 52.9661 205.009 53.1712 206.027C53.3763 207.118 53.3891 207.976 53.2609 208.602V208.587Z" fill="black"/>
<path d="M363.111 24.4705C363.368 24.4268 363.547 24.4414 363.65 24.4996C363.752 24.5577 363.842 24.7323 363.932 24.9941L367.393 36.3968C367.469 36.6732 367.495 36.8623 367.444 36.9932C367.393 37.1095 367.264 37.2404 367.034 37.3858L366.662 37.6186C366.521 37.7204 366.47 37.8222 366.508 37.9385C366.547 38.084 366.662 38.1131 366.829 38.0549L369.918 36.8477C370.097 36.775 370.148 36.6732 370.11 36.5277C370.072 36.4114 369.969 36.3677 369.815 36.3823L369.392 36.455C369.136 36.4986 368.956 36.4841 368.854 36.4259C368.751 36.3677 368.662 36.1932 368.585 35.9314L365.124 24.5287C365.034 24.2523 365.021 24.0632 365.072 23.9323C365.124 23.816 365.252 23.6851 365.483 23.5396L365.854 23.3069C365.995 23.2051 366.047 23.1033 366.008 22.987C365.97 22.8415 365.854 22.8124 365.688 22.8706L362.599 24.0778C362.432 24.1505 362.368 24.2523 362.406 24.3978C362.445 24.5141 362.535 24.5577 362.701 24.5432L363.124 24.4705H363.111Z" fill="black"/>
<path d="M367.598 26.2304C367.636 26.4631 367.751 26.5358 367.918 26.4776C368.059 26.4194 368.11 26.3031 368.085 26.1286L367.982 25.4595C367.828 24.4996 367.892 23.7142 368.174 23.147C368.456 22.5652 368.815 22.2016 369.238 22.0416C369.456 21.9543 369.61 21.9398 369.7 21.9834C369.789 22.0416 369.866 22.158 369.918 22.3325L373.443 33.9679C373.519 34.2443 373.545 34.4334 373.494 34.5643C373.443 34.6952 373.314 34.8261 373.096 34.9424L372.366 35.3787C372.225 35.4515 372.174 35.5533 372.212 35.6987C372.25 35.8442 372.366 35.8733 372.532 35.8151L376.378 34.317C376.545 34.2443 376.609 34.1425 376.57 34.0116C376.532 33.8807 376.429 33.8225 376.275 33.8661L375.468 34.0261C375.237 34.0698 375.07 34.0698 374.955 33.997C374.84 33.9389 374.737 33.7643 374.66 33.488L371.123 21.8525C371.071 21.6634 371.058 21.5325 371.11 21.4162C371.161 21.3144 371.289 21.2126 371.507 21.1398C371.943 20.9653 372.43 21.009 372.955 21.2707C373.494 21.518 373.955 22.0852 374.353 22.9579L374.635 23.5688C374.712 23.7287 374.814 23.7869 374.955 23.7287C375.122 23.656 375.16 23.5251 375.07 23.3215L373.853 19.8745C373.737 19.5836 373.596 19.4818 373.404 19.5545C373.34 19.5836 373.276 19.6272 373.212 19.7145C373.148 19.7872 373.045 19.889 372.891 20.0054C372.738 20.1217 372.481 20.2526 372.122 20.3981L368.315 21.8816C367.956 22.0271 367.674 22.0998 367.495 22.1143C367.316 22.1289 367.187 22.1143 367.098 22.1143C367.021 22.0998 366.931 22.1143 366.854 22.1289C366.675 22.2016 366.611 22.3907 366.675 22.6961L367.585 26.274L367.598 26.2304Z" fill="black"/>
<path d="M375.878 20.2236C376.006 20.3108 376.134 20.369 376.275 20.4126C376.416 20.4563 376.544 20.5145 376.672 20.6017C376.801 20.689 376.903 20.849 376.967 21.0817C377.019 21.2562 377.019 21.4744 376.98 21.7362C376.942 21.998 376.788 22.4052 376.519 22.9288C376.455 23.0306 376.442 23.1033 376.455 23.1761C376.48 23.2488 376.519 23.2924 376.57 23.307C376.66 23.3361 376.775 23.2779 376.865 23.1033C377.275 22.4634 377.518 21.8525 377.595 21.2853C377.672 20.7035 377.621 20.1218 377.442 19.5254C377.326 19.1182 377.147 18.8419 376.903 18.6673C376.672 18.4928 376.403 18.4782 376.121 18.5801C375.865 18.6819 375.698 18.8419 375.596 19.06C375.493 19.2927 375.48 19.5254 375.557 19.7436C375.621 19.9763 375.724 20.1363 375.852 20.209L375.878 20.2236Z" fill="black"/>
<path d="M380.39 22.7397C380.967 23.2342 381.787 23.656 382.839 24.005C383.8 24.3541 384.556 24.7904 385.107 25.314C385.659 25.8376 386.043 26.4776 386.274 27.2484C386.517 28.0338 386.53 28.7174 386.325 29.2846C386.12 29.8519 385.735 30.2446 385.159 30.4627C384.095 30.87 383.095 30.23 382.146 28.5429L381.762 27.8593C381.647 27.6411 381.531 27.5684 381.403 27.612C381.249 27.6702 381.224 27.8302 381.3 28.092L382.313 31.1027C382.352 31.2481 382.403 31.3354 382.467 31.379C382.518 31.4227 382.595 31.4517 382.698 31.4663C382.864 31.5099 383.082 31.5099 383.351 31.4954C383.62 31.4808 383.902 31.4372 384.197 31.379C384.492 31.3208 384.749 31.2481 384.979 31.1609C385.62 30.9136 386.133 30.5355 386.543 30.0409C386.953 29.5464 387.21 28.9647 387.325 28.3102C387.44 27.6557 387.389 26.9575 387.171 26.2449C386.915 25.4158 386.492 24.7177 385.876 24.1359C385.261 23.5542 384.402 23.0451 383.313 22.5942C382.3 22.187 381.544 21.7798 381.082 21.4016C380.608 21.0235 380.288 20.558 380.121 20.0054C379.916 19.3509 379.916 18.7836 380.096 18.3037C380.275 17.8237 380.608 17.4892 381.108 17.3001C381.608 17.111 382.07 17.1838 382.467 17.5328C382.877 17.8819 383.351 18.5073 383.902 19.409L384.172 19.8454C384.274 20.0054 384.377 20.0635 384.479 20.0344C384.633 19.9763 384.672 19.8308 384.595 19.6127L383.659 16.7038C383.633 16.602 383.582 16.5293 383.518 16.4711C383.454 16.4129 383.39 16.3838 383.3 16.3547C383.044 16.2675 382.736 16.2384 382.39 16.282C382.044 16.3111 381.698 16.3984 381.352 16.5293C380.442 16.8783 379.775 17.4601 379.365 18.2746C378.955 19.0745 378.891 19.9617 379.185 20.9071C379.403 21.6343 379.801 22.2452 380.39 22.7251V22.7397Z" fill="black"/>
<path d="M392.067 27.2048C392.016 27.4521 391.887 27.6411 391.67 27.7866L391.426 27.9466C391.272 28.0484 391.221 28.1647 391.259 28.2956C391.298 28.4265 391.4 28.4556 391.58 28.3829L393.977 27.4521C394.131 27.3939 394.195 27.2921 394.156 27.1466C394.118 27.0303 394.002 26.9866 393.797 27.0303L393.528 27.0885C392.99 27.2048 392.695 26.8703 392.644 26.0704L392.439 23.2488C392.413 22.8851 392.554 22.6379 392.849 22.5215L394.643 21.8234C394.951 21.7071 395.194 21.7943 395.361 22.1143L396.925 24.8632C397.066 25.125 397.13 25.3286 397.117 25.4595C397.104 25.5904 397.002 25.7067 396.81 25.8086L396.502 25.9831C396.31 26.0704 396.233 26.1867 396.284 26.3322C396.323 26.4776 396.425 26.5067 396.592 26.4485L399.514 25.2995C399.694 25.2268 399.758 25.1395 399.719 25.0086C399.681 24.8777 399.578 24.8195 399.399 24.8486L399.13 24.8923C398.899 24.9214 398.707 24.8923 398.566 24.7904C398.412 24.6886 398.258 24.4705 398.066 24.1505L391.631 12.9077C391.567 12.7914 391.503 12.7187 391.439 12.7041C391.375 12.6896 391.323 12.6896 391.259 12.7041C391.208 12.7187 391.17 12.7623 391.131 12.8205C391.093 12.8786 391.08 12.9805 391.093 13.1114L392.118 26.2594C392.144 26.6521 392.144 26.9721 392.08 27.2194L392.067 27.2048ZM391.862 16.0639L391.952 16.0348L394.63 20.8053C394.733 21.0089 394.695 21.1544 394.515 21.2125L392.631 21.9543C392.451 22.027 392.336 21.9543 392.31 21.7071L391.875 16.0639H391.862Z" fill="black"/>
<path d="M376.34 40.0184C375.84 40.8765 375.558 41.9091 375.494 43.1309C375.43 44.3526 375.609 45.6761 376.045 47.0869C376.494 48.5559 377.045 49.7631 377.712 50.723C378.365 51.6684 379.109 52.3229 379.929 52.6719C380.749 53.021 381.621 53.0065 382.544 52.6428C383.018 52.4538 383.403 52.2501 383.736 52.0174C384.057 51.7847 384.339 51.5375 384.556 51.2757C384.697 51.1011 384.787 50.9702 384.826 50.8539C384.864 50.7375 384.864 50.6212 384.826 50.4757L383.236 45.2252C383.159 44.9634 383.121 44.7598 383.134 44.6144C383.134 44.4835 383.275 44.3526 383.505 44.2071L383.749 44.0617C383.864 43.989 383.903 43.8872 383.877 43.7708C383.826 43.6108 383.723 43.5672 383.557 43.6399L380.429 44.8616C380.262 44.9198 380.198 45.0362 380.237 45.1816C380.275 45.327 380.378 45.3707 380.532 45.327L381.224 45.1525C381.467 45.0798 381.647 45.0798 381.749 45.1525C381.852 45.2252 381.954 45.3998 382.031 45.6761L383.326 49.9231C383.518 50.563 383.531 51.043 383.364 51.3629C383.198 51.6829 382.877 51.9447 382.416 52.1192C381.544 52.4538 380.66 52.1629 379.762 51.232C378.865 50.3012 378.083 48.745 377.417 46.5633C376.776 44.4398 376.558 42.7091 376.75 41.3855C376.955 40.062 377.468 39.233 378.301 38.8985C378.865 38.6803 379.365 38.7094 379.801 38.9857C380.237 39.2621 380.749 39.8875 381.326 40.8619L381.634 41.3855C381.724 41.5455 381.826 41.5892 381.954 41.5455C382.095 41.4873 382.121 41.3564 382.057 41.1383L381.108 38.2149C381.057 38.0258 380.942 37.924 380.762 37.8949C380.442 37.8513 380.083 37.8513 379.686 37.8949C379.288 37.9385 378.878 38.0549 378.429 38.2294C377.545 38.5785 376.866 39.1748 376.366 40.0184H376.34Z" fill="black"/>
<path d="M385.415 36.2805L385.787 36.0478C385.928 35.946 385.979 35.8442 385.941 35.7278C385.902 35.5824 385.787 35.5533 385.62 35.6115L382.531 36.8186C382.365 36.8914 382.3 36.9932 382.339 37.1386C382.377 37.255 382.48 37.2986 382.634 37.284L383.057 37.2113C383.313 37.1677 383.493 37.1822 383.595 37.2404C383.698 37.2986 383.787 37.4586 383.877 37.7349L387.338 49.1377C387.428 49.414 387.441 49.6031 387.389 49.7194C387.338 49.8358 387.21 49.9667 386.979 50.1121L386.607 50.3449C386.466 50.4321 386.415 50.5485 386.453 50.6648C386.492 50.8103 386.607 50.8394 386.774 50.7812L389.863 49.574C390.03 49.5013 390.094 49.3995 390.055 49.2686C390.017 49.1522 389.914 49.094 389.761 49.1231L389.338 49.1959C389.081 49.2395 388.902 49.2249 388.799 49.1668C388.697 49.1086 388.607 48.9341 388.53 48.6723L385.069 37.2695C384.992 36.9932 384.967 36.8041 385.018 36.6877C385.069 36.5714 385.197 36.4405 385.428 36.295L385.415 36.2805Z" fill="black"/>
<path d="M390.631 45.6616C391.285 46.607 392.028 47.2615 392.849 47.6105C393.669 47.9596 394.541 47.945 395.464 47.5814C395.925 47.3924 396.323 47.1887 396.643 46.956C396.963 46.7233 397.245 46.4761 397.463 46.2143C397.604 46.0397 397.694 45.9088 397.733 45.7925C397.771 45.6761 397.771 45.5598 397.733 45.4143L396.143 40.1638C396.066 39.902 396.028 39.6839 396.041 39.553C396.053 39.4221 396.182 39.2912 396.412 39.1457L396.656 39.0003C396.771 38.9276 396.81 38.8257 396.784 38.7094C396.733 38.5494 396.63 38.5058 396.464 38.5785L393.336 39.8002C393.169 39.8729 393.105 39.9747 393.144 40.1202C393.182 40.2656 393.285 40.3093 393.439 40.2656L394.131 40.0766C394.374 40.0184 394.554 40.0184 394.656 40.0766C394.759 40.1493 394.861 40.3238 394.938 40.6002L396.22 44.8471C396.412 45.487 396.425 45.967 396.258 46.287C396.092 46.607 395.771 46.8688 395.31 47.0433C394.451 47.3778 393.567 47.0869 392.657 46.1561C391.759 45.2252 390.977 43.669 390.311 41.4874C389.67 39.3639 389.452 37.6477 389.644 36.3096C389.849 34.986 390.362 34.157 391.195 33.8225C391.747 33.6043 392.246 33.6334 392.695 33.9098C393.131 34.1861 393.644 34.8115 394.22 35.786L394.528 36.3096C394.618 36.4696 394.72 36.5132 394.848 36.4696C394.989 36.4114 395.015 36.2805 394.951 36.0623L394.002 33.1389C393.951 32.9498 393.836 32.848 393.656 32.8189C393.336 32.7753 392.977 32.7753 392.593 32.8189C392.195 32.8626 391.772 32.9789 391.336 33.1535C390.452 33.5025 389.773 34.0988 389.273 34.9424C388.773 35.8005 388.491 36.8332 388.427 38.0549C388.363 39.2766 388.542 40.5856 388.978 42.0109C389.426 43.4799 389.978 44.6871 390.631 45.647V45.6616Z" fill="black"/>
<path d="M380.236 66.2418C380.249 66.1109 380.377 65.98 380.608 65.8345L380.851 65.6891C380.967 65.6164 381.005 65.5146 380.98 65.3982C380.928 65.2382 380.826 65.1946 380.659 65.2673L377.531 66.489C377.365 66.5618 377.301 66.6636 377.339 66.809C377.378 66.9545 377.48 66.9981 377.634 66.9545L378.326 66.7799C378.57 66.7072 378.749 66.7072 378.852 66.7799C378.954 66.8526 379.057 67.0272 379.134 67.3035L380.416 71.5505C380.608 72.1904 380.621 72.6704 380.454 72.9903C380.287 73.3103 379.967 73.5721 379.505 73.7467C378.647 74.0812 377.762 73.7903 376.852 72.8594C375.955 71.9286 375.173 70.3724 374.506 68.1907C373.865 66.0672 373.648 64.3365 373.84 63.0129C374.045 61.6894 374.558 60.8604 375.391 60.5259C375.942 60.3077 376.442 60.3368 376.891 60.6131C377.326 60.8895 377.839 61.5149 378.416 62.4893L378.724 63.0129C378.813 63.1729 378.916 63.2166 379.044 63.1729C379.185 63.1147 379.211 62.9839 379.146 62.7657L378.198 59.8423C378.147 59.6532 378.031 59.5514 377.852 59.5223C377.531 59.4787 377.173 59.4787 376.775 59.5223C376.378 59.5659 375.968 59.6823 375.519 59.8568C374.647 60.2059 373.955 60.8022 373.455 61.6458C372.955 62.5039 372.673 63.5365 372.609 64.7583C372.545 65.98 372.725 67.289 373.16 68.7143C373.609 70.1833 374.16 71.405 374.814 72.3504C375.468 73.2958 376.211 73.9503 377.032 74.2993C377.852 74.6484 378.723 74.6339 379.646 74.2703C380.108 74.0812 380.505 73.8776 380.838 73.6448C381.172 73.4121 381.441 73.1649 381.659 72.9031C381.8 72.7286 381.89 72.5977 381.928 72.4813C381.966 72.3649 381.966 72.2486 381.928 72.1031L380.339 66.8381C380.262 66.5618 380.223 66.3727 380.236 66.2272V66.2418Z" fill="black"/>
<path d="M387.325 57.3406C387.12 56.6571 387.197 56.1916 387.556 55.9735L387.927 55.7408C388.068 55.6535 388.12 55.5371 388.081 55.4208C388.043 55.2753 387.927 55.2463 387.761 55.3044L385.3 56.2644C385.133 56.3371 385.069 56.4389 385.107 56.5989C385.146 56.7152 385.223 56.7589 385.364 56.7298L385.851 56.628C386.261 56.5552 386.569 56.8607 386.787 57.5588L389.389 66.1254C389.683 67.1144 389.722 67.9435 389.504 68.6416C389.286 69.3397 388.812 69.8197 388.107 70.096C387.415 70.3724 386.787 70.3142 386.235 69.9215C385.684 69.5288 385.261 68.8452 384.966 67.8562L382.249 58.8969C382.172 58.6205 382.146 58.4169 382.198 58.286C382.249 58.1551 382.377 58.0242 382.595 57.8933L383.031 57.6315C383.146 57.5588 383.185 57.457 383.146 57.3406C383.095 57.1806 382.992 57.137 382.826 57.2097L379.698 58.4315C379.532 58.5042 379.467 58.606 379.506 58.7369C379.544 58.8532 379.647 58.9114 379.801 58.8823L380.224 58.8096C380.48 58.766 380.66 58.7805 380.762 58.8387C380.865 58.8969 380.954 59.0714 381.044 59.3478L383.762 68.3071C383.992 69.0634 384.325 69.6888 384.774 70.1833C385.21 70.6632 385.723 70.9832 386.299 71.1287C386.876 71.2741 387.466 71.2305 388.081 70.9832C389.004 70.6196 389.632 69.9797 389.978 69.0488C390.324 68.118 390.312 67.0708 389.953 65.8927L387.351 57.3261L387.325 57.3406Z" fill="black"/>
<path d="M395.605 67.2744C395.349 67.3181 395.169 67.3035 395.067 67.2454C394.964 67.1872 394.874 67.0127 394.798 66.7509L391.337 55.3481C391.26 55.0718 391.234 54.8827 391.285 54.7663C391.337 54.65 391.465 54.5191 391.696 54.3736L392.067 54.1409C392.208 54.0391 392.26 53.9373 392.221 53.8209C392.183 53.6755 392.067 53.6464 391.901 53.7046L388.812 54.9118C388.645 54.9845 388.581 55.0863 388.619 55.2317C388.658 55.3481 388.76 55.4063 388.914 55.3772L389.337 55.3045C389.593 55.2608 389.773 55.2754 389.875 55.3336C389.978 55.3917 390.068 55.5663 390.157 55.8281L393.618 67.2308C393.695 67.5072 393.721 67.6962 393.67 67.8126C393.618 67.9289 393.49 68.0598 393.259 68.2053L392.888 68.438C392.747 68.5253 392.695 68.6416 392.734 68.758C392.772 68.9034 392.888 68.9325 393.054 68.8743L396.143 67.6671C396.31 67.5944 396.374 67.4926 396.336 67.3472C396.297 67.2308 396.208 67.1872 396.041 67.2017L395.618 67.2744H395.605Z" fill="black"/>
<path d="M396.514 51.8865L393.066 53.2391C392.9 53.3119 392.836 53.4137 392.874 53.5591C392.913 53.6755 393.015 53.7337 393.169 53.7046L393.592 53.6318C393.848 53.5882 394.028 53.6028 394.13 53.6609C394.233 53.7191 394.323 53.8936 394.412 54.1554L397.873 65.5582C398.001 65.98 397.886 66.3145 397.527 66.5472L397.155 66.7799C397.014 66.8672 396.963 66.9835 397.002 67.0999C397.04 67.2453 397.155 67.2744 397.322 67.2162L400.603 65.9363C401.526 65.5727 402.231 64.9764 402.744 64.1474C403.244 63.3184 403.526 62.3148 403.577 61.1367C403.628 59.9586 403.449 58.6642 403.013 57.2534C402.59 55.8571 402.039 54.6936 401.36 53.7773C400.68 52.861 399.937 52.221 399.104 51.8865C398.27 51.552 397.412 51.552 396.527 51.9011L396.514 51.8865ZM401.654 57.7479C402.283 59.8277 402.5 61.5294 402.308 62.8239C402.116 64.1328 401.513 64.9764 400.488 65.3691C400.065 65.5436 399.732 65.5436 399.475 65.4127C399.219 65.2673 399.014 64.9473 398.86 64.4237L395.784 54.3009C395.502 53.3555 395.784 52.7155 396.655 52.381C397.642 51.9883 398.565 52.2792 399.424 53.2246C400.283 54.17 401.014 55.6826 401.642 57.7479H401.654Z" fill="black"/>
<path d="M402.463 50.1412C402.719 50.0976 402.899 50.1121 403.001 50.1703C403.104 50.2285 403.193 50.403 403.27 50.6648L406.731 62.0676C406.808 62.3439 406.834 62.533 406.783 62.6493C406.731 62.7657 406.603 62.8966 406.372 63.042L406.001 63.2747C405.86 63.362 405.821 63.4784 405.847 63.5947C405.885 63.7402 406.001 63.7693 406.167 63.7111L412.166 61.3694C412.422 61.2676 412.525 61.064 412.461 60.7586L411.577 57.2388C411.538 57.0061 411.436 56.9334 411.269 56.9916C411.128 57.0498 411.077 57.1661 411.089 57.3407L411.23 58.5624C411.346 59.5223 411.256 60.2641 410.948 60.744C410.641 61.224 410.205 61.5876 409.641 61.8058C409.09 62.0239 408.667 62.0676 408.398 61.9512C408.128 61.8203 407.923 61.5294 407.782 61.064L406.308 56.1917C406.257 56.0026 406.308 55.8862 406.462 55.828L407.295 55.4935C407.552 55.3917 407.782 55.3917 407.975 55.4644C408.154 55.5517 408.359 55.8135 408.577 56.2353L409.039 57.1225C409.141 57.297 409.269 57.3407 409.41 57.2534C409.526 57.1807 409.564 57.0498 409.5 56.8461L408.18 52.4828C408.128 52.2938 408.026 52.2065 407.898 52.2211C407.744 52.2501 407.667 52.3665 407.68 52.5847L407.808 53.6173C407.872 54.2718 407.667 54.6936 407.167 54.8827L406.308 55.2172C406.142 55.2754 406.039 55.2172 405.988 55.0426L404.565 50.3739C404.45 49.9958 404.463 49.7049 404.591 49.4867C404.719 49.2686 405.014 49.0795 405.475 48.8904C406.167 48.6286 406.757 48.6141 407.27 48.8759C407.782 49.1231 408.231 49.6758 408.616 50.5048L408.936 51.1884C409.013 51.3484 409.115 51.4066 409.256 51.3484C409.423 51.2757 409.462 51.1448 409.372 50.9411L408.257 47.7705C408.141 47.4796 407.962 47.3923 407.693 47.4941L401.95 49.734C401.784 49.8067 401.719 49.9085 401.758 50.0539C401.796 50.1703 401.886 50.2285 402.053 50.1994L402.476 50.1267L402.463 50.1412Z" fill="black"/>

</svg>
