<svg width="450" height="295" viewBox="0 0 450 295" fill="none" xmlns="http://www.w3.org/2000/svg">
<path d="M58.4202 267.254C57.8068 267.254 57.2616 267.084 56.7505 266.709C56.2393 266.334 56.0349 265.55 56.0349 264.324L54.1948 152.076C54.1948 151.224 53.9221 150.781 53.3769 150.781C52.8317 150.781 52.4228 151.156 52.1843 151.872L25.1277 253.249C24.2758 256.691 24.2417 259.28 25.0255 261.052C25.8092 262.824 27.6834 263.983 30.648 264.46L32.863 264.835C34.3283 264.971 35.078 265.619 35.078 266.845C35.078 268.311 33.9194 269.06 31.5681 269.06H5.60198C3.76186 269.06 2.8418 268.447 2.8418 267.22C2.8418 265.891 3.83001 265.073 5.80643 264.835L8.36215 264.46C11.6676 263.983 14.121 262.824 15.7226 261.052C17.3242 259.28 18.551 256.657 19.4029 253.249L47.175 148.737C47.7884 146.181 47.7884 144.443 47.175 143.591C46.5617 142.739 44.8919 142.058 42.1999 141.581L39.0649 141.036C37.0885 140.661 36.1002 139.877 36.1002 138.65C36.1002 137.321 37.1907 136.64 39.4057 136.64H61.4871C65.031 136.64 66.8371 138.48 66.8371 142.16L67.9275 233.621C67.9275 234.473 68.2001 234.95 68.7453 234.984C69.2905 235.052 69.7676 234.711 70.1425 233.962L114.68 141.24C116.145 138.173 118.497 136.64 121.666 136.64H143.918C145.383 136.64 146.133 137.253 146.133 138.48C146.133 139.707 145.076 140.49 142.998 140.865L138.568 141.615C135.876 142.092 134.035 142.774 133.047 143.625C132.059 144.477 131.275 146.181 130.662 148.771L109.33 256.963C108.853 259.519 108.887 261.257 109.432 262.109C109.978 262.961 111.477 263.642 113.93 264.119L117.065 264.664C118.292 264.801 119.076 265.073 119.451 265.482C119.826 265.891 119.996 266.368 119.996 266.845C119.996 268.311 118.906 269.06 116.691 269.06H83.9433C82.2395 269.06 81.3876 268.447 81.3876 267.22C81.3876 265.993 82.3758 265.21 84.3182 264.835L88.7481 264.119C91.4401 263.642 93.3143 262.961 94.3707 262.109C95.4271 261.257 96.1767 259.519 96.6879 256.963L117.474 152.656C117.713 151.804 117.543 151.293 116.929 151.088C116.316 150.884 115.839 151.19 115.464 151.906L61.7597 264.324C61.2826 265.55 60.7374 266.334 60.1922 266.709C59.647 267.084 59.0677 267.254 58.4543 267.254H58.4202Z" fill="black"/>
<path d="M172.642 270.764C166.031 270.764 160.375 269.197 155.706 266.062C151.038 262.927 147.766 258.599 145.858 253.01C143.95 247.422 143.882 241.015 145.586 233.791L165.282 148.771C165.895 146.215 165.895 144.477 165.282 143.625C164.668 142.774 163.135 142.092 160.681 141.615L157.001 140.865C155.399 140.49 154.616 139.843 154.616 138.855C154.616 137.39 155.706 136.64 157.921 136.64H191.043C192.747 136.64 193.599 137.253 193.599 138.48C193.599 139.843 192.747 140.627 191.043 140.865L185.898 141.615C183.342 141.99 181.502 142.671 180.48 143.625C179.457 144.614 178.605 146.386 177.992 148.975L158.296 233.962C156.081 243.299 156.728 250.523 160.238 255.668C163.748 260.814 169.166 263.404 176.527 263.404C184.501 263.404 190.941 260.848 195.848 255.668C200.755 250.523 204.231 243.265 206.344 233.962L225.12 152.656C226.721 145.772 225.494 142.092 221.439 141.615L217.384 141.07C215.68 140.831 214.794 140.082 214.794 138.855C214.794 138.139 215.169 137.56 215.885 137.219C216.635 136.844 217.418 136.674 218.27 136.674H244.747C246.349 136.674 247.133 137.287 247.133 138.514C247.133 139.741 246.145 140.525 244.168 140.899L239.738 141.649C235.445 142.399 232.514 146.011 230.913 152.519L212.136 233.825C209.581 245.002 204.912 253.93 198.165 260.678C191.418 267.425 182.899 270.798 172.608 270.798L172.642 270.764Z" fill="black"/>
<path d="M260.05 270.764C256.608 270.764 252.962 270.389 249.111 269.674C245.226 268.958 241.614 267.936 238.241 266.641C234.867 265.346 232.209 263.847 230.233 262.143C229.619 261.529 229.21 260.916 229.04 260.303C228.87 259.689 228.87 258.769 229.142 257.542L234.288 228.646C234.663 226.431 235.651 225.34 237.252 225.34C238.718 225.34 239.467 226.567 239.467 229.021L239.638 236.177C239.876 246.502 241.648 253.896 244.988 258.428C248.293 262.961 253.677 265.244 261.174 265.244C268.023 265.244 273.748 262.756 278.28 257.781C282.812 252.806 285.096 246.161 285.096 237.812C285.096 232.428 283.63 226.772 280.666 220.876C277.735 214.981 273.612 209.086 268.33 203.225C262.094 196.239 257.46 189.867 254.461 184.074C251.428 178.315 249.963 172.25 249.963 165.877C249.963 160.834 251.19 155.961 253.643 151.259C256.097 146.522 259.811 142.603 264.786 139.468C269.761 136.333 276.099 134.766 283.835 134.766C294.501 134.766 302.645 137.151 308.302 141.922C310.005 143.285 310.619 145.295 310.142 147.987L304.996 174.839C304.621 176.679 303.769 177.6 302.44 177.6C301.111 177.6 300.294 176.543 300.055 174.465L299.885 170.58C299.374 160.63 298.01 153.065 295.727 147.851C293.444 142.637 288.946 140.047 282.199 140.047C277.292 140.047 273.373 141.138 270.409 143.353C267.444 145.568 265.331 148.294 263.968 151.531C262.605 154.802 261.958 158.006 261.958 161.209C261.958 164.753 262.435 168.16 263.423 171.432C264.411 174.703 266.081 178.111 268.466 181.723C270.852 185.335 274.157 189.731 278.314 194.876C284.21 201.862 288.81 208.541 292.115 214.913C295.421 221.285 297.09 227.487 297.09 233.485C297.09 240.709 295.455 247.115 292.218 252.704C288.946 258.292 284.584 262.688 279.064 265.857C273.544 269.026 267.24 270.628 260.118 270.628L260.05 270.764Z" fill="black"/>
<path d="M301.075 269.094C299.371 269.094 298.52 268.481 298.52 267.254C298.52 265.925 299.746 265.039 302.2 264.699L305.88 264.153C308.572 263.778 310.446 263.131 311.503 262.211C312.525 261.291 313.309 259.553 313.786 256.963L338.798 148.771C339.411 146.215 339.411 144.477 338.798 143.625C338.184 142.774 336.651 142.092 334.197 141.615L330.517 140.865C328.916 140.49 328.132 139.843 328.132 138.855C328.132 137.39 329.222 136.64 331.437 136.64H364.185C365.888 136.64 366.774 137.253 366.774 138.48C366.774 139.843 365.548 140.695 363.094 141.036L359.414 141.581C356.722 141.956 354.882 142.603 353.893 143.523C352.905 144.443 352.122 146.181 351.508 148.771L326.496 256.963C326.019 259.519 326.053 261.257 326.598 262.109C327.144 262.961 328.643 263.642 331.096 264.119L334.777 264.835C336.378 265.21 337.162 265.891 337.162 266.845C337.162 268.311 336.072 269.06 333.857 269.06H301.109L301.075 269.094Z" fill="black"/>
<path d="M398.195 270.764C385.212 270.764 375.773 266.675 369.946 258.428C364.119 250.216 361.188 238.323 361.188 222.751C361.188 215.288 362.109 207.484 363.949 199.374C365.789 191.298 368.447 183.392 371.957 175.725C375.466 168.058 379.658 161.141 384.565 155.007C389.472 148.873 395.026 143.966 401.228 140.286C407.43 136.606 414.143 134.766 421.367 134.766C429.954 134.766 437.758 137.628 444.744 143.421C445.97 144.409 446.413 145.738 446.038 147.476L440.518 175.248C440.143 177.225 439.223 178.213 437.758 178.213C436.293 178.213 435.543 177.225 435.543 175.248L435.373 168.092C435.134 157.903 433.669 150.679 430.943 146.386C428.251 142.092 424.366 139.945 419.357 139.945C414.347 139.945 409.952 141.888 405.556 145.738C401.126 149.589 397.037 154.768 393.22 161.209C389.404 167.649 386.064 174.771 383.202 182.541C380.339 190.31 378.09 198.148 376.489 205.985C374.887 213.823 374.103 221.149 374.103 227.896C374.103 238.937 375.773 247.933 379.147 254.953C382.52 261.938 388.143 265.448 395.98 265.448C400.649 265.448 404.772 263.778 408.384 260.371C411.996 256.997 415.711 251.204 419.527 242.992L423.582 234.371C424.196 232.905 425.116 232.156 426.342 232.156C428.285 232.156 428.966 233.314 428.353 235.666L420.992 264.358C420.515 266.198 419.527 267.288 418.028 267.663C415.949 268.379 412.95 269.094 408.997 269.776C405.079 270.457 401.467 270.764 398.127 270.764H398.195Z" fill="black"/>
<path d="M61.146 67.056H55.4894C55.0464 67.056 54.5693 67.1242 54.1604 67.056C53.6833 66.9538 53.2063 66.7834 52.6951 66.7494C51.9454 66.7494 51.1617 66.7494 50.412 66.7494C50.0372 66.7494 49.6623 66.7494 49.2875 66.7494C49.0149 66.7494 49.0489 66.7494 48.9126 66.4427C48.606 65.7612 48.2652 65.1819 47.8904 64.5344C47.6859 64.2277 47.4474 63.921 47.3111 63.5803C47.1748 63.2395 47.1066 62.8306 47.0044 62.4898C46.7999 61.9105 46.834 61.2972 46.5955 60.7519C46.3569 60.2067 46.1525 59.6615 45.948 59.1163C45.8799 58.9118 45.8117 58.6733 45.7435 58.4688C45.6413 58.1621 45.3687 57.9236 45.1302 57.6851C44.5509 57.0376 44.0397 56.3561 43.2901 55.9472C42.6426 55.6064 42.0633 55.1294 41.3818 54.8908C40.7343 54.6864 40.0869 54.8908 39.4394 54.7545C39.1327 54.6864 38.7579 54.3797 38.4853 54.1752C38.1786 53.9708 37.9401 53.6981 37.6675 53.4937C37.2245 53.1529 36.7474 52.9825 36.2363 52.8462C35.9637 52.7781 35.691 52.7781 35.4184 52.6759C34.9754 52.5736 34.5665 52.4373 34.1576 52.3351C33.3398 52.1306 32.4879 52.1306 31.636 52.1306C31.3634 52.1306 31.1248 52.2329 30.8522 52.2329C30.4092 52.2329 30.0003 52.2329 29.5914 52.1647C28.9099 51.9943 28.2624 51.824 27.5809 51.824C27.1379 51.824 26.6608 51.824 26.2178 51.824C26.0134 51.824 25.9112 51.824 25.7408 51.9262C25.5704 52.0284 25.3319 52.1306 25.1615 52.2329C25.0252 52.3351 24.9229 52.5055 24.7866 52.6077C24.6503 52.7099 24.514 52.8122 24.3777 52.8803C24.1392 53.0166 23.9006 53.187 23.6621 53.2892C22.9806 53.5959 22.3331 53.8004 21.6516 54.1411C21.4812 54.2093 21.3449 54.2774 21.1745 54.3456C21.0042 54.4137 20.8679 54.5841 20.6975 54.6864C20.5271 54.8227 20.3226 54.9249 20.1523 55.0612C19.9137 55.2316 19.8115 55.5383 19.573 55.7427C19.1981 56.0494 18.9255 56.3561 18.6529 56.765C18.4144 57.1399 18.1418 57.4465 17.8351 57.7532C17.3239 58.2644 16.8128 58.7414 16.472 59.423C16.4039 59.5593 16.3698 59.6956 16.3016 59.8319C16.2335 59.9682 16.1653 60.1726 16.1313 60.2749C16.0631 60.5816 16.1313 60.9905 16.1313 61.2972V64.364C16.1313 64.7389 16.1313 65.0796 16.2676 65.4545C16.3357 65.6589 16.4379 65.7612 16.472 65.9997C16.472 66.4768 16.5402 66.9197 16.6083 67.3968C16.8128 68.4873 17.0854 69.5777 18.1418 70.1229C18.4484 70.2933 18.7892 70.3955 19.13 70.5318C19.5389 70.7363 19.9478 70.9407 20.3567 71.1111C20.9019 71.3837 21.5153 71.5882 22.0265 71.8949C22.6058 72.2016 23.0828 72.6446 23.6962 72.9172C24.514 73.292 25.0933 73.9395 25.9111 74.2802C26.4564 74.5188 27.0357 74.7232 27.615 74.8254C27.8876 74.8595 28.1602 74.8595 28.3987 74.9617C28.6373 75.0299 28.8417 75.1662 29.0802 75.2003C29.6255 75.2684 30.1025 75.507 30.6137 75.7114C31.3974 76.0181 32.1812 76.393 32.9649 76.6996C33.5442 76.9382 34.1235 77.2449 34.7369 77.4834C35.4866 77.756 36.3044 77.9945 37.0882 78.1649C38.2127 78.4035 39.1668 79.1872 40.1891 79.6984C40.8706 80.0732 41.6544 80.2776 42.3018 80.6866C42.9152 81.0273 43.5286 81.2999 44.142 81.6748C44.3123 81.777 44.4146 81.9133 44.619 81.9815C44.8235 82.0496 45.1643 81.9815 45.3346 82.0155C46.2206 82.1178 47.0384 82.5267 47.8904 82.7993C48.606 83.0037 49.2193 83.5149 49.8327 83.9238C50.5142 84.3668 51.0935 84.9461 51.741 85.4572C52.0817 85.6958 52.4225 85.9002 52.7633 86.1388C53.2063 86.4455 53.6152 86.8544 54.0582 87.1951C55.3871 88.2174 56.7843 89.0353 57.9429 90.262C58.1814 90.5005 58.4199 90.7731 58.6585 91.0117C59.2037 91.5569 59.5785 92.1021 60.0215 92.7496C60.4304 93.3289 60.9756 93.7719 61.3846 94.3512C61.8957 94.9986 62.3387 95.7142 62.8158 96.3617C63.1565 96.8387 63.2247 97.0432 63.2247 97.6566C63.2247 98.2699 63.1225 98.8492 63.1225 99.4285C63.1225 100.11 63.1225 100.792 63.1225 101.473C63.1225 101.746 63.0543 101.984 63.0202 102.257C62.9521 102.768 63.0202 103.279 63.0202 103.756C63.0202 104.267 63.0202 104.813 63.0202 105.324C63.0202 106.073 62.7817 106.721 62.6454 107.402C62.5772 107.777 62.5432 108.118 62.475 108.493C62.3728 109.004 62.1683 109.447 61.9298 109.924C61.4186 110.878 61.0438 111.935 60.4645 112.821C60.226 113.161 59.9534 113.434 59.7489 113.809C59.4763 114.252 59.2718 114.627 58.9311 115.001C58.3518 115.683 57.8747 116.467 57.1932 117.08C57.0228 117.25 56.8524 117.455 56.682 117.625C56.5117 117.796 56.2731 117.932 56.0687 118.068C55.5916 118.443 55.0804 118.818 54.6375 119.193C54.0922 119.704 53.5129 120.147 53.0018 120.658C52.4907 121.169 51.9795 121.68 51.4343 122.123C51.0254 122.43 50.6846 122.703 50.1394 122.737C49.4238 122.737 48.8445 122.839 48.163 123.043C47.5837 123.214 46.9703 123.316 46.4251 123.52C45.9821 123.691 45.505 123.759 45.0279 123.895C44.4827 124.032 43.9375 124.066 43.4264 124.27C42.9152 124.509 42.3359 124.781 41.7566 124.849C40.3595 125.054 38.9283 125.224 37.5652 125.497C36.4407 125.701 35.3162 125.872 34.1917 126.008C33.885 126.042 33.5783 126.11 33.3057 126.144C32.6242 126.178 31.9427 126.144 31.2611 126.144C30.2048 126.144 29.1825 126.144 28.1602 125.872C27.1379 125.599 26.1156 125.327 25.1274 124.884C24.6503 124.679 24.1051 124.338 23.594 124.236C23.3214 124.168 23.0147 124.236 22.7421 124.236C22.3331 124.168 21.9242 123.861 21.5494 123.691C20.3908 123.112 19.3344 122.396 18.2099 121.748C17.1876 121.135 16.1653 120.658 15.0408 120.283C14.4274 120.079 13.9163 119.704 13.3029 119.465C12.1784 119.056 11.1902 118.511 10.2361 117.762C9.14562 116.91 8.05518 116.058 7.06696 115.104C6.82843 114.865 6.52174 114.627 6.28321 114.388C5.90837 114.013 5.66984 113.57 5.39723 113.093C5.02239 112.446 4.64755 111.798 4.23863 111.185C3.62526 110.231 3.04596 109.345 2.63705 108.254C2.50074 107.845 2.22813 107.436 2.15998 107.028C2.1259 106.823 2.02367 106.585 1.95552 106.38C1.88737 106.039 1.88737 105.733 1.78514 105.392C1.51253 104.336 1.10361 103.313 0.831004 102.257C0.694699 101.814 0.762852 101.303 0.762852 100.826C0.762852 100.553 0.796928 100.28 0.762852 100.008C0.762852 99.8034 0.59247 99.633 0.660623 99.3944C0.899157 99.3263 1.10361 99.4285 1.34215 99.4967C1.75106 99.5989 2.1259 99.5989 2.56889 99.5989C2.97781 99.5989 3.35265 99.7011 3.76156 99.7011C4.10233 99.7011 4.37494 99.7011 4.7157 99.8034C5.66984 100.042 6.65805 100.246 7.61218 100.315C8.43002 100.383 9.21377 100.417 10.0316 100.417C10.3724 100.417 10.6791 100.417 11.0198 100.315C11.2243 100.246 11.3947 100.178 11.6332 100.212C11.8717 101.03 12.1103 101.882 12.4169 102.7C12.5532 103.075 12.6896 103.484 12.894 103.824C13.2007 104.37 13.6096 104.813 13.9504 105.324C14.4274 106.039 14.8704 106.789 15.0749 107.641C15.2793 108.493 16.1313 109.106 16.7787 109.685C17.5965 110.435 18.4484 111.117 19.0959 112.003C19.0618 111.969 19.4026 112.48 19.5048 112.514H19.573C19.8796 112.514 20.1523 112.616 20.4589 112.718C21.9583 113.161 23.4917 113.604 24.9911 114.115C25.8089 114.388 26.6608 114.831 27.5127 114.967C30.1366 115.342 32.8286 115.138 35.4866 115.172C36.7815 115.172 38.0423 115.376 39.3372 115.41C40.0528 115.41 40.7343 115.41 41.4499 115.41C41.927 115.41 42.5063 115.513 42.9493 115.41C43.256 115.376 43.4945 115.138 43.733 114.933C44.2442 114.524 44.7894 114.149 45.3006 113.741C45.8458 113.298 46.4251 112.889 46.9362 112.412C47.2429 112.139 47.5496 111.935 47.7881 111.628C47.9585 111.423 48.0948 111.151 48.2652 110.946C48.64 110.469 49.083 110.06 49.4919 109.651C49.8327 109.345 50.3779 108.936 50.4461 108.425C50.4802 108.084 50.4461 107.675 50.4461 107.334C50.4461 106.687 50.4461 106.039 50.4461 105.392C50.4461 104.438 50.4461 103.552 50.2416 102.632C50.0372 101.814 49.8668 100.996 49.5601 100.212C49.3556 99.7011 48.5719 98.8492 48.2652 98.4744C47.6859 97.7929 47.0044 97.2136 46.3569 96.6002C46.0502 96.3276 45.7095 96.0209 45.4369 95.6801C44.619 94.6919 43.5286 93.9082 42.5063 93.1244C41.3477 92.2384 40.0869 91.3524 38.6898 90.8754C36.8156 90.2279 35.0436 89.3419 33.2035 88.6604C32.8286 88.5241 32.4879 88.4219 32.113 88.2856C31.4315 88.047 30.8181 87.7063 30.1707 87.4337C28.6032 86.7521 27.0016 86.3773 25.3659 86.0025C24.0029 85.6617 22.708 85.0824 21.4131 84.5372C19.9137 83.9238 18.2781 83.4808 16.8809 82.6289C16.0631 82.1518 15.2453 81.7089 14.4615 81.1977C12.9622 80.1754 11.4969 79.085 10.0316 77.9945C9.69084 77.7219 9.17969 77.5175 8.87301 77.2108C8.70263 76.9722 8.53224 76.7337 8.36186 76.4952C8.05518 76.1203 7.74849 75.7455 7.47588 75.3707C6.7262 74.3825 6.11283 73.3261 5.36315 72.3379C4.98831 71.8267 4.23863 71.2474 4.17048 70.5659C4.10233 69.7822 4.1364 68.9302 4.10233 68.1465C4.10233 67.499 4.10233 66.8857 4.10233 66.2382C4.10233 64.9433 4.06825 63.6825 4.17048 62.3876C4.27271 61.3312 4.20456 60.2408 4.17048 59.1504C4.17048 58.1621 3.96602 57.1398 4.06825 56.1516C4.10233 55.6746 4.23863 55.2657 4.47717 54.8227C4.5794 54.6523 4.81793 54.073 4.98831 53.9367C5.12462 53.8004 5.32907 53.7663 5.49946 53.63C6.07875 53.2892 6.69213 52.8803 7.23735 52.4714C7.91887 51.9262 8.53224 51.3128 9.14562 50.6994C9.48638 50.3587 9.86122 50.0861 10.202 49.7794C10.8494 49.2001 11.7354 48.9615 12.4851 48.5186C13.4052 47.9733 14.2911 47.4281 15.2112 46.951C15.995 46.5081 16.7446 45.9969 17.5625 45.588C18.0055 45.3495 18.3462 45.1109 18.7551 44.8383C19.13 44.5998 19.5048 44.259 19.8796 44.0886C20.7656 43.6456 21.8561 43.6456 22.8102 43.5093C23.4577 43.4412 24.071 43.4412 24.6844 43.2027C25.2637 42.9982 25.843 42.896 26.4564 42.7597C26.8653 42.6915 27.3083 42.6915 27.7172 42.5552C28.092 42.4189 28.3987 42.3507 28.7736 42.3167C29.6255 42.2144 30.4774 42.2144 31.3293 42.2485C31.8404 42.2485 32.3516 42.3848 32.8286 42.487C33.3057 42.5893 33.8509 42.5893 34.3621 42.6574C36.2022 42.9641 38.0423 42.5552 39.8484 43.1004C40.564 43.3049 41.2796 43.7138 41.927 44.0546C42.6767 44.3953 43.3923 44.5657 44.176 44.8042C45.4028 45.1791 46.5273 45.8265 47.72 46.2695C47.8904 46.3377 48.0267 46.3717 48.197 46.4058C48.9467 46.5421 49.5942 46.7466 50.2416 47.1214C51.1617 47.6666 52.1499 48.28 52.7633 49.166C53.07 49.609 53.3766 50.0179 53.7174 50.4268C53.99 50.8017 54.2967 51.1424 54.5693 51.5173C54.876 51.9262 55.0805 52.3351 55.3871 52.7099C55.6598 53.0166 55.9664 53.2552 56.2391 53.5618C56.6139 53.9708 56.8865 54.4137 57.2954 54.7886C57.4317 54.9249 57.2954 54.6864 57.4999 55.0271C57.8747 55.6746 58.3518 56.2879 58.7266 56.9695C58.9992 57.5147 59.4763 57.9577 59.8171 58.4688C60.1578 58.98 60.4645 59.5593 60.6008 60.1386C60.7371 60.5816 60.8393 61.0245 60.8393 61.5016C60.8393 61.8424 60.8393 62.1831 60.8393 62.5239C60.8393 62.9669 60.7371 63.5121 60.8393 63.9551C60.9075 64.1596 60.9416 64.364 61.0097 64.6026C61.0779 64.807 61.0097 65.0115 61.0438 65.2159C61.0438 65.2841 61.112 65.3522 61.112 65.4545C61.112 65.5567 61.112 65.6589 61.112 65.7612C61.112 65.9997 61.112 66.2723 61.2142 66.9197L61.146 67.056Z" fill="black"/>
<path d="M63.4961 44.0205H74.0597C74.639 44.0205 75.4909 44.1568 76.0362 44.0205C76.5132 43.9183 76.7518 43.782 77.3311 43.782C77.5355 43.782 77.8081 43.7138 77.9785 43.782C78.4556 43.8842 78.5578 44.3953 78.7963 44.8383C79.7164 46.6444 81.1135 48.1778 82.4084 49.7112C83.6011 51.1084 85.0664 52.8122 85.6457 54.5842C85.8842 55.3338 85.9183 56.0494 86.0546 56.765C86.1228 57.1399 86.1568 57.1399 86.4635 57.4466C87.3836 58.2644 88.474 58.98 89.36 59.866C90.0074 60.5475 90.9275 61.2631 91.4727 62.0128C91.8135 62.4898 92.0179 63.0691 92.3587 63.5462C93.2788 64.8411 94.0284 66.3745 95.0848 67.4991C95.9708 68.4532 96.9931 69.7481 97.5724 70.9408C98.1858 72.2016 98.5947 73.5306 99.174 74.8255C99.6851 75.8818 99.8214 77.4153 100.673 78.3012C100.571 77.4153 100.98 76.5634 101.355 75.7796C101.73 74.9958 102.139 74.2121 102.479 73.4283C103.127 71.929 103.536 70.3274 104.183 68.828C105.24 66.4427 106.637 64.1255 108.306 62.115C109.09 61.195 109.738 60.1045 110.385 59.0481C110.726 58.4688 111.101 57.7873 111.612 57.3443C112.021 57.0036 112.43 56.6628 112.839 56.288C113.656 55.5383 114.542 55.0953 115.224 54.2434C115.769 53.5278 116.314 52.8803 116.962 52.1988C117.507 51.5854 118.086 51.0061 118.597 50.3928C118.87 50.052 119.006 49.6772 119.313 49.4046C119.62 49.1319 119.858 48.8934 120.131 48.5526C120.881 47.6667 121.528 46.6444 122.073 45.5539C122.312 45.0428 122.55 44.4294 123.061 44.259C123.573 44.0887 124.459 44.259 125.004 44.259H128.377C129.57 44.259 131.035 44.4976 132.194 44.1568C132.671 44.0205 133.012 43.8501 133.523 43.816C133.864 43.816 134.238 43.816 134.579 43.816C134.92 43.816 135.295 43.816 135.636 43.816C136.044 43.816 136.181 43.7138 136.283 44.1227C136.385 44.5316 136.113 44.9746 136.01 45.3154C135.704 46.1332 135.329 46.8488 134.886 47.6326C133.523 49.9839 131.989 52.1647 130.49 54.4478C129.638 55.7427 128.82 57.0376 127.9 58.2644C127.491 58.8096 127.253 59.4911 126.776 59.9682C126.333 60.4453 125.958 60.9223 125.549 61.3994C124.902 62.115 124.459 62.9669 123.845 63.7166C123.402 64.2618 122.925 64.773 122.516 65.3182C122.278 65.6589 122.141 66.0338 121.869 66.3405C121.562 66.7153 121.153 67.022 120.846 67.4309C120.369 68.0102 119.858 68.5554 119.415 69.1347C118.529 70.2933 117.609 71.3838 116.723 72.5083C116.144 73.258 115.633 74.1439 115.122 74.9618C114.338 76.1885 113.622 77.5175 112.873 78.8124C112.123 80.1073 111.373 81.4363 110.828 82.9015C110.453 83.9238 109.942 85.1506 109.704 86.1729C109.533 86.8544 109.772 87.5018 109.431 88.1493C109.158 88.6945 108.92 89.2057 108.613 89.785C108.477 90.0916 108.34 90.3643 108.102 90.6028C107.829 90.8413 107.523 90.8754 107.318 91.2162C106.943 91.7955 107.08 92.5451 107.08 93.2267C107.08 94.5897 107.046 95.9528 107.08 97.3158C107.114 99.633 107.966 102.121 107.318 104.404C107.046 105.392 106.943 106.312 106.875 107.3C106.841 107.948 106.637 108.527 106.671 109.208C106.671 110.401 106.671 111.594 106.671 112.821C106.671 113.298 106.739 113.843 106.671 114.32C106.603 114.967 106.432 115.41 106.432 116.092C106.432 117.08 106.432 118.102 106.432 119.091V122.43C106.432 123.18 106.534 124.032 106.432 124.747C105.785 124.918 105.069 124.747 104.388 124.781C103.536 124.849 102.752 124.986 101.934 124.986C100.912 124.986 99.8896 124.986 98.8673 124.986C97.6065 124.986 96.3456 124.918 95.1189 125.054C94.8804 122.26 95.1189 119.397 95.1189 116.569C95.1189 114.388 95.1189 112.275 95.3915 110.128C95.8004 106.585 96.4138 103.007 96.4138 99.4626C96.4138 98.1336 96.6182 96.8728 96.6182 95.5779C96.6182 94.5556 96.516 93.6015 96.4138 92.5792C96.3456 91.7955 96.1412 90.4324 95.5619 89.8531C95.153 89.4101 94.6418 89.1034 94.2329 88.6604C93.7218 88.1152 93.2106 87.5018 92.6995 86.9225C91.9157 86.0706 91.2683 85.0824 90.4845 84.2646C90.0074 83.7875 89.7689 83.1742 89.3941 82.5949C89.0192 82.0156 88.6785 81.4703 88.3036 80.891C87.8606 80.2436 87.5199 79.5621 86.9747 79.0168C86.2591 78.3012 85.5435 77.4834 85.1345 76.5634C84.7256 75.6433 84.3849 74.7573 83.8737 73.8713C83.2944 72.9172 82.5788 72.0312 82.0336 71.043C81.7951 70.6 81.5224 70.1911 81.2498 69.7481C80.9772 69.3392 80.5342 68.9984 80.3298 68.5895C80.2616 68.4532 80.2275 68.2828 80.1594 68.1465C79.8527 67.5331 79.3075 67.1242 78.8304 66.6131C76.7518 64.5344 75.5932 61.7402 74.0597 59.2867C73.7871 58.8437 73.5486 58.5029 73.3441 57.9918C73.1397 57.5488 72.9352 57.1399 72.6626 56.6969C72.39 56.2198 72.1515 55.845 71.9129 55.3679C71.7766 55.0953 71.6744 54.9931 71.5381 54.7886C71.3677 54.4819 71.2314 54.1412 71.0269 53.8345C70.0728 52.6077 69.3913 51.1084 68.2327 49.9839C67.5512 49.3023 66.563 48.9616 65.9837 48.2119C65.4725 47.5644 65.4384 46.8148 65.1658 46.0651C64.9614 45.588 64.6888 44.5998 63.6324 44.0205H63.4961Z" fill="black"/>
<path d="M219.02 83.4127C218.714 82.0837 218.168 80.7888 217.759 79.4939C217.385 78.2331 217.18 76.9382 216.839 75.6774C216.703 75.1321 216.465 74.621 216.328 74.0758C216.26 73.7691 216.328 73.3602 216.226 73.0876C216.09 72.6105 215.749 72.1334 215.51 71.6904C214.454 69.6458 213.364 67.6353 212.512 65.4885C212.035 64.2959 211.762 63.2054 211.149 62.0468C210.126 60.1045 208.661 58.5029 207.434 56.6969C207.128 56.2539 206.957 55.7086 206.582 55.3338C205.969 54.6864 204.81 54.2434 204.061 53.8004C202.527 52.9144 201.164 51.8239 199.631 50.972C198.847 50.529 198.029 49.8134 197.143 49.5749C196.905 49.5068 196.7 49.5749 196.496 49.4386C196.189 49.3023 195.848 48.9956 195.576 48.7912C194.588 48.1778 193.668 47.4963 192.645 46.917C191.521 46.3036 190.396 45.6902 189.306 45.0428C188.352 44.4975 187.329 44.7702 186.273 44.6679C184.74 44.4975 183.206 44.4294 181.673 44.259C180.65 44.1568 179.662 43.9523 178.64 43.8842C177.72 43.8501 176.8 43.8842 175.88 43.8842C174.38 43.8842 172.881 43.7819 171.348 43.7138C168.69 43.6116 166.1 43.2708 163.442 43.2708C161.431 43.2708 159.421 43.2026 157.444 43.2708C155.741 43.339 154.037 43.4753 152.299 43.4412C150.561 43.4412 148.823 43.4412 147.085 43.4412C147.085 44.9746 147.085 46.1332 147.085 47.2577C147.085 48.0415 147.494 48.6549 147.494 49.4727C147.494 50.1542 147.733 50.7676 147.835 51.415C147.903 51.7558 147.835 52.0625 147.869 52.4373C147.903 52.9144 148.073 53.3915 148.142 53.8685C148.653 57.5488 148.108 61.2631 147.903 64.9433C147.665 69.1006 147.153 73.2239 147.085 77.3812C147.085 79.1872 147.085 80.9592 147.085 82.7652C147.085 84.9802 147.187 87.1611 147.256 89.3419C147.324 91.9999 147.665 94.6578 147.699 97.2817C147.767 100.86 146.847 104.336 146.881 107.914C146.881 110.367 146.881 112.821 146.881 115.274C146.881 116.773 146.949 118.307 147.051 119.806C147.119 121.101 146.847 122.737 147.119 123.998C147.494 123.998 147.903 123.998 148.278 123.998C148.755 123.998 149.13 123.861 149.607 123.793C150.493 123.691 151.515 123.793 152.401 123.793H156.865C158.092 123.793 159.353 123.793 160.545 124.032C162.317 124.372 164.123 124.815 165.929 125.054C167.122 125.19 168.247 125.19 169.473 125.19C170.121 125.19 170.802 125.19 171.45 125.19C172.097 125.19 172.711 124.952 173.358 124.849C174.414 124.645 175.471 124.441 176.493 124.134C177.345 123.861 178.265 123.827 179.151 123.623C180.684 123.316 182.252 123.316 183.785 122.907C184.569 122.703 185.285 122.805 185.966 122.498C186.955 122.055 188.011 121.953 188.999 121.578C189.919 121.237 190.873 121.067 191.827 120.863C193.668 120.488 195.712 120.351 197.382 119.363C197.825 119.125 198.097 118.818 198.472 118.477C198.949 118.034 199.29 117.591 199.733 117.114C200.619 116.194 201.573 115.308 202.527 114.456C204.742 112.412 206.991 110.435 208.968 108.152C209.786 107.198 210.74 106.38 211.592 105.426C212.103 104.847 212.716 104.37 213.364 103.927C213.67 103.722 214.25 103.45 214.454 103.143C214.829 102.598 215.033 101.712 215.306 101.098C215.51 100.587 215.851 100.144 215.988 99.5989C216.09 99.2581 216.09 98.8833 216.226 98.5425C216.499 97.7247 216.703 96.941 216.908 96.1231C217.18 94.8964 216.976 93.6696 217.282 92.477C217.521 91.5228 217.93 90.6709 218.1 89.6827C218.237 88.8308 218.373 87.9448 218.577 87.0929C218.748 86.4114 219.054 85.7639 219.225 85.1165C219.395 84.5372 219.157 83.8897 219.02 83.3445V83.4127ZM206.378 86.8203C205.492 89.9894 205.049 93.4311 203.618 96.4298C203.004 97.7588 202.357 99.0878 201.778 100.451C201.232 101.712 200.449 102.87 199.733 104.063C198.881 105.494 197.825 106.993 196.462 107.948C195.917 108.322 195.542 108.868 195.031 109.242C194.519 109.583 193.94 109.822 193.429 110.128C192.645 110.571 192.066 110.64 191.214 110.844C190.737 110.946 190.294 111.185 189.783 111.287C189.238 111.423 188.59 111.423 188.045 111.492C187.125 111.594 186.205 111.866 185.251 111.935C184.603 111.969 184.331 112.003 183.751 112.241C181.911 112.923 179.935 112.786 177.992 112.786C176.868 112.786 175.743 112.786 174.653 112.786C173.971 112.786 173.085 112.616 172.438 112.889C171.109 113.468 169.542 113.741 168.144 114.081C166.781 114.422 165.35 114.49 163.953 114.592C162.897 114.661 161.84 114.797 160.784 114.797C160.205 114.797 159.455 115.07 159.182 114.49C159.046 114.218 159.114 113.979 159.08 113.706C159.046 113.434 158.876 113.332 158.91 112.991C158.91 112.718 158.91 112.446 158.91 112.173V110.435C158.91 109.788 158.773 108.97 158.91 108.322C159.012 107.777 159.182 107.266 159.319 106.721C159.693 105.221 159.523 103.518 159.523 101.95V95.0668C159.523 93.6015 159.489 92.1362 159.523 90.6368C159.523 89.6827 159.762 88.7967 159.728 87.8426C159.728 86.4114 159.762 84.9802 159.728 83.549C159.728 82.22 159.421 80.891 159.353 79.562C159.25 77.7901 159.319 76.0522 159.319 74.2802C159.319 67.7035 159.319 61.1268 159.319 54.5501C162.59 53.9367 165.691 54.0048 168.792 53.9367C169.916 53.9367 171.075 53.7322 172.165 53.5278C173.494 53.2892 174.721 53.1188 176.084 53.1188C177.754 53.1188 179.492 53.9367 181.059 54.4478C182.456 54.8908 183.819 55.0612 185.217 55.402C185.966 55.5723 186.512 55.879 187.193 56.2879C187.977 56.7991 188.624 57.4125 189.442 57.8555C189.987 58.1621 190.567 58.5029 191.146 58.7414C191.044 58.7074 192.032 58.9459 192.134 59.014C192.339 59.1844 192.373 59.3889 192.611 59.5593C192.85 59.7296 193.156 59.866 193.395 60.0363C193.974 60.4112 194.656 60.6156 195.235 60.9905C196.36 61.6379 197.484 62.2854 198.609 62.8987C199.222 63.2395 200.074 63.8529 200.789 64.1255C200.483 64.0233 201.505 64.2618 201.471 64.2277C201.641 64.364 201.744 64.8411 201.812 65.0455C201.948 65.3522 202.084 65.6589 202.221 65.9656C202.527 66.7494 203.073 67.3968 203.379 68.1806C203.959 69.6458 204.47 71.1111 205.015 72.5764C205.288 73.2579 205.39 73.9054 205.492 74.5869C205.662 75.8818 205.901 77.1426 206.003 78.4375C206.071 79.1872 206.105 79.9369 206.242 80.6866C206.378 81.4703 206.685 82.22 206.787 83.0038C206.991 84.3668 206.821 85.5595 206.48 86.8544L206.378 86.8203Z" fill="black"/>
<path d="M313.959 43.8501C313.959 51.9603 313.755 60.1386 313.959 68.2487C314.027 70.9067 314.538 73.5646 314.743 76.2226C314.811 76.9723 315.049 77.6538 315.015 78.4375C314.981 79.5961 314.709 80.7207 314.743 81.8793C314.743 85.2869 314.709 88.6264 315.084 92.034C315.288 93.9082 315.288 95.7483 315.288 97.6225V105.222C315.288 106.346 315.288 107.471 315.288 108.595C315.288 109.481 315.492 110.265 315.561 111.117C315.595 111.56 315.561 112.037 315.492 112.446C315.39 112.957 315.356 113.4 315.288 113.945C315.22 114.797 315.015 115.513 315.015 116.364C315.015 117.148 315.084 117.932 315.015 118.716C314.981 119.363 314.743 119.874 314.743 120.522C314.743 121.612 315.084 123.486 314.47 124.372C315.799 124.952 317.196 124.986 318.593 124.952C320.604 124.952 322.648 124.952 324.659 124.952C326.158 124.952 327.862 125.156 329.327 124.815C330.384 124.577 331.542 124.679 332.633 124.679C334.473 124.679 336.347 124.815 338.187 124.679C339.755 124.543 341.186 124.1 342.753 124.168C345.309 124.27 347.831 124.441 350.421 124.441C351.647 124.441 352.84 124.441 354.067 124.441C355.43 124.441 356.725 124.713 358.122 124.713C359.28 124.713 360.337 124.986 361.495 124.986C362.177 124.986 362.688 125.224 363.37 125.258C363.949 125.258 364.494 125.258 365.073 125.258C365.721 125.258 366.164 125.156 366.777 125.02C367.322 124.884 368.038 125.02 368.617 125.02C369.469 125.02 371.071 125.292 371.378 124.406C371.616 123.657 371.378 122.43 371.378 121.646C371.378 120.863 371.378 120.079 371.378 119.295C371.378 118.511 371.139 117.864 371.105 117.148C371.071 116.364 370.866 115.649 370.866 114.899C370.866 114.149 370.594 113.57 370.594 112.855C369.333 112.548 367.731 112.821 366.437 112.821C364.971 112.821 363.506 112.821 362.041 112.821C361.223 112.821 360.166 112.957 359.349 113.161C358.872 113.264 358.497 113.536 358.054 113.638C357.304 113.843 356.248 113.638 355.464 113.638C354.408 113.638 353.351 113.672 352.295 113.638C350.523 113.57 348.785 113.366 347.013 113.366C345.241 113.366 343.265 113.366 341.425 113.366C340.573 113.366 339.618 113.229 338.767 113.366C337.881 113.536 337.199 113.604 336.279 113.604C335.734 113.604 335.257 113.604 334.746 113.741C334.234 113.877 333.689 113.775 333.178 113.877C332.599 113.979 332.258 114.115 331.611 114.115C331.099 114.115 330.554 114.115 330.043 114.115C328.987 114.115 327.896 114.115 326.84 114.149C326.635 111.969 326.635 109.515 326.806 107.334C326.874 106.346 327.351 105.29 327.59 104.404C327.93 103.177 327.351 101.712 327.317 100.485C327.283 99.3945 327.044 98.5085 326.84 97.4521C326.806 97.1795 326.84 96.8728 326.806 96.6343C326.772 96.4298 326.635 96.2254 326.601 96.055C326.499 95.5779 326.295 95.0327 326.261 94.5556C326.192 93.4993 326.261 92.4088 326.261 91.3525C326.261 90.7732 326.261 90.1598 326.261 89.5805C326.261 89.4101 326.192 89.1716 326.261 89.0353C326.533 88.456 328.68 88.7286 329.191 88.7967C330.52 88.899 331.781 89.1375 333.11 89.0693C334.439 89.0012 335.802 88.5582 337.097 88.3197C337.812 88.1834 338.596 88.2515 339.346 88.2515C342.106 88.2515 344.832 89.0693 347.626 89.0693C349.092 89.0693 350.591 89.0693 352.056 89.0693C353.385 89.0693 354.748 88.6945 356.077 88.5582C356.963 88.456 357.781 88.2856 358.667 88.2856C359.553 88.2856 360.405 88.3197 361.257 88.0811C361.768 87.9448 362.347 87.6722 362.824 87.57C363.301 87.4678 363.847 87.5018 364.324 87.5018C364.767 87.5018 365.21 87.5018 365.619 87.5018C365.857 87.5018 366.164 87.5359 366.402 87.5018C366.948 87.4337 366.845 87.5018 366.914 86.9907C367.118 85.6617 366.914 84.1624 366.914 82.7993C366.914 81.5726 367.152 80.1073 366.914 78.8805C366.845 78.5057 366.743 77.9605 366.402 77.8242C366.062 77.6879 365.38 77.8583 364.971 77.7901C361.052 77.0063 356.895 77.313 352.908 77.313C349.739 77.313 346.57 77.313 343.401 77.313C340.879 77.313 338.426 77.8242 335.904 77.8242H331.508C330.725 77.8242 329.907 77.9264 329.123 77.8242C328.51 77.756 327.998 77.5856 327.351 77.5856C327.147 76.1204 327.112 74.621 327.01 73.1216C326.874 71.4519 326.397 69.7481 326.158 68.0784C325.988 67.0561 325.784 65.9656 325.749 64.9433C325.749 64.1255 325.852 63.2395 325.749 62.4217C325.681 61.7061 325.477 61.0927 325.477 60.3771C325.477 59.8319 325.477 59.2867 325.477 58.7415C325.477 57.6851 325.306 56.4243 325.477 55.402C326.363 55.0953 327.896 55.3679 328.816 55.3679C330.827 55.3679 332.803 55.3679 334.814 55.1975C338.017 54.8568 341.22 54.2775 344.423 53.8685C345.82 53.6982 347.217 53.63 348.581 53.2892C349.467 53.0507 350.353 53.0507 351.238 52.8463C351.818 52.71 352.159 52.5396 352.704 52.5055C353.556 52.4714 354.408 52.5055 355.259 52.5055C357.372 52.5055 359.621 52.267 361.7 52.5055C362.381 52.5736 363.097 52.8803 363.779 53.0848C364.256 53.2211 365.073 53.6982 365.551 53.5278C365.959 52.2329 365.38 50.8698 365.142 49.6431C364.903 48.4504 364.596 47.1555 364.562 45.9969C364.494 44.7361 364.733 43.4071 364.562 42.1463C364.051 41.9759 362.518 42.1122 362.313 42.1122C360.848 42.1122 359.349 42.0782 357.883 42.2485C355.43 42.5893 353.01 43.0664 350.523 43.1686C348.649 43.2367 346.809 43.1004 344.968 43.2708C343.639 43.4071 342.174 43.2708 340.845 43.6457C339.823 43.9523 338.869 43.9183 337.744 43.9183C336.177 43.9183 334.643 43.9183 333.076 43.9183C332.088 43.9183 331.202 44.1568 330.247 44.1909C329.327 44.1909 328.441 44.1909 327.521 44.1909H316.447C315.527 44.1909 314.504 44.3613 313.959 43.9183V43.8501Z" fill="black"/>
<path d="M449.72 43.8501C447.539 43.8501 445.358 43.8501 443.177 43.8501H439.906C438.918 43.8501 437.623 43.6457 436.669 43.9183C436.669 44.5317 436.123 44.668 435.783 45.0769C435.51 45.3836 435.237 45.8606 434.999 46.2014C434.181 47.4281 433.227 48.5186 432.443 49.7794C431.625 51.1084 430.637 52.3351 429.819 53.6982C427.979 56.765 426.173 59.9341 424.265 62.9328C423.481 64.1596 423.242 65.693 422.799 67.1242C422.561 67.9421 422.152 68.6577 421.811 69.4073C421.505 70.0889 421.368 70.8385 421.027 71.4519C420.244 72.7809 418.881 73.735 417.995 74.9958C417.313 75.9841 416.427 76.836 415.746 77.7901C414.928 75.6774 413.02 73.8373 411.827 71.929C411.35 71.1452 410.941 70.2933 410.464 69.4755C410.021 68.7258 409.373 68.0443 409.033 67.2605C408.556 66.2382 407.976 65.3182 407.193 64.4663C406.409 63.6144 405.659 62.7625 404.909 61.8424C404.228 60.9905 403.478 60.343 402.933 59.3889C402.388 58.4348 402.013 57.4806 401.4 56.5947C400.854 55.8109 400.411 55.0953 400.002 54.2775C399.491 53.2552 398.367 52.1988 397.617 51.3128C396.424 49.8476 395.164 48.4504 393.971 46.917C393.392 46.1673 392.846 45.588 392.131 44.9406C391.381 44.2931 391.245 44.1227 390.188 44.1227C388.417 44.1227 386.338 43.8161 384.6 44.1227C384.123 44.1909 383.782 44.4635 383.305 44.4635C382.862 44.4635 382.589 44.6339 382.249 44.702C381.397 44.9065 380.647 44.8724 379.863 45.0769C379.352 45.2132 379.318 45.1791 379.42 45.8266C379.523 46.474 380.034 47.0533 380.306 47.6326C380.579 48.1778 380.579 48.5186 380.783 49.0297C381.124 49.8816 381.499 50.495 381.703 51.4151C381.874 52.2329 382.078 52.7781 382.521 53.4596C382.964 54.1752 383.305 54.8908 383.782 55.6064C384.259 56.322 384.668 57.174 385.145 57.9236C386.133 59.5252 386.883 61.195 388.178 62.558C388.757 63.1714 389.337 63.7848 389.984 64.3641C390.563 64.9093 390.972 65.4545 391.517 66.0338C391.858 66.3746 392.301 66.4768 392.472 66.8857C392.574 67.1242 392.472 67.4991 392.472 67.7717C392.54 68.351 392.846 68.7599 393.119 69.237C394.414 71.5882 395.709 73.8713 396.901 76.2567C397.924 78.2672 399.185 79.8347 400.582 81.5726C400.718 81.743 400.65 81.9815 400.786 82.1519C400.923 82.3222 401.229 82.4586 401.4 82.6289C401.843 83.106 402.115 83.7535 402.49 84.2987C402.967 85.0484 403.137 85.9684 403.717 86.684C404.603 87.8085 405.182 89.0694 406.17 90.1257C406.715 90.705 407.397 91.0799 407.976 91.591C409.237 92.6814 408.862 94.2489 408.862 95.7824C408.862 97.7588 409.033 99.8034 408.624 101.746C408.487 102.359 408.624 102.938 408.556 103.552C408.487 104.336 408.215 104.983 408.215 105.767C408.215 106.38 408.044 106.653 407.908 107.232C407.806 107.709 407.908 108.22 407.908 108.697C407.908 109.924 407.601 111.049 407.567 112.309C407.567 113.434 407.227 114.456 407.227 115.581C407.227 116.569 407.227 117.557 407.227 118.545V121.646C407.227 122.6 407.022 123.793 407.227 124.713C408.01 124.952 409.033 124.884 409.85 125.02C410.6 125.122 411.282 125.088 412.031 125.088C413.088 125.088 414.28 124.952 415.337 125.156C415.712 125.224 415.916 125.429 416.393 125.395C416.836 125.395 417.279 125.395 417.688 125.395C418.54 125.395 419.426 125.429 420.244 125.395C420.823 122.873 419.971 119.977 419.937 117.421C419.937 114.933 419.937 112.48 419.937 109.992C419.937 107.3 419.596 104.676 419.596 101.984C419.596 98.304 419.119 94.1467 420.005 90.6369C420.142 90.1257 420.176 89.8531 420.244 89.342C420.312 88.6604 420.619 88.2856 421.027 87.7404C422.22 86.1047 423.89 84.912 425.049 83.2423C426.275 81.5044 427.298 79.6302 428.627 77.9264C429.24 77.1427 429.887 76.4952 430.569 75.7796C431.591 74.6892 432.307 73.3602 433.261 72.1675C434.419 70.6682 435.408 69.0325 436.362 67.3968C436.873 66.579 437.214 65.7271 437.657 64.8752C438.1 64.0233 438.781 63.4099 439.326 62.6602C440.178 61.5016 441.03 60.2408 441.746 58.98C442.291 58.0259 443.041 57.0717 443.518 56.0835C444.063 54.959 444.37 53.6982 444.779 52.5737C445.154 51.5514 445.801 50.6995 446.346 49.7794C446.823 49.0297 447.13 48.1097 447.573 47.3941C447.777 47.0192 448.05 46.7125 448.254 46.3377C448.493 45.8947 449.14 45.1791 449.822 43.7138L449.72 43.8501Z" fill="black"/>
<path d="M299.099 85.1506C299.167 83.549 298.895 82.0156 298.588 80.448C298.145 78.3353 297.702 76.0863 297.566 73.9054C297.464 72.1334 297.532 70.3615 297.532 68.5895C297.532 66.4768 297.395 64.33 297.6 62.2172C297.702 61.1949 297.804 60.1386 297.804 59.1163C297.804 57.0717 297.804 54.9931 297.804 52.9485C297.804 50.938 297.838 48.9275 298.009 46.9511C298.077 46.1332 298.656 44.1568 298.316 43.339C297.566 43.2367 296.748 43.339 295.998 43.339C295.249 43.339 294.363 43.2027 293.647 43.4071C293.17 43.5093 292.795 43.782 292.352 43.9864C291.841 44.1909 291.125 44.3613 290.58 44.4294C289.285 44.5998 288.024 44.1568 286.73 44.1568C286.287 44.1568 285.741 43.9864 285.537 44.3953C285.435 44.6339 285.537 45.2132 285.537 45.4517C285.537 46.1332 285.298 46.6444 285.264 47.2918C285.23 48.0074 285.401 48.7912 285.264 49.5068C285.196 49.8475 285.026 50.052 285.026 50.4268C285.026 50.7676 285.026 51.1424 285.026 51.4832V57.1058C285.026 57.6851 285.026 58.2644 285.026 58.8437C285.026 59.5593 284.787 60.1727 284.753 60.8883C284.651 62.5921 284.889 64.2618 284.549 65.9656C284.276 67.3287 284.481 68.8962 284.481 70.2933C284.481 71.963 284.481 73.5646 284.276 75.2344C284.14 76.2907 284.174 77.313 284.038 78.3694C283.901 79.3917 283.765 80.4821 283.697 81.5385C283.629 82.663 283.424 83.8216 283.288 84.9461C282.606 88.2856 283.186 92.6133 283.186 95.9528C283.186 97.861 283.117 99.7693 283.015 101.643C281.925 100.553 280.903 99.3604 279.914 98.2018C279.914 98.1677 279.914 98.1336 279.88 98.0655C279.539 96.975 278.176 96.055 277.461 95.169C276.132 93.5333 275.348 92.1703 274.189 90.3983C273.372 89.1716 272.043 87.6722 271.191 86.5136C270.85 86.0366 270.441 85.5936 270.066 85.1506C267.579 80.6866 266.284 75.95 263.217 71.5541C262.229 70.1229 260.559 67.1583 258.685 63.7166C258.685 63.1032 258.651 62.4898 258.31 61.9446C258.105 61.6379 257.765 61.3994 257.322 61.1609C253.948 54.8568 250.268 47.7689 248.666 45.2472C248.666 45.2472 248.666 44.5657 246.997 44.225C246.997 44.1568 246.997 44.0886 246.997 44.0205C246.485 43.8842 245.906 43.9183 245.293 43.9523V44.0546C244.271 44.0205 242.976 44.0546 241.272 44.225C240.761 44.2931 240.25 44.1568 239.738 44.225C238.921 44.3272 238.239 44.4976 237.387 44.4976C236.433 44.4976 235.445 44.4976 234.491 44.4976C233.775 44.4976 232.889 44.3613 232.208 44.5316C231.969 45.8606 232.208 47.4281 232.208 48.7912V56.7309C232.208 59.2867 231.935 61.7402 231.935 64.2959C231.935 72.2016 232.071 80.1073 231.935 88.0471C231.935 89.0012 231.662 89.9553 231.662 90.9095C231.662 91.8977 231.662 92.92 231.662 93.9082C231.662 94.5556 231.73 95.2031 231.662 95.8505C231.628 96.4639 231.39 97.0432 231.39 97.6566C231.322 99.633 231.39 101.643 231.39 103.654V113.604C231.39 115.478 231.424 117.353 231.628 119.227C231.833 120.999 231.901 122.703 231.901 124.509C232.276 124.236 233.128 124.1 233.741 124.236C233.979 124.304 234.014 124.475 234.252 124.509C234.593 124.577 234.968 124.611 235.308 124.713C236.467 125.02 237.592 125.02 238.852 125.02H241.578C242.158 125.02 243.487 125.258 243.896 124.713C244.134 124.372 243.896 123.35 243.896 122.941V120.999C243.896 119.465 243.793 117.864 243.896 116.33C243.93 115.547 244.305 114.797 244.134 114.013C243.93 112.991 243.725 112.037 243.521 110.98C243.248 109.822 243.044 108.663 242.907 107.505C242.839 105.971 242.839 104.472 242.873 102.938C242.873 101.235 242.873 99.5308 242.873 97.861V78.5398C242.873 76.393 242.805 74.2462 242.873 72.0994C242.942 69.4073 243.248 66.6812 243.589 63.9892C244.509 65.1478 245.531 66.8857 246.213 67.8057C246.622 68.351 247.031 68.9643 247.406 69.5436C248.189 72.2697 248.428 71.7927 250.336 74.5528C251.222 75.8477 253.233 79.528 254.05 80.6866C255.073 82.1519 255.277 83.3445 256.231 84.9461C257.39 86.8885 258.31 87.0588 259.843 88.5923C261.411 90.1257 261.07 92.6814 263.353 93.5333C263.115 96.4298 265.977 98.5766 267.34 100.621C267.919 101.473 269.794 103.654 270.373 104.472C271.293 105.733 272.213 107.062 273.167 108.357C273.372 108.629 273.576 108.902 273.746 109.174C273.883 109.481 274.019 109.754 274.121 110.06C274.667 111.798 276.677 115.444 277.699 116.978C278.722 118.511 279.165 118.988 280.323 120.42C281.175 121.476 282.231 122.975 283.663 123.043C284.31 123.043 284.889 123.043 285.469 123.18C286.048 123.316 286.593 123.18 287.173 123.282C287.513 123.35 287.752 123.52 288.093 123.555C288.399 123.555 288.706 123.555 289.013 123.555C289.728 123.555 290.41 123.555 291.125 123.691C292.284 123.929 293.477 123.827 294.635 124.066C295.623 124.236 296.85 124.577 297.838 124.304C298.043 123.112 297.838 121.68 297.838 120.488C297.838 119.704 297.838 118.92 297.838 118.136C297.838 117.216 298.111 116.399 298.111 115.478C298.111 113.945 298.111 112.378 298.111 110.844V107.607C298.111 106.21 298.281 103.961 298.384 102.564C298.486 101.541 298.452 100.519 298.554 99.4967C298.793 97.4521 298.622 95.3053 298.622 93.2607C298.622 91.6591 298.554 90.0916 298.758 88.49C298.895 87.4337 299.133 86.3773 299.167 85.321L299.099 85.1506Z" fill="black"/>
</svg>
