<?xml version="1.0" encoding="UTF-8"?>
<!-- Generated by Pixelmator Pro 3.8 -->
<svg width="617" height="712" viewBox="0 0 617 712" xmlns="http://www.w3.org/2000/svg">
    <g id="Banksia-copy">
        <g id="Group">
            <g id="g1" opacity="0.5">
                <path id="Path" fill="#F04E98" fill-rule="evenodd" stroke="none" d="M 193.06543 633.632568 L 231.334961 633.632568 L 231.334961 652.791748 L 193.06543 652.791748 L 193.06543 671.901855 L 173.955322 671.901855 L 173.955322 691.061279 L 116.526367 691.061279 L 116.526367 710.171387 L 20.877197 710.171387 L 20.877197 671.901855 L 39.987305 671.901855 L 39.987305 652.791748 L 78.256836 652.791748 L 78.256836 633.632568 L 116.526367 633.632568 L 116.526367 614.522461 L 193.06543 614.522461 L 193.06543 633.632568 Z M 59.146729 691.061279 L 97.41626 691.061279 L 97.41626 671.901855 L 59.146729 671.901855 L 59.146729 691.061279 Z"/>
            </g>
        </g>
        <g id="g2">
            <g id="g3" opacity="0.5">
                <path id="path1" fill="#F04E98" fill-rule="evenodd" stroke="none" d="M 614.010254 461.454346 L 594.85083 461.454346 L 594.85083 480.564453 L 575.740723 480.564453 L 575.740723 499.723877 L 556.581299 499.723877 L 556.581299 518.833984 L 537.471191 518.833984 L 537.471191 537.993164 L 499.20166 537.993164 L 499.20166 557.103271 L 480.052246 557.103271 L 480.052246 576.25293 L 460.932129 576.25293 L 460.932129 595.372803 L 441.782715 595.372803 L 441.782715 614.522461 L 499.20166 614.522461 L 499.20166 633.632568 L 537.471191 633.632568 L 537.471191 652.791748 L 518.311768 652.791748 L 518.311768 671.901855 L 537.471191 671.901855 L 537.471191 652.791748 L 575.740723 652.791748 L 575.740723 671.901855 L 594.85083 671.901855 L 594.85083 710.171387 L 499.20166 710.171387 L 499.20166 691.061279 L 441.782715 691.061279 L 441.782715 671.901855 L 403.513184 671.901855 L 403.513184 652.791748 L 384.403076 652.791748 L 384.403076 595.372803 L 403.513184 595.372803 L 403.513184 576.25293 L 441.782715 576.25293 L 441.782715 557.103271 L 422.672607 557.103271 L 422.672607 537.993164 L 441.782715 537.993164 L 441.782715 518.833984 L 460.932129 518.833984 L 460.932129 480.564453 L 480.052246 480.564453 L 480.052246 461.454346 L 499.20166 461.454346 L 499.20166 442.294922 L 518.311768 442.294922 L 518.311768 423.184814 L 537.471191 423.184814 L 537.471191 404.0354 L 556.581299 404.0354 L 556.581299 384.915283 L 614.010254 384.915283 L 614.010254 461.454346 Z M 537.471191 691.061279 L 556.581299 691.061279 L 556.581299 671.901855 L 537.471191 671.901855 L 537.471191 691.061279 Z M 575.740723 423.184814 L 556.581299 423.184814 L 556.581299 442.294922 L 575.740723 442.294922 L 575.740723 423.184814 L 594.85083 423.184814 L 594.85083 404.0354 L 575.740723 404.0354 L 575.740723 423.184814 Z"/>
            </g>
        </g>
        <g id="g4">
            <path id="path2" fill="#F04E98" stroke="none" opacity="0.5" d="M 326.974121 614.522461 L 365.243652 614.522461 L 365.243652 633.632568 L 326.974121 633.632568 L 326.974121 671.901855 L 307.864014 671.901855 L 307.864014 691.061279 L 288.753906 691.061279 L 288.753906 633.632568 L 307.864014 633.632568 L 307.864014 614.522461 L 288.753906 614.522461 L 288.753906 633.632568 L 250.484375 633.632568 L 250.484375 614.522461 L 288.753906 614.522461 L 288.753906 595.372803 L 326.974121 595.372803 L 326.974121 614.522461 Z"/>
        </g>
        <g id="g5">
            <path id="path3" fill="#F04E98" stroke="none" opacity="0.5" d="M 59.146729 404.0354 L 78.256836 404.0354 L 78.256836 442.294922 L 59.146729 442.294922 L 59.146729 423.184814 L 39.987305 423.184814 L 39.987305 442.294922 L 59.146729 442.294922 L 59.146729 461.454346 L 78.256836 461.454346 L 78.256836 442.294922 L 116.526367 442.294922 L 116.526367 461.454346 L 135.685791 461.454346 L 135.685791 499.723877 L 154.795898 499.723877 L 154.795898 537.993164 L 173.955322 537.993164 L 173.955322 557.103271 L 193.06543 557.103271 L 193.06543 576.25293 L 212.214844 576.25293 L 212.214844 595.372803 L 231.334961 595.372803 L 231.334961 614.522461 L 193.06543 614.522461 L 193.06543 595.372803 L 154.795898 595.372803 L 154.795898 576.25293 L 135.685791 576.25293 L 135.685791 557.103271 L 97.41626 557.103271 L 97.41626 537.993164 L 78.256836 537.993164 L 78.256836 518.833984 L 39.987305 518.833984 L 39.987305 480.564453 L 20.877197 480.564453 L 20.877197 461.454346 L 1.728027 461.454346 L 1.728027 384.915283 L 59.146729 384.915283 L 59.146729 404.0354 Z"/>
        </g>
        <g id="g6">
            <path id="path4" fill="#F04E98" stroke="none" opacity="0.5" d="M 288.753906 557.103271 L 307.864014 557.103271 L 307.864014 576.25293 L 269.594482 576.25293 L 269.594482 595.372803 L 250.484375 595.372803 L 250.484375 576.25293 L 231.334961 576.25293 L 231.334961 557.103271 L 269.594482 557.103271 L 269.594482 537.993164 L 288.753906 537.993164 L 288.753906 557.103271 Z"/>
        </g>
        <g id="g7">
            <path id="path5" fill="#F04E98" stroke="none" opacity="0.5" d="M 403.513184 576.25293 L 365.243652 576.25293 L 365.243652 595.372803 L 346.133545 595.372803 L 346.133545 576.25293 L 326.974121 576.25293 L 326.974121 557.103271 L 365.243652 557.103271 L 365.243652 537.993164 L 384.403076 537.993164 L 384.403076 518.833984 L 403.513184 518.833984 L 403.513184 576.25293 Z"/>
        </g>
        <g id="g8">
            <path id="path6" fill="#F04E98" stroke="none" opacity="0.5" d="M 212.214844 557.103271 L 193.06543 557.103271 L 193.06543 537.993164 L 212.214844 537.993164 L 212.214844 557.103271 Z"/>
        </g>
        <g id="g9">
            <path id="path7" fill="#F04E98" stroke="none" opacity="0.5" d="M 250.484375 499.723877 L 269.594482 499.723877 L 269.594482 518.833984 L 250.484375 518.833984 L 250.484375 537.993164 L 231.334961 537.993164 L 231.334961 518.833984 L 212.214844 518.833984 L 212.214844 499.723877 L 231.334961 499.723877 L 231.334961 480.564453 L 250.484375 480.564453 L 250.484375 499.723877 Z"/>
        </g>
        <g id="g10">
            <path id="path8" fill="#F04E98" stroke="none" opacity="0.5" d="M 326.974121 537.993164 L 288.753906 537.993164 L 288.753906 518.833984 L 326.974121 518.833984 L 326.974121 537.993164 Z"/>
        </g>
        <g id="g11">
            <path id="path9" fill="#F04E98" stroke="none" opacity="0.5" d="M 365.243652 537.993164 L 346.133545 537.993164 L 346.133545 518.833984 L 365.243652 518.833984 L 365.243652 537.993164 Z"/>
        </g>
        <g id="g12">
            <path id="path10" fill="#F04E98" stroke="none" opacity="0.5" d="M 193.06543 518.833984 L 173.955322 518.833984 L 173.955322 499.723877 L 193.06543 499.723877 L 193.06543 518.833984 Z"/>
        </g>
        <g id="g13">
            <path id="path11" fill="#F04E98" stroke="none" opacity="0.5" d="M 346.133545 518.833984 L 326.974121 518.833984 L 326.974121 499.723877 L 346.133545 499.723877 L 346.133545 518.833984 Z"/>
        </g>
        <g id="g14">
            <path id="path12" fill="#F04E98" stroke="none" opacity="0.5" d="M 384.403076 518.833984 L 365.243652 518.833984 L 365.243652 499.723877 L 384.403076 499.723877 L 384.403076 518.833984 Z"/>
        </g>
        <g id="g15">
            <path id="path13" fill="#F04E98" stroke="none" opacity="0.5" d="M 422.672607 518.833984 L 403.513184 518.833984 L 403.513184 499.723877 L 422.672607 499.723877 L 422.672607 518.833984 Z"/>
        </g>
        <g id="g16">
            <path id="path14" fill="#F04E98" stroke="none" opacity="0.5" d="M 212.214844 384.915283 L 231.334961 384.915283 L 231.334961 404.0354 L 212.214844 404.0354 L 212.214844 499.723877 L 193.06543 499.723877 L 193.06543 480.564453 L 173.955322 480.564453 L 173.955322 499.723877 L 154.795898 499.723877 L 154.795898 480.564453 L 173.955322 480.564453 L 173.955322 461.454346 L 154.795898 461.454346 L 154.795898 423.184814 L 173.955322 423.184814 L 173.955322 442.294922 L 193.06543 442.294922 L 193.06543 404.0354 L 173.955322 404.0354 L 173.955322 384.915283 L 193.06543 384.915283 L 193.06543 365.814941 L 212.214844 365.814941 L 212.214844 384.915283 Z"/>
        </g>
        <g id="g17">
            <path id="path15" fill="#F04E98" stroke="none" opacity="0.5" d="M 365.243652 461.454346 L 346.133545 461.454346 L 346.133545 480.564453 L 307.864014 480.564453 L 307.864014 499.723877 L 288.753906 499.723877 L 288.753906 461.454346 L 307.864014 461.454346 L 307.864014 442.294922 L 346.133545 442.294922 L 346.133545 423.184814 L 365.243652 423.184814 L 365.243652 461.454346 Z"/>
        </g>
        <g id="g18">
            <path id="path16" fill="#F04E98" stroke="none" opacity="0.5" d="M 403.513184 499.723877 L 384.403076 499.723877 L 384.403076 480.564453 L 403.513184 480.564453 L 403.513184 499.723877 Z"/>
        </g>
        <g id="g19">
            <path id="path17" fill="#F04E98" stroke="none" opacity="0.5" d="M 441.782715 499.723877 L 422.672607 499.723877 L 422.672607 480.564453 L 441.782715 480.564453 L 441.782715 499.723877 Z"/>
        </g>
        <g id="g20">
            <path id="path18" fill="#F04E98" stroke="none" opacity="0.5" d="M 269.594482 480.564453 L 250.484375 480.564453 L 250.484375 461.454346 L 269.594482 461.454346 L 269.594482 480.564453 Z"/>
        </g>
        <g id="g21">
            <path id="path19" fill="#F04E98" stroke="none" opacity="0.5" d="M 422.672607 480.564453 L 403.513184 480.564453 L 403.513184 461.454346 L 422.672607 461.454346 L 422.672607 480.564453 Z"/>
        </g>
        <g id="g22">
            <path id="path20" fill="#F04E98" stroke="none" opacity="0.5" d="M 460.932129 480.564453 L 441.782715 480.564453 L 441.782715 461.454346 L 460.932129 461.454346 L 460.932129 480.564453 Z"/>
        </g>
        <g id="g23">
            <path id="path21" fill="#F04E98" stroke="none" opacity="0.5" d="M 250.484375 461.454346 L 231.334961 461.454346 L 231.334961 442.294922 L 250.484375 442.294922 L 250.484375 461.454346 Z"/>
        </g>
        <g id="g24">
            <path id="path22" fill="#F04E98" stroke="none" opacity="0.5" d="M 403.513184 461.454346 L 384.403076 461.454346 L 384.403076 442.294922 L 403.513184 442.294922 L 403.513184 461.454346 Z"/>
        </g>
        <g id="g25">
            <path id="path23" fill="#F04E98" stroke="none" opacity="0.5" d="M 441.782715 461.454346 L 422.672607 461.454346 L 422.672607 442.294922 L 441.782715 442.294922 L 441.782715 461.454346 Z"/>
        </g>
        <g id="g26">
            <path id="path24" fill="#F04E98" stroke="none" opacity="0.5" d="M 269.594482 442.294922 L 250.484375 442.294922 L 250.484375 423.184814 L 269.594482 423.184814 L 269.594482 442.294922 Z"/>
        </g>
        <g id="g27">
            <path id="path25" fill="#F04E98" stroke="none" opacity="0.5" d="M 307.864014 442.294922 L 288.753906 442.294922 L 288.753906 423.184814 L 307.864014 423.184814 L 307.864014 442.294922 Z"/>
        </g>
        <g id="g28">
            <path id="path26" fill="#F04E98" stroke="none" opacity="0.5" d="M 422.672607 442.294922 L 403.513184 442.294922 L 403.513184 423.184814 L 422.672607 423.184814 L 422.672607 442.294922 Z"/>
        </g>
        <g id="g29">
            <path id="path27" fill="#F04E98" stroke="none" opacity="0.5" d="M 460.932129 442.294922 L 441.782715 442.294922 L 441.782715 423.184814 L 460.932129 423.184814 L 460.932129 442.294922 Z"/>
        </g>
        <g id="g30">
            <path id="path28" fill="#F04E98" stroke="none" opacity="0.5" d="M 154.795898 423.184814 L 135.685791 423.184814 L 135.685791 404.0354 L 154.795898 404.0354 L 154.795898 423.184814 Z"/>
        </g>
        <g id="g31">
            <path id="path29" fill="#F04E98" stroke="none" opacity="0.5" d="M 250.484375 423.184814 L 231.334961 423.184814 L 231.334961 404.0354 L 250.484375 404.0354 L 250.484375 423.184814 Z"/>
        </g>
        <g id="g32">
            <path id="path30" fill="#F04E98" stroke="none" opacity="0.5" d="M 346.133545 423.184814 L 307.864014 423.184814 L 307.864014 404.0354 L 346.133545 404.0354 L 346.133545 423.184814 Z"/>
        </g>
        <g id="g33">
            <path id="path31" fill="#F04E98" stroke="none" opacity="0.5" d="M 384.403076 423.184814 L 365.243652 423.184814 L 365.243652 384.915283 L 384.403076 384.915283 L 384.403076 423.184814 Z"/>
        </g>
        <g id="g34">
            <path id="path32" fill="#F04E98" stroke="none" opacity="0.5" d="M 441.782715 423.184814 L 422.672607 423.184814 L 422.672607 404.0354 L 441.782715 404.0354 L 441.782715 423.184814 Z"/>
        </g>
        <g id="g35">
            <path id="path33" fill="#F04E98" stroke="none" opacity="0.5" d="M 480.052246 423.184814 L 460.932129 423.184814 L 460.932129 404.0354 L 480.052246 404.0354 L 480.052246 423.184814 Z"/>
        </g>
        <g id="g36">
            <path id="path34" fill="#F04E98" stroke="none" opacity="0.5" d="M 269.594482 404.0354 L 250.484375 404.0354 L 250.484375 384.915283 L 269.594482 384.915283 L 269.594482 404.0354 Z"/>
        </g>
        <g id="g37">
            <path id="path35" fill="#F04E98" stroke="none" opacity="0.5" d="M 307.864014 346.655762 L 346.133545 346.655762 L 346.133545 384.915283 L 326.974121 384.915283 L 326.974121 365.814941 L 307.864014 365.814941 L 307.864014 404.0354 L 288.753906 404.0354 L 288.753906 327.535645 L 307.864014 327.535645 L 307.864014 346.655762 Z"/>
        </g>
        <g id="g38">
            <path id="path36" fill="#F04E98" stroke="none" opacity="0.5" d="M 422.672607 404.0354 L 403.513184 404.0354 L 403.513184 384.915283 L 422.672607 384.915283 L 422.672607 404.0354 Z"/>
        </g>
        <g id="g39">
            <path id="path37" fill="#F04E98" stroke="none" opacity="0.5" d="M 460.932129 404.0354 L 441.782715 404.0354 L 441.782715 384.915283 L 460.932129 384.915283 L 460.932129 404.0354 Z"/>
        </g>
        <g id="g40">
            <path id="path38" fill="#F04E98" stroke="none" opacity="0.5" d="M 173.955322 384.915283 L 154.795898 384.915283 L 154.795898 365.814941 L 173.955322 365.814941 L 173.955322 384.915283 Z"/>
        </g>
        <g id="g41">
            <path id="path39" fill="#F04E98" stroke="none" opacity="0.5" d="M 250.484375 384.915283 L 231.334961 384.915283 L 231.334961 365.814941 L 250.484375 365.814941 L 250.484375 384.915283 Z"/>
        </g>
        <g id="g42">
            <path id="path40" fill="#F04E98" stroke="none" opacity="0.5" d="M 441.782715 384.915283 L 422.672607 384.915283 L 422.672607 365.814941 L 441.782715 365.814941 L 441.782715 384.915283 Z"/>
        </g>
        <g id="g43">
            <path id="path41" fill="#F04E98" stroke="none" opacity="0.5" d="M 480.052246 384.915283 L 460.932129 384.915283 L 460.932129 365.814941 L 480.052246 365.814941 L 480.052246 384.915283 Z"/>
        </g>
        <g id="g44">
            <path id="path42" fill="#F04E98" stroke="none" opacity="0.5" d="M 231.334961 365.814941 L 212.214844 365.814941 L 212.214844 327.535645 L 231.334961 327.535645 L 231.334961 365.814941 Z"/>
        </g>
        <g id="g45">
            <path id="path43" fill="#F04E98" stroke="none" opacity="0.5" d="M 384.403076 365.814941 L 365.243652 365.814941 L 365.243652 346.655762 L 384.403076 346.655762 L 384.403076 365.814941 Z"/>
        </g>
        <g id="g46">
            <path id="path44" fill="#F04E98" stroke="none" opacity="0.5" d="M 422.672607 365.814941 L 403.513184 365.814941 L 403.513184 346.655762 L 422.672607 346.655762 L 422.672607 365.814941 Z"/>
        </g>
        <g id="g47">
            <path id="path45" fill="#F04E98" stroke="none" opacity="0.5" d="M 460.932129 365.814941 L 441.782715 365.814941 L 441.782715 346.655762 L 460.932129 346.655762 L 460.932129 365.814941 Z"/>
        </g>
        <g id="g48">
            <path id="path46" fill="#F04E98" stroke="none" opacity="0.5" d="M 193.06543 346.655762 L 173.955322 346.655762 L 173.955322 327.535645 L 193.06543 327.535645 L 193.06543 346.655762 Z"/>
        </g>
        <g id="g49">
            <path id="path47" fill="#F04E98" stroke="none" opacity="0.5" d="M 269.594482 346.655762 L 250.484375 346.655762 L 250.484375 327.535645 L 269.594482 327.535645 L 269.594482 346.655762 Z"/>
        </g>
        <g id="g50">
            <path id="path48" fill="#F04E98" stroke="none" opacity="0.5" d="M 441.782715 346.655762 L 422.672607 346.655762 L 422.672607 327.535645 L 441.782715 327.535645 L 441.782715 346.655762 Z"/>
        </g>
        <g id="g51">
            <path id="path49" fill="#F04E98" stroke="none" opacity="0.5" d="M 480.052246 346.655762 L 460.932129 346.655762 L 460.932129 327.535645 L 480.052246 327.535645 L 480.052246 346.655762 Z"/>
        </g>
        <g id="g52">
            <path id="path50" fill="#F04E98" stroke="none" opacity="0.5" d="M 173.955322 327.535645 L 154.795898 327.535645 L 154.795898 308.38623 L 173.955322 308.38623 L 173.955322 327.535645 Z"/>
        </g>
        <g id="g53">
            <path id="path51" fill="#F04E98" stroke="none" opacity="0.5" d="M 212.214844 327.535645 L 193.06543 327.535645 L 193.06543 308.38623 L 212.214844 308.38623 L 212.214844 327.535645 Z"/>
        </g>
        <g id="g54">
            <path id="path52" fill="#F04E98" stroke="none" opacity="0.5" d="M 250.484375 327.535645 L 231.334961 327.535645 L 231.334961 308.38623 L 250.484375 308.38623 L 250.484375 327.535645 Z"/>
        </g>
        <g id="g55">
            <path id="path53" fill="#F04E98" stroke="none" opacity="0.5" d="M 326.974121 289.275879 L 346.133545 289.275879 L 346.133545 308.38623 L 326.974121 308.38623 L 326.974121 327.535645 L 307.864014 327.535645 L 307.864014 308.38623 L 288.753906 308.38623 L 288.753906 289.275879 L 307.864014 289.275879 L 307.864014 270.116699 L 326.974121 270.116699 L 326.974121 289.275879 Z"/>
        </g>
        <g id="g56">
            <path id="path54" fill="#F04E98" stroke="none" opacity="0.5" d="M 384.403076 327.535645 L 346.133545 327.535645 L 346.133545 308.38623 L 365.243652 308.38623 L 365.243652 289.275879 L 384.403076 289.275879 L 384.403076 327.535645 Z"/>
        </g>
        <g id="g57">
            <path id="path55" fill="#F04E98" stroke="none" opacity="0.5" d="M 422.672607 327.535645 L 403.513184 327.535645 L 403.513184 308.38623 L 422.672607 308.38623 L 422.672607 327.535645 Z"/>
        </g>
        <g id="g58">
            <path id="path56" fill="#F04E98" stroke="none" opacity="0.5" d="M 460.932129 327.535645 L 441.782715 327.535645 L 441.782715 308.38623 L 460.932129 308.38623 L 460.932129 327.535645 Z"/>
        </g>
        <g id="g59">
            <path id="path57" fill="#F04E98" stroke="none" opacity="0.5" d="M 154.795898 289.275879 L 154.795898 308.38623 L 135.685791 308.38623 L 135.685791 289.275879 L 154.795898 289.275879 Z"/>
        </g>
        <g id="g60">
            <path id="path58" fill="#F04E98" stroke="none" opacity="0.5" d="M 193.06543 308.38623 L 173.955322 308.38623 L 173.955322 289.275879 L 193.06543 289.275879 L 193.06543 308.38623 Z"/>
        </g>
        <g id="g61">
            <path id="path59" fill="#F04E98" stroke="none" opacity="0.5" d="M 231.334961 308.38623 L 212.214844 308.38623 L 212.214844 289.275879 L 231.334961 289.275879 L 231.334961 308.38623 Z"/>
        </g>
        <g id="g62">
            <path id="path60" fill="#F04E98" stroke="none" opacity="0.5" d="M 269.594482 308.38623 L 250.484375 308.38623 L 250.484375 289.275879 L 269.594482 289.275879 L 269.594482 308.38623 Z"/>
        </g>
        <g id="g63">
            <path id="path61" fill="#F04E98" stroke="none" opacity="0.5" d="M 441.782715 308.38623 L 422.672607 308.38623 L 422.672607 289.275879 L 441.782715 289.275879 L 441.782715 308.38623 Z"/>
        </g>
        <g id="g64">
            <path id="path62" fill="#F04E98" stroke="none" opacity="0.5" d="M 480.052246 308.38623 L 460.932129 308.38623 L 460.932129 289.275879 L 480.052246 289.275879 L 480.052246 308.38623 Z"/>
        </g>
        <g id="g65">
            <path id="path63" fill="#F04E98" stroke="none" opacity="0.5" d="M 173.955322 289.275879 L 154.795898 289.275879 L 154.795898 270.116699 L 173.955322 270.116699 L 173.955322 289.275879 Z"/>
        </g>
        <g id="g66">
            <path id="path64" fill="#F04E98" stroke="none" opacity="0.5" d="M 212.214844 289.275879 L 193.06543 289.275879 L 193.06543 270.116699 L 212.214844 270.116699 L 212.214844 289.275879 Z"/>
        </g>
        <g id="g67">
            <path id="path65" fill="#F04E98" stroke="none" opacity="0.5" d="M 250.484375 289.275879 L 231.334961 289.275879 L 231.334961 270.116699 L 250.484375 270.116699 L 250.484375 289.275879 Z"/>
        </g>
        <g id="g68">
            <path id="path66" fill="#F04E98" stroke="none" opacity="0.5" d="M 365.243652 289.275879 L 346.133545 289.275879 L 346.133545 270.116699 L 365.243652 270.116699 L 365.243652 289.275879 Z"/>
        </g>
        <g id="g69">
            <path id="path67" fill="#F04E98" stroke="none" opacity="0.5" d="M 422.672607 289.275879 L 403.513184 289.275879 L 403.513184 270.116699 L 422.672607 270.116699 L 422.672607 289.275879 Z"/>
        </g>
        <g id="g70">
            <path id="path68" fill="#F04E98" stroke="none" opacity="0.5" d="M 460.932129 289.275879 L 441.782715 289.275879 L 441.782715 270.116699 L 460.932129 270.116699 L 460.932129 289.275879 Z"/>
        </g>
        <g id="g71">
            <path id="path69" fill="#F04E98" stroke="none" opacity="0.5" d="M 193.06543 270.116699 L 173.955322 270.116699 L 173.955322 251.006592 L 193.06543 251.006592 L 193.06543 270.116699 Z"/>
        </g>
        <g id="g72">
            <path id="path70" fill="#F04E98" stroke="none" opacity="0.5" d="M 231.334961 270.116699 L 212.214844 270.116699 L 212.214844 251.006592 L 231.334961 251.006592 L 231.334961 270.116699 Z"/>
        </g>
        <g id="g73">
            <path id="path71" fill="#F04E98" stroke="none" opacity="0.5" d="M 269.594482 270.116699 L 250.484375 270.116699 L 250.484375 251.006592 L 269.594482 251.006592 L 269.594482 270.116699 Z"/>
        </g>
        <g id="g74">
            <path id="path72" fill="#F04E98" stroke="none" opacity="0.5" d="M 326.974121 251.006592 L 307.864014 251.006592 L 307.864014 270.116699 L 288.753906 270.116699 L 288.753906 231.847168 L 326.974121 231.847168 L 326.974121 251.006592 Z"/>
        </g>
        <g id="g75">
            <path id="path73" fill="#F04E98" stroke="none" opacity="0.5" d="M 346.133545 270.116699 L 326.974121 270.116699 L 326.974121 251.006592 L 346.133545 251.006592 L 346.133545 270.116699 Z"/>
        </g>
        <g id="g76">
            <path id="path74" fill="#F04E98" stroke="none" opacity="0.5" d="M 384.403076 270.116699 L 365.243652 270.116699 L 365.243652 251.006592 L 384.403076 251.006592 L 384.403076 270.116699 Z"/>
        </g>
        <g id="g77">
            <path id="path75" fill="#F04E98" stroke="none" opacity="0.5" d="M 441.782715 270.116699 L 422.672607 270.116699 L 422.672607 251.006592 L 441.782715 251.006592 L 441.782715 270.116699 Z"/>
        </g>
        <g id="g78">
            <path id="path76" fill="#F04E98" stroke="none" opacity="0.5" d="M 173.955322 251.006592 L 154.795898 251.006592 L 154.795898 231.847168 L 173.955322 231.847168 L 173.955322 251.006592 Z"/>
        </g>
        <g id="g79">
            <path id="path77" fill="#F04E98" stroke="none" opacity="0.5" d="M 212.214844 251.006592 L 193.06543 251.006592 L 193.06543 231.847168 L 212.214844 231.847168 L 212.214844 251.006592 Z"/>
        </g>
        <g id="g80">
            <path id="path78" fill="#F04E98" stroke="none" opacity="0.5" d="M 250.484375 251.006592 L 231.334961 251.006592 L 231.334961 212.737061 L 250.484375 212.737061 L 250.484375 251.006592 Z"/>
        </g>
        <g id="g81">
            <path id="path79" fill="#F04E98" stroke="none" opacity="0.5" d="M 403.513184 251.006592 L 384.403076 251.006592 L 384.403076 231.847168 L 403.513184 231.847168 L 403.513184 251.006592 Z"/>
        </g>
        <g id="g82">
            <path id="path80" fill="#F04E98" stroke="none" opacity="0.5" d="M 460.932129 251.006592 L 441.782715 251.006592 L 441.782715 231.847168 L 460.932129 231.847168 L 460.932129 251.006592 Z"/>
        </g>
        <g id="g83">
            <path id="path81" fill="#F04E98" stroke="none" opacity="0.5" d="M 193.06543 231.847168 L 173.955322 231.847168 L 173.955322 212.737061 L 193.06543 212.737061 L 193.06543 231.847168 Z"/>
        </g>
        <g id="g84">
            <path id="path82" fill="#F04E98" stroke="none" opacity="0.5" d="M 288.753906 231.847168 L 269.594482 231.847168 L 269.594482 212.737061 L 288.753906 212.737061 L 288.753906 231.847168 Z"/>
        </g>
        <g id="g85">
            <path id="path83" fill="#F04E98" stroke="none" opacity="0.5" d="M 384.403076 231.847168 L 346.133545 231.847168 L 346.133545 212.737061 L 384.403076 212.737061 L 384.403076 231.847168 Z"/>
        </g>
        <g id="g86">
            <path id="path84" fill="#F04E98" stroke="none" opacity="0.5" d="M 422.672607 231.847168 L 403.513184 231.847168 L 403.513184 212.737061 L 422.672607 212.737061 L 422.672607 231.847168 Z"/>
        </g>
        <g id="g87">
            <path id="path85" fill="#F04E98" stroke="none" opacity="0.5" d="M 480.052246 231.847168 L 460.932129 231.847168 L 460.932129 212.737061 L 480.052246 212.737061 L 480.052246 231.847168 Z"/>
        </g>
        <g id="g88">
            <path id="path86" fill="#F04E98" stroke="none" opacity="0.5" d="M 173.955322 212.737061 L 154.795898 212.737061 L 154.795898 193.587402 L 173.955322 193.587402 L 173.955322 212.737061 Z"/>
        </g>
        <g id="g89">
            <path id="path87" fill="#F04E98" stroke="none" opacity="0.5" d="M 231.334961 212.737061 L 212.214844 212.737061 L 212.214844 193.587402 L 231.334961 193.587402 L 231.334961 212.737061 Z"/>
        </g>
        <g id="g90">
            <path id="path88" fill="#F04E98" stroke="none" opacity="0.5" d="M 269.594482 212.737061 L 250.484375 212.737061 L 250.484375 193.587402 L 269.594482 193.587402 L 269.594482 212.737061 Z"/>
        </g>
        <g id="g91">
            <path id="path89" fill="#F04E98" stroke="none" opacity="0.5" d="M 307.864014 212.737061 L 288.753906 212.737061 L 288.753906 193.587402 L 307.864014 193.587402 L 307.864014 212.737061 Z"/>
        </g>
        <g id="g92">
            <path id="path90" fill="#F04E98" stroke="none" opacity="0.5" d="M 346.133545 212.737061 L 326.974121 212.737061 L 326.974121 193.587402 L 346.133545 193.587402 L 346.133545 212.737061 Z"/>
        </g>
        <g id="g93">
            <path id="path91" fill="#F04E98" stroke="none" opacity="0.5" d="M 403.513184 212.737061 L 384.403076 212.737061 L 384.403076 193.587402 L 403.513184 193.587402 L 403.513184 212.737061 Z"/>
        </g>
        <g id="g94">
            <path id="path92" fill="#F04E98" stroke="none" opacity="0.5" d="M 441.782715 212.737061 L 422.672607 212.737061 L 422.672607 193.587402 L 441.782715 193.587402 L 441.782715 212.737061 Z"/>
        </g>
        <g id="g95">
            <path id="path93" fill="#F04E98" stroke="none" opacity="0.5" d="M 212.214844 193.587402 L 193.06543 193.587402 L 193.06543 174.467529 L 212.214844 174.467529 L 212.214844 193.587402 Z"/>
        </g>
        <g id="g96">
            <path id="path94" fill="#F04E98" stroke="none" opacity="0.5" d="M 288.753906 193.587402 L 269.594482 193.587402 L 269.594482 174.467529 L 288.753906 174.467529 L 288.753906 193.587402 Z"/>
        </g>
        <g id="g97">
            <path id="path95" fill="#F04E98" stroke="none" opacity="0.5" d="M 384.403076 193.587402 L 346.133545 193.587402 L 346.133545 174.467529 L 384.403076 174.467529 L 384.403076 193.587402 Z"/>
        </g>
        <g id="g98">
            <path id="path96" fill="#F04E98" stroke="none" opacity="0.5" d="M 422.672607 193.587402 L 403.513184 193.587402 L 403.513184 174.467529 L 422.672607 174.467529 L 422.672607 193.587402 Z"/>
        </g>
        <g id="g99">
            <path id="path97" fill="#F04E98" stroke="none" opacity="0.5" d="M 460.932129 193.587402 L 441.782715 193.587402 L 441.782715 174.467529 L 460.932129 174.467529 L 460.932129 193.587402 Z"/>
        </g>
        <g id="g100">
            <path id="path98" fill="#F04E98" stroke="none" opacity="0.5" d="M 193.06543 174.467529 L 173.955322 174.467529 L 173.955322 155.318115 L 193.06543 155.318115 L 193.06543 174.467529 Z"/>
        </g>
        <g id="g101">
            <path id="path99" fill="#F04E98" stroke="none" opacity="0.5" d="M 231.334961 174.467529 L 212.214844 174.467529 L 212.214844 155.318115 L 231.334961 155.318115 L 231.334961 174.467529 Z"/>
        </g>
        <g id="g102">
            <path id="path100" fill="#F04E98" stroke="none" opacity="0.5" d="M 269.594482 174.467529 L 250.484375 174.467529 L 250.484375 155.318115 L 269.594482 155.318115 L 269.594482 174.467529 Z"/>
        </g>
        <g id="g103">
            <path id="path101" fill="#F04E98" stroke="none" opacity="0.5" d="M 307.864014 155.318115 L 326.974121 155.318115 L 326.974121 136.208008 L 346.133545 136.208008 L 346.133545 174.467529 L 288.753906 174.467529 L 288.753906 136.208008 L 307.864014 136.208008 L 307.864014 155.318115 Z"/>
        </g>
        <g id="g104">
            <path id="path102" fill="#F04E98" stroke="none" opacity="0.5" d="M 403.513184 174.467529 L 384.403076 174.467529 L 384.403076 155.318115 L 403.513184 155.318115 L 403.513184 174.467529 Z"/>
        </g>
        <g id="g105">
            <path id="path103" fill="#F04E98" stroke="none" opacity="0.5" d="M 441.782715 174.467529 L 422.672607 174.467529 L 422.672607 155.318115 L 441.782715 155.318115 L 441.782715 174.467529 Z"/>
        </g>
        <g id="g106">
            <path id="path104" fill="#F04E98" stroke="none" opacity="0.5" d="M 212.214844 155.318115 L 193.06543 155.318115 L 193.06543 136.208008 L 212.214844 136.208008 L 212.214844 155.318115 Z"/>
        </g>
        <g id="g107">
            <path id="path105" fill="#F04E98" stroke="none" opacity="0.5" d="M 250.484375 155.318115 L 231.334961 155.318115 L 231.334961 136.208008 L 250.484375 136.208008 L 250.484375 155.318115 Z"/>
        </g>
        <g id="g108">
            <path id="path106" fill="#F04E98" stroke="none" opacity="0.5" d="M 384.403076 155.318115 L 365.243652 155.318115 L 365.243652 136.208008 L 384.403076 136.208008 L 384.403076 155.318115 Z"/>
        </g>
        <g id="g109">
            <path id="path107" fill="#F04E98" stroke="none" opacity="0.5" d="M 422.672607 155.318115 L 403.513184 155.318115 L 403.513184 136.208008 L 422.672607 136.208008 L 422.672607 155.318115 Z"/>
        </g>
        <g id="g110">
            <path id="path108" fill="#F04E98" stroke="none" opacity="0.5" d="M 460.932129 155.318115 L 441.782715 155.318115 L 441.782715 136.208008 L 460.932129 136.208008 L 460.932129 155.318115 Z"/>
        </g>
        <g id="g111">
            <path id="path109" fill="#F04E98" stroke="none" opacity="0.5" d="M 193.06543 136.208008 L 173.955322 136.208008 L 173.955322 117.048584 L 193.06543 117.048584 L 193.06543 136.208008 Z"/>
        </g>
        <g id="g112">
            <path id="path110" fill="#F04E98" stroke="none" opacity="0.5" d="M 231.334961 136.208008 L 212.214844 136.208008 L 212.214844 97.928711 L 231.334961 97.928711 L 231.334961 136.208008 Z"/>
        </g>
        <g id="g113">
            <path id="path111" fill="#F04E98" stroke="none" opacity="0.5" d="M 288.753906 136.208008 L 269.594482 136.208008 L 269.594482 117.048584 L 288.753906 117.048584 L 288.753906 136.208008 Z"/>
        </g>
        <g id="g114">
            <path id="path112" fill="#F04E98" stroke="none" opacity="0.5" d="M 326.974121 136.208008 L 307.864014 136.208008 L 307.864014 117.048584 L 326.974121 117.048584 L 326.974121 136.208008 Z"/>
        </g>
        <g id="g115">
            <path id="path113" fill="#F04E98" stroke="none" opacity="0.5" d="M 365.243652 136.208008 L 346.133545 136.208008 L 346.133545 117.048584 L 365.243652 117.048584 L 365.243652 136.208008 Z"/>
        </g>
        <g id="g116">
            <path id="path114" fill="#F04E98" stroke="none" opacity="0.5" d="M 403.513184 136.208008 L 384.403076 136.208008 L 384.403076 117.048584 L 403.513184 117.048584 L 403.513184 136.208008 Z"/>
        </g>
        <g id="g117">
            <path id="path115" fill="#F04E98" stroke="none" opacity="0.5" d="M 441.782715 136.208008 L 422.672607 136.208008 L 422.672607 117.048584 L 441.782715 117.048584 L 441.782715 136.208008 Z"/>
        </g>
        <g id="g118">
            <path id="path116" fill="#F04E98" stroke="none" opacity="0.5" d="M 173.955322 117.048584 L 154.795898 117.048584 L 154.795898 97.928711 L 173.955322 97.928711 L 173.955322 117.048584 Z"/>
        </g>
        <g id="g119">
            <path id="path117" fill="#F04E98" stroke="none" opacity="0.5" d="M 307.864014 117.048584 L 288.753906 117.048584 L 288.753906 97.928711 L 269.594482 97.928711 L 269.594482 117.048584 L 250.484375 117.048584 L 250.484375 97.928711 L 269.594482 97.928711 L 269.594482 78.779053 L 288.753906 78.779053 L 288.753906 59.667969 L 307.864014 59.667969 L 307.864014 117.048584 Z"/>
        </g>
        <g id="g120">
            <path id="path118" fill="#F04E98" stroke="none" opacity="0.5" d="M 346.133545 117.048584 L 326.974121 117.048584 L 326.974121 78.779053 L 346.133545 78.779053 L 346.133545 117.048584 Z"/>
        </g>
        <g id="g121">
            <path id="path119" fill="#F04E98" stroke="none" opacity="0.5" d="M 422.672607 117.048584 L 403.513184 117.048584 L 403.513184 97.928711 L 422.672607 97.928711 L 422.672607 117.048584 Z"/>
        </g>
        <g id="g122">
            <path id="path120" fill="#F04E98" stroke="none" opacity="0.5" d="M 460.932129 117.048584 L 441.782715 117.048584 L 441.782715 97.928711 L 460.932129 97.928711 L 460.932129 117.048584 Z"/>
        </g>
        <g id="g123">
            <path id="path121" fill="#F04E98" stroke="none" opacity="0.5" d="M 212.214844 97.928711 L 193.06543 97.928711 L 193.06543 78.779053 L 212.214844 78.779053 L 212.214844 97.928711 Z"/>
        </g>
        <g id="g124">
            <path id="path122" fill="#F04E98" stroke="none" opacity="0.5" d="M 250.484375 97.928711 L 231.334961 97.928711 L 231.334961 78.779053 L 250.484375 78.779053 L 250.484375 97.928711 Z"/>
        </g>
        <g id="g125">
            <path id="path123" fill="#F04E98" stroke="none" opacity="0.5" d="M 384.403076 97.928711 L 365.243652 97.928711 L 365.243652 78.779053 L 384.403076 78.779053 L 384.403076 97.928711 Z"/>
        </g>
        <g id="g126">
            <path id="path124" fill="#F04E98" stroke="none" opacity="0.5" d="M 441.782715 97.928711 L 422.672607 97.928711 L 422.672607 78.779053 L 441.782715 78.779053 L 441.782715 97.928711 Z"/>
        </g>
        <g id="g127">
            <path id="path125" fill="#F04E98" stroke="none" opacity="0.5" d="M 193.06543 78.779053 L 173.955322 78.779053 L 173.955322 59.667969 L 193.06543 59.667969 L 193.06543 78.779053 Z"/>
        </g>
        <g id="g128">
            <path id="path126" fill="#F04E98" stroke="none" opacity="0.5" d="M 231.334961 78.779053 L 212.214844 78.779053 L 212.214844 59.667969 L 231.334961 59.667969 L 231.334961 78.779053 Z"/>
        </g>
        <g id="g129">
            <path id="path127" fill="#F04E98" stroke="none" opacity="0.5" d="M 269.594482 78.779053 L 250.484375 78.779053 L 250.484375 59.667969 L 269.594482 59.667969 L 269.594482 78.779053 Z"/>
        </g>
        <g id="g130">
            <path id="path128" fill="#F04E98" stroke="none" opacity="0.5" d="M 365.243652 78.779053 L 346.133545 78.779053 L 346.133545 59.667969 L 365.243652 59.667969 L 365.243652 78.779053 Z"/>
        </g>
        <g id="g131">
            <path id="path129" fill="#F04E98" stroke="none" opacity="0.5" d="M 422.672607 59.667969 L 403.513184 59.667969 L 403.513184 78.779053 L 384.403076 78.779053 L 384.403076 40.511475 L 422.672607 40.511475 L 422.672607 59.667969 Z"/>
        </g>
        <g id="g132">
            <path id="path130" fill="#F04E98" stroke="none" opacity="0.5" d="M 460.932129 78.779053 L 441.782715 78.779053 L 441.782715 59.667969 L 460.932129 59.667969 L 460.932129 78.779053 Z"/>
        </g>
        <g id="g133">
            <path id="path131" fill="#F04E98" stroke="none" opacity="0.5" d="M 250.484375 59.667969 L 231.334961 59.667969 L 231.334961 40.511475 L 250.484375 40.511475 L 250.484375 59.667969 Z"/>
        </g>
        <g id="g134">
            <path id="path132" fill="#F04E98" stroke="none" opacity="0.5" d="M 326.974121 40.511475 L 346.133545 40.511475 L 346.133545 59.667969 L 307.864014 59.667969 L 307.864014 2.28833 L 326.974121 2.28833 L 326.974121 40.511475 Z"/>
        </g>
        <g id="g135">
            <path id="path133" fill="#F04E98" stroke="none" opacity="0.5" d="M 231.334961 40.511475 L 212.214844 40.511475 L 212.214844 21.401367 L 231.334961 21.401367 L 231.334961 40.511475 Z"/>
        </g>
        <g id="g136">
            <path id="path134" fill="#F04E98" stroke="none" opacity="0.5" d="M 288.753906 40.511475 L 269.594482 40.511475 L 269.594482 21.401367 L 288.753906 21.401367 L 288.753906 40.511475 Z"/>
        </g>
        <g id="g137">
            <path id="path135" fill="#F04E98" stroke="none" opacity="0.5" d="M 365.243652 40.511475 L 346.133545 40.511475 L 346.133545 21.401367 L 365.243652 21.401367 L 365.243652 40.511475 Z"/>
        </g>
        <g id="g138">
            <path id="path136" fill="#F04E98" stroke="none" opacity="0.5" d="M 441.782715 40.511475 L 422.672607 40.511475 L 422.672607 21.401367 L 441.782715 21.401367 L 441.782715 40.511475 Z"/>
        </g>
        <g id="g139">
            <path id="path137" fill="#F04E98" stroke="none" opacity="0.5" d="M 269.594482 21.401367 L 250.484375 21.401367 L 250.484375 2.28833 L 269.594482 2.28833 L 269.594482 21.401367 Z"/>
        </g>
        <g id="g140">
            <path id="path138" fill="#F04E98" stroke="none" opacity="0.5" d="M 384.403076 21.401367 L 365.243652 21.401367 L 365.243652 2.28833 L 384.403076 2.28833 L 384.403076 21.401367 Z"/>
        </g>
    </g>
</svg>
