<svg height="712" viewBox="0 0 617 712" width="617" xmlns="http://www.w3.org/2000/svg"><g fill="#f04e98"><path d="m193.06543 633.632568h38.269531v19.15918h-38.269531v19.110107h-19.110108v19.159424h-57.428955v19.110108h-95.64917v-38.269532h19.110108v-19.110107h38.269531v-19.15918h38.269531v-19.110107h76.539063zm-133.918701 57.428711h38.269531v-19.159424h-38.269531z" fill-rule="evenodd" opacity=".5"/><path d="m614.010254 461.454346h-19.159424v19.110107h-19.110107v19.159424h-19.159424v19.110107h-19.110108v19.15918h-38.269531v19.110107h-19.149414v19.149659h-19.120117v19.119873h-19.149414v19.149658h57.418945v19.110107h38.269531v19.15918h-19.159423v19.110107h19.159423v-19.110107h38.269532v19.110107h19.110107v38.269532h-95.64917v-19.110108h-57.418945v-19.159424h-38.269531v-19.110107h-19.110108v-57.418945h19.110108v-19.119873h38.269531v-19.149659h-19.110108v-19.110107h19.110108v-19.15918h19.149414v-38.269531h19.120117v-19.110107h19.149414v-19.159424h19.110108v-19.110108h19.159423v-19.149414h19.110108v-19.120117h57.428955zm-76.539063 229.606933h19.110108v-19.159424h-19.110108zm38.269532-267.876465h-19.159424v19.110108h19.159424v-19.110108h19.110107v-19.149414h-19.110107z" fill-rule="evenodd" opacity=".5"/><path d="m326.974121 614.522461h38.269531v19.110107h-38.269531v38.269287h-19.110107v19.159424h-19.110108v-57.428711h19.110108v-19.110107h-19.110108v19.110107h-38.269531v-19.110107h38.269531v-19.149658h38.220215z" opacity=".5"/><path d="m59.146729 404.0354h19.110107v38.259522h-19.110107v-19.110108h-19.159424v19.110108h19.159424v19.159424h19.110107v-19.159424h38.269531v19.159424h19.159424v38.269531h19.110107v38.269287h19.159424v19.110107h19.110108v19.149659h19.149414v19.119873h19.120117v19.149658h-38.269531v-19.149658h-38.269532v-19.119873h-19.110107v-19.149659h-38.269531v-19.110107h-19.159424v-19.15918h-38.269531v-38.269531h-19.110108v-19.110107h-19.14917v-76.539063h57.418702z" opacity=".5"/><path d="m288.753906 557.103271h19.110108v19.149659h-38.269532v19.119873h-19.110107v-19.119873h-19.149414v-19.149659h38.259521v-19.110107h19.159424z" opacity=".5"/><path d="m403.513184 576.25293h-38.269532v19.119873h-19.110107v-19.119873h-19.159424v-19.149659h38.269531v-19.110107h19.159424v-19.15918h19.110108z" opacity=".5"/><path d="m212.214844 557.103271h-19.149414v-19.110107h19.149414z" opacity=".5"/><path d="m250.484375 499.723877h19.110107v19.110107h-19.110107v19.15918h-19.149414v-19.15918h-19.120117v-19.110107h19.120117v-19.159424h19.149414z" opacity=".5"/><path d="m326.974121 537.993164h-38.220215v-19.15918h38.220215z" opacity=".5"/><path d="m365.243652 537.993164h-19.110107v-19.15918h19.110107z" opacity=".5"/><path d="m193.06543 518.833984h-19.110108v-19.110107h19.110108z" opacity=".5"/><path d="m346.133545 518.833984h-19.159424v-19.110107h19.159424z" opacity=".5"/><path d="m384.403076 518.833984h-19.159424v-19.110107h19.159424z" opacity=".5"/><path d="m422.672607 518.833984h-19.159423v-19.110107h19.159423z" opacity=".5"/><path d="m212.214844 384.915283h19.120117v19.120117h-19.120117v95.688477h-19.149414v-19.159424h-19.110108v19.159424h-19.159424v-19.159424h19.159424v-19.110107h-19.159424v-38.269532h19.159424v19.110108h19.110108v-38.259522h-19.110108v-19.120117h19.110108v-19.100342h19.149414z" opacity=".5"/><path d="m365.243652 461.454346h-19.110107v19.110107h-38.269531v19.159424h-19.110108v-38.269531h19.110108v-19.159424h38.269531v-19.110108h19.110107z" opacity=".5"/><path d="m403.513184 499.723877h-19.110108v-19.159424h19.110108z" opacity=".5"/><path d="m441.782715 499.723877h-19.110108v-19.159424h19.110108z" opacity=".5"/><path d="m269.594482 480.564453h-19.110107v-19.110107h19.110107z" opacity=".5"/><path d="m422.672607 480.564453h-19.159423v-19.110107h19.159423z" opacity=".5"/><path d="m460.932129 480.564453h-19.149414v-19.110107h19.149414z" opacity=".5"/><path d="m250.484375 461.454346h-19.149414v-19.159424h19.149414z" opacity=".5"/><path d="m403.513184 461.454346h-19.110108v-19.159424h19.110108z" opacity=".5"/><path d="m441.782715 461.454346h-19.110108v-19.159424h19.110108z" opacity=".5"/><path d="m269.594482 442.294922h-19.110107v-19.110108h19.110107z" opacity=".5"/><path d="m307.864014 442.294922h-19.110108v-19.110108h19.110108z" opacity=".5"/><path d="m422.672607 442.294922h-19.159423v-19.110108h19.159423z" opacity=".5"/><path d="m460.932129 442.294922h-19.149414v-19.110108h19.149414z" opacity=".5"/><path d="m154.795898 423.184814h-19.110107v-19.149414h19.110107z" opacity=".5"/><path d="m250.484375 423.184814h-19.149414v-19.149414h19.149414z" opacity=".5"/><path d="m346.133545 423.184814h-38.269531v-19.149414h38.269531z" opacity=".5"/><path d="m384.403076 423.184814h-19.159424v-38.269531h19.159424z" opacity=".5"/><path d="m441.782715 423.184814h-19.110108v-19.149414h19.110108z" opacity=".5"/><path d="m480.052246 423.184814h-19.120117v-19.149414h19.120117z" opacity=".5"/><path d="m269.594482 404.0354h-19.110107v-19.120117h19.110107z" opacity=".5"/><path d="m307.864014 346.655762h38.269531v38.259521h-19.159424v-19.100342h-19.110107v38.220459h-19.110108v-76.499755h19.110108z" opacity=".5"/><path d="m422.672607 404.0354h-19.159423v-19.120117h19.159423z" opacity=".5"/><path d="m460.932129 404.0354h-19.149414v-19.120117h19.149414z" opacity=".5"/><path d="m173.955322 384.915283h-19.159424v-19.100342h19.159424z" opacity=".5"/><path d="m250.484375 384.915283h-19.149414v-19.100342h19.149414z" opacity=".5"/><path d="m441.782715 384.915283h-19.110108v-19.100342h19.110108z" opacity=".5"/><path d="m480.052246 384.915283h-19.120117v-19.100342h19.120117z" opacity=".5"/><path d="m231.334961 365.814941h-19.120117v-38.279296h19.120117z" opacity=".5"/><path d="m384.403076 365.814941h-19.159424v-19.159179h19.159424z" opacity=".5"/><path d="m422.672607 365.814941h-19.159423v-19.159179h19.159423z" opacity=".5"/><path d="m460.932129 365.814941h-19.149414v-19.159179h19.149414z" opacity=".5"/><path d="m193.06543 346.655762h-19.110108v-19.120117h19.110108z" opacity=".5"/><path d="m269.594482 346.655762h-19.110107v-19.120117h19.110107z" opacity=".5"/><path d="m441.782715 346.655762h-19.110108v-19.120117h19.110108z" opacity=".5"/><path d="m480.052246 346.655762h-19.120117v-19.120117h19.120117z" opacity=".5"/><path d="m173.955322 327.535645h-19.159424v-19.149415h19.159424z" opacity=".5"/><path d="m212.214844 327.535645h-19.149414v-19.149415h19.149414z" opacity=".5"/><path d="m250.484375 327.535645h-19.149414v-19.149415h19.149414z" opacity=".5"/><path d="m326.974121 289.275879h19.159424v19.110351h-19.159424v19.149415h-19.110107v-19.149415h-19.110108v-19.110351h19.110108v-19.15918h19.110107z" opacity=".5"/><path d="m384.403076 327.535645h-38.269531v-19.149415h19.110107v-19.110351h19.159424z" opacity=".5"/><path d="m422.672607 327.535645h-19.159423v-19.149415h19.159423z" opacity=".5"/><path d="m460.932129 327.535645h-19.149414v-19.149415h19.149414z" opacity=".5"/><path d="m154.795898 289.275879v19.110351h-19.110107v-19.110351z" opacity=".5"/><path d="m193.06543 308.38623h-19.110108v-19.110351h19.110108z" opacity=".5"/><path d="m231.334961 308.38623h-19.120117v-19.110351h19.120117z" opacity=".5"/><path d="m269.594482 308.38623h-19.110107v-19.110351h19.110107z" opacity=".5"/><path d="m441.782715 308.38623h-19.110108v-19.110351h19.110108z" opacity=".5"/><path d="m480.052246 308.38623h-19.120117v-19.110351h19.120117z" opacity=".5"/><path d="m173.955322 289.275879h-19.159424v-19.15918h19.159424z" opacity=".5"/><path d="m212.214844 289.275879h-19.149414v-19.15918h19.149414z" opacity=".5"/><path d="m250.484375 289.275879h-19.149414v-19.15918h19.149414z" opacity=".5"/><path d="m365.243652 289.275879h-19.110107v-19.15918h19.110107z" opacity=".5"/><path d="m422.672607 289.275879h-19.159423v-19.15918h19.159423z" opacity=".5"/><path d="m460.932129 289.275879h-19.149414v-19.15918h19.149414z" opacity=".5"/><path d="m193.06543 270.116699h-19.110108v-19.110107h19.110108z" opacity=".5"/><path d="m231.334961 270.116699h-19.120117v-19.110107h19.120117z" opacity=".5"/><path d="m269.594482 270.116699h-19.110107v-19.110107h19.110107z" opacity=".5"/><path d="m326.974121 251.006592h-19.110107v19.110107h-19.110108v-38.269531h38.220215z" opacity=".5"/><path d="m346.133545 270.116699h-19.159424v-19.110107h19.159424z" opacity=".5"/><path d="m384.403076 270.116699h-19.159424v-19.110107h19.159424z" opacity=".5"/><path d="m441.782715 270.116699h-19.110108v-19.110107h19.110108z" opacity=".5"/><path d="m173.955322 251.006592h-19.159424v-19.159424h19.159424z" opacity=".5"/><path d="m212.214844 251.006592h-19.149414v-19.159424h19.149414z" opacity=".5"/><path d="m250.484375 251.006592h-19.149414v-38.269531h19.149414z" opacity=".5"/><path d="m403.513184 251.006592h-19.110108v-19.159424h19.110108z" opacity=".5"/><path d="m460.932129 251.006592h-19.149414v-19.159424h19.149414z" opacity=".5"/><path d="m193.06543 231.847168h-19.110108v-19.110107h19.110108z" opacity=".5"/><path d="m288.753906 231.847168h-19.159424v-19.110107h19.159424z" opacity=".5"/><path d="m384.403076 231.847168h-38.269531v-19.110107h38.269531z" opacity=".5"/><path d="m422.672607 231.847168h-19.159423v-19.110107h19.159423z" opacity=".5"/><path d="m480.052246 231.847168h-19.120117v-19.110107h19.120117z" opacity=".5"/><path d="m173.955322 212.737061h-19.159424v-19.149659h19.159424z" opacity=".5"/><path d="m231.334961 212.737061h-19.120117v-19.149659h19.120117z" opacity=".5"/><path d="m269.594482 212.737061h-19.110107v-19.149659h19.110107z" opacity=".5"/><path d="m307.864014 212.737061h-19.110108v-19.149659h19.110108z" opacity=".5"/><path d="m346.133545 212.737061h-19.159424v-19.149659h19.159424z" opacity=".5"/><path d="m403.513184 212.737061h-19.110108v-19.149659h19.110108z" opacity=".5"/><path d="m441.782715 212.737061h-19.110108v-19.149659h19.110108z" opacity=".5"/><path d="m212.214844 193.587402h-19.149414v-19.119873h19.149414z" opacity=".5"/><path d="m288.753906 193.587402h-19.159424v-19.119873h19.159424z" opacity=".5"/><path d="m384.403076 193.587402h-38.269531v-19.119873h38.269531z" opacity=".5"/><path d="m422.672607 193.587402h-19.159423v-19.119873h19.159423z" opacity=".5"/><path d="m460.932129 193.587402h-19.149414v-19.119873h19.149414z" opacity=".5"/><path d="m193.06543 174.467529h-19.110108v-19.149414h19.110108z" opacity=".5"/><path d="m231.334961 174.467529h-19.120117v-19.149414h19.120117z" opacity=".5"/><path d="m269.594482 174.467529h-19.110107v-19.149414h19.110107z" opacity=".5"/><path d="m307.864014 155.318115h19.110107v-19.110107h19.159424v38.259521h-57.379639v-38.259521h19.110108z" opacity=".5"/><path d="m403.513184 174.467529h-19.110108v-19.149414h19.110108z" opacity=".5"/><path d="m441.782715 174.467529h-19.110108v-19.149414h19.110108z" opacity=".5"/><path d="m212.214844 155.318115h-19.149414v-19.110107h19.149414z" opacity=".5"/><path d="m250.484375 155.318115h-19.149414v-19.110107h19.149414z" opacity=".5"/><path d="m384.403076 155.318115h-19.159424v-19.110107h19.159424z" opacity=".5"/><path d="m422.672607 155.318115h-19.159423v-19.110107h19.159423z" opacity=".5"/><path d="m460.932129 155.318115h-19.149414v-19.110107h19.149414z" opacity=".5"/><path d="m193.06543 136.208008h-19.110108v-19.159424h19.110108z" opacity=".5"/><path d="m231.334961 136.208008h-19.120117v-38.279297h19.120117z" opacity=".5"/><path d="m288.753906 136.208008h-19.159424v-19.159424h19.159424z" opacity=".5"/><path d="m326.974121 136.208008h-19.110107v-19.159424h19.110107z" opacity=".5"/><path d="m365.243652 136.208008h-19.110107v-19.159424h19.110107z" opacity=".5"/><path d="m403.513184 136.208008h-19.110108v-19.159424h19.110108z" opacity=".5"/><path d="m441.782715 136.208008h-19.110108v-19.159424h19.110108z" opacity=".5"/><path d="m173.955322 117.048584h-19.159424v-19.119873h19.159424z" opacity=".5"/><path d="m307.864014 117.048584h-19.110108v-19.119873h-19.159424v19.119873h-19.110107v-19.119873h19.110107v-19.149658h19.159424v-19.111084h19.110108z" opacity=".5"/><path d="m346.133545 117.048584h-19.159424v-38.269531h19.159424z" opacity=".5"/><path d="m422.672607 117.048584h-19.159423v-19.119873h19.159423z" opacity=".5"/><path d="m460.932129 117.048584h-19.149414v-19.119873h19.149414z" opacity=".5"/><path d="m212.214844 97.928711h-19.149414v-19.149658h19.149414z" opacity=".5"/><path d="m250.484375 97.928711h-19.149414v-19.149658h19.149414z" opacity=".5"/><path d="m384.403076 97.928711h-19.159424v-19.149658h19.159424z" opacity=".5"/><path d="m441.782715 97.928711h-19.110108v-19.149658h19.110108z" opacity=".5"/><path d="m193.06543 78.779053h-19.110108v-19.111084h19.110108z" opacity=".5"/><path d="m231.334961 78.779053h-19.120117v-19.111084h19.120117z" opacity=".5"/><path d="m269.594482 78.779053h-19.110107v-19.111084h19.110107z" opacity=".5"/><path d="m365.243652 78.779053h-19.110107v-19.111084h19.110107z" opacity=".5"/><path d="m422.672607 59.667969h-19.159423v19.111084h-19.110108v-38.267578h38.269531z" opacity=".5"/><path d="m460.932129 78.779053h-19.149414v-19.111084h19.149414z" opacity=".5"/><path d="m250.484375 59.667969h-19.149414v-19.156494h19.149414z" opacity=".5"/><path d="m326.974121 40.511475h19.159424v19.156494h-38.269531v-57.379639h19.110107z" opacity=".5"/><path d="m231.334961 40.511475h-19.120117v-19.110108h19.120117z" opacity=".5"/><path d="m288.753906 40.511475h-19.159424v-19.110108h19.159424z" opacity=".5"/><path d="m365.243652 40.511475h-19.110107v-19.110108h19.110107z" opacity=".5"/><path d="m441.782715 40.511475h-19.110108v-19.110108h19.110108z" opacity=".5"/><path d="m269.594482 21.401367h-19.110107v-19.113037h19.110107z" opacity=".5"/><path d="m384.403076 21.401367h-19.159424v-19.113037h19.159424z" opacity=".5"/></g></svg>