<svg height="732" viewBox="0 0 615 732" width="615" xmlns="http://www.w3.org/2000/svg"><g fill="#f04e98"><path d="m594.474976 545.702148v-36.163818h-18.057251v-36.163574h-18.106079v-36.163574h-18.057251v-18.057251h-18.106568v-18.106324h-18.057251v-18.057251h-18.106079v-18.106323h-18.057251v-18.057495h-36.163818v-18.096435h-18.106568v-18.066895h-18.056762v-18.09668h-36.163819v-18.066894h-18.106567v-18.09668h-18.057251v-18.067139h18.057251v-36.163574h18.106567v-54.220947h18.057251v-54.269898h-18.057251v-54.220825h-18.106567v-18.106567h-18.057251v-18.057251h-54.223633v18.057251h-18.101562v162.760986h-18.06128v36.163574h-18.102539v18.057251h-18.060791v18.067139h-18.101562v18.09668h-18.06128v18.066894h-18.102539v36.163575h-18.061279v54.260253h-18.102539v36.163575h-18.060791v-36.163575h18.060791v-72.327148h18.102539v-18.09668h-36.16333v18.09668h-18.101562v18.066895h-18.06128v36.15393h-18.102539v126.59729h18.102539v36.16333h54.223633v-18.106323h-18.060791v-36.163574h18.060791v36.163574h18.102539v54.270264h18.061279v-18.106446h18.102539v-36.163818h72.326172v-18.057007h18.06128v-18.106567h54.228759v18.106567h18.096436v18.057007h18.057251v18.106323h18.106567v36.163941h18.057251v18.057251h-18.057251v-18.057251h-18.106567v-36.163941h-18.057251v-18.106323h-18.096436v-18.057007h-54.228759v90.384522h18.101562v18.066894h18.061279v18.096436h18.065918v18.067138h18.096436v18.09668h18.057251v18.067139h18.106567v18.096435h54.220581v-18.096435h18.106568v-90.394287h-18.106568v-36.163697h-18.056762v-36.163818h-18.106568v-54.220581h-18.057251v-18.106567h18.057251v18.106567h18.106568v36.163574h18.056762v36.16333h18.106568v36.163941h18.057251v18.057251h18.106567v18.066894h18.057251v18.096436h18.106079v18.067138h90.3844v-18.067138h18.106567v-72.327027zm-397.75232-108.490966v-18.057251h36.16333v-18.106324h54.224121v18.106324h-54.224121v18.057251zm180.770874-108.481079v18.096435h-36.163818v-18.096435h-36.153687v-36.163575h18.096436v18.09668h36.163818v18.066895zm-36.163818-271.212525v18.106323h-18.057251v-18.106323h-36.162354v-18.057007h36.162354v18.057007z" opacity=".5"/><path d="m160.559814 618.029175h18.06128v36.163818h18.101562v18.067139h18.060791v18.096435h36.163819v18.057496h54.228759v-18.057496h18.096436v-18.096435h-18.096436v-18.067139h-18.065918v-18.09668h-18.061279v-18.067138h-18.101562v-18.096436h-18.06128v-72.288086h-54.264892v18.057495h-18.06128z" opacity=".5"/><path d="m584.428101 228.170654h-20.06482v20.06482h20.06482z" opacity=".5"/><path d="m544.249634 288.423462h20.113647v-40.187988h-20.113647z" opacity=".5"/><path d="m564.363281 187.992188h-20.113647v40.178466h20.113647z" opacity=".5"/><path d="m544.249634 228.170654h-20.064697v20.06482h20.064697z" opacity=".5"/><path d="m102.299194 67.446777h-20.113647v20.113892h20.113647z" opacity=".5"/><path d="m62.118286 127.739258h20.067261v-40.178589h-20.067261z" opacity=".5"/><path d="m82.185547 27.268066h-20.067261v40.178711h20.067261z" opacity=".5"/><path d="m62.118286 670.124634h-20.114197v20.113891h20.114197z" opacity=".5"/><path d="m62.118286 67.446777h-20.114197v20.113892h20.114197z" opacity=".5"/><path d="m21.936768 730.417236h20.067321v-40.178711h-20.067321z" opacity=".5"/><path d="m42.004089 629.936279h-20.067321v40.188355h20.067321z" opacity=".5"/><path d="m21.936768 670.124634h-20.114136v20.113891h20.114136z" opacity=".5"/></g></svg>