<svg width="320" height="321" viewBox="0 0 320 321" fill="none" xmlns="http://www.w3.org/2000/svg">
<rect x="3" y="3.745" width="314" height="314" rx="47" fill="white" stroke="black" stroke-width="6" stroke-linejoin="round"/>
<path d="M78.66 223.465C52.22 223.465 24.46 209.995 24.46 194.225C24.46 188.315 28.89 183.055 34.97 183.055C49.97 183.055 46.8 207.365 76.2 207.365C90 207.365 97.2 199.475 97.2 192.255C97.2 169.915 28.87 185.685 28.87 140.025C28.87 115.715 50.56 98.025 82.09 98.025C99.17 98.025 107.88 100.975 120.2 106.235C128.9 110.015 129.07 113.295 129.07 127.915C129.07 133.335 127.07 137.775 120.85 137.775C108.54 137.775 114.28 111.495 87.51 111.495C74.51 111.495 68.29 117.405 68.29 124.495C68.29 148.805 136.62 134.685 136.62 177.715C136.64 208.675 105.93 223.465 78.66 223.465Z" fill="black" stroke="black" stroke-width="4" stroke-miterlimit="10"/>
<path d="M284.36 201.425C284.36 210.295 293.07 206.355 293.07 214.895C293.07 218.995 290.93 221.465 282.56 221.465H246.72C238.34 221.465 236.21 218.995 236.21 214.895C236.21 206.355 244.91 210.295 244.91 201.425V139.005H244.59L223.23 199.285C221.43 204.375 217.98 205.855 207.46 205.855C200.24 205.855 195.8 205.365 192.68 197.645L170.72 141.305H170.39V199.125C170.39 209.305 183.21 206.355 183.21 214.895C183.21 219.165 180.08 221.465 173.21 221.465H153.78C147.54 221.465 143.11 219.825 143.11 214.565C143.11 205.365 153.95 210.625 153.95 199.125V120.945C153.95 111.085 142.62 118.645 142.62 106.485C142.62 102.875 144.92 101.235 150.83 101.235H186.96C196.33 101.235 198.46 102.875 202.73 114.865L220.47 164.465L241.66 108.125C243.66 102.705 246.59 101.235 252.83 101.235H283.54C293.54 101.235 295.54 103.855 295.54 108.625C295.54 117.325 284.37 113.055 284.37 119.955L284.36 201.425Z" fill="white" stroke="black" stroke-width="6" stroke-miterlimit="10"/>
</svg>
