<?xml version="1.0" encoding="UTF-8"?>
<!-- Generated by Pixelmator Pro 3.8 -->
<svg width="62" height="55" viewBox="0 0 62 55" xmlns="http://www.w3.org/2000/svg">
    <path id="Path-copy" fill="#f04e98" stroke="none" d="M 6.691925 34.630585 L 13.430206 34.630585 L 13.430206 41.364273 L 20.168488 41.364273 L 20.168488 48.09845 L 26.906769 48.09845 L 26.906769 54.832138 L 33.64505 54.832138 L 33.64505 48.09845 L 40.383331 48.09845 L 40.383331 41.364273 L 47.121613 41.364273 L 47.121613 34.630585 L 53.815262 34.630585 L 53.815262 27.896896 L 60.599136 27.896896 L 60.599136 7.695343 L 53.815262 7.695343 L 53.815262 0.961655 L 40.383331 0.961655 L 40.383331 7.695343 L 33.64505 7.695343 L 33.64505 14.42952 L 26.906769 14.42952 L 26.906769 7.695343 L 20.168488 7.695343 L 20.168488 0.961655 L 6.691925 0.961655 L 6.691925 7.695343 L -0.046356 7.695343 L -0.046356 27.896896 L 6.691925 27.896896 L 6.691925 34.630585 Z"/>
</svg>
