<svg height="712" viewBox="0 0 406 712" width="406" xmlns="http://www.w3.org/2000/svg"><g fill="#f04e98"><path d="m384.530396 97.928711v-19.149658h-38.266602v38.269531h-19.111084v172.217529h19.111084v95.64917h-19.111084v-95.64917h-19.155884v-38.269531h-19.111633v-19.149414h-38.267029v153.068115h19.112183v38.259522h-19.112183v19.110107h-172.221374v19.159424h-19.111084v-19.159424h19.111084v-19.110107h172.221374v-38.259522h-57.420837v-19.119873h-172.178162v38.229981h-19.155334v133.948242h19.155334v38.269531h19.111145v38.269287h19.155396v38.269531h38.266479v38.259766h38.26648v19.110107h133.911682v-19.110107h57.422363v-19.149658h19.111084v-38.269531h19.111206v-19.110108h19.155396v-38.269287h19.111083v-478.314453zm-19.155396 440.044922h-19.111206v-57.41919h19.111206zm-286.97821 19.119873h38.26654v19.149658h19.155335v38.269287h-19.155335v-19.15918h-19.111145v-19.110107h-19.155395zm-57.377625-133.918701h19.111145v19.110107h-19.111145z" opacity=".5"/><path d="m212.351685 346.645752v19.149658h19.112121v-133.948242h-57.378601v19.149414h-19.154358v95.64917z" opacity=".5"/><path d="m135.818665 346.645752v-325.246338h-19.155335v-19.111084h-38.26654v19.111084h-19.111084v325.246338z" opacity=".5"/></g></svg>