<?xml version="1.0" encoding="UTF-8"?>
<!-- Generated by Pixelmator Pro 3.8 -->
<svg width="425" height="751" viewBox="0 0 425 751" xmlns="http://www.w3.org/2000/svg">
    <g id="iPod-copy">
        <g id="Group">
            <path id="Path" fill="#000000" stroke="none" opacity="0.5" d="M 173.59433 614.997803 L 154.480408 614.997803 L 154.480408 595.887695 L 173.59433 595.887695 L 173.59433 614.997803 Z"/>
        </g>
        <g id="g1">
            <path id="path1" fill="#000000" stroke="none" opacity="0.5" d="M 154.480408 576.728271 L 154.480408 595.887695 L 135.324036 595.887695 L 135.324036 576.728271 L 154.480408 576.728271 Z"/>
        </g>
        <g id="g2">
            <path id="path2" fill="#000000" stroke="none" opacity="0.5" d="M 211.856018 500.189453 L 250.125549 500.189453 L 250.125549 519.338867 L 269.235657 519.338867 L 269.235657 538.45874 L 250.125549 538.45874 L 250.125549 557.608154 L 211.856018 557.608154 L 211.856018 576.728271 L 173.590515 576.728271 L 173.590515 481.079346 L 211.856018 481.079346 L 211.856018 500.189453 Z"/>
        </g>
        <g id="g3">
            <path id="path3" fill="#000000" stroke="none" opacity="0.5" d="M 269.239746 481.079346 L 250.125549 481.079346 L 250.125549 461.929688 L 269.239746 461.929688 L 269.239746 481.079346 Z"/>
        </g>
        <g id="g4">
            <path id="path4" fill="#000000" stroke="none" opacity="0.5" d="M 250.125549 461.929688 L 230.969177 461.929688 L 230.969177 442.809814 L 250.125549 442.809814 L 250.125549 461.929688 Z"/>
        </g>
        <g id="g5">
            <path id="path5" fill="#000000" stroke="none" opacity="0.5" d="M 173.59433 232.361816 L 192.703674 232.361816 L 192.703674 251.472168 L 230.974243 251.472168 L 230.974243 232.361816 L 250.125549 232.361816 L 250.125549 213.202637 L 269.239746 213.202637 L 269.239746 251.472168 L 250.125549 251.472168 L 250.125549 270.621338 L 173.59433 270.621338 L 173.59433 251.472168 L 154.480408 251.472168 L 154.480408 213.202637 L 173.59433 213.202637 L 173.59433 232.361816 Z"/>
        </g>
        <g id="g6">
            <path id="path6" fill="#000000" stroke="none" opacity="0.5" d="M 192.703674 174.933105 L 173.590515 174.933105 L 173.590515 136.67334 L 192.703674 136.67334 L 192.703674 174.933105 Z"/>
        </g>
        <g id="g7">
            <path id="path7" fill="#000000" stroke="none" opacity="0.5" d="M 250.125549 174.933105 L 230.969177 174.933105 L 230.969177 136.67334 L 250.125549 136.67334 L 250.125549 174.933105 Z"/>
        </g>
        <g id="g8">
            <g id="g9" opacity="0.5">
                <path id="path8" fill="#000000" fill-rule="evenodd" stroke="none" d="M 403.196655 21.86499 L 422.310791 21.86499 L 422.310791 729.796387 L 403.196655 729.796387 L 403.196655 748.906738 L 20.52301 748.906738 L 20.52301 729.796387 L 1.409332 729.796387 L 1.409332 21.86499 L 20.52301 21.86499 L 20.52301 2.754883 L 403.196655 2.754883 L 403.196655 21.86499 Z M 20.52301 710.637207 L 39.674805 710.637207 L 39.674805 729.796387 L 58.788727 729.796387 L 58.788727 691.5271 L 39.674805 691.5271 L 39.674805 653.257324 L 20.52301 653.257324 L 20.52301 710.637207 Z M 384.04126 710.637207 L 364.931152 710.637207 L 364.931152 729.796387 L 384.04126 729.796387 L 384.04126 710.637207 L 403.196655 710.637207 L 403.196655 691.5271 L 384.04126 691.5271 L 384.04126 710.637207 Z M 154.480408 423.660156 L 135.324036 423.660156 L 135.324036 442.809814 L 116.210876 442.809814 L 116.210876 481.079346 L 97.054474 481.079346 L 97.054474 576.728271 L 116.210876 576.728271 L 116.210876 614.997803 L 135.324036 614.997803 L 135.324036 634.147217 L 154.480408 634.147217 L 154.480408 653.257324 L 269.239746 653.257324 L 269.239746 634.147217 L 288.396118 634.147217 L 288.396118 614.997803 L 307.505188 614.997803 L 307.505188 576.728271 L 326.661621 576.728271 L 326.661621 481.079346 L 307.505188 481.079346 L 307.505188 442.809814 L 288.396118 442.809814 L 288.396118 423.660156 L 269.239746 423.660156 L 269.239746 404.540283 L 154.480408 404.540283 L 154.480408 423.660156 Z M 20.52301 614.997803 L 39.674805 614.997803 L 39.674805 347.121094 L 20.52301 347.121094 L 20.52301 614.997803 Z M 39.674805 251.472168 L 20.52301 251.472168 L 20.52301 308.900879 L 39.674805 308.900879 L 39.674805 251.472168 L 58.788727 251.472168 L 58.788727 232.361816 L 39.674805 232.361816 L 39.674805 251.472168 Z M 116.210876 117.553467 L 97.054474 117.553467 L 97.054474 289.741699 L 116.210876 289.741699 L 116.210876 308.900879 L 307.505188 308.900879 L 307.505188 289.741699 L 326.661621 289.741699 L 326.661621 117.553467 L 307.505188 117.553467 L 307.505188 98.404053 L 116.210876 98.404053 L 116.210876 117.553467 Z M 20.52301 232.361816 L 39.674805 232.361816 L 39.674805 194.092529 L 20.52301 194.092529 L 20.52301 232.361816 Z M 39.674805 41.02417 L 20.52301 41.02417 L 20.52301 155.822998 L 39.674805 155.822998 L 39.674805 41.02417 L 77.944885 41.02417 L 77.944885 21.86499 L 39.674805 21.86499 L 39.674805 41.02417 Z M 384.04126 60.134277 L 403.196655 60.134277 L 403.196655 41.02417 L 384.04126 41.02417 L 384.04126 60.134277 Z M 364.931152 41.02417 L 384.04126 41.02417 L 384.04126 21.86499 L 364.931152 21.86499 L 364.931152 41.02417 Z"/>
            </g>
        </g>
    </g>
</svg>
