<svg height="751" viewBox="0 0 445 751" width="445" xmlns="http://www.w3.org/2000/svg"><g fill="#f04e98"><path d="m422.875244 98.187622v-38.269531h-19.120117v19.110351h-19.149414v-19.110351h-19.110108v-19.15918h19.110108v-19.110351h-19.110108v-19.149292h-95.649169v19.149292h-38.269532v19.110351h-19.149658v19.15918h-19.110107v19.110351h-19.158936v38.269287h-19.110107v57.379639h38.269043v-38.230102h19.110107v-38.259644h19.149658v-19.15918h19.110108v-19.110351h95.64917v19.110351h19.159423v19.15918h19.110108v95.639282h-19.110108v38.269593h-19.159423v19.109802h-19.110108v19.159729h-19.159424v19.109863h-19.110107v19.159424h-114.79834v-19.159424h-114.799072v19.159424h-38.269531v19.110352h-19.110108v363.515502h19.110108v19.149781h114.798828v19.119751h95.688476v19.14978h114.759278v-19.14978h19.159423v-38.269532h19.110108v-344.366211h-38.269531v-19.149291h19.159423v-38.269776h19.110108v-19.109863h19.149414v-38.269531h19.120117v-38.269593h19.149414v-95.639282zm-133.918701-57.428711v-19.110351h38.269531v19.110351zm-76.529297 401.785278v57.419068h-19.110107v133.918213h-38.269043v-133.918213h-19.159668v-57.419068h19.159668v-19.110107h38.269043v19.110107zm-95.648926-114.798522v19.149291h19.110108v19.120301h-38.269532v-19.120301h-38.259765v-19.149291zm248.717285 286.976867h-19.159423v57.428528h-19.110108v-57.428528h19.110108v-19.110596h19.159423zm0-38.269531h-19.159423v-38.259888h19.159423zm0-57.369751h-19.159423v-95.64917h-19.110108v-38.269592h38.269531zm57.379639-363.515991h-19.120117v-38.269532h19.120117z" opacity=".5"/><path d="m403.755127 40.758911h-19.149414v19.15918h19.149414z" opacity=".5"/></g></svg>