<?xml version="1.0" encoding="UTF-8"?>
<!-- Generated by Pixelmator Pro 3.8 -->
<svg width="445" height="751" viewBox="0 0 445 751" xmlns="http://www.w3.org/2000/svg">
    <g id="Unlock-copy">
        <g id="Group">
            <g id="g1" opacity="0.5">
                <path id="Path" fill="#F04E98" stroke="none" d="M 422.875244 98.187622 L 422.875244 59.918091 L 403.755127 59.918091 L 403.755127 79.028442 L 384.605713 79.028442 L 384.605713 59.918091 L 365.495605 59.918091 L 365.495605 40.758911 L 384.605713 40.758911 L 384.605713 21.64856 L 365.495605 21.64856 L 365.495605 2.499268 L 269.846436 2.499268 L 269.846436 21.64856 L 231.576904 21.64856 L 231.576904 40.758911 L 212.427246 40.758911 L 212.427246 59.918091 L 193.317139 59.918091 L 193.317139 79.028442 L 174.158203 79.028442 L 174.158203 117.297729 L 155.048096 117.297729 L 155.048096 174.677368 L 193.317139 174.677368 L 193.317139 136.447266 L 212.427246 136.447266 L 212.427246 98.187622 L 231.576904 98.187622 L 231.576904 79.028442 L 250.687012 79.028442 L 250.687012 59.918091 L 346.336182 59.918091 L 346.336182 79.028442 L 365.495605 79.028442 L 365.495605 98.187622 L 384.605713 98.187622 L 384.605713 193.826904 L 365.495605 193.826904 L 365.495605 232.096497 L 346.336182 232.096497 L 346.336182 251.206299 L 327.226074 251.206299 L 327.226074 270.366028 L 308.06665 270.366028 L 308.06665 289.475891 L 288.956543 289.475891 L 288.956543 308.635315 L 174.158203 308.635315 L 174.158203 289.475891 L 59.359131 289.475891 L 59.359131 308.635315 L 21.0896 308.635315 L 21.0896 327.745667 L 1.979492 327.745667 L 1.979492 691.261169 L 21.0896 691.261169 L 21.0896 710.41095 L 135.888428 710.41095 L 135.888428 729.530701 L 231.576904 729.530701 L 231.576904 748.680481 L 346.336182 748.680481 L 346.336182 729.530701 L 365.495605 729.530701 L 365.495605 691.261169 L 384.605713 691.261169 L 384.605713 346.894958 L 346.336182 346.894958 L 346.336182 327.745667 L 365.495605 327.745667 L 365.495605 289.475891 L 384.605713 289.475891 L 384.605713 270.366028 L 403.755127 270.366028 L 403.755127 232.096497 L 422.875244 232.096497 L 422.875244 193.826904 L 442.024658 193.826904 L 442.024658 98.187622 L 422.875244 98.187622 Z M 288.956543 40.758911 L 288.956543 21.64856 L 327.226074 21.64856 L 327.226074 40.758911 L 288.956543 40.758911 Z M 212.427246 442.544189 L 212.427246 499.963257 L 193.317139 499.963257 L 193.317139 633.88147 L 155.048096 633.88147 L 155.048096 499.963257 L 135.888428 499.963257 L 135.888428 442.544189 L 155.048096 442.544189 L 155.048096 423.434082 L 193.317139 423.434082 L 193.317139 442.544189 L 212.427246 442.544189 Z M 116.77832 327.745667 L 116.77832 346.894958 L 135.888428 346.894958 L 135.888428 366.015259 L 97.618896 366.015259 L 97.618896 346.894958 L 59.359131 346.894958 L 59.359131 327.745667 L 116.77832 327.745667 Z M 365.495605 614.722534 L 346.336182 614.722534 L 346.336182 672.151062 L 327.226074 672.151062 L 327.226074 614.722534 L 346.336182 614.722534 L 346.336182 595.611938 L 365.495605 595.611938 L 365.495605 614.722534 Z M 365.495605 576.453003 L 346.336182 576.453003 L 346.336182 538.193115 L 365.495605 538.193115 L 365.495605 576.453003 Z M 365.495605 519.083252 L 346.336182 519.083252 L 346.336182 423.434082 L 327.226074 423.434082 L 327.226074 385.16449 L 365.495605 385.16449 L 365.495605 519.083252 Z M 422.875244 155.567261 L 403.755127 155.567261 L 403.755127 117.297729 L 422.875244 117.297729 L 422.875244 155.567261 Z"/>
            </g>
        </g>
        <g id="g2">
            <path id="path1" fill="#F04E98" stroke="none" opacity="0.5" d="M 403.755127 40.758911 L 384.605713 40.758911 L 384.605713 59.918091 L 403.755127 59.918091 L 403.755127 40.758911 Z"/>
        </g>
    </g>
</svg>
