<svg height="800" viewBox="0 0 24 24" width="800" xmlns="http://www.w3.org/2000/svg"><path d="m20.4961766 5.62668182c.8758909.3077952 1.5038234 1.14222595 1.5038234 2.12331818v10c0 2.3472102-1.9027898 4.25-4.25 4.25h-10c-.98109223 0-1.81552298-.6279325-2.12331818-1.5038234l2.09728006.0033799 10.02603812.0004435c1.5187831 0 2.75-1.2312169 2.75-2.75v-10l-.0039806-.05098057zm-3.2493636-3.62668182c1.2426407 0 2.25 1.00735931 2.25 2.25v12.996813c0 1.2426407-1.0073593 2.25-2.25 2.25h-12.996813c-1.24264069 0-2.25-1.0073593-2.25-2.25v-12.996813c0-1.24264069 1.00735931-2.25 2.25-2.25zm0 1.5h-12.996813c-.41421356 0-.75.33578644-.75.75v12.996813c0 .4142136.33578644.75.75.75h12.996813c.4142136 0 .75-.3357864.75-.75v-12.996813c0-.41421356-.3357864-.75-.75-.75zm-7.66566736 7.8581942 3.88852426-3.88852429c.2928932-.29289321.767767-.29289321 1.0606602 0 .2662665.26626657.2904726.68293025.0726181.97654174l-.0726181.08411844-4.5 4.50000001c-.29583771.2958377-.76898983.288617-1.05672616.0041163l-.07360394-.0844464-1.5-2c-.24852814-.3313708-.18137085-.8014719.15-1.05.30124623-.22593467.71714548-.1909723.97699676.06621555l.07300324.08378445.98114564 1.3081942 3.88852426-3.88852429z" fill="#212121"/></svg>