<svg height="800" viewBox="0 0 455 455" width="800" xmlns="http://www.w3.org/2000/svg"><path d="m326.632 10.346c-38.733 0-74.991 17.537-99.132 46.92-24.141-29.384-60.398-46.92-99.132-46.92-70.782-0-128.368 57.585-128.368 128.368 0 55.426 33.05 119.535 98.23 190.546 50.161 54.647 104.728 96.959 120.257 108.626l9.01 6.769 9.01-6.768c15.529-11.667 70.098-53.978 120.26-108.625 65.182-71.011 98.233-135.121 98.233-190.548 0-70.783-57.586-128.368-128.368-128.368zm8.034 298.628c-41.259 44.948-85.648 81.283-107.169 98.029-21.52-16.746-65.907-53.082-107.166-98.03-59.095-64.381-90.331-123.256-90.331-170.259 0-54.24 44.128-98.368 98.368-98.368 35.694 0 68.652 19.454 86.013 50.771l13.119 23.666 13.119-23.666c17.36-31.316 50.318-50.771 86.013-50.771 54.24 0 98.368 44.127 98.368 98.368 0 47.005-31.237 105.88-90.334 170.26z"/></svg>