<svg height="484" viewBox="0 0 1425 484" width="1425" xmlns="http://www.w3.org/2000/svg"><g fill="#fff"><path d="m1022.210693 89.83017v-14.175843h-7.079712v-14.175811h-7.09613v-7.079712h-7.079712v-7.096131h-7.09613v-7.079681h-14.175781v-7.09613h-42.528443v7.09613h-14.175842v7.079681h7.09613v7.096131h-7.09613v7.079712h-7.079712v7.09613h-7.09613v-7.09613h-7.080689v14.175811h-7.096069v14.175843h-7.079712v155.920532h7.079712v21.271942h7.096069v7.079712h7.080689v7.09613h7.09613v7.080658h7.079712v7.095185h14.175842v7.080627h42.528443v-7.080627h14.175781v-7.095185h7.09613v-7.080658h7.079712v-7.09613h7.09613v-7.079712h7.079712v-14.175812h7.079712v-163.016662zm-99.23175-14.175843v-7.079681h14.175842v-7.09613h42.528443v7.09613h14.175781v7.079681h7.09613v14.175843h7.079712v14.176788h7.09613v35.431335h-7.09613v14.175843h-7.079712v14.176788h-7.09613v7.09613h-14.175781v7.079682h-42.528443v-7.079682h-14.175842v-7.09613h-7.079712v-14.176788h-7.09613v-14.175843h-7.080689v-35.431335h7.080689v-14.176788h7.09613v-14.175843zm77.976196 191.368317h-7.09613v7.079712h-7.079712v7.09613h-7.096069v-7.09613h7.096069v-7.079712h7.079712v-7.09613h7.09613zm-99.232727-85.055908h7.080689v49.608139h-7.080689zm0-14.175812h7.080689v7.09613h-7.080689zm85.056885 92.13559h-7.096069v7.09613h-7.080689v7.079712h-28.351685v-7.079712h-7.096069v-7.09613h-7.079712v-7.079682h-7.09613v-35.432312h7.09613v-7.09613h7.079712v-7.079712h7.096069v-7.0961h28.351685v7.0961h7.080689v7.079712h7.096069v7.09613h7.079712v35.432312h-7.079712zm-85.056885-14.175812h7.080689v7.09613h-7.080689z"/><path d="m986.779297 217.41452h-7.096069v-7.09613h-7.080689v-7.079712h-28.351685v7.079712h-7.096069v7.09613h-7.079712v35.432312h7.079712v7.079682h7.096069v7.09613h28.351685v-7.09613h7.080689v-7.079682h7.096069zm-42.528443 7.079682h7.079712v-7.079682h7.096131v14.160355h-7.096131v14.175827h-7.079712zm7.079712 35.432312v-7.079682h7.096131v7.079682z"/><path d="m951.330566 125.262482v49.624572h14.175843v-49.624572h14.176819v7.09613h7.096069v-21.271973h-7.096069v-7.079681h-7.080689v-7.09613h-7.09613v-7.080658h-14.175843v7.080658h-7.079712v7.09613h-7.096069v7.079681h-7.079712v21.271973h7.079712v-7.09613zm0-14.175843v-7.079681h7.096131v14.175812h-14.175843v-7.096131z"/><path d="m930.075073 75.654327v7.096131h-7.09613v7.079712h-7.079712v14.176788h-7.09613v35.431335h7.09613v14.175843h7.079712v7.0961h7.09613v7.080688h7.079712v7.09613h7.096069v-42.528442h-7.096069v7.079681h-14.175842v-28.351654h7.09613v-7.079681h7.079712v-7.09613h7.096069v-7.080658h7.079712v-7.079712h14.175843v7.079712h7.09613v7.080658h7.080689v7.09613h7.096069v7.079681h7.079712v28.351654h-14.175781v-7.079681h-7.080689v42.528442h7.080689v-7.09613h7.096069v-7.080688h7.079712v-7.0961h7.09613v-14.175843h7.079712v-35.431335h-7.079712v-14.176788h-7.09613v-7.079712h-7.079712v-7.096131h-7.096069v-7.079681h-42.528443v7.079681z"/><path d="m922.978943 47.302673h-7.079712v7.096131h7.079712z"/><path d="m915.899231 54.398804h-7.09613v7.079712h7.09613z"/><path d="m858.379456 234.03688v-13.395095h-6.690308v-13.395111h-6.704773v-13.395081h-6.690308v-6.689331h-6.704834v-6.70578h-6.690307v-6.689331h-6.704773v-6.70575h-6.690308v-6.689331h-13.39508v-6.70578h-6.704773v-6.689331h-6.690308v-6.705749h-13.395142v-6.689331h-6.704772v-6.704804h-6.689332v-6.690307h6.689332v-13.395081h6.704772v-20.085419h6.690308v-20.099884h-6.690308v-20.084442h-6.704772v-6.705749h-6.689332v-6.689331h-20.085388v6.689331h-6.704834v60.285186h-6.690246v13.395081h-6.704834v6.690308h-6.690308v6.690307h-6.704773v6.704804h-6.690307v6.689331h-6.704773v13.39508h-6.690308v20.100861h-6.704834v13.395111h-6.689819v-13.395111h6.689819v-26.790192h6.704834v-6.705749h-13.394653v6.705749h-6.705262v6.689331h-6.689819v13.395111h-6.705261v46.891053h6.705261v13.394134h20.0849v-6.704803h-6.689819v-13.395111h6.689819v13.395111h6.704834v20.099884h6.690308v-6.704789h6.704773v-13.395095h26.790222v-6.689331h6.690246v-6.70578h20.084473v6.70578h6.705749v6.689331h6.689332v6.704803h6.704772v13.395081h6.690308v6.690307h-6.690308v-6.690307h-6.704772v-13.395081h-6.689332v-6.704803h-6.705749v-6.689331h-20.084473v33.479522h6.704834v6.690308h6.690308v6.704803h6.689331v6.690308h6.705749v6.704773h6.689332v6.690308h6.704772v6.704773h20.08545v-6.704773h6.704773v-33.4805h-6.704773v-13.395096h-6.690308v-13.395095h-6.704834v-20.084442h-6.690308v-6.70575h6.690308v6.70575h6.704834v13.395111h6.690308v13.394134h6.704773v13.395081h6.690307v6.690307h6.704773v6.690308h6.690308v6.704803h6.704773v6.690308h33.48053v-6.690308h6.704773v-26.790207zm-147.330628-40.185287v-6.689331h13.395142v-6.70578h20.085388v6.70578h-20.085388v6.689331zm66.960022-40.185303v6.70578h-13.39508v-6.70578h-13.395081v-13.39508h6.705749v6.705749h13.394104v6.689331zm-13.39508-100.455017v6.70578h-6.689332v-6.70578h-13.39508v-6.689331h13.39508v6.689331z"/><path d="m697.653748 260.827087h6.690307v13.395081h6.704773v6.690308h6.690308v6.704773h13.39508v6.689361h20.084473v-6.689361h6.705749v-6.704773h-6.705749v-6.690308h-6.689331v-6.704773h-6.690308v-6.690308h-6.704834v-6.704803h-6.690246v-26.775696h-20.099915v6.690292h-6.690307z"/><path d="m854.659424 116.401001h-7.43335v7.43335h7.43335z"/><path d="m839.776306 138.717468h7.449768v-14.883117h-7.449768z"/><path d="m847.226074 101.516937h-7.449768v14.884064h7.449768z"/><path d="m839.776306 116.401001h-7.433349v7.43335h7.433349z"/><path d="m676.0755 56.867584h-7.450256v7.449768h7.450256z"/><path d="m661.192383 79.20047h7.432861v-14.883118h-7.432861z"/><path d="m668.625244 41.98349h-7.432861v14.884094h7.432861z"/><path d="m661.192383 280.10083h-7.450257v7.450745h7.450257z"/><path d="m661.192383 56.867584h-7.450257v7.449768h7.450257z"/><path d="m646.308777 302.434692h7.433349v-14.883117h-7.433349z"/><path d="m653.742126 265.217712h-7.433349v14.883118h7.433349z"/><path d="m646.308777 280.10083h-7.450256v7.450745h7.450256z"/><path d="m468.146179 273.335144h14.560364v7.288422h-14.560364v7.272003h-7.271026v7.288391h-21.848816v7.270996h-36.389862v-14.559387h7.270538v-7.272003h14.560394v-7.288422h14.55893v-7.270996h29.119842zm-50.950744 21.848816h14.560394v-7.288391h-14.560394z" fill-rule="evenodd"/><path d="m628.302246 207.82547h-7.288391v7.271973h-7.270508v7.287445h-7.288452v7.271988h-7.271973v7.288406h-14.55896v7.271988h-7.288391v7.286484h-7.272461v7.272949h-7.287902v7.287445h21.848754v7.270996h14.55896v7.288422h-7.288391v7.272003h7.288391v-7.272003h14.560425v7.272003h7.270508v14.559387h-36.389893v-7.270996h-21.848754v-7.288391h-14.55896v-7.272003h-7.272461v-21.846863h7.272461v-7.272949h14.55896v-7.286484h-7.271058v-7.271988h7.271058v-7.288406h7.287902v-14.559433h7.272461v-7.271973h7.288391v-7.288422h7.270569v-7.27005h7.288391v-7.288391h7.271973v-7.272003h21.847351zm-29.119324 87.35849h7.271973v-7.288391h-7.271973zm14.560425-101.916962h-7.288452v7.27005h7.288452v-7.27005h7.270508v-7.288391h-7.270508z" fill-rule="evenodd"/><path d="m519.096436 266.064148h14.560852v7.270996h-14.560852v14.560425h-7.270539v7.288391h-7.272003v-21.848816h7.272003v-7.270996h-7.272003v7.270996h-14.560852v-7.270996h14.560852v-7.287445h14.542542z"/><path d="m417.195435 185.978607h7.271972v14.558441h-7.271972v-7.27005h-7.288422v7.27005h7.288422v7.288422h7.271972v-7.288422h14.55893v7.288422h7.288421v14.559418h7.272461v14.560394h7.287934v7.271988h7.271026v7.286484h7.287903v7.272949h7.272461v7.288422h-14.560364v-7.288422h-14.55896v-7.272949h-7.272461v-7.286484h-14.558929v-7.271988h-7.288422v-7.288406h-14.560394v-14.559433h-7.270538v-7.271973h-7.288392v-29.118866h21.847352z"/><path d="m504.553894 244.21727h7.272003v7.286484h-14.560394v7.272949h-7.272461v-7.272949h-7.286499v-7.286484h14.55896v-7.271988h7.288391z"/><path d="m548.216248 251.503754h-14.55896v7.272949h-7.272461v-7.272949h-7.288391v-7.286484h14.560852v-7.271988h7.286499v-7.288406h7.272461z"/><path d="m475.434082 244.21727h-7.287903v-7.271988h7.287903z"/><path d="m489.993042 222.384888h7.272461v7.271988h-7.272461v7.288406h-7.286499v-7.288406h-7.272461v-7.271988h7.272461v-7.287445h7.286499z"/><path d="m519.096436 236.945282h-14.542542v-7.288406h14.542542z"/><path d="m533.657288 236.945282h-7.272461v-7.288406h7.272461z"/><path d="m468.146179 229.656876h-7.271026v-7.271988h7.271026z"/><path d="m526.384827 229.656876h-7.288391v-7.271988h7.288391z"/><path d="m540.943787 229.656876h-7.286499v-7.271988h7.286499z"/><path d="m555.50415 229.656876h-7.287902v-7.271988h7.287902z"/><path d="m475.434082 178.706604h7.272461v7.272003h-7.272461v36.406281h-7.287903v-7.287445h-7.271026v7.287445h-7.287934v-7.287445h7.287934v-7.271973h-7.287934v-14.558472h7.287934v7.27005h7.271026v-14.558441h-7.271026v-7.272003h7.271026v-7.270996h7.287903z"/><path d="m533.657288 207.82547h-7.272461v7.271973h-14.55893v7.287445h-7.272003v-14.559418h7.272003v-7.288422h14.55893v-7.27005h7.272461z"/><path d="m548.216248 222.384888h-7.272461v-7.287445h7.272461z"/><path d="m562.775208 222.384888h-7.271058v-7.287445h7.271058z"/><path d="m497.265503 215.097443h-7.272461v-7.271973h7.272461z"/><path d="m555.50415 215.097443h-7.287902v-7.271973h7.287902z"/><path d="m570.06311 215.097443h-7.287902v-7.271973h7.287902z"/><path d="m489.993042 207.82547h-7.286499v-7.288422h7.286499z"/><path d="m548.216248 207.82547h-7.272461v-7.288422h7.272461z"/><path d="m562.775208 207.82547h-7.271058v-7.288422h7.271058z"/><path d="m497.265503 200.537048h-7.272461v-7.27005h7.272461z"/><path d="m511.825897 200.537048h-7.272003v-7.27005h7.272003z"/><path d="m555.50415 200.537048h-7.287902v-7.27005h7.287902z"/><path d="m570.06311 200.537048h-7.287902v-7.27005h7.287902z"/><path d="m453.587219 193.266998h-7.272461v-7.288391h7.272461z"/><path d="m489.993042 193.266998h-7.286499v-7.288391h7.286499z"/><path d="m526.384827 193.266998h-14.55893v-7.288391h14.55893z"/><path d="m540.943787 193.266998h-7.286499v-14.560394h7.286499z"/><path d="m562.775208 193.266998h-7.271058v-7.288391h7.271058z"/><path d="m577.335571 193.266998h-7.272461v-7.288391h7.272461z"/><path d="m497.265503 185.978607h-7.272461v-7.272003h7.272461z"/><path d="m511.825897 164.147186h14.55893v14.559418h-7.288391v-7.270996h-7.270539v14.542999h-7.272003v-29.103393h7.272003z"/><path d="m555.50415 185.978607h-7.287902v-7.272003h7.287902z"/><path d="m570.06311 185.978607h-7.287902v-7.272003h7.287902z"/><path d="m460.875153 178.706604h-7.287934v-7.270996h7.287934z"/><path d="m489.993042 178.706604h-7.286499v-7.270996h7.286499z"/><path d="m562.775208 178.706604h-7.271058v-7.270996h7.271058z"/><path d="m577.335571 178.706604h-7.272461v-7.270996h7.272461z"/><path d="m482.706543 171.435608h-7.272461v-14.560394h7.272461z"/><path d="m540.943787 171.435608h-7.286499v-7.288422h7.286499z"/><path d="m555.50415 171.435608h-7.287902v-7.288422h7.287902z"/><path d="m570.06311 171.435608h-7.287902v-7.288422h7.287902z"/><path d="m468.146179 164.147186h-7.271026v-7.271972h7.271026z"/><path d="m497.265503 164.147186h-7.272461v-7.271972h7.272461z"/><path d="m562.775208 164.147186h-7.271058v-7.271972h7.271058z"/><path d="m577.335571 164.147186h-7.272461v-7.271972h7.272461z"/><path d="m460.875153 156.875214h-7.287934v-7.288422h7.287934z"/><path d="m475.434082 156.875214h-7.287903v-7.288422h7.287903z"/><path d="m489.993042 156.875214h-7.286499v-7.288422h7.286499z"/><path d="m519.096436 142.315796h7.288391v7.270996h-7.288391v7.288422h-7.270539v-7.288422h-7.272003v-7.270996h7.272003v-7.288422h7.270539z"/><path d="m540.943787 156.875214h-14.55896v-7.288422h7.272461v-7.270996h7.286499z"/><path d="m555.50415 156.875214h-7.287902v-7.288422h7.287902z"/><path d="m570.06311 156.875214h-7.287902v-7.288422h7.287902z"/><path d="m453.587219 142.315796v7.270996h-7.272461v-7.270996z"/><path d="m468.146179 149.586792h-7.271026v-7.270996h7.271026z"/><path d="m482.706543 149.586792h-7.272461v-7.270996h7.272461z"/><path d="m497.265503 149.586792h-7.272461v-7.270996h7.272461z"/><path d="m562.775208 149.586792h-7.271058v-7.270996h7.271058z"/><path d="m577.335571 149.586792h-7.272461v-7.270996h7.272461z"/><path d="m460.875153 142.315796h-7.287934v-7.288422h7.287934z"/><path d="m475.434082 142.315796h-7.287903v-7.288422h7.287903z"/><path d="m489.993042 142.315796h-7.286499v-7.288422h7.286499z"/><path d="m533.657288 142.315796h-7.272461v-7.288422h7.272461z"/><path d="m555.50415 142.315796h-7.287902v-7.288422h7.287902z"/><path d="m570.06311 142.315796h-7.287902v-7.288422h7.287902z"/><path d="m468.146179 135.027374h-7.271026v-7.271972h7.271026z"/><path d="m482.706543 135.027374h-7.272461v-7.271972h7.272461z"/><path d="m497.265503 135.027374h-7.272461v-7.271972h7.272461z"/><path d="m519.096436 127.755402h-7.270539v7.271972h-7.272003v-14.560394h14.542542z"/><path d="m526.384827 135.027374h-7.288391v-7.271972h7.288391z"/><path d="m540.943787 135.027374h-7.286499v-7.271972h7.286499z"/><path d="m562.775208 135.027374h-7.271058v-7.271972h7.271058z"/><path d="m460.875153 127.755402h-7.287934v-7.288422h7.287934z"/><path d="m475.434082 127.755402h-7.287903v-7.288422h7.287903z"/><path d="m489.993042 127.755402h-7.286499v-14.558472h7.286499z"/><path d="m548.216248 127.755402h-7.272461v-7.288422h7.272461z"/><path d="m570.06311 127.755402h-7.287902v-7.288422h7.287902z"/><path d="m468.146179 120.46698h-7.271026v-7.27005h7.271026z"/><path d="m504.553894 120.46698h-7.288391v-7.27005h7.288391z"/><path d="m540.943787 120.46698h-14.55896v-7.27005h14.55896z"/><path d="m555.50415 120.46698h-7.287902v-7.27005h7.287902z"/><path d="m577.335571 120.46698h-7.272461v-7.27005h7.272461z"/><path d="m460.875153 113.19693h-7.287934v-7.288391h7.287934z"/><path d="m482.706543 113.19693h-7.272461v-7.288391h7.272461z"/><path d="m497.265503 113.19693h-7.272461v-7.288391h7.272461z"/><path d="m511.825897 113.19693h-7.272003v-7.288391h7.272003z"/><path d="m526.384827 113.19693h-7.288391v-7.288391h7.288391z"/><path d="m548.216248 113.19693h-7.272461v-7.288391h7.272461z"/><path d="m562.775208 113.19693h-7.271058v-7.288391h7.271058z"/><path d="m475.434082 105.908539h-7.287903v-7.272003h7.287903z"/><path d="m504.553894 105.908539h-7.288391v-7.272003h7.288391z"/><path d="m540.943787 105.908539h-14.55896v-7.272003h14.55896z"/><path d="m555.50415 105.908539h-7.287902v-7.272003h7.287902z"/><path d="m570.06311 105.908539h-7.287902v-7.272003h7.287902z"/><path d="m468.146179 98.636536h-7.271026v-7.287445h7.271026z"/><path d="m482.706543 98.636536h-7.272461v-7.287445h7.272461z"/><path d="m497.265503 98.636536h-7.272461v-7.287445h7.272461z"/><path d="m511.825897 91.349091h7.270539v-7.271973h7.288391v14.559418h-21.830933v-14.559418h7.272003z"/><path d="m548.216248 98.636536h-7.272461v-7.287445h7.272461z"/><path d="m562.775208 98.636536h-7.271058v-7.287445h7.271058z"/><path d="m475.434082 91.349091h-7.287903v-7.271973h7.287903z"/><path d="m489.993042 91.349091h-7.286499v-7.271973h7.286499z"/><path d="m540.943787 91.349091h-7.286499v-7.271973h7.286499z"/><path d="m555.50415 91.349091h-7.287902v-7.271973h7.287902z"/><path d="m570.06311 91.349091h-7.287902v-7.271973h7.287902z"/><path d="m468.146179 84.077118h-7.271026v-7.288422h7.271026z"/><path d="m482.706543 84.077118h-7.272461v-14.560394h7.272461z"/><path d="m504.553894 84.077118h-7.288391v-7.288422h7.288391z"/><path d="m519.096436 84.077118h-7.270539v-7.288422h7.270539z"/><path d="m533.657288 84.077118h-7.272461v-7.288422h7.272461z"/><path d="m548.216248 84.077118h-7.272461v-7.288422h7.272461z"/><path d="m562.775208 84.077118h-7.271058v-7.288422h7.271058z"/><path d="m460.875153 76.788696h-7.287934v-7.271972h7.287934z"/><path d="m511.825897 76.788696h-7.272003v-7.271972h-7.288391v7.271972h-7.272461v-7.271972h7.272461v-7.286469h7.288391v-7.272949h7.272003z"/><path d="m526.384827 76.788696h-7.288391v-14.558441h7.288391z"/><path d="m555.50415 76.788696h-7.287902v-7.271972h7.287902z"/><path d="m570.06311 76.788696h-7.287902v-7.271972h7.287902z"/><path d="m475.434082 69.516724h-7.287903v-7.286469h7.287903z"/><path d="m489.993042 69.516724h-7.286499v-7.286469h7.286499z"/><path d="m540.943787 69.516724h-7.286499v-7.286469h7.286499z"/><path d="m562.775208 69.516724h-7.271058v-7.286469h7.271058z"/><path d="m468.146179 62.230255h-7.271026v-7.272949h7.271026z"/><path d="m482.706543 62.230255h-7.272461v-7.272949h7.272461z"/><path d="m497.265503 62.230255h-7.272461v-7.272949h7.272461z"/><path d="m533.657288 62.230255h-7.272461v-7.272949h7.272461z"/><path d="m555.50415 54.957306h-7.287902v7.272949h-7.272461v-14.561371h14.560363z"/><path d="m570.06311 62.230255h-7.287902v-7.272949h7.287902z"/><path d="m489.993042 54.957306h-7.286499v-7.288422h7.286499z"/><path d="m519.096436 47.668884h7.288391v7.288422h-14.55893v-21.830444h7.270539z"/><path d="m482.706543 47.668884h-7.272461v-7.27005h7.272461z"/><path d="m504.553894 47.668884h-7.288391v-7.27005h7.288391z"/><path d="m533.657288 47.668884h-7.272461v-7.27005h7.272461z"/><path d="m562.775208 47.668884h-7.271058v-7.27005h7.271058z"/><path d="m497.265503 40.398834h-7.272461v-7.271972h7.272461z"/><path d="m540.943787 40.398834h-7.286499v-7.271972h7.286499z"/><path d="m1345.666992 452.05722v-96.298187h-12.589233v15.928589h-19.781983v-20.272858h16.185669v-16.11026h52.153199v16.11026h16.365356v20.272858h-19.962646v-15.928589h-12.588257v96.298187z"/><path d="m1232.046875 452.05722v-16.11026h-16.184692v-84.532196h16.184692v-16.11026h52.15332v16.11026h16.365235v20.272858h-19.96167v-15.928589h-44.959473v27.875275h32.370239v20.093109h-32.370239v28.056h44.959473v-16.290955h19.96167v20.454498h-16.365235v16.11026z"/><path d="m1118.444092 452.05722v-116.752716h19.782104v16.11026h16.00586v15.928589h16.365356v48.149109h12.588257v-80.187958h19.96167v116.752716h-19.96167v-16.11026h-16.005859v-16.110229h-16.365357v-48.149109h-12.588257v80.369598z"/><path d="m1085.800415 449.838715v-20.453522h19.782959v20.453522z"/><path d="m1004.55249 452.05722v-16.11026h-16.185608v-84.532196h16.185608v-16.11026h52.153198v16.11026h16.36438v36.202424h-19.96167v-31.858155h-44.959533v76.024384h44.959533v-32.401215h19.96167v36.564758h-16.36438v16.11026z"/><path d="m926.917358 452.05722v-20.273803h16.185608v-76.024384h-16.185608v-20.454529h52.15326v20.454529h-16.365357v76.024384h16.365357v20.273803z"/><path d="m845.668457 452.05722v-16.11026h-16.184631v-20.454498h19.781982v16.290955h44.959534v-28.056h-48.556885v-16.110229h-16.184631v-36.202424h16.184631v-16.11026h52.153259v16.11026h16.365296v20.272858h-19.96167v-15.928589h-44.959534v27.875275h48.555908v15.747894h16.365296v36.564758h-16.365296v16.11026z"/><path d="m748.250366 452.05722v-16.11026h-16.184631v-100.642456h19.781982v96.478913h44.959534v-96.478913h19.96167v100.642456h-16.365296v16.11026z"/><path d="m602.31842 452.05722v-100.642456h16.185608v-16.11026h19.602295v16.11026h16.365296v32.219544h12.588318v-32.219544h16.365356v-16.11026h19.782471v16.11026h16.005859v100.642456h-19.60321v-96.298187h-12.588318v31.858155h-16.365296v48.329772h-19.602295v-48.329772h-16.365356v-31.858155h-12.588745v96.298187z"/><path d="m540.733643 452.05722v-64.440032h-16.185181v-15.929566h-16.185608v-36.383118h19.781982v32.038849h16.005921v16.290955h12.948181v-16.290955h16.005432v-32.038849h19.962219v36.383118h-16.365356v15.929566h-16.18512v64.440032z"/><path d="m427.130371 452.05722v-16.11026h-16.185608v-84.532196h16.185608v-16.11026h52.153259v16.11026h16.364869v20.272858h-19.961731v-15.928589h-44.959534v27.875275h32.370758v20.093109h-32.370758v28.056h44.959534v-16.290955h19.961731v20.454498h-16.364869v16.11026z"/><path d="m313.494781 452.05722v-116.752716h19.781983v16.11026h16.00592v15.928589h16.365326v48.149109h12.588288v-80.187958h19.962219v116.752716h-19.962219v-16.11026h-16.005402v-16.110229h-16.365356v-48.149109h-12.588776v80.369598z"/><path d="m216.081039 452.05722v-116.752716h52.152756v16.11026h16.185608v15.928589h16.365357v52.493378h-16.365357v16.110229h-16.185608v16.11026zm19.781998-20.273803h28.954102v-16.290955h16.005401v-43.80484h-16.005401v-15.928589h-28.954102z"/><path d="m150.997467 452.05722v-64.440032h-16.185135v-15.929566h-16.185623v-36.383118h19.781998v32.038849h16.00589v16.290955h12.948211v-16.290955h16.005417v-32.038849h19.962204v36.383118h-16.365341v15.929566h-16.185135v64.440032z"/><path d="m42.825512 452.05722v-16.11026h-16.185619v-20.454498h19.781997v16.290955h44.959519v-28.056h-48.555897v-16.110229h-16.185619v-36.202424h16.185619v-16.11026h52.152759v16.11026h16.365342v20.272858h-19.962204v-15.928589h-44.959519v27.875275h48.556381v15.747894h16.365342v36.564758h-16.365342v16.11026z"/></g></svg>