<?xml version="1.0" encoding="UTF-8"?>
<!-- Generated by Pixelmator Pro 3.8 -->
<svg width="1425" height="484" viewBox="0 0 1425 484" xmlns="http://www.w3.org/2000/svg" xmlns:xlink="http://www.w3.org/1999/xlink">
    <g id="Group">
        <path id="Path" fill="#ffffff" stroke="none" d="M 1022.210693 89.83017 L 1022.210693 75.654327 L 1015.130981 75.654327 L 1015.130981 61.478516 L 1008.034851 61.478516 L 1008.034851 54.398804 L 1000.955139 54.398804 L 1000.955139 47.302673 L 993.859009 47.302673 L 993.859009 40.222992 L 979.683228 40.222992 L 979.683228 33.126862 L 937.154785 33.126862 L 937.154785 40.222992 L 922.978943 40.222992 L 922.978943 47.302673 L 930.075073 47.302673 L 930.075073 54.398804 L 922.978943 54.398804 L 922.978943 61.478516 L 915.899231 61.478516 L 915.899231 68.574646 L 908.803101 68.574646 L 908.803101 61.478516 L 901.722412 61.478516 L 901.722412 75.654327 L 894.626343 75.654327 L 894.626343 89.83017 L 887.546631 89.83017 L 887.546631 245.750702 L 894.626343 245.750702 L 894.626343 267.022644 L 901.722412 267.022644 L 901.722412 274.102356 L 908.803101 274.102356 L 908.803101 281.198486 L 915.899231 281.198486 L 915.899231 288.279144 L 922.978943 288.279144 L 922.978943 295.374329 L 937.154785 295.374329 L 937.154785 302.454956 L 979.683228 302.454956 L 979.683228 295.374329 L 993.859009 295.374329 L 993.859009 288.279144 L 1000.955139 288.279144 L 1000.955139 281.198486 L 1008.034851 281.198486 L 1008.034851 274.102356 L 1015.130981 274.102356 L 1015.130981 267.022644 L 1022.210693 267.022644 L 1022.210693 252.846832 L 1029.290405 252.846832 L 1029.290405 89.83017 L 1022.210693 89.83017 Z M 922.978943 75.654327 L 922.978943 68.574646 L 937.154785 68.574646 L 937.154785 61.478516 L 979.683228 61.478516 L 979.683228 68.574646 L 993.859009 68.574646 L 993.859009 75.654327 L 1000.955139 75.654327 L 1000.955139 89.83017 L 1008.034851 89.83017 L 1008.034851 104.006958 L 1015.130981 104.006958 L 1015.130981 139.438293 L 1008.034851 139.438293 L 1008.034851 153.614136 L 1000.955139 153.614136 L 1000.955139 167.790924 L 993.859009 167.790924 L 993.859009 174.887054 L 979.683228 174.887054 L 979.683228 181.966736 L 937.154785 181.966736 L 937.154785 174.887054 L 922.978943 174.887054 L 922.978943 167.790924 L 915.899231 167.790924 L 915.899231 153.614136 L 908.803101 153.614136 L 908.803101 139.438293 L 901.722412 139.438293 L 901.722412 104.006958 L 908.803101 104.006958 L 908.803101 89.83017 L 915.899231 89.83017 L 915.899231 75.654327 L 922.978943 75.654327 Z M 1000.955139 267.022644 L 993.859009 267.022644 L 993.859009 274.102356 L 986.779297 274.102356 L 986.779297 281.198486 L 979.683228 281.198486 L 979.683228 274.102356 L 986.779297 274.102356 L 986.779297 267.022644 L 993.859009 267.022644 L 993.859009 259.926514 L 1000.955139 259.926514 L 1000.955139 267.022644 Z M 901.722412 181.966736 L 908.803101 181.966736 L 908.803101 231.574875 L 901.722412 231.574875 L 901.722412 181.966736 Z M 901.722412 167.790924 L 908.803101 167.790924 L 908.803101 174.887054 L 901.722412 174.887054 L 901.722412 167.790924 Z M 986.779297 259.926514 L 979.683228 259.926514 L 979.683228 267.022644 L 972.602539 267.022644 L 972.602539 274.102356 L 944.250854 274.102356 L 944.250854 267.022644 L 937.154785 267.022644 L 937.154785 259.926514 L 930.075073 259.926514 L 930.075073 252.846832 L 922.978943 252.846832 L 922.978943 217.41452 L 930.075073 217.41452 L 930.075073 210.31839 L 937.154785 210.31839 L 937.154785 203.238678 L 944.250854 203.238678 L 944.250854 196.142578 L 972.602539 196.142578 L 972.602539 203.238678 L 979.683228 203.238678 L 979.683228 210.31839 L 986.779297 210.31839 L 986.779297 217.41452 L 993.859009 217.41452 L 993.859009 252.846832 L 986.779297 252.846832 L 986.779297 259.926514 Z M 901.722412 245.750702 L 908.803101 245.750702 L 908.803101 252.846832 L 901.722412 252.846832 L 901.722412 245.750702 Z"/>
        <path id="path1" fill="#ffffff" stroke="none" d="M 986.779297 217.41452 L 979.683228 217.41452 L 979.683228 210.31839 L 972.602539 210.31839 L 972.602539 203.238678 L 944.250854 203.238678 L 944.250854 210.31839 L 937.154785 210.31839 L 937.154785 217.41452 L 930.075073 217.41452 L 930.075073 252.846832 L 937.154785 252.846832 L 937.154785 259.926514 L 944.250854 259.926514 L 944.250854 267.022644 L 972.602539 267.022644 L 972.602539 259.926514 L 979.683228 259.926514 L 979.683228 252.846832 L 986.779297 252.846832 L 986.779297 217.41452 Z M 944.250854 224.494202 L 951.330566 224.494202 L 951.330566 217.41452 L 958.426697 217.41452 L 958.426697 231.574875 L 951.330566 231.574875 L 951.330566 245.750702 L 944.250854 245.750702 L 944.250854 224.494202 Z M 951.330566 259.926514 L 951.330566 252.846832 L 958.426697 252.846832 L 958.426697 259.926514 L 951.330566 259.926514 Z"/>
        <path id="path2" fill="#ffffff" stroke="none" d="M 951.330566 125.262482 L 951.330566 174.887054 L 965.506409 174.887054 L 965.506409 125.262482 L 979.683228 125.262482 L 979.683228 132.358612 L 986.779297 132.358612 L 986.779297 111.086639 L 979.683228 111.086639 L 979.683228 104.006958 L 972.602539 104.006958 L 972.602539 96.910828 L 965.506409 96.910828 L 965.506409 89.83017 L 951.330566 89.83017 L 951.330566 96.910828 L 944.250854 96.910828 L 944.250854 104.006958 L 937.154785 104.006958 L 937.154785 111.086639 L 930.075073 111.086639 L 930.075073 132.358612 L 937.154785 132.358612 L 937.154785 125.262482 L 951.330566 125.262482 Z M 951.330566 111.086639 L 951.330566 104.006958 L 958.426697 104.006958 L 958.426697 118.18277 L 944.250854 118.18277 L 944.250854 111.086639 L 951.330566 111.086639 Z"/>
        <path id="path3" fill="#ffffff" stroke="none" d="M 930.075073 75.654327 L 930.075073 82.750458 L 922.978943 82.750458 L 922.978943 89.83017 L 915.899231 89.83017 L 915.899231 104.006958 L 908.803101 104.006958 L 908.803101 139.438293 L 915.899231 139.438293 L 915.899231 153.614136 L 922.978943 153.614136 L 922.978943 160.710236 L 930.075073 160.710236 L 930.075073 167.790924 L 937.154785 167.790924 L 937.154785 174.887054 L 944.250854 174.887054 L 944.250854 132.358612 L 937.154785 132.358612 L 937.154785 139.438293 L 922.978943 139.438293 L 922.978943 111.086639 L 930.075073 111.086639 L 930.075073 104.006958 L 937.154785 104.006958 L 937.154785 96.910828 L 944.250854 96.910828 L 944.250854 89.83017 L 951.330566 89.83017 L 951.330566 82.750458 L 965.506409 82.750458 L 965.506409 89.83017 L 972.602539 89.83017 L 972.602539 96.910828 L 979.683228 96.910828 L 979.683228 104.006958 L 986.779297 104.006958 L 986.779297 111.086639 L 993.859009 111.086639 L 993.859009 139.438293 L 979.683228 139.438293 L 979.683228 132.358612 L 972.602539 132.358612 L 972.602539 174.887054 L 979.683228 174.887054 L 979.683228 167.790924 L 986.779297 167.790924 L 986.779297 160.710236 L 993.859009 160.710236 L 993.859009 153.614136 L 1000.955139 153.614136 L 1000.955139 139.438293 L 1008.034851 139.438293 L 1008.034851 104.006958 L 1000.955139 104.006958 L 1000.955139 89.83017 L 993.859009 89.83017 L 993.859009 82.750458 L 986.779297 82.750458 L 986.779297 75.654327 L 979.683228 75.654327 L 979.683228 68.574646 L 937.154785 68.574646 L 937.154785 75.654327 L 930.075073 75.654327 Z"/>
        <path id="path4" fill="#ffffff" stroke="none" d="M 922.978943 47.302673 L 915.899231 47.302673 L 915.899231 54.398804 L 922.978943 54.398804 L 922.978943 47.302673 Z"/>
        <path id="path5" fill="#ffffff" stroke="none" d="M 915.899231 54.398804 L 908.803101 54.398804 L 908.803101 61.478516 L 915.899231 61.478516 L 915.899231 54.398804 Z"/>
        <path id="path6" fill="#ffffff" stroke="none" d="M 858.379456 234.03688 L 858.379456 220.641785 L 851.689148 220.641785 L 851.689148 207.246674 L 844.984375 207.246674 L 844.984375 193.851593 L 838.294067 193.851593 L 838.294067 187.162262 L 831.589233 187.162262 L 831.589233 180.456482 L 824.898926 180.456482 L 824.898926 173.767151 L 818.194153 173.767151 L 818.194153 167.061401 L 811.503845 167.061401 L 811.503845 160.37207 L 798.108765 160.37207 L 798.108765 153.66629 L 791.403992 153.66629 L 791.403992 146.976959 L 784.713684 146.976959 L 784.713684 140.27121 L 771.318542 140.27121 L 771.318542 133.581879 L 764.61377 133.581879 L 764.61377 126.877075 L 757.924438 126.877075 L 757.924438 120.186768 L 764.61377 120.186768 L 764.61377 106.791687 L 771.318542 106.791687 L 771.318542 86.706268 L 778.00885 86.706268 L 778.00885 66.606384 L 771.318542 66.606384 L 771.318542 46.521942 L 764.61377 46.521942 L 764.61377 39.816193 L 757.924438 39.816193 L 757.924438 33.126862 L 737.83905 33.126862 L 737.83905 39.816193 L 731.134216 39.816193 L 731.134216 100.101379 L 724.44397 100.101379 L 724.44397 113.49646 L 717.739136 113.49646 L 717.739136 120.186768 L 711.048828 120.186768 L 711.048828 126.877075 L 704.344055 126.877075 L 704.344055 133.581879 L 697.653748 133.581879 L 697.653748 140.27121 L 690.948975 140.27121 L 690.948975 153.66629 L 684.258667 153.66629 L 684.258667 173.767151 L 677.553833 173.767151 L 677.553833 187.162262 L 670.864014 187.162262 L 670.864014 173.767151 L 677.553833 173.767151 L 677.553833 146.976959 L 684.258667 146.976959 L 684.258667 140.27121 L 670.864014 140.27121 L 670.864014 146.976959 L 664.158752 146.976959 L 664.158752 153.66629 L 657.468933 153.66629 L 657.468933 167.061401 L 650.763672 167.061401 L 650.763672 213.952454 L 657.468933 213.952454 L 657.468933 227.346588 L 677.553833 227.346588 L 677.553833 220.641785 L 670.864014 220.641785 L 670.864014 207.246674 L 677.553833 207.246674 L 677.553833 220.641785 L 684.258667 220.641785 L 684.258667 240.741669 L 690.948975 240.741669 L 690.948975 234.03688 L 697.653748 234.03688 L 697.653748 220.641785 L 724.44397 220.641785 L 724.44397 213.952454 L 731.134216 213.952454 L 731.134216 207.246674 L 751.218689 207.246674 L 751.218689 213.952454 L 757.924438 213.952454 L 757.924438 220.641785 L 764.61377 220.641785 L 764.61377 227.346588 L 771.318542 227.346588 L 771.318542 240.741669 L 778.00885 240.741669 L 778.00885 247.431976 L 771.318542 247.431976 L 771.318542 240.741669 L 764.61377 240.741669 L 764.61377 227.346588 L 757.924438 227.346588 L 757.924438 220.641785 L 751.218689 220.641785 L 751.218689 213.952454 L 731.134216 213.952454 L 731.134216 247.431976 L 737.83905 247.431976 L 737.83905 254.122284 L 744.529358 254.122284 L 744.529358 260.827087 L 751.218689 260.827087 L 751.218689 267.517395 L 757.924438 267.517395 L 757.924438 274.222168 L 764.61377 274.222168 L 764.61377 280.912476 L 771.318542 280.912476 L 771.318542 287.617249 L 791.403992 287.617249 L 791.403992 280.912476 L 798.108765 280.912476 L 798.108765 247.431976 L 791.403992 247.431976 L 791.403992 234.03688 L 784.713684 234.03688 L 784.713684 220.641785 L 778.00885 220.641785 L 778.00885 200.557343 L 771.318542 200.557343 L 771.318542 193.851593 L 778.00885 193.851593 L 778.00885 200.557343 L 784.713684 200.557343 L 784.713684 213.952454 L 791.403992 213.952454 L 791.403992 227.346588 L 798.108765 227.346588 L 798.108765 240.741669 L 804.799072 240.741669 L 804.799072 247.431976 L 811.503845 247.431976 L 811.503845 254.122284 L 818.194153 254.122284 L 818.194153 260.827087 L 824.898926 260.827087 L 824.898926 267.517395 L 858.379456 267.517395 L 858.379456 260.827087 L 865.084229 260.827087 L 865.084229 234.03688 L 858.379456 234.03688 Z M 711.048828 193.851593 L 711.048828 187.162262 L 724.44397 187.162262 L 724.44397 180.456482 L 744.529358 180.456482 L 744.529358 187.162262 L 724.44397 187.162262 L 724.44397 193.851593 L 711.048828 193.851593 Z M 778.00885 153.66629 L 778.00885 160.37207 L 764.61377 160.37207 L 764.61377 153.66629 L 751.218689 153.66629 L 751.218689 140.27121 L 757.924438 140.27121 L 757.924438 146.976959 L 771.318542 146.976959 L 771.318542 153.66629 L 778.00885 153.66629 Z M 764.61377 53.211273 L 764.61377 59.917053 L 757.924438 59.917053 L 757.924438 53.211273 L 744.529358 53.211273 L 744.529358 46.521942 L 757.924438 46.521942 L 757.924438 53.211273 L 764.61377 53.211273 Z"/>
        <path id="path7" fill="#ffffff" stroke="none" d="M 697.653748 260.827087 L 704.344055 260.827087 L 704.344055 274.222168 L 711.048828 274.222168 L 711.048828 280.912476 L 717.739136 280.912476 L 717.739136 287.617249 L 731.134216 287.617249 L 731.134216 294.30661 L 751.218689 294.30661 L 751.218689 287.617249 L 757.924438 287.617249 L 757.924438 280.912476 L 751.218689 280.912476 L 751.218689 274.222168 L 744.529358 274.222168 L 744.529358 267.517395 L 737.83905 267.517395 L 737.83905 260.827087 L 731.134216 260.827087 L 731.134216 254.122284 L 724.44397 254.122284 L 724.44397 227.346588 L 704.344055 227.346588 L 704.344055 234.03688 L 697.653748 234.03688 L 697.653748 260.827087 Z"/>
        <path id="path8" fill="#ffffff" stroke="none" d="M 854.659424 116.401001 L 847.226074 116.401001 L 847.226074 123.834351 L 854.659424 123.834351 L 854.659424 116.401001 Z"/>
        <path id="path9" fill="#ffffff" stroke="none" d="M 839.776306 138.717468 L 847.226074 138.717468 L 847.226074 123.834351 L 839.776306 123.834351 L 839.776306 138.717468 Z"/>
        <path id="path10" fill="#ffffff" stroke="none" d="M 847.226074 101.516937 L 839.776306 101.516937 L 839.776306 116.401001 L 847.226074 116.401001 L 847.226074 101.516937 Z"/>
        <path id="path11" fill="#ffffff" stroke="none" d="M 839.776306 116.401001 L 832.342957 116.401001 L 832.342957 123.834351 L 839.776306 123.834351 L 839.776306 116.401001 Z"/>
        <path id="path12" fill="#ffffff" stroke="none" d="M 676.0755 56.867584 L 668.625244 56.867584 L 668.625244 64.317352 L 676.0755 64.317352 L 676.0755 56.867584 Z"/>
        <path id="path13" fill="#ffffff" stroke="none" d="M 661.192383 79.20047 L 668.625244 79.20047 L 668.625244 64.317352 L 661.192383 64.317352 L 661.192383 79.20047 Z"/>
        <path id="path14" fill="#ffffff" stroke="none" d="M 668.625244 41.98349 L 661.192383 41.98349 L 661.192383 56.867584 L 668.625244 56.867584 L 668.625244 41.98349 Z"/>
        <path id="path15" fill="#ffffff" stroke="none" d="M 661.192383 280.10083 L 653.742126 280.10083 L 653.742126 287.551575 L 661.192383 287.551575 L 661.192383 280.10083 Z"/>
        <path id="path16" fill="#ffffff" stroke="none" d="M 661.192383 56.867584 L 653.742126 56.867584 L 653.742126 64.317352 L 661.192383 64.317352 L 661.192383 56.867584 Z"/>
        <path id="path17" fill="#ffffff" stroke="none" d="M 646.308777 302.434692 L 653.742126 302.434692 L 653.742126 287.551575 L 646.308777 287.551575 L 646.308777 302.434692 Z"/>
        <path id="path18" fill="#ffffff" stroke="none" d="M 653.742126 265.217712 L 646.308777 265.217712 L 646.308777 280.10083 L 653.742126 280.10083 L 653.742126 265.217712 Z"/>
        <path id="path19" fill="#ffffff" stroke="none" d="M 646.308777 280.10083 L 638.858521 280.10083 L 638.858521 287.551575 L 646.308777 287.551575 L 646.308777 280.10083 Z"/>
        <path id="path20" fill="#ffffff" fill-rule="evenodd" stroke="none" d="M 468.146179 273.335144 L 482.706543 273.335144 L 482.706543 280.623566 L 468.146179 280.623566 L 468.146179 287.895569 L 460.875153 287.895569 L 460.875153 295.18396 L 439.026337 295.18396 L 439.026337 302.454956 L 402.636475 302.454956 L 402.636475 287.895569 L 409.907013 287.895569 L 409.907013 280.623566 L 424.467407 280.623566 L 424.467407 273.335144 L 439.026337 273.335144 L 439.026337 266.064148 L 468.146179 266.064148 L 468.146179 273.335144 Z M 417.195435 295.18396 L 431.755829 295.18396 L 431.755829 287.895569 L 417.195435 287.895569 L 417.195435 295.18396 Z"/>
        <path id="path21" fill="#ffffff" fill-rule="evenodd" stroke="none" d="M 628.302246 207.82547 L 621.013855 207.82547 L 621.013855 215.097443 L 613.743347 215.097443 L 613.743347 222.384888 L 606.454895 222.384888 L 606.454895 229.656876 L 599.182922 229.656876 L 599.182922 236.945282 L 584.623962 236.945282 L 584.623962 244.21727 L 577.335571 244.21727 L 577.335571 251.503754 L 570.06311 251.503754 L 570.06311 258.776703 L 562.775208 258.776703 L 562.775208 266.064148 L 584.623962 266.064148 L 584.623962 273.335144 L 599.182922 273.335144 L 599.182922 280.623566 L 591.894531 280.623566 L 591.894531 287.895569 L 599.182922 287.895569 L 599.182922 280.623566 L 613.743347 280.623566 L 613.743347 287.895569 L 621.013855 287.895569 L 621.013855 302.454956 L 584.623962 302.454956 L 584.623962 295.18396 L 562.775208 295.18396 L 562.775208 287.895569 L 548.216248 287.895569 L 548.216248 280.623566 L 540.943787 280.623566 L 540.943787 258.776703 L 548.216248 258.776703 L 548.216248 251.503754 L 562.775208 251.503754 L 562.775208 244.21727 L 555.50415 244.21727 L 555.50415 236.945282 L 562.775208 236.945282 L 562.775208 229.656876 L 570.06311 229.656876 L 570.06311 215.097443 L 577.335571 215.097443 L 577.335571 207.82547 L 584.623962 207.82547 L 584.623962 200.537048 L 591.894531 200.537048 L 591.894531 193.266998 L 599.182922 193.266998 L 599.182922 185.978607 L 606.454895 185.978607 L 606.454895 178.706604 L 628.302246 178.706604 L 628.302246 207.82547 Z M 599.182922 295.18396 L 606.454895 295.18396 L 606.454895 287.895569 L 599.182922 287.895569 L 599.182922 295.18396 Z M 613.743347 193.266998 L 606.454895 193.266998 L 606.454895 200.537048 L 613.743347 200.537048 L 613.743347 193.266998 L 621.013855 193.266998 L 621.013855 185.978607 L 613.743347 185.978607 L 613.743347 193.266998 Z"/>
        <path id="path22" fill="#ffffff" stroke="none" d="M 519.096436 266.064148 L 533.657288 266.064148 L 533.657288 273.335144 L 519.096436 273.335144 L 519.096436 287.895569 L 511.825897 287.895569 L 511.825897 295.18396 L 504.553894 295.18396 L 504.553894 273.335144 L 511.825897 273.335144 L 511.825897 266.064148 L 504.553894 266.064148 L 504.553894 273.335144 L 489.993042 273.335144 L 489.993042 266.064148 L 504.553894 266.064148 L 504.553894 258.776703 L 519.096436 258.776703 L 519.096436 266.064148 Z"/>
        <path id="path23" fill="#ffffff" stroke="none" d="M 417.195435 185.978607 L 424.467407 185.978607 L 424.467407 200.537048 L 417.195435 200.537048 L 417.195435 193.266998 L 409.907013 193.266998 L 409.907013 200.537048 L 417.195435 200.537048 L 417.195435 207.82547 L 424.467407 207.82547 L 424.467407 200.537048 L 439.026337 200.537048 L 439.026337 207.82547 L 446.314758 207.82547 L 446.314758 222.384888 L 453.587219 222.384888 L 453.587219 236.945282 L 460.875153 236.945282 L 460.875153 244.21727 L 468.146179 244.21727 L 468.146179 251.503754 L 475.434082 251.503754 L 475.434082 258.776703 L 482.706543 258.776703 L 482.706543 266.065125 L 468.146179 266.065125 L 468.146179 258.776703 L 453.587219 258.776703 L 453.587219 251.503754 L 446.314758 251.503754 L 446.314758 244.21727 L 431.755829 244.21727 L 431.755829 236.945282 L 424.467407 236.945282 L 424.467407 229.656876 L 409.907013 229.656876 L 409.907013 215.097443 L 402.636475 215.097443 L 402.636475 207.82547 L 395.348083 207.82547 L 395.348083 178.706604 L 417.195435 178.706604 L 417.195435 185.978607 Z"/>
        <path id="path24" fill="#ffffff" stroke="none" d="M 504.553894 244.21727 L 511.825897 244.21727 L 511.825897 251.503754 L 497.265503 251.503754 L 497.265503 258.776703 L 489.993042 258.776703 L 489.993042 251.503754 L 482.706543 251.503754 L 482.706543 244.21727 L 497.265503 244.21727 L 497.265503 236.945282 L 504.553894 236.945282 L 504.553894 244.21727 Z"/>
        <path id="path25" fill="#ffffff" stroke="none" d="M 548.216248 251.503754 L 533.657288 251.503754 L 533.657288 258.776703 L 526.384827 258.776703 L 526.384827 251.503754 L 519.096436 251.503754 L 519.096436 244.21727 L 533.657288 244.21727 L 533.657288 236.945282 L 540.943787 236.945282 L 540.943787 229.656876 L 548.216248 229.656876 L 548.216248 251.503754 Z"/>
        <path id="path26" fill="#ffffff" stroke="none" d="M 475.434082 244.21727 L 468.146179 244.21727 L 468.146179 236.945282 L 475.434082 236.945282 L 475.434082 244.21727 Z"/>
        <path id="path27" fill="#ffffff" stroke="none" d="M 489.993042 222.384888 L 497.265503 222.384888 L 497.265503 229.656876 L 489.993042 229.656876 L 489.993042 236.945282 L 482.706543 236.945282 L 482.706543 229.656876 L 475.434082 229.656876 L 475.434082 222.384888 L 482.706543 222.384888 L 482.706543 215.097443 L 489.993042 215.097443 L 489.993042 222.384888 Z"/>
        <path id="path28" fill="#ffffff" stroke="none" d="M 519.096436 236.945282 L 504.553894 236.945282 L 504.553894 229.656876 L 519.096436 229.656876 L 519.096436 236.945282 Z"/>
        <path id="path29" fill="#ffffff" stroke="none" d="M 533.657288 236.945282 L 526.384827 236.945282 L 526.384827 229.656876 L 533.657288 229.656876 L 533.657288 236.945282 Z"/>
        <path id="path30" fill="#ffffff" stroke="none" d="M 468.146179 229.656876 L 460.875153 229.656876 L 460.875153 222.384888 L 468.146179 222.384888 L 468.146179 229.656876 Z"/>
        <path id="path31" fill="#ffffff" stroke="none" d="M 526.384827 229.656876 L 519.096436 229.656876 L 519.096436 222.384888 L 526.384827 222.384888 L 526.384827 229.656876 Z"/>
        <path id="path32" fill="#ffffff" stroke="none" d="M 540.943787 229.656876 L 533.657288 229.656876 L 533.657288 222.384888 L 540.943787 222.384888 L 540.943787 229.656876 Z"/>
        <path id="path33" fill="#ffffff" stroke="none" d="M 555.50415 229.656876 L 548.216248 229.656876 L 548.216248 222.384888 L 555.50415 222.384888 L 555.50415 229.656876 Z"/>
        <path id="path34" fill="#ffffff" stroke="none" d="M 475.434082 178.706604 L 482.706543 178.706604 L 482.706543 185.978607 L 475.434082 185.978607 L 475.434082 222.384888 L 468.146179 222.384888 L 468.146179 215.097443 L 460.875153 215.097443 L 460.875153 222.384888 L 453.587219 222.384888 L 453.587219 215.097443 L 460.875153 215.097443 L 460.875153 207.82547 L 453.587219 207.82547 L 453.587219 193.266998 L 460.875153 193.266998 L 460.875153 200.537048 L 468.146179 200.537048 L 468.146179 185.978607 L 460.875153 185.978607 L 460.875153 178.706604 L 468.146179 178.706604 L 468.146179 171.435608 L 475.434082 171.435608 L 475.434082 178.706604 Z"/>
        <path id="path35" fill="#ffffff" stroke="none" d="M 533.657288 207.82547 L 526.384827 207.82547 L 526.384827 215.097443 L 511.825897 215.097443 L 511.825897 222.384888 L 504.553894 222.384888 L 504.553894 207.82547 L 511.825897 207.82547 L 511.825897 200.537048 L 526.384827 200.537048 L 526.384827 193.266998 L 533.657288 193.266998 L 533.657288 207.82547 Z"/>
        <path id="path36" fill="#ffffff" stroke="none" d="M 548.216248 222.384888 L 540.943787 222.384888 L 540.943787 215.097443 L 548.216248 215.097443 L 548.216248 222.384888 Z"/>
        <path id="path37" fill="#ffffff" stroke="none" d="M 562.775208 222.384888 L 555.50415 222.384888 L 555.50415 215.097443 L 562.775208 215.097443 L 562.775208 222.384888 Z"/>
        <path id="path38" fill="#ffffff" stroke="none" d="M 497.265503 215.097443 L 489.993042 215.097443 L 489.993042 207.82547 L 497.265503 207.82547 L 497.265503 215.097443 Z"/>
        <path id="path39" fill="#ffffff" stroke="none" d="M 555.50415 215.097443 L 548.216248 215.097443 L 548.216248 207.82547 L 555.50415 207.82547 L 555.50415 215.097443 Z"/>
        <path id="path40" fill="#ffffff" stroke="none" d="M 570.06311 215.097443 L 562.775208 215.097443 L 562.775208 207.82547 L 570.06311 207.82547 L 570.06311 215.097443 Z"/>
        <path id="path41" fill="#ffffff" stroke="none" d="M 489.993042 207.82547 L 482.706543 207.82547 L 482.706543 200.537048 L 489.993042 200.537048 L 489.993042 207.82547 Z"/>
        <path id="path42" fill="#ffffff" stroke="none" d="M 548.216248 207.82547 L 540.943787 207.82547 L 540.943787 200.537048 L 548.216248 200.537048 L 548.216248 207.82547 Z"/>
        <path id="path43" fill="#ffffff" stroke="none" d="M 562.775208 207.82547 L 555.50415 207.82547 L 555.50415 200.537048 L 562.775208 200.537048 L 562.775208 207.82547 Z"/>
        <path id="path44" fill="#ffffff" stroke="none" d="M 497.265503 200.537048 L 489.993042 200.537048 L 489.993042 193.266998 L 497.265503 193.266998 L 497.265503 200.537048 Z"/>
        <path id="path45" fill="#ffffff" stroke="none" d="M 511.825897 200.537048 L 504.553894 200.537048 L 504.553894 193.266998 L 511.825897 193.266998 L 511.825897 200.537048 Z"/>
        <path id="path46" fill="#ffffff" stroke="none" d="M 555.50415 200.537048 L 548.216248 200.537048 L 548.216248 193.266998 L 555.50415 193.266998 L 555.50415 200.537048 Z"/>
        <path id="path47" fill="#ffffff" stroke="none" d="M 570.06311 200.537048 L 562.775208 200.537048 L 562.775208 193.266998 L 570.06311 193.266998 L 570.06311 200.537048 Z"/>
        <path id="path48" fill="#ffffff" stroke="none" d="M 453.587219 193.266998 L 446.314758 193.266998 L 446.314758 185.978607 L 453.587219 185.978607 L 453.587219 193.266998 Z"/>
        <path id="path49" fill="#ffffff" stroke="none" d="M 489.993042 193.266998 L 482.706543 193.266998 L 482.706543 185.978607 L 489.993042 185.978607 L 489.993042 193.266998 Z"/>
        <path id="path50" fill="#ffffff" stroke="none" d="M 526.384827 193.266998 L 511.825897 193.266998 L 511.825897 185.978607 L 526.384827 185.978607 L 526.384827 193.266998 Z"/>
        <path id="path51" fill="#ffffff" stroke="none" d="M 540.943787 193.266998 L 533.657288 193.266998 L 533.657288 178.706604 L 540.943787 178.706604 L 540.943787 193.266998 Z"/>
        <path id="path52" fill="#ffffff" stroke="none" d="M 562.775208 193.266998 L 555.50415 193.266998 L 555.50415 185.978607 L 562.775208 185.978607 L 562.775208 193.266998 Z"/>
        <path id="path53" fill="#ffffff" stroke="none" d="M 577.335571 193.266998 L 570.06311 193.266998 L 570.06311 185.978607 L 577.335571 185.978607 L 577.335571 193.266998 Z"/>
        <path id="path54" fill="#ffffff" stroke="none" d="M 497.265503 185.978607 L 489.993042 185.978607 L 489.993042 178.706604 L 497.265503 178.706604 L 497.265503 185.978607 Z"/>
        <path id="path55" fill="#ffffff" stroke="none" d="M 511.825897 164.147186 L 526.384827 164.147186 L 526.384827 178.706604 L 519.096436 178.706604 L 519.096436 171.435608 L 511.825897 171.435608 L 511.825897 185.978607 L 504.553894 185.978607 L 504.553894 156.875214 L 511.825897 156.875214 L 511.825897 164.147186 Z"/>
        <path id="path56" fill="#ffffff" stroke="none" d="M 555.50415 185.978607 L 548.216248 185.978607 L 548.216248 178.706604 L 555.50415 178.706604 L 555.50415 185.978607 Z"/>
        <path id="path57" fill="#ffffff" stroke="none" d="M 570.06311 185.978607 L 562.775208 185.978607 L 562.775208 178.706604 L 570.06311 178.706604 L 570.06311 185.978607 Z"/>
        <path id="path58" fill="#ffffff" stroke="none" d="M 460.875153 178.706604 L 453.587219 178.706604 L 453.587219 171.435608 L 460.875153 171.435608 L 460.875153 178.706604 Z"/>
        <path id="path59" fill="#ffffff" stroke="none" d="M 489.993042 178.706604 L 482.706543 178.706604 L 482.706543 171.435608 L 489.993042 171.435608 L 489.993042 178.706604 Z"/>
        <path id="path60" fill="#ffffff" stroke="none" d="M 562.775208 178.706604 L 555.50415 178.706604 L 555.50415 171.435608 L 562.775208 171.435608 L 562.775208 178.706604 Z"/>
        <path id="path61" fill="#ffffff" stroke="none" d="M 577.335571 178.706604 L 570.06311 178.706604 L 570.06311 171.435608 L 577.335571 171.435608 L 577.335571 178.706604 Z"/>
        <path id="path62" fill="#ffffff" stroke="none" d="M 482.706543 171.435608 L 475.434082 171.435608 L 475.434082 156.875214 L 482.706543 156.875214 L 482.706543 171.435608 Z"/>
        <path id="path63" fill="#ffffff" stroke="none" d="M 540.943787 171.435608 L 533.657288 171.435608 L 533.657288 164.147186 L 540.943787 164.147186 L 540.943787 171.435608 Z"/>
        <path id="path64" fill="#ffffff" stroke="none" d="M 555.50415 171.435608 L 548.216248 171.435608 L 548.216248 164.147186 L 555.50415 164.147186 L 555.50415 171.435608 Z"/>
        <path id="path65" fill="#ffffff" stroke="none" d="M 570.06311 171.435608 L 562.775208 171.435608 L 562.775208 164.147186 L 570.06311 164.147186 L 570.06311 171.435608 Z"/>
        <path id="path66" fill="#ffffff" stroke="none" d="M 468.146179 164.147186 L 460.875153 164.147186 L 460.875153 156.875214 L 468.146179 156.875214 L 468.146179 164.147186 Z"/>
        <path id="path67" fill="#ffffff" stroke="none" d="M 497.265503 164.147186 L 489.993042 164.147186 L 489.993042 156.875214 L 497.265503 156.875214 L 497.265503 164.147186 Z"/>
        <path id="path68" fill="#ffffff" stroke="none" d="M 562.775208 164.147186 L 555.50415 164.147186 L 555.50415 156.875214 L 562.775208 156.875214 L 562.775208 164.147186 Z"/>
        <path id="path69" fill="#ffffff" stroke="none" d="M 577.335571 164.147186 L 570.06311 164.147186 L 570.06311 156.875214 L 577.335571 156.875214 L 577.335571 164.147186 Z"/>
        <path id="path70" fill="#ffffff" stroke="none" d="M 460.875153 156.875214 L 453.587219 156.875214 L 453.587219 149.586792 L 460.875153 149.586792 L 460.875153 156.875214 Z"/>
        <path id="path71" fill="#ffffff" stroke="none" d="M 475.434082 156.875214 L 468.146179 156.875214 L 468.146179 149.586792 L 475.434082 149.586792 L 475.434082 156.875214 Z"/>
        <path id="path72" fill="#ffffff" stroke="none" d="M 489.993042 156.875214 L 482.706543 156.875214 L 482.706543 149.586792 L 489.993042 149.586792 L 489.993042 156.875214 Z"/>
        <path id="path73" fill="#ffffff" stroke="none" d="M 519.096436 142.315796 L 526.384827 142.315796 L 526.384827 149.586792 L 519.096436 149.586792 L 519.096436 156.875214 L 511.825897 156.875214 L 511.825897 149.586792 L 504.553894 149.586792 L 504.553894 142.315796 L 511.825897 142.315796 L 511.825897 135.027374 L 519.096436 135.027374 L 519.096436 142.315796 Z"/>
        <path id="path74" fill="#ffffff" stroke="none" d="M 540.943787 156.875214 L 526.384827 156.875214 L 526.384827 149.586792 L 533.657288 149.586792 L 533.657288 142.315796 L 540.943787 142.315796 L 540.943787 156.875214 Z"/>
        <path id="path75" fill="#ffffff" stroke="none" d="M 555.50415 156.875214 L 548.216248 156.875214 L 548.216248 149.586792 L 555.50415 149.586792 L 555.50415 156.875214 Z"/>
        <path id="path76" fill="#ffffff" stroke="none" d="M 570.06311 156.875214 L 562.775208 156.875214 L 562.775208 149.586792 L 570.06311 149.586792 L 570.06311 156.875214 Z"/>
        <path id="path77" fill="#ffffff" stroke="none" d="M 453.587219 142.315796 L 453.587219 149.586792 L 446.314758 149.586792 L 446.314758 142.315796 L 453.587219 142.315796 Z"/>
        <path id="path78" fill="#ffffff" stroke="none" d="M 468.146179 149.586792 L 460.875153 149.586792 L 460.875153 142.315796 L 468.146179 142.315796 L 468.146179 149.586792 Z"/>
        <path id="path79" fill="#ffffff" stroke="none" d="M 482.706543 149.586792 L 475.434082 149.586792 L 475.434082 142.315796 L 482.706543 142.315796 L 482.706543 149.586792 Z"/>
        <path id="path80" fill="#ffffff" stroke="none" d="M 497.265503 149.586792 L 489.993042 149.586792 L 489.993042 142.315796 L 497.265503 142.315796 L 497.265503 149.586792 Z"/>
        <path id="path81" fill="#ffffff" stroke="none" d="M 562.775208 149.586792 L 555.50415 149.586792 L 555.50415 142.315796 L 562.775208 142.315796 L 562.775208 149.586792 Z"/>
        <path id="path82" fill="#ffffff" stroke="none" d="M 577.335571 149.586792 L 570.06311 149.586792 L 570.06311 142.315796 L 577.335571 142.315796 L 577.335571 149.586792 Z"/>
        <path id="path83" fill="#ffffff" stroke="none" d="M 460.875153 142.315796 L 453.587219 142.315796 L 453.587219 135.027374 L 460.875153 135.027374 L 460.875153 142.315796 Z"/>
        <path id="path84" fill="#ffffff" stroke="none" d="M 475.434082 142.315796 L 468.146179 142.315796 L 468.146179 135.027374 L 475.434082 135.027374 L 475.434082 142.315796 Z"/>
        <path id="path85" fill="#ffffff" stroke="none" d="M 489.993042 142.315796 L 482.706543 142.315796 L 482.706543 135.027374 L 489.993042 135.027374 L 489.993042 142.315796 Z"/>
        <path id="path86" fill="#ffffff" stroke="none" d="M 533.657288 142.315796 L 526.384827 142.315796 L 526.384827 135.027374 L 533.657288 135.027374 L 533.657288 142.315796 Z"/>
        <path id="path87" fill="#ffffff" stroke="none" d="M 555.50415 142.315796 L 548.216248 142.315796 L 548.216248 135.027374 L 555.50415 135.027374 L 555.50415 142.315796 Z"/>
        <path id="path88" fill="#ffffff" stroke="none" d="M 570.06311 142.315796 L 562.775208 142.315796 L 562.775208 135.027374 L 570.06311 135.027374 L 570.06311 142.315796 Z"/>
        <path id="path89" fill="#ffffff" stroke="none" d="M 468.146179 135.027374 L 460.875153 135.027374 L 460.875153 127.755402 L 468.146179 127.755402 L 468.146179 135.027374 Z"/>
        <path id="path90" fill="#ffffff" stroke="none" d="M 482.706543 135.027374 L 475.434082 135.027374 L 475.434082 127.755402 L 482.706543 127.755402 L 482.706543 135.027374 Z"/>
        <path id="path91" fill="#ffffff" stroke="none" d="M 497.265503 135.027374 L 489.993042 135.027374 L 489.993042 127.755402 L 497.265503 127.755402 L 497.265503 135.027374 Z"/>
        <path id="path92" fill="#ffffff" stroke="none" d="M 519.096436 127.755402 L 511.825897 127.755402 L 511.825897 135.027374 L 504.553894 135.027374 L 504.553894 120.46698 L 519.096436 120.46698 L 519.096436 127.755402 Z"/>
        <path id="path93" fill="#ffffff" stroke="none" d="M 526.384827 135.027374 L 519.096436 135.027374 L 519.096436 127.755402 L 526.384827 127.755402 L 526.384827 135.027374 Z"/>
        <path id="path94" fill="#ffffff" stroke="none" d="M 540.943787 135.027374 L 533.657288 135.027374 L 533.657288 127.755402 L 540.943787 127.755402 L 540.943787 135.027374 Z"/>
        <path id="path95" fill="#ffffff" stroke="none" d="M 562.775208 135.027374 L 555.50415 135.027374 L 555.50415 127.755402 L 562.775208 127.755402 L 562.775208 135.027374 Z"/>
        <path id="path96" fill="#ffffff" stroke="none" d="M 460.875153 127.755402 L 453.587219 127.755402 L 453.587219 120.46698 L 460.875153 120.46698 L 460.875153 127.755402 Z"/>
        <path id="path97" fill="#ffffff" stroke="none" d="M 475.434082 127.755402 L 468.146179 127.755402 L 468.146179 120.46698 L 475.434082 120.46698 L 475.434082 127.755402 Z"/>
        <path id="path98" fill="#ffffff" stroke="none" d="M 489.993042 127.755402 L 482.706543 127.755402 L 482.706543 113.19693 L 489.993042 113.19693 L 489.993042 127.755402 Z"/>
        <path id="path99" fill="#ffffff" stroke="none" d="M 548.216248 127.755402 L 540.943787 127.755402 L 540.943787 120.46698 L 548.216248 120.46698 L 548.216248 127.755402 Z"/>
        <path id="path100" fill="#ffffff" stroke="none" d="M 570.06311 127.755402 L 562.775208 127.755402 L 562.775208 120.46698 L 570.06311 120.46698 L 570.06311 127.755402 Z"/>
        <path id="path101" fill="#ffffff" stroke="none" d="M 468.146179 120.46698 L 460.875153 120.46698 L 460.875153 113.19693 L 468.146179 113.19693 L 468.146179 120.46698 Z"/>
        <path id="path102" fill="#ffffff" stroke="none" d="M 504.553894 120.46698 L 497.265503 120.46698 L 497.265503 113.19693 L 504.553894 113.19693 L 504.553894 120.46698 Z"/>
        <path id="path103" fill="#ffffff" stroke="none" d="M 540.943787 120.46698 L 526.384827 120.46698 L 526.384827 113.19693 L 540.943787 113.19693 L 540.943787 120.46698 Z"/>
        <path id="path104" fill="#ffffff" stroke="none" d="M 555.50415 120.46698 L 548.216248 120.46698 L 548.216248 113.19693 L 555.50415 113.19693 L 555.50415 120.46698 Z"/>
        <path id="path105" fill="#ffffff" stroke="none" d="M 577.335571 120.46698 L 570.06311 120.46698 L 570.06311 113.19693 L 577.335571 113.19693 L 577.335571 120.46698 Z"/>
        <path id="path106" fill="#ffffff" stroke="none" d="M 460.875153 113.19693 L 453.587219 113.19693 L 453.587219 105.908539 L 460.875153 105.908539 L 460.875153 113.19693 Z"/>
        <path id="path107" fill="#ffffff" stroke="none" d="M 482.706543 113.19693 L 475.434082 113.19693 L 475.434082 105.908539 L 482.706543 105.908539 L 482.706543 113.19693 Z"/>
        <path id="path108" fill="#ffffff" stroke="none" d="M 497.265503 113.19693 L 489.993042 113.19693 L 489.993042 105.908539 L 497.265503 105.908539 L 497.265503 113.19693 Z"/>
        <path id="path109" fill="#ffffff" stroke="none" d="M 511.825897 113.19693 L 504.553894 113.19693 L 504.553894 105.908539 L 511.825897 105.908539 L 511.825897 113.19693 Z"/>
        <path id="path110" fill="#ffffff" stroke="none" d="M 526.384827 113.19693 L 519.096436 113.19693 L 519.096436 105.908539 L 526.384827 105.908539 L 526.384827 113.19693 Z"/>
        <path id="path111" fill="#ffffff" stroke="none" d="M 548.216248 113.19693 L 540.943787 113.19693 L 540.943787 105.908539 L 548.216248 105.908539 L 548.216248 113.19693 Z"/>
        <path id="path112" fill="#ffffff" stroke="none" d="M 562.775208 113.19693 L 555.50415 113.19693 L 555.50415 105.908539 L 562.775208 105.908539 L 562.775208 113.19693 Z"/>
        <path id="path113" fill="#ffffff" stroke="none" d="M 475.434082 105.908539 L 468.146179 105.908539 L 468.146179 98.636536 L 475.434082 98.636536 L 475.434082 105.908539 Z"/>
        <path id="path114" fill="#ffffff" stroke="none" d="M 504.553894 105.908539 L 497.265503 105.908539 L 497.265503 98.636536 L 504.553894 98.636536 L 504.553894 105.908539 Z"/>
        <path id="path115" fill="#ffffff" stroke="none" d="M 540.943787 105.908539 L 526.384827 105.908539 L 526.384827 98.636536 L 540.943787 98.636536 L 540.943787 105.908539 Z"/>
        <path id="path116" fill="#ffffff" stroke="none" d="M 555.50415 105.908539 L 548.216248 105.908539 L 548.216248 98.636536 L 555.50415 98.636536 L 555.50415 105.908539 Z"/>
        <path id="path117" fill="#ffffff" stroke="none" d="M 570.06311 105.908539 L 562.775208 105.908539 L 562.775208 98.636536 L 570.06311 98.636536 L 570.06311 105.908539 Z"/>
        <path id="path118" fill="#ffffff" stroke="none" d="M 468.146179 98.636536 L 460.875153 98.636536 L 460.875153 91.349091 L 468.146179 91.349091 L 468.146179 98.636536 Z"/>
        <path id="path119" fill="#ffffff" stroke="none" d="M 482.706543 98.636536 L 475.434082 98.636536 L 475.434082 91.349091 L 482.706543 91.349091 L 482.706543 98.636536 Z"/>
        <path id="path120" fill="#ffffff" stroke="none" d="M 497.265503 98.636536 L 489.993042 98.636536 L 489.993042 91.349091 L 497.265503 91.349091 L 497.265503 98.636536 Z"/>
        <path id="path121" fill="#ffffff" stroke="none" d="M 511.825897 91.349091 L 519.096436 91.349091 L 519.096436 84.077118 L 526.384827 84.077118 L 526.384827 98.636536 L 504.553894 98.636536 L 504.553894 84.077118 L 511.825897 84.077118 L 511.825897 91.349091 Z"/>
        <path id="path122" fill="#ffffff" stroke="none" d="M 548.216248 98.636536 L 540.943787 98.636536 L 540.943787 91.349091 L 548.216248 91.349091 L 548.216248 98.636536 Z"/>
        <path id="path123" fill="#ffffff" stroke="none" d="M 562.775208 98.636536 L 555.50415 98.636536 L 555.50415 91.349091 L 562.775208 91.349091 L 562.775208 98.636536 Z"/>
        <path id="path124" fill="#ffffff" stroke="none" d="M 475.434082 91.349091 L 468.146179 91.349091 L 468.146179 84.077118 L 475.434082 84.077118 L 475.434082 91.349091 Z"/>
        <path id="path125" fill="#ffffff" stroke="none" d="M 489.993042 91.349091 L 482.706543 91.349091 L 482.706543 84.077118 L 489.993042 84.077118 L 489.993042 91.349091 Z"/>
        <path id="path126" fill="#ffffff" stroke="none" d="M 540.943787 91.349091 L 533.657288 91.349091 L 533.657288 84.077118 L 540.943787 84.077118 L 540.943787 91.349091 Z"/>
        <path id="path127" fill="#ffffff" stroke="none" d="M 555.50415 91.349091 L 548.216248 91.349091 L 548.216248 84.077118 L 555.50415 84.077118 L 555.50415 91.349091 Z"/>
        <path id="path128" fill="#ffffff" stroke="none" d="M 570.06311 91.349091 L 562.775208 91.349091 L 562.775208 84.077118 L 570.06311 84.077118 L 570.06311 91.349091 Z"/>
        <path id="path129" fill="#ffffff" stroke="none" d="M 468.146179 84.077118 L 460.875153 84.077118 L 460.875153 76.788696 L 468.146179 76.788696 L 468.146179 84.077118 Z"/>
        <path id="path130" fill="#ffffff" stroke="none" d="M 482.706543 84.077118 L 475.434082 84.077118 L 475.434082 69.516724 L 482.706543 69.516724 L 482.706543 84.077118 Z"/>
        <path id="path131" fill="#ffffff" stroke="none" d="M 504.553894 84.077118 L 497.265503 84.077118 L 497.265503 76.788696 L 504.553894 76.788696 L 504.553894 84.077118 Z"/>
        <path id="path132" fill="#ffffff" stroke="none" d="M 519.096436 84.077118 L 511.825897 84.077118 L 511.825897 76.788696 L 519.096436 76.788696 L 519.096436 84.077118 Z"/>
        <path id="path133" fill="#ffffff" stroke="none" d="M 533.657288 84.077118 L 526.384827 84.077118 L 526.384827 76.788696 L 533.657288 76.788696 L 533.657288 84.077118 Z"/>
        <path id="path134" fill="#ffffff" stroke="none" d="M 548.216248 84.077118 L 540.943787 84.077118 L 540.943787 76.788696 L 548.216248 76.788696 L 548.216248 84.077118 Z"/>
        <path id="path135" fill="#ffffff" stroke="none" d="M 562.775208 84.077118 L 555.50415 84.077118 L 555.50415 76.788696 L 562.775208 76.788696 L 562.775208 84.077118 Z"/>
        <path id="path136" fill="#ffffff" stroke="none" d="M 460.875153 76.788696 L 453.587219 76.788696 L 453.587219 69.516724 L 460.875153 69.516724 L 460.875153 76.788696 Z"/>
        <path id="path137" fill="#ffffff" stroke="none" d="M 511.825897 76.788696 L 504.553894 76.788696 L 504.553894 69.516724 L 497.265503 69.516724 L 497.265503 76.788696 L 489.993042 76.788696 L 489.993042 69.516724 L 497.265503 69.516724 L 497.265503 62.230255 L 504.553894 62.230255 L 504.553894 54.957306 L 511.825897 54.957306 L 511.825897 76.788696 Z"/>
        <path id="path138" fill="#ffffff" stroke="none" d="M 526.384827 76.788696 L 519.096436 76.788696 L 519.096436 62.230255 L 526.384827 62.230255 L 526.384827 76.788696 Z"/>
        <path id="path139" fill="#ffffff" stroke="none" d="M 555.50415 76.788696 L 548.216248 76.788696 L 548.216248 69.516724 L 555.50415 69.516724 L 555.50415 76.788696 Z"/>
        <path id="path140" fill="#ffffff" stroke="none" d="M 570.06311 76.788696 L 562.775208 76.788696 L 562.775208 69.516724 L 570.06311 69.516724 L 570.06311 76.788696 Z"/>
        <path id="path141" fill="#ffffff" stroke="none" d="M 475.434082 69.516724 L 468.146179 69.516724 L 468.146179 62.230255 L 475.434082 62.230255 L 475.434082 69.516724 Z"/>
        <path id="path142" fill="#ffffff" stroke="none" d="M 489.993042 69.516724 L 482.706543 69.516724 L 482.706543 62.230255 L 489.993042 62.230255 L 489.993042 69.516724 Z"/>
        <path id="path143" fill="#ffffff" stroke="none" d="M 540.943787 69.516724 L 533.657288 69.516724 L 533.657288 62.230255 L 540.943787 62.230255 L 540.943787 69.516724 Z"/>
        <path id="path144" fill="#ffffff" stroke="none" d="M 562.775208 69.516724 L 555.50415 69.516724 L 555.50415 62.230255 L 562.775208 62.230255 L 562.775208 69.516724 Z"/>
        <path id="path145" fill="#ffffff" stroke="none" d="M 468.146179 62.230255 L 460.875153 62.230255 L 460.875153 54.957306 L 468.146179 54.957306 L 468.146179 62.230255 Z"/>
        <path id="path146" fill="#ffffff" stroke="none" d="M 482.706543 62.230255 L 475.434082 62.230255 L 475.434082 54.957306 L 482.706543 54.957306 L 482.706543 62.230255 Z"/>
        <path id="path147" fill="#ffffff" stroke="none" d="M 497.265503 62.230255 L 489.993042 62.230255 L 489.993042 54.957306 L 497.265503 54.957306 L 497.265503 62.230255 Z"/>
        <path id="path148" fill="#ffffff" stroke="none" d="M 533.657288 62.230255 L 526.384827 62.230255 L 526.384827 54.957306 L 533.657288 54.957306 L 533.657288 62.230255 Z"/>
        <path id="path149" fill="#ffffff" stroke="none" d="M 555.50415 54.957306 L 548.216248 54.957306 L 548.216248 62.230255 L 540.943787 62.230255 L 540.943787 47.668884 L 555.50415 47.668884 L 555.50415 54.957306 Z"/>
        <path id="path150" fill="#ffffff" stroke="none" d="M 570.06311 62.230255 L 562.775208 62.230255 L 562.775208 54.957306 L 570.06311 54.957306 L 570.06311 62.230255 Z"/>
        <path id="path151" fill="#ffffff" stroke="none" d="M 489.993042 54.957306 L 482.706543 54.957306 L 482.706543 47.668884 L 489.993042 47.668884 L 489.993042 54.957306 Z"/>
        <path id="path152" fill="#ffffff" stroke="none" d="M 519.096436 47.668884 L 526.384827 47.668884 L 526.384827 54.957306 L 511.825897 54.957306 L 511.825897 33.126862 L 519.096436 33.126862 L 519.096436 47.668884 Z"/>
        <path id="path153" fill="#ffffff" stroke="none" d="M 482.706543 47.668884 L 475.434082 47.668884 L 475.434082 40.398834 L 482.706543 40.398834 L 482.706543 47.668884 Z"/>
        <path id="path154" fill="#ffffff" stroke="none" d="M 504.553894 47.668884 L 497.265503 47.668884 L 497.265503 40.398834 L 504.553894 40.398834 L 504.553894 47.668884 Z"/>
        <path id="path155" fill="#ffffff" stroke="none" d="M 533.657288 47.668884 L 526.384827 47.668884 L 526.384827 40.398834 L 533.657288 40.398834 L 533.657288 47.668884 Z"/>
        <path id="path156" fill="#ffffff" stroke="none" d="M 562.775208 47.668884 L 555.50415 47.668884 L 555.50415 40.398834 L 562.775208 40.398834 L 562.775208 47.668884 Z"/>
        <path id="path157" fill="#ffffff" stroke="none" d="M 497.265503 40.398834 L 489.993042 40.398834 L 489.993042 33.126862 L 497.265503 33.126862 L 497.265503 40.398834 Z"/>
        <path id="path158" fill="#ffffff" stroke="none" d="M 540.943787 40.398834 L 533.657288 40.398834 L 533.657288 33.126862 L 540.943787 33.126862 L 540.943787 40.398834 Z"/>
        <path id="path159" fill="#ffffff" stroke="none" d="M 1345.666992 452.05722 L 1345.666992 355.759033 L 1333.077759 355.759033 L 1333.077759 371.687622 L 1313.295776 371.687622 L 1313.295776 351.414764 L 1329.481445 351.414764 L 1329.481445 335.304504 L 1381.634644 335.304504 L 1381.634644 351.414764 L 1398 351.414764 L 1398 371.687622 L 1378.037354 371.687622 L 1378.037354 355.759033 L 1365.449097 355.759033 L 1365.449097 452.05722 L 1345.666992 452.05722 Z"/>
        <path id="path160" fill="#ffffff" stroke="none" d="M 1232.046875 452.05722 L 1232.046875 435.94696 L 1215.862183 435.94696 L 1215.862183 351.414764 L 1232.046875 351.414764 L 1232.046875 335.304504 L 1284.200195 335.304504 L 1284.200195 351.414764 L 1300.56543 351.414764 L 1300.56543 371.687622 L 1280.60376 371.687622 L 1280.60376 355.759033 L 1235.644287 355.759033 L 1235.644287 383.634308 L 1268.014526 383.634308 L 1268.014526 403.727417 L 1235.644287 403.727417 L 1235.644287 431.783417 L 1280.60376 431.783417 L 1280.60376 415.492462 L 1300.56543 415.492462 L 1300.56543 435.94696 L 1284.200195 435.94696 L 1284.200195 452.05722 L 1232.046875 452.05722 Z"/>
        <path id="path161" fill="#ffffff" stroke="none" d="M 1118.444092 452.05722 L 1118.444092 335.304504 L 1138.226196 335.304504 L 1138.226196 351.414764 L 1154.232056 351.414764 L 1154.232056 367.343353 L 1170.597412 367.343353 L 1170.597412 415.492462 L 1183.185669 415.492462 L 1183.185669 335.304504 L 1203.147339 335.304504 L 1203.147339 452.05722 L 1183.185669 452.05722 L 1183.185669 435.94696 L 1167.17981 435.94696 L 1167.17981 419.836731 L 1150.814453 419.836731 L 1150.814453 371.687622 L 1138.226196 371.687622 L 1138.226196 452.05722 L 1118.444092 452.05722 Z"/>
        <path id="path162" fill="#ffffff" stroke="none" d="M 1085.800415 449.838715 L 1085.800415 429.385193 L 1105.583374 429.385193 L 1105.583374 449.838715 L 1085.800415 449.838715 Z"/>
        <path id="path163" fill="#ffffff" stroke="none" d="M 1004.55249 452.05722 L 1004.55249 435.94696 L 988.366882 435.94696 L 988.366882 351.414764 L 1004.55249 351.414764 L 1004.55249 335.304504 L 1056.705688 335.304504 L 1056.705688 351.414764 L 1073.070068 351.414764 L 1073.070068 387.617188 L 1053.108398 387.617188 L 1053.108398 355.759033 L 1008.148865 355.759033 L 1008.148865 431.783417 L 1053.108398 431.783417 L 1053.108398 399.382202 L 1073.070068 399.382202 L 1073.070068 435.94696 L 1056.705688 435.94696 L 1056.705688 452.05722 L 1004.55249 452.05722 Z"/>
        <path id="path164" fill="#ffffff" stroke="none" d="M 926.917358 452.05722 L 926.917358 431.783417 L 943.102966 431.783417 L 943.102966 355.759033 L 926.917358 355.759033 L 926.917358 335.304504 L 979.070618 335.304504 L 979.070618 355.759033 L 962.705261 355.759033 L 962.705261 431.783417 L 979.070618 431.783417 L 979.070618 452.05722 L 926.917358 452.05722 Z"/>
        <path id="path165" fill="#ffffff" stroke="none" d="M 845.668457 452.05722 L 845.668457 435.94696 L 829.483826 435.94696 L 829.483826 415.492462 L 849.265808 415.492462 L 849.265808 431.783417 L 894.225342 431.783417 L 894.225342 403.727417 L 845.668457 403.727417 L 845.668457 387.617188 L 829.483826 387.617188 L 829.483826 351.414764 L 845.668457 351.414764 L 845.668457 335.304504 L 897.821716 335.304504 L 897.821716 351.414764 L 914.187012 351.414764 L 914.187012 371.687622 L 894.225342 371.687622 L 894.225342 355.759033 L 849.265808 355.759033 L 849.265808 383.634308 L 897.821716 383.634308 L 897.821716 399.382202 L 914.187012 399.382202 L 914.187012 435.94696 L 897.821716 435.94696 L 897.821716 452.05722 L 845.668457 452.05722 Z"/>
        <path id="path166" fill="#ffffff" stroke="none" d="M 748.250366 452.05722 L 748.250366 435.94696 L 732.065735 435.94696 L 732.065735 335.304504 L 751.847717 335.304504 L 751.847717 431.783417 L 796.807251 431.783417 L 796.807251 335.304504 L 816.768921 335.304504 L 816.768921 435.94696 L 800.403625 435.94696 L 800.403625 452.05722 L 748.250366 452.05722 Z"/>
        <path id="path167" fill="#ffffff" stroke="none" d="M 602.31842 452.05722 L 602.31842 351.414764 L 618.504028 351.414764 L 618.504028 335.304504 L 638.106323 335.304504 L 638.106323 351.414764 L 654.471619 351.414764 L 654.471619 383.634308 L 667.059937 383.634308 L 667.059937 351.414764 L 683.425293 351.414764 L 683.425293 335.304504 L 703.207764 335.304504 L 703.207764 351.414764 L 719.213623 351.414764 L 719.213623 452.05722 L 699.610413 452.05722 L 699.610413 355.759033 L 687.022095 355.759033 L 687.022095 387.617188 L 670.656799 387.617188 L 670.656799 435.94696 L 651.054504 435.94696 L 651.054504 387.617188 L 634.689148 387.617188 L 634.689148 355.759033 L 622.100403 355.759033 L 622.100403 452.05722 L 602.31842 452.05722 Z"/>
        <path id="path168" fill="#ffffff" stroke="none" d="M 540.733643 452.05722 L 540.733643 387.617188 L 524.548462 387.617188 L 524.548462 371.687622 L 508.362854 371.687622 L 508.362854 335.304504 L 528.144836 335.304504 L 528.144836 367.343353 L 544.150757 367.343353 L 544.150757 383.634308 L 557.098938 383.634308 L 557.098938 367.343353 L 573.10437 367.343353 L 573.10437 335.304504 L 593.066589 335.304504 L 593.066589 371.687622 L 576.701233 371.687622 L 576.701233 387.617188 L 560.516113 387.617188 L 560.516113 452.05722 L 540.733643 452.05722 Z"/>
        <path id="path169" fill="#ffffff" stroke="none" d="M 427.130371 452.05722 L 427.130371 435.94696 L 410.944763 435.94696 L 410.944763 351.414764 L 427.130371 351.414764 L 427.130371 335.304504 L 479.28363 335.304504 L 479.28363 351.414764 L 495.648499 351.414764 L 495.648499 371.687622 L 475.686768 371.687622 L 475.686768 355.759033 L 430.727234 355.759033 L 430.727234 383.634308 L 463.097992 383.634308 L 463.097992 403.727417 L 430.727234 403.727417 L 430.727234 431.783417 L 475.686768 431.783417 L 475.686768 415.492462 L 495.648499 415.492462 L 495.648499 435.94696 L 479.28363 435.94696 L 479.28363 452.05722 L 427.130371 452.05722 Z"/>
        <path id="path170" fill="#ffffff" stroke="none" d="M 313.494781 452.05722 L 313.494781 335.304504 L 333.276764 335.304504 L 333.276764 351.414764 L 349.282684 351.414764 L 349.282684 367.343353 L 365.64801 367.343353 L 365.64801 415.492462 L 378.236298 415.492462 L 378.236298 335.304504 L 398.198517 335.304504 L 398.198517 452.05722 L 378.236298 452.05722 L 378.236298 435.94696 L 362.230896 435.94696 L 362.230896 419.836731 L 345.86554 419.836731 L 345.86554 371.687622 L 333.276764 371.687622 L 333.276764 452.05722 L 313.494781 452.05722 Z"/>
        <path id="path171" fill="#ffffff" stroke="none" d="M 216.081039 452.05722 L 216.081039 335.304504 L 268.233795 335.304504 L 268.233795 351.414764 L 284.419403 351.414764 L 284.419403 367.343353 L 300.78476 367.343353 L 300.78476 419.836731 L 284.419403 419.836731 L 284.419403 435.94696 L 268.233795 435.94696 L 268.233795 452.05722 L 216.081039 452.05722 Z M 235.863037 431.783417 L 264.817139 431.783417 L 264.817139 415.492462 L 280.82254 415.492462 L 280.82254 371.687622 L 264.817139 371.687622 L 264.817139 355.759033 L 235.863037 355.759033 L 235.863037 431.783417 Z"/>
        <path id="path172" fill="#ffffff" stroke="none" d="M 150.997467 452.05722 L 150.997467 387.617188 L 134.812332 387.617188 L 134.812332 371.687622 L 118.626709 371.687622 L 118.626709 335.304504 L 138.408707 335.304504 L 138.408707 367.343353 L 154.414597 367.343353 L 154.414597 383.634308 L 167.362808 383.634308 L 167.362808 367.343353 L 183.368225 367.343353 L 183.368225 335.304504 L 203.330429 335.304504 L 203.330429 371.687622 L 186.965088 371.687622 L 186.965088 387.617188 L 170.779953 387.617188 L 170.779953 452.05722 L 150.997467 452.05722 Z"/>
        <path id="path173" fill="#ffffff" stroke="none" d="M 42.825512 452.05722 L 42.825512 435.94696 L 26.639893 435.94696 L 26.639893 415.492462 L 46.42189 415.492462 L 46.42189 431.783417 L 91.381409 431.783417 L 91.381409 403.727417 L 42.825512 403.727417 L 42.825512 387.617188 L 26.639893 387.617188 L 26.639893 351.414764 L 42.825512 351.414764 L 42.825512 335.304504 L 94.978271 335.304504 L 94.978271 351.414764 L 111.343613 351.414764 L 111.343613 371.687622 L 91.381409 371.687622 L 91.381409 355.759033 L 46.42189 355.759033 L 46.42189 383.634308 L 94.978271 383.634308 L 94.978271 399.382202 L 111.343613 399.382202 L 111.343613 435.94696 L 94.978271 435.94696 L 94.978271 452.05722 L 42.825512 452.05722 Z"/>
    </g>
</svg>
